<svg data-v-c27a6fe6="" xmlns="http://www.w3.org/2000/svg" fill="rgba(255,255,255,1)" preserveAspectRatio="xMinYMin meet" viewBox="0 0 12.756 15.029" class="v-icon__component theme--light"><g data-v-c27a6fe6="" id="그룹_2744" data-name="그룹 2744" transform="matrix(-0.174, -0.985, 0.985, -0.174, 0.518, 15.029)"><path data-v-c27a6fe6="" id="패스_1686" data-name="패스 1686" d="M1.629,3.007A.259.259,0,0,1,1.4,2.873L.032.384A.259.259,0,0,1,.487.134L1.856,2.623a.259.259,0,0,1-.227.384Z" transform="translate(1.928 2.244)" fill="#fff"></path><path data-v-c27a6fe6="" id="패스_1687" data-name="패스 1687" d="M.26,2.409a.259.259,0,0,1-.249-.333L.574.185a.259.259,0,0,1,.5.148L.508,2.224A.259.259,0,0,1,.26,2.409Z" transform="translate(2.613 7.739)" fill="#fff"></path><path data-v-c27a6fe6="" id="패스_1688" data-name="패스 1688" d="M4.906,1.374a.251.251,0,0,1-.047,0L.212.514A.259.259,0,0,1,.306,0L4.953.86a.259.259,0,0,1-.047.514Z" transform="translate(5.958 6.8)" fill="#fff"></path><path data-v-c27a6fe6="" id="패스_1689" data-name="패스 1689" d="M2.251,4.537h0a2.307,2.307,0,0,1-.308-.044A2.258,2.258,0,0,1,2.247,0a2.281,2.281,0,0,1,.308.018,2.271,2.271,0,0,1-.3,4.519Zm0-3.654A1.36,1.36,0,0,0,2.064,3.59a1.386,1.386,0,0,0,.187.013A1.36,1.36,0,0,0,2.434.9,1.387,1.387,0,0,0,2.247.883Z" transform="translate(2.242 4.292)" fill="#fff"></path><path data-v-c27a6fe6="" id="패스_1690" data-name="패스 1690" d="M1.492,2.98h0a1.5,1.5,0,0,1-.2-.014A1.49,1.49,0,0,1,.014,1.287,1.488,1.488,0,0,1,1.693.014,1.49,1.49,0,0,1,2.966,1.693,1.5,1.5,0,0,1,1.492,2.98Zm0-2.462a.971.971,0,0,0-.131,1.934.989.989,0,0,0,.134.009A.971.971,0,0,0,1.622.528,1.007,1.007,0,0,0,1.489.518Z" transform="translate(0)" fill="#fff"></path><path data-v-c27a6fe6="" id="패스_1691" data-name="패스 1691" d="M1.492,2.98h0A1.49,1.49,0,1,1,2.966,1.693,1.488,1.488,0,0,1,1.492,2.98Zm0-2.461a.971.971,0,0,0-.131,1.934.992.992,0,0,0,.134.009.971.971,0,0,0,0-1.943Z" transform="translate(1.037 9.63)" fill="#fff"></path><path data-v-c27a6fe6="" id="패스_1692" data-name="패스 1692" d="M1.492,2.98h0a1.5,1.5,0,0,1-.2-.014A1.49,1.49,0,0,1,.014,1.287,1.488,1.488,0,0,1,1.693.014,1.49,1.49,0,0,1,2.966,1.693,1.5,1.5,0,0,1,1.492,2.98Zm0-2.462a.971.971,0,0,0-.131,1.934.991.991,0,0,0,.134.009.974.974,0,0,0,.961-.839A.971.971,0,0,0,1.622.528.99.99,0,0,0,1.489.519Z" transform="translate(10.593 6.593)" fill="#fff"></path></g></svg>