<svg data-v-7ec7ae8b="" xmlns="http://www.w3.org/2000/svg" fill="rgba(255,255,255,1)" preserveAspectRatio="xMinYMin meet" viewBox="0 0 16.413 15.033" class="v-icon__component theme--light"><g data-v-7ec7ae8b="" id="그룹_2716"><g data-v-7ec7ae8b="" id="그룹_590" transform="translate(6.812)"><g data-v-7ec7ae8b="" id="그룹_587"><g data-v-7ec7ae8b="" id="그룹_586" transform="translate(0 5.991)"><path data-v-7ec7ae8b="" id="패스_1693" d="M1415.092 166v3.223a2.56 2.56 0 0 1-2.412 2.667h-.05a2.745 2.745 0 0 1-2.63-2.667V166" transform="translate(-1409.7 -166)" class="cls-1"></path><path data-v-7ec7ae8b="" id="패스_1694" d="M1409.98 172.19h-.05a2.99 2.99 0 0 1-2.93-2.967V166h.7v3.223a2.311 2.311 0 0 0 2.231 2.268h.05a2.219 2.219 0 0 0 2.112-2.268V166h.7v3.223a2.891 2.891 0 0 1-2.813 2.967z" transform="translate(-1407 -166)" class="cls-1"></path></g><path data-v-7ec7ae8b="" id="패스_1695" d="M1412.791 112.091h-.7v-3.267a2.094 2.094 0 0 0-2.112-2.125h-.05a2.187 2.187 0 0 0-2.231 2.125v3.267h-.7v-3.267a2.886 2.886 0 0 1 2.93-2.824h.05a2.786 2.786 0 0 1 2.811 2.824z" transform="translate(-1407 -106)" class="cls-1"></path></g></g><g data-v-7ec7ae8b="" id="그룹_591" transform="rotate(180 2.895 6.09)"><g data-v-7ec7ae8b="" id="그룹_587-2"><g data-v-7ec7ae8b="" id="그룹_586-2" transform="translate(0 5.991)"><path data-v-7ec7ae8b="" id="패스_1693-2" d="M5.092 0v3.223A2.56 2.56 0 0 1 2.68 5.891h-.05A2.745 2.745 0 0 1 0 3.223V0" transform="translate(.299)" class="cls-1"></path><path data-v-7ec7ae8b="" id="패스_1694-2" d="M2.98 6.19h-.05A2.99 2.99 0 0 1 0 3.223V0h.7v3.223a2.311 2.311 0 0 0 2.23 2.269h.05a2.219 2.219 0 0 0 2.112-2.269V0h.7v3.223A2.891 2.891 0 0 1 2.98 6.19z" class="cls-1"></path></g><path data-v-7ec7ae8b="" id="패스_1695-2" d="M5.791 6.091h-.7V2.824A2.094 2.094 0 0 0 2.98.7h-.05A2.187 2.187 0 0 0 .7 2.824v3.267H0V2.824A2.886 2.886 0 0 1 2.93 0h.05a2.786 2.786 0 0 1 2.811 2.824z" class="cls-1"></path></g></g></g></svg>