<svg data-v-644d852a="" xmlns="http://www.w3.org/2000/svg" fill="rgba(255,255,255,1)" preserveAspectRatio="xMinYMin meet" viewBox="0 0 10.211 13.903" class="v-icon__component theme--light"><g data-v-644d852a="" id="그룹_2714"><path data-v-644d852a="" id="패스_1677" d="M917.574 1207l2.037 3.946s.158.276.11.432-.2.138-.382.138h-6.36c-.18 0-.339.012-.382-.133s.11-.441.11-.441l2.037-3.941z" transform="translate(-910.998 -1198.741)" class="cls-1"></path><path data-v-644d852a="" id="패스_1678" d="M905.017 1146.689h-8.45a.873.873 0 0 1-.858-.5.835.835 0 0 1 .138-.692l3.247-6.264v-1.957a.326.326 0 0 1 .343-.275h2.728a.3.3 0 0 1 .316.275v1.957l3.241 6.273a.831.831 0 0 1 .135.68.844.844 0 0 1-.84.503zm-5.265-9.167v1.773a.213.213 0 0 1-.029.119l-3.289 6.328s0 .007-.006.011a.409.409 0 0 0-.088.29.218.218 0 0 0 .227.125h8.45a.2.2 0 0 0 .211-.129.441.441 0 0 0-.083-.3l-3.281-6.333a.222.222 0 0 1-.042-.116v-1.773z" transform="translate(-895.676 -1132.786)" class="cls-2"></path><path data-v-644d852a="" id="패스_1679" d="M926.036 1136.129h-4.327a.564.564 0 0 1 0-1.129h4.327a.564.564 0 0 1 0 1.129z" transform="translate(-918.748 -1131.35)" class="cls-2"></path><path data-v-644d852a="" id="패스_1683" d="M943.687 1105.461a.794.794 0 1 1-.794-.794.794.794 0 0 1 .794.794z" transform="translate(-937.733 -1103.024)" class="cls-1"></path><path data-v-644d852a="" id="패스_1684" d="M930.166 1087.734a.533.533 0 1 1-.533-.533.533.533 0 0 1 .533.533z" transform="translate(-926.144 -1086.166)" class="cls-1"></path><path data-v-644d852a="" id="패스_1685" d="M957.981 1076.642a.441.441 0 1 1-.441-.441.441.441 0 0 1 .441.441z" transform="translate(-951.51 -1076.201)" class="cls-1"></path></g></svg>