<svg data-v-435b0584="" fill="rgba(255,255,255,1)" xmlns="http://www.w3.org/2000/svg" width="13.776" height="10.596" viewBox="0 0 13.776 10.596" class="v-icon__component theme--light"><defs data-v-435b0584=""><clipPath data-v-435b0584="" id="clip-path"><path data-v-435b0584="" id="사각형_9335" data-name="사각형 9335" d="M0 0h13.776v10.596H0z" style="fill: none;"></path></clipPath></defs><g data-v-435b0584="" id="그룹_89025" data-name="그룹 89025" transform="translate(1 -1)"><g data-v-435b0584="" id="그룹_89024" data-name="그룹 89024" transform="translate(-1 1)" style="clip-path: url(&quot;#clip-path&quot;);"><path data-v-435b0584="" id="패스_67965" data-name="패스 67965" d="M135.028 121.518h7.587a.018.018 0 0 0 .018-.018v-6.607a.018.018 0 0 0-.018-.018h-7.587a.958.958 0 0 0-.958.958v4.726a.958.958 0 0 0 .958.959z" transform="translate(-129.771 -112.876)" class="cls-3"></path><path data-v-435b0584="" id="패스_67966" data-name="패스 67966" d="M22.6 152.663h1.337a.021.021 0 0 0 .021-.021V147.7a.021.021 0 0 0-.021-.021H22.6a.8.8 0 0 0-.795.795v3.394a.8.8 0 0 0 .795.795z" transform="translate(-20.347 -144.851)" class="cls-3"></path><path data-v-435b0584="" id="사각형_9332" data-name="사각형 9332" transform="translate(3.611 3.752)" d="M0 0h.692v3.169H0z" class="cls-3"></path><path data-v-435b0584="" id="사각형_9333" data-name="사각형 9333" transform="translate(6.725 8.643)" d="M0 0h4.045v.693H0z" class="cls-3"></path><path data-v-435b0584="" id="패스_67967" data-name="패스 67967" d="M256.285 72.919v-.681a.408.408 0 0 0-.408-.408h-2.041a.408.408 0 0 0-.408.408v.681z" transform="translate(-246.109 -70.92)" class="cls-3"></path><path data-v-435b0584="" id="패스_67968" data-name="패스 67968" d="M.795 218.535h0a.545.545 0 0 0-.545.545v.34a.545.545 0 0 0 .545.545z" transform="translate(.663 -213.913)" class="cls-3"></path><path data-v-435b0584="" id="선_209" data-name="선 209" transform="translate(5.752 3.66)" d="M5.851 0H0" class="cls-3"></path><path data-v-435b0584="" id="선_210" data-name="선 210" transform="translate(5.752 4.767)" d="M5.851 0H0" class="cls-3"></path><path data-v-435b0584="" id="선_211" data-name="선 211" transform="translate(5.752 5.874)" d="M5.851 0H0" class="cls-3"></path><path data-v-435b0584="" id="선_212" data-name="선 212" transform="translate(5.752 6.982)" d="M5.851 0H0" class="cls-3"></path><path data-v-435b0584="" id="패스_67969" data-name="패스 67969" d="M5.342 11.293h5.808" transform="translate(.501 -1.957)" style="stroke: rgb(255, 255, 255); stroke-width: 0.5px; fill: none;"></path></g></g></svg>