<svg data-v-0bf973e6="" xmlns="http://www.w3.org/2000/svg" fill="rgba(255,255,255,1)" preserveAspectRatio="xMinYMin meet" viewBox="0 0 12.371 12.371" class="v-icon__component theme--light"><g data-v-0bf973e6="" id="그룹_2747" data-name="그룹 2747" opacity="0.998"><path data-v-0bf973e6="" id="패스_1699" data-name="패스 1699" d="M324.835,137.857a6.186,6.186,0,1,0-6.186-6.186A6.193,6.193,0,0,0,324.835,137.857Zm0-11.954a5.768,5.768,0,1,1-5.768,5.768A5.775,5.775,0,0,1,324.835,125.9Z" transform="translate(-318.649 -125.486)" fill="#fff"></path><path data-v-0bf973e6="" id="패스_1700" data-name="패스 1700" d="M331.381,144.982a4.434,4.434,0,0,0,2.321-8.211.209.209,0,0,0-.219.355,4.018,4.018,0,1,1-4.689.353v.719a.209.209,0,0,0,.417,0v-1.075a.207.207,0,0,0-.192-.286h-.007l-.009,0-.009,0h-1.284a.209.209,0,0,0,0,.417h.7a4.433,4.433,0,0,0,2.967,7.727Z" transform="translate(-325.195 -134.364)" fill="#fff"></path><path data-v-0bf973e6="" id="패스_1701" data-name="패스 1701" d="M337.7,139.192a2.709,2.709,0,0,0,2.742-2.894c0-2.033-2.48-4.845-2.586-4.964a.208.208,0,0,0-.309,0c-.106.115-2.588,2.831-2.588,4.966A2.709,2.709,0,0,0,337.7,139.192Zm0-7.4c.541.648,2.327,2.908,2.327,4.507a2.329,2.329,0,1,1-4.649,0C335.375,134.618,337.153,132.424,337.7,131.791Z" transform="translate(-331.514 -130.044)" fill="#fff"></path><path data-v-0bf973e6="" id="패스_1702" data-name="패스 1702" d="M348.905,140.74a.209.209,0,1,0,.355-.22c-.057-.092-.112-.179-.164-.258a.209.209,0,1,0-.349.228C348.8,140.567,348.85,140.65,348.905,140.74Z" transform="translate(-342.364 -137.067)" fill="#fff"></path><path data-v-0bf973e6="" id="패스_1703" data-name="패스 1703" d="M351.157,144.545a4.523,4.523,0,0,1,.638,1.954.209.209,0,1,0,.417,0,4.841,4.841,0,0,0-.687-2.151.209.209,0,0,0-.368.2Z" transform="translate(-344.273 -140.278)" fill="#fff"></path><path data-v-0bf973e6="" id="패스_1704" data-name="패스 1704" d="M341.977,159.21a.209.209,0,1,0,0-.417,1.2,1.2,0,0,1-1.2-.724.209.209,0,0,0-.383.165A1.609,1.609,0,0,0,341.977,159.21Z" transform="translate(-335.792 -151.089)" fill="#fff"></path></g></svg>