<svg data-v-66ab77d5="" xmlns="http://www.w3.org/2000/svg" fill="rgba(255,255,255,1)" preserveAspectRatio="xMinYMin meet" viewBox="0 0 11.5 12.534" class="v-icon__component theme--light"><g data-v-66ab77d5="" id="그룹_2719" data-name="그룹 2719" opacity="0.998"><path data-v-66ab77d5="" id="패스_1705" data-name="패스 1705" d="M505.51,71.555l-.894-.516V69.545a.239.239,0,1,0-.478,0v1.494l-2.258,1.3-2.258-1.3V68.432L502,67.059a.247.247,0,0,0,.024-.021.255.255,0,0,0,.034-.03.247.247,0,0,0,.026-.038.244.244,0,0,0,.02-.041c0-.006.006-.01.007-.015a.24.24,0,0,0,0-.032.2.2,0,0,0,.006-.03v-1.17a.239.239,0,1,0-.478,0v1.032l-2.258,1.3-.895-.516a.239.239,0,0,0-.35.269.237.237,0,0,0,.111.145l.894.516v2.607l-.894.516a.239.239,0,0,0-.088.326.239.239,0,0,0,.327.088l.894-.516,2.258,1.3v1.032a.239.239,0,1,0,.478,0V72.757l2.258-1.3.894.516a.242.242,0,0,0,.119.032.239.239,0,0,0,.207-.12.239.239,0,0,0-.088-.327Zm-7.1.317h0v0Zm3.474,2.037Z" transform="translate(-498.13 -61.495)" fill="#fff"></path><path data-v-66ab77d5="" id="패스_1706" data-name="패스 1706" d="M520.787,54.469V52.245a.744.744,0,1,0-.713-1.276l-1.964-1.134a.736.736,0,0,0,.015-.146.747.747,0,1,0-1.493,0,.738.738,0,0,0,.015.146l-1.964,1.134a.739.739,0,0,0-.473-.174.745.745,0,0,0-.239,1.45v2.224a.744.744,0,1,0,.725,1.266l1.952,1.127a.747.747,0,1,0,1.463,0l1.952-1.127a.739.739,0,0,0,.486.184.745.745,0,0,0,.239-1.45Zm-5.847.855a.737.737,0,0,0,.016-.151.745.745,0,0,0-.507-.7V52.245a.735.735,0,0,0,.487-.87l1.953-1.128a.733.733,0,0,0,.979,0l1.954,1.128a.735.735,0,0,0,.487.87v2.224a.745.745,0,0,0-.507.7.734.734,0,0,0,.016.151l-1.949,1.125a.733.733,0,0,0-.979,0Zm2.438-5.368a.268.268,0,1,1,.268-.268A.268.268,0,0,1,517.378,49.957Zm-2.9,1.585a.265.265,0,0,1-.225.259.112.112,0,0,0-.086,0,.265.265,0,0,1-.225-.259.268.268,0,1,1,.536,0Zm-.268,3.364a.268.268,0,1,1-.268.268A.268.268,0,0,1,514.209,54.905Zm6.339.536a.268.268,0,1,1,.268-.268A.268.268,0,0,1,520.548,55.441Zm-3.17,1.3a.268.268,0,1,1-.268.268A.269.269,0,0,1,517.378,56.74Zm3.17-4.931a.268.268,0,1,1,.268-.268A.268.268,0,0,1,520.548,51.809Z" transform="translate(-509.794 -48.942)" fill="#fff"></path></g></svg>