<svg xmlns="http://www.w3.org/2000/svg" width="19.867" height="21.65" viewBox="0 0 19.867 21.65">
  <g id="그룹_35" data-name="그룹 35" transform="translate(-498.489 -49.317)">
    <g id="그룹_35-2" data-name="그룹 35" transform="translate(500.394 58.35)">
      <path id="패스_81" data-name="패스 81" d="M507.421,81.288a.211.211,0,0,1-.1-.028l-4.347-2.51a.208.208,0,0,1-.1-.18V73.551a.21.21,0,0,1,.1-.18l4.347-2.51a.208.208,0,0,1,.208.361l-4.243,2.449v4.779l4.139,2.389,4.139-2.389V75.729a.208.208,0,0,1,.416,0v2.841a.208.208,0,0,1-.1.18l-4.347,2.51A.212.212,0,0,1,507.421,81.288Z" transform="translate(-502.866 -70.833)" fill="#fff" stroke="#fff" stroke-miterlimit="10" stroke-width="0.25"/>
    </g>
    <g id="그룹_36" data-name="그룹 36" transform="translate(512.179 60.319)">
      <path id="패스_82" data-name="패스 82" d="M531.375,78.285a.208.208,0,0,1-.1-.389l3.993-2.306a.208.208,0,0,1,.208.361l-3.993,2.305A.21.21,0,0,1,531.375,78.285Z" transform="translate(-531.167 -75.563)" fill="#fff" stroke="#fff" stroke-miterlimit="10" stroke-width="0.25"/>
    </g>
    <g id="그룹_37" data-name="그룹 37" transform="translate(505.898 54.402)">
      <path id="패스_83" data-name="패스 83" d="M516.291,66.326a.208.208,0,0,1-.208-.208V61.562a.208.208,0,0,1,.416,0v4.556A.208.208,0,0,1,516.291,66.326Z" transform="translate(-516.083 -61.354)" fill="#fff" stroke="#fff" stroke-miterlimit="10" stroke-width="0.25"/>
    </g>
    <g id="그룹_38" data-name="그룹 38" transform="translate(512.179 50.766)">
      <path id="패스_84" data-name="패스 84" d="M535.382,55.352a.21.21,0,0,1-.1-.028l-4.008-2.314a.208.208,0,1,1,.208-.361l4.008,2.314a.208.208,0,0,1-.1.389Z" transform="translate(-531.166 -52.622)" fill="#fff" stroke="#fff" stroke-miterlimit="10" stroke-width="0.25"/>
    </g>
    <g id="그룹_39" data-name="그룹 39" transform="translate(506.641 50.766)">
      <path id="패스_85" data-name="패스 85" d="M518.077,55.353a.208.208,0,0,1-.1-.389l4.009-2.314a.208.208,0,1,1,.208.361l-4.009,2.314A.206.206,0,0,1,518.077,55.353Z" transform="translate(-517.869 -52.622)" fill="#fff" stroke="#fff" stroke-miterlimit="10" stroke-width="0.25"/>
    </g>
    <g id="그룹_40" data-name="그룹 40" transform="translate(505.898 54.433)">
      <path id="패스_86" data-name="패스 86" d="M516.291,66.4a.208.208,0,0,1-.208-.208V61.635a.208.208,0,0,1,.416,0v4.556A.208.208,0,0,1,516.291,66.4Z" transform="translate(-516.083 -61.427)" fill="#fff" stroke="#fff" stroke-miterlimit="10" stroke-width="0.25"/>
    </g>
    <g id="그룹_41" data-name="그룹 41" transform="translate(516.931 54.433)">
      <path id="패스_87" data-name="패스 87" d="M542.788,66.4a.208.208,0,0,1-.208-.208V61.635a.208.208,0,0,1,.416,0v4.556A.208.208,0,0,1,542.788,66.4Z" transform="translate(-542.58 -61.427)" fill="#fff" stroke="#fff" stroke-miterlimit="10" stroke-width="0.25"/>
    </g>
    <g id="그룹_42" data-name="그룹 42" transform="translate(506.657 60.319)">
      <path id="패스_88" data-name="패스 88" d="M522.108,78.285a.206.206,0,0,1-.1-.028l-3.993-2.3a.208.208,0,0,1,.208-.361l3.993,2.305a.208.208,0,0,1-.1.389Z" transform="translate(-517.907 -75.563)" fill="#fff" stroke="#fff" stroke-miterlimit="10" stroke-width="0.25"/>
    </g>
    <g id="그룹_43" data-name="그룹 43" transform="translate(509.088 65.879)">
      <path id="패스_89" data-name="패스 89" d="M525.716,90.349a.211.211,0,0,1-.1-.028L523.848,89.3a.208.208,0,0,1,.208-.361l1.764,1.019a.208.208,0,0,1-.1.389Z" transform="translate(-523.744 -88.914)" fill="#fff" stroke="#fff" stroke-miterlimit="10" stroke-width="0.25"/>
    </g>
    <g id="그룹_44" data-name="그룹 44" transform="translate(498.63 59.841)">
      <path id="패스_90" data-name="패스 90" d="M500.6,75.85a.205.205,0,0,1-.1-.028L498.734,74.8a.208.208,0,0,1,.208-.361l1.764,1.019a.208.208,0,0,1-.1.389Z" transform="translate(-498.63 -74.415)" fill="#fff" stroke="#fff" stroke-miterlimit="10" stroke-width="0.25"/>
    </g>
    <g id="그룹_45" data-name="그룹 45" transform="translate(504.741 56.313)">
      <path id="패스_91" data-name="패스 91" d="M513.513,68.4a.208.208,0,0,1-.208-.208V66.15a.208.208,0,1,1,.416,0v2.037A.208.208,0,0,1,513.513,68.4Z" transform="translate(-513.305 -65.942)" fill="#fff" stroke="#fff" stroke-miterlimit="10" stroke-width="0.25"/>
    </g>
    <g id="그룹_46" data-name="그룹 46" transform="translate(504.741 68.389)">
      <path id="패스_92" data-name="패스 92" d="M513.513,97.395a.208.208,0,0,1-.208-.208V95.149a.208.208,0,1,1,.416,0v2.037A.208.208,0,0,1,513.513,97.395Z" transform="translate(-513.305 -94.941)" fill="#fff" stroke="#fff" stroke-miterlimit="10" stroke-width="0.25"/>
    </g>
    <g id="그룹_47" data-name="그룹 47" transform="translate(498.63 65.879)">
      <path id="패스_93" data-name="패스 93" d="M498.838,90.349a.208.208,0,0,1-.1-.389l1.764-1.019a.208.208,0,1,1,.208.361l-1.764,1.019A.21.21,0,0,1,498.838,90.349Z" transform="translate(-498.63 -88.914)" fill="#fff" stroke="#fff" stroke-miterlimit="10" stroke-width="0.25"/>
    </g>
    <g id="그룹_48" data-name="그룹 48" transform="translate(510.532 62.183)">
      <path id="패스_94" data-name="패스 94" d="M528.3,82.221a1.091,1.091,0,1,1,1.091-1.091A1.092,1.092,0,0,1,528.3,82.221Zm0-1.766a.675.675,0,1,0,.675.675A.675.675,0,0,0,528.3,80.455Z" transform="translate(-527.211 -80.039)" fill="#fff" stroke="#fff" stroke-miterlimit="10" stroke-width="0.25"/>
    </g>
    <g id="그룹_49" data-name="그룹 49" transform="translate(510.532 49.442)">
      <path id="패스_95" data-name="패스 95" d="M528.3,51.624a1.091,1.091,0,1,1,1.091-1.091A1.093,1.093,0,0,1,528.3,51.624Zm0-1.766a.675.675,0,1,0,.675.675A.675.675,0,0,0,528.3,49.858Z" transform="translate(-527.211 -49.442)" fill="#fff" stroke="#fff" stroke-miterlimit="10" stroke-width="0.25"/>
    </g>
    <g id="그룹_50" data-name="그룹 50" transform="translate(505.014 58.988)">
      <path id="패스_96" data-name="패스 96" d="M515.053,74.549a1.091,1.091,0,1,1,1.091-1.091A1.092,1.092,0,0,1,515.053,74.549Zm0-1.766a.675.675,0,1,0,.675.675A.676.676,0,0,0,515.053,72.783Z" transform="translate(-513.962 -72.367)" fill="#fff" stroke="#fff" stroke-miterlimit="10" stroke-width="0.25"/>
    </g>
    <g id="그룹_51" data-name="그룹 51" transform="translate(505.014 52.667)">
      <path id="패스_97" data-name="패스 97" d="M515.053,59.368a1.091,1.091,0,1,1,1.091-1.091A1.092,1.092,0,0,1,515.053,59.368Zm0-1.766a.675.675,0,1,0,.675.675A.676.676,0,0,0,515.053,57.6Z" transform="translate(-513.962 -57.186)" fill="#fff" stroke="#fff" stroke-miterlimit="10" stroke-width="0.25"/>
    </g>
    <g id="그룹_52" data-name="그룹 52" transform="translate(516.049 58.988)">
      <path id="패스_98" data-name="패스 98" d="M541.551,74.549a1.091,1.091,0,1,1,1.091-1.091A1.092,1.092,0,0,1,541.551,74.549Zm0-1.766a.675.675,0,1,0,.675.675A.675.675,0,0,0,541.551,72.783Z" transform="translate(-540.46 -72.367)" fill="#fff" stroke="#fff" stroke-miterlimit="10" stroke-width="0.25"/>
    </g>
    <g id="그룹_53" data-name="그룹 53" transform="translate(516.049 52.667)">
      <path id="패스_99" data-name="패스 99" d="M541.551,59.368a1.091,1.091,0,1,1,1.091-1.091A1.092,1.092,0,0,1,541.551,59.368Zm0-1.766a.675.675,0,1,0,.675.675A.675.675,0,0,0,541.551,57.6Z" transform="translate(-540.46 -57.186)" fill="#fff" stroke="#fff" stroke-miterlimit="10" stroke-width="0.25"/>
    </g>
  </g>
</svg>
