<svg xmlns="http://www.w3.org/2000/svg" width="20.239" height="17.418" viewBox="0 0 20.239 17.418">
  <g id="그룹_26" data-name="그룹 26" transform="translate(-124.122 -120.99)">
    <path id="패스_58" data-name="패스 58" d="M157.771,130.715a.3.3,0,1,0,.509-.315c-.082-.132-.161-.256-.235-.37a.3.3,0,1,0-.5.327C157.615,130.467,157.692,130.587,157.771,130.715Z" transform="translate(-23.259 -6.206)" fill="#fff"/>
    <path id="패스_59" data-name="패스 59" d="M159.951,134.4a7.894,7.894,0,0,1,.865,2.265.3.3,0,0,0,.295.248.305.305,0,0,0,.052,0,.3.3,0,0,0,.243-.346,8.471,8.471,0,0,0-.926-2.445.3.3,0,0,0-.528.282Z" transform="translate(-24.946 -9.042)" fill="#fff"/>
    <path id="패스_60" data-name="패스 60" d="M140.694,126.482a.3.3,0,0,0-.225-.1h-2.9a19.63,19.63,0,0,0-3.341-5.289.3.3,0,0,0-.444,0,18.1,18.1,0,0,0-3.366,5.293h-2.881a.3.3,0,0,0-.238.118l-3.114,4.112a.3.3,0,0,0,.239.48h2.763l-2.682,3.3a.3.3,0,0,0,.232.488h3l-2.35,3.046a.3.3,0,0,0,.237.482h16.752a.3.3,0,0,0,.237-.482l-2.35-3.046h3a.3.3,0,0,0,.232-.488l-2.682-3.3h3.242a.3.3,0,0,0,.225-.5Zm-6.7-4.735c.763.913,3.249,4.057,3.337,6.344a6.351,6.351,0,0,1-3.955.814,4.417,4.417,0,0,1-2.713-.8C130.74,125.712,133.229,122.64,134,121.747Zm7.77,16.062H126.235l2.26-2.93h11.013Zm.871-3.529H125.363l2.592-3.19h2.13a4.068,4.068,0,0,0,7.831,0h2.13ZM134,131.913a1.842,1.842,0,0,1-1.664-.823h4.957a3.474,3.474,0,0,1-6.585,0h.952a2.4,2.4,0,0,0,2.34,1.422.3.3,0,1,0,0-.6Zm-8.978-1.422,2.66-3.513h2.552a5.057,5.057,0,0,0-.168,1.236.3.3,0,0,0,.059.179c.66.883,2.473,1.07,3.222,1.11.182.009.369.014.559.014,1.536,0,3.231-.324,3.949-1.1a.3.3,0,0,0,.08-.2,4.835,4.835,0,0,0-.181-1.236h2.577l3.069,3.513Z" transform="translate(0)" fill="#fff"/>
  </g>
</svg>
