<svg xmlns="http://www.w3.org/2000/svg" width="19" height="19" viewBox="0 0 19 19">
  <g id="그룹_28" data-name="그룹 28" transform="translate(-318.649 -125.486)">
    <path id="패스_47" data-name="패스 47" d="M328.149,144.486a9.5,9.5,0,1,0-9.5-9.5A9.511,9.511,0,0,0,328.149,144.486Zm0-18.359a8.859,8.859,0,1,1-8.859,8.859A8.869,8.869,0,0,1,328.149,126.127Z" transform="translate(0 0)" fill="#fff"/>
    <path id="패스_48" data-name="패스 48" d="M333.757,149.4a6.809,6.809,0,0,0,3.564-12.611.32.32,0,0,0-.336.546,6.17,6.17,0,1,1-7.2.542v1.1a.32.32,0,1,0,.641,0v-1.65a.318.318,0,0,0-.3-.44h-.011s-.009,0-.014,0-.009,0-.014,0h-1.972a.32.32,0,0,0,0,.641H329.2a6.809,6.809,0,0,0,4.556,11.868Z" transform="translate(-5.607 -7.604)" fill="#fff"/>
    <path id="패스_49" data-name="패스 49" d="M339.169,143.44A4.161,4.161,0,0,0,343.38,139c0-3.122-3.809-7.441-3.972-7.623a.32.32,0,0,0-.475,0c-.162.176-3.975,4.348-3.975,7.628A4.161,4.161,0,0,0,339.169,143.44Zm0-11.366c.831,1,3.574,4.467,3.574,6.921a3.577,3.577,0,1,1-7.14,0C335.6,136.416,338.33,133.045,339.165,132.074Z" transform="translate(-11.02 -3.904)" fill="#fff"/>
    <path id="패스_50" data-name="패스 50" d="M349.009,141.047a.32.32,0,1,0,.544-.338c-.088-.142-.173-.274-.252-.4a.32.32,0,1,0-.537.35C348.842,140.781,348.924,140.909,349.009,141.047Z" transform="translate(-20.313 -9.92)" fill="#fff"/>
    <path id="패스_51" data-name="패스 51" d="M351.17,144.709a6.947,6.947,0,0,1,.98,3,.32.32,0,1,0,.641,0,7.434,7.434,0,0,0-1.055-3.3.32.32,0,1,0-.565.3Z" transform="translate(-21.948 -12.67)" fill="#fff"/>
    <path id="패스_52" data-name="패스 52" d="M342.833,159.89a.32.32,0,1,0,0-.641A1.841,1.841,0,0,1,341,158.137a.32.32,0,0,0-.589.254A2.471,2.471,0,0,0,342.833,159.89Z" transform="translate(-14.683 -21.931)" fill="#fff"/>
  </g>
</svg>
