<svg id="tools" xmlns="http://www.w3.org/2000/svg" width="19.98" height="20" viewBox="0 0 19.98 20">
  <path id="패스_15" data-name="패스 15" d="M137.364,145.123a.245.245,0,0,0,.245-.245,4.359,4.359,0,0,1,.878-2.64,4.419,4.419,0,0,1,2.23-1.562.245.245,0,0,0-.142-.468,4.913,4.913,0,0,0-2.479,1.736,4.845,4.845,0,0,0-.977,2.935A.245.245,0,0,0,137.364,145.123Z" transform="translate(-131.958 -134.917)" fill="#fff"/>
  <path id="패스_16" data-name="패스 16" d="M240.242,135.784h.023c.14-.013.282-.02.423-.02a.245.245,0,1,0,0-.489c-.156,0-.314.007-.469.022a.245.245,0,0,0,.023.488Z" transform="translate(-230.642 -130.195)" fill="#fff"/>
  <path id="패스_17" data-name="패스 17" d="M29.728,16a3.2,3.2,0,0,0,.521-3.478.245.245,0,0,0-.395-.07l-1.684,1.685-1.047-1.048,1.686-1.687a.245.245,0,0,0-.069-.394,3.162,3.162,0,0,0-3.573.634,3.131,3.131,0,0,0-.875,1.662,4.5,4.5,0,0,1-.119.5,7.847,7.847,0,0,0-1.318-.493l-.344-1.972a.245.245,0,0,0-.241-.2H18.956a.245.245,0,0,0-.241.2l-.345,1.973a7.635,7.635,0,0,0-1.413.564L15.283,12.68a.245.245,0,0,0-.315.026l-2.343,2.336a.245.245,0,0,0-.027.315l1.184,1.669a7.675,7.675,0,0,0-.618,1.411l-2.053.344a.245.245,0,0,0-.2.241v3.312a.245.245,0,0,0,.2.241l2.053.346a7.771,7.771,0,0,0,.592,1.394,3.811,3.811,0,0,1-.551.135A3.135,3.135,0,0,0,10.6,27.1a3.167,3.167,0,0,0,.261,1.8.245.245,0,0,0,.395.07l1.621-1.621L13.921,28.4,12.3,30.02a.245.245,0,0,0,.069.394,3.175,3.175,0,0,0,3.589-.618,3.137,3.137,0,0,0,.867-1.67,4.633,4.633,0,0,1,.153-.609,7.682,7.682,0,0,0,1.392.608l.347,2.054a.245.245,0,0,0,.241.2H22.27a.245.245,0,0,0,.241-.2l.346-2.054a7.8,7.8,0,0,0,1.414-.6L25.945,28.7a.245.245,0,0,0,.314-.027L28.6,26.325a.245.245,0,0,0,.027-.314l-1.185-1.676a7.534,7.534,0,0,0,.539-1.414l1.97-.346a.245.245,0,0,0,.2-.241V19.022a.245.245,0,0,0-.2-.241l-1.971-.345a7.73,7.73,0,0,0-.525-1.339,3.955,3.955,0,0,1,.461-.105A3.121,3.121,0,0,0,29.728,16ZM13.591,22.639a.245.245,0,0,0-.195-.175l-2-.337v-2.9l2-.335a.245.245,0,0,0,.2-.175,7.183,7.183,0,0,1,.693-1.589.245.245,0,0,0-.014-.262l-1.153-1.626,2.05-2.044,1.63,1.164a.245.245,0,0,0,.262.014,7.145,7.145,0,0,1,1.592-.637.245.245,0,0,0,.175-.193l.336-1.921h2.9l.335,1.921a.245.245,0,0,0,.175.194,7.676,7.676,0,0,1,1.43.528,4.216,4.216,0,0,1-.751,1.172,5.866,5.866,0,0,0-7.925,2.684.244.244,0,1,0,.436.216,5.375,5.375,0,0,1,7.127-2.53L21.24,17.462a3.278,3.278,0,0,0-3.847,3.849l-1.649,1.649a5.4,5.4,0,0,1-.464-2.988.243.243,0,0,0-.241-.274h0a.243.243,0,0,0-.242.212,5.88,5.88,0,0,0,.583,3.414,4.306,4.306,0,0,1-1.163.809,7.181,7.181,0,0,1-.624-1.495Zm4.236-1.763c0-.066-.007-.132-.007-.2a2.792,2.792,0,0,1,2.79-2.788c.065,0,.13,0,.195.007Zm9.726-2.159a.245.245,0,0,0,.193.175l1.919.336v2.9l-1.919.337a.245.245,0,0,0-.193.175,7.126,7.126,0,0,1-.611,1.592.245.245,0,0,0,.013.261l1.154,1.631-2.052,2.055-1.63-1.145a.245.245,0,0,0-.261-.013,7.288,7.288,0,0,1-1.592.677.245.245,0,0,0-.175.195l-.337,2h-2.9l-.338-2a.245.245,0,0,0-.175-.195,7.026,7.026,0,0,1-1.5-.641,4.144,4.144,0,0,1,.783-1.161,5.864,5.864,0,0,0,7.894-7.89,4.219,4.219,0,0,1,1.161-.742A7.362,7.362,0,0,1,27.553,18.717ZM23.389,20.44c.007.079.01.159.01.239a2.792,2.792,0,0,1-2.79,2.788c-.079,0-.157,0-.236-.01Zm-3.446,3.447a3.278,3.278,0,0,0,3.877-3.878l1.643-1.643A5.376,5.376,0,0,1,18.3,25.531Zm5.382-6.076-7.677,7.681a4.776,4.776,0,0,0-1.307,2.548,2.649,2.649,0,0,1-.731,1.411,2.68,2.68,0,0,1-2.7.652l1.532-1.533a.245.245,0,0,0,0-.346l-1.393-1.394a.245.245,0,0,0-.346,0l-1.528,1.528a2.706,2.706,0,0,1,.575-2.6,2.641,2.641,0,0,1,1.536-.828,4.593,4.593,0,0,0,2.5-1.317l7.677-7.681a4.768,4.768,0,0,0,1.315-2.54,2.643,2.643,0,0,1,.739-1.4,2.678,2.678,0,0,1,2.685-.667L26.6,12.92a.245.245,0,0,0,0,.346L28,14.66a.245.245,0,0,0,.346,0l1.591-1.592a2.707,2.707,0,0,1-.568,2.606,2.636,2.636,0,0,1-1.529.836A4.662,4.662,0,0,0,25.325,17.811Z" transform="translate(-10.563 -10.717)" fill="#fff"/>
  <path id="패스_18" data-name="패스 18" d="M164.675,156.6a.738.738,0,0,0-.526.218l-6.633,6.637a.743.743,0,1,0,1.051,1.05l6.634-6.637h0a.743.743,0,0,0-.525-1.268Zm.179.922-6.634,6.637a.254.254,0,1,1-.359-.359l6.634-6.637a.254.254,0,1,1,.359.359Z" transform="translate(-151.314 -150.651)" fill="#fff"/>
</svg>
