<svg xmlns="http://www.w3.org/2000/svg" width="20.225" height="21.126" viewBox="0 0 20.225 21.126">
  <g id="그룹_32" data-name="그룹 32" transform="translate(-406.713 -405.043)">
    <g id="그룹_31" data-name="그룹 31" transform="translate(406.713 405.043)">
      <path id="패스_75" data-name="패스 75" d="M423.864,405.043a3.078,3.078,0,0,0-3.075,3.075v.362H418.98v-.362a3.075,3.075,0,0,0-6.149,0v.359h-1.914a.589.589,0,0,1-.588-.588v-1.281a.3.3,0,0,0-.3-.3h-1.447a.3.3,0,0,0-.3.3v1.281a2.62,2.62,0,0,0,.455,1.479,2.666,2.666,0,0,0,.919.836,2.623,2.623,0,0,0,1.264.322h1.914v7.358h-2.065a2.659,2.659,0,0,0-.539.06l-.46-.783a2.074,2.074,0,0,0,.161-.246,1.01,1.01,0,0,0,.051-1.059c-.354-.549-1.3-.526-2.192.052s-1.3,1.428-.948,1.976a.966.966,0,0,0,.855.4,1.849,1.849,0,0,0,.334-.033l.509.867a2.621,2.621,0,0,0-.409,1.407V421.8a.3.3,0,0,0,.3.3h.3a4.654,4.654,0,0,0-1.129,2.382,1.607,1.607,0,1,0,3.209,0,4.533,4.533,0,0,0-1.124-2.382h.2a.3.3,0,0,0,.3-.3v-1.281a.589.589,0,0,1,.588-.588h2.065V421.8a3.075,3.075,0,1,0,6.149,0v-1.869h1.808V421.8a3.075,3.075,0,1,0,6.149,0V408.118A3.078,3.078,0,0,0,423.864,405.043Zm-16.517,12.513c-.12-.186.12-.723.769-1.143a1.969,1.969,0,0,1,1.013-.351.407.407,0,0,1,.345.12c.057.089.03.254-.073.441a2.114,2.114,0,0,1-.7.7C408.055,417.745,407.467,417.742,407.346,417.556Zm1.271.5a3.189,3.189,0,0,0,.415-.226,3.15,3.15,0,0,0,.3-.222l.493.839a1.179,1.179,0,0,1-.724.434Zm1.586,6.429a1,1,0,1,1-2,0,4.255,4.255,0,0,1,1.005-2.015A4.052,4.052,0,0,1,410.2,424.486Zm2.629-5.156h-2.065a1.192,1.192,0,0,0-1.191,1.191v.98h-.844v-.98a2.016,2.016,0,0,1,.278-1.015,1.8,1.8,0,0,0,1.432-.9.3.3,0,0,0,.033-.1,2.018,2.018,0,0,1,.291-.023h2.065Zm0-9.408h-1.914a2.02,2.02,0,0,1-.974-.249,2.055,2.055,0,0,1-.71-.646,2.022,2.022,0,0,1-.351-1.14v-.98h.844v.98a1.192,1.192,0,0,0,1.191,1.191h1.914Zm5.546,11.879a2.472,2.472,0,1,1-4.943,0V408.118a2.472,2.472,0,0,1,4.943,0Zm2.411-2.472H418.98v-.844h1.808Zm0-1.447H418.98v-7.355h1.808Zm0-7.958H418.98v-.844h1.808Zm5.546,11.876a2.472,2.472,0,1,1-4.943,0V408.118a2.472,2.472,0,0,1,4.943,0Z" transform="translate(-406.713 -405.043)" fill="#fff"/>
      <path id="패스_76" data-name="패스 76" d="M457.362,436.327a.3.3,0,0,0-.3.3v5.828a.3.3,0,1,0,.6,0v-5.828A.3.3,0,0,0,457.362,436.327Z" transform="translate(-441.699 -426.782)" fill="#fff"/>
      <path id="패스_77" data-name="패스 77" d="M459.05,409.292a2.052,2.052,0,0,0-1.989,2.1v2.065a.3.3,0,0,0,.6,0V411.4a1.449,1.449,0,0,1,1.386-1.5.3.3,0,0,0,0-.6Z" transform="translate(-441.699 -407.996)" fill="#fff"/>
      <path id="패스_78" data-name="패스 78" d="M431.281,436.327a.3.3,0,0,0-.3.3v5.828a.3.3,0,0,0,.6,0v-5.828A.3.3,0,0,0,431.281,436.327Z" transform="translate(-423.576 -426.782)" fill="#fff"/>
      <path id="패스_79" data-name="패스 79" d="M432.969,409.292a2.052,2.052,0,0,0-1.989,2.1v2.065a.3.3,0,0,0,.6,0V411.4a1.449,1.449,0,0,1,1.386-1.5.3.3,0,1,0,0-.6Z" transform="translate(-423.576 -407.996)" fill="#fff"/>
    </g>
    <path id="패스_80" data-name="패스 80" d="M413.13,465.617a2.169,2.169,0,0,0-.193.815.3.3,0,0,0,.6,0,1.614,1.614,0,0,1,.146-.583.3.3,0,1,0-.556-.232Z" transform="translate(-4.325 -41.963)" fill="#fff"/>
  </g>
</svg>
