<svg xmlns="http://www.w3.org/2000/svg" width="17.082" height="20.335" viewBox="0 0 17.082 20.335">
  <g id="flask" transform="translate(0)">
    <g id="그룹_12" data-name="그룹 12" transform="translate(0)">
      <g id="그룹_11" data-name="그룹 11">
        <path id="패스_40" data-name="패스 40" d="M57.809,17.544l-2.264-4.263a.3.3,0,1,0-.526.279l2.264,4.263a1.3,1.3,0,0,1-1.152,1.916H42.853A1.3,1.3,0,0,1,41.7,17.824l4.991-9.4a2.97,2.97,0,0,0,.346-1.387l0-4.85h4.9l0,4.85a2.97,2.97,0,0,0,.346,1.387l1.86,3.5a.3.3,0,0,0,.526-.279l-1.86-3.5a2.372,2.372,0,0,1-.276-1.108l0-4.85h.246a.52.52,0,0,0,.519-.519V.519A.52.52,0,0,0,52.785,0H46.2a.52.52,0,0,0-.519.519V1.667a.52.52,0,0,0,.519.519h.246l0,4.85a2.371,2.371,0,0,1-.276,1.108l-4.991,9.4a1.9,1.9,0,0,0,1.678,2.791H56.131a1.9,1.9,0,0,0,1.678-2.791ZM46.274,1.591V.6h6.435v1H46.274Z" transform="translate(-40.951)" fill="#fff"/>
      </g>
    </g>
    <g id="그룹_14" data-name="그룹 14" transform="translate(1.695 11.533)">
      <g id="그룹_13" data-name="그룹 13">
        <path id="패스_41" data-name="패스 41" d="M97.227,296.695l-2.621-5.008a.793.793,0,0,0-.952-.384,1.435,1.435,0,0,0-.242.11,1.45,1.45,0,0,0-2.705-.177,1.767,1.767,0,0,0-.231-.015,1.618,1.618,0,0,0-1.112.434,1.055,1.055,0,0,1-1.481,0,1.9,1.9,0,0,0-.584-.351.793.793,0,0,0-.952.384l-2.621,5.008a.83.83,0,0,0,.735,1.215h2.2a.3.3,0,1,0,0-.6h-2.2a.234.234,0,0,1-.208-.343l2.621-5.008a.193.193,0,0,1,.23-.1,1.361,1.361,0,0,1,.407.254,1.642,1.642,0,0,0,2.224,0,1.042,1.042,0,0,1,.741-.3c.035,0,.068,0,.1,0,0,.005,0,.011,0,.016a1.45,1.45,0,0,0,2.873.277,1.335,1.335,0,0,1,.4-.247.193.193,0,0,1,.23.1l2.621,5.008a.234.234,0,0,1-.208.343H88.55a.3.3,0,1,0,0,.6h7.942a.83.83,0,0,0,.735-1.215Zm-5.2-4a.854.854,0,1,1,.854-.854A.855.855,0,0,1,92.026,292.69Z" transform="translate(-83.631 -290.386)" fill="#fff"/>
      </g>
    </g>
    <g id="그룹_16" data-name="그룹 16" transform="translate(4.887 14.921)">
      <g id="그룹_15" data-name="그룹 15">
        <path id="패스_42" data-name="패스 42" d="M165.438,375.676a1.45,1.45,0,1,0,1.45,1.45A1.451,1.451,0,0,0,165.438,375.676Zm0,2.3a.854.854,0,1,1,.854-.854A.855.855,0,0,1,165.438,377.98Z" transform="translate(-163.988 -375.676)" fill="#fff"/>
      </g>
    </g>
    <g id="그룹_18" data-name="그룹 18" transform="translate(6.853 6.927)">
      <g id="그룹_17" data-name="그룹 17">
        <path id="패스_43" data-name="패스 43" d="M214.772,174.412a1.277,1.277,0,1,0,1.277,1.277A1.279,1.279,0,0,0,214.772,174.412Zm0,1.959a.682.682,0,1,1,.682-.682A.682.682,0,0,1,214.772,176.371Z" transform="translate(-213.495 -174.412)" fill="#fff"/>
      </g>
    </g>
  </g>
</svg>
