<svg xmlns="http://www.w3.org/2000/svg" width="23.468" height="16.475" viewBox="0 0 23.468 16.475">
  <g id="그룹_54" data-name="그룹 54" transform="translate(-118.157 -131.364)">
    <path id="패스_100" data-name="패스 100" d="M139.278,137.55a2.345,2.345,0,1,1-1.888,3.732l-2.056,1.189a3.706,3.706,0,1,1-6.474-.259l-1.917-1.1-1.917,1.1a3.651,3.651,0,0,1,.544,1.92,3.716,3.716,0,1,1-.917-2.435l1.974-1.135v-1.8a3.7,3.7,0,0,1-1.284-.345,3.9,3.9,0,0,1-.731-.462l.4-.493a3.079,3.079,0,0,0,1.932.683,3.073,3.073,0,1,0-1.072-5.956v0a2.945,2.945,0,0,0-.636.326l-.351-.528a3.827,3.827,0,0,1,.769-.392,3.652,3.652,0,0,1,1.29-.231,3.71,3.71,0,0,1,3.688,3.334l2.941-.506a2.345,2.345,0,1,1,3.931,1.98l.8,1.591A2.368,2.368,0,0,1,139.278,137.55Zm1.714,2.347a1.714,1.714,0,1,0-1.714,1.711A1.716,1.716,0,0,0,140.992,139.9ZM137.77,138.1l-.788-1.562a2.3,2.3,0,0,1-1.082.266,2.344,2.344,0,0,1-2.312-1.977l-2.951.509a3.7,3.7,0,0,1-3.378,3.419v1.8l1.977,1.135a3.693,3.693,0,0,1,5.766.237l2.084-1.205a2.33,2.33,0,0,1,.683-2.625Zm-.155-3.64a1.713,1.713,0,1,0-1.714,1.711A1.716,1.716,0,0,0,137.615,134.464Zm-2.518,9.669a3.073,3.073,0,1,0-3.074,3.074A3.078,3.078,0,0,0,135.1,144.132Zm-10.159,0a3.074,3.074,0,1,0-3.074,3.074A3.078,3.078,0,0,0,124.938,144.132Z" transform="translate(0)" fill="#fff"/>
    <path id="패스_101" data-name="패스 101" d="M147.6,138.011a.316.316,0,1,1-.633,0,1.716,1.716,0,0,0-1.714-1.714.316.316,0,1,1,0-.633A2.35,2.35,0,0,1,147.6,138.011Z" transform="translate(-18.31 -2.94)" fill="#fff"/>
    <path id="패스_102" data-name="패스 102" d="M135.1,136.394l.519.361a3.012,3.012,0,0,0-.465,1.044l-.617-.145A3.7,3.7,0,0,1,135.1,136.394Z" transform="translate(-11.199 -3.439)" fill="#fff"/>
    <path id="패스_103" data-name="패스 103" d="M135.33,145.526l-.55.313a3.677,3.677,0,0,1-.443-1.306l.626-.089A3.046,3.046,0,0,0,135.33,145.526Z" transform="translate(-11.063 -8.943)" fill="#fff"/>
  </g>
</svg>
