<svg id="rainfall" xmlns="http://www.w3.org/2000/svg" width="18.958" height="21.572" viewBox="0 0 18.958 21.572">
  <path id="패스_44" data-name="패스 44" d="M48.562,2.045H48.5a2.874,2.874,0,0,0-5.025-.928A5.272,5.272,0,0,0,40.264,0h-.039a5.342,5.342,0,0,0-3.916,1.713.316.316,0,0,0,.464.429A4.708,4.708,0,0,1,40.224.632h.035a4.572,4.572,0,0,1,3.306,1.406,4.679,4.679,0,0,1,.547,5.92.316.316,0,1,0,.523.355,5.329,5.329,0,0,0,.432-.768h1.771a1.077,1.077,0,0,1,1.077,1.108,1.1,1.1,0,0,1-1.1,1.046H42.333a2.169,2.169,0,0,0,.342-1.17,4.221,4.221,0,0,0-.9-2.2,6.412,6.412,0,0,0-.664-.781c-.343-.337-.5-.383-.621-.383s-.3.045-.646.382a5.858,5.858,0,0,0-.664.785,4.23,4.23,0,0,0-.872,2.2A2.169,2.169,0,0,0,38.65,9.7h-4.96a2.046,2.046,0,0,1,0-4.091h1.353a.488.488,0,0,0,.489-.47,4.643,4.643,0,0,1,.462-1.853.316.316,0,1,0-.569-.275,5.267,5.267,0,0,0-.518,1.966H33.689a2.678,2.678,0,0,0,0,5.355h5.572a2.177,2.177,0,0,0,2.46,0h5.094a1.732,1.732,0,0,0,1.731-1.66,1.709,1.709,0,0,0-1.708-1.758H45.31l.005-.018a5.355,5.355,0,0,0,.215-2.034h3.033a1.408,1.408,0,1,0,0-2.817ZM38.94,8.529a4.616,4.616,0,0,1,1.539-2.7,4.962,4.962,0,0,1,.857.972,3.33,3.33,0,0,1,.706,1.727,1.551,1.551,0,1,1-3.1,0ZM49.111,4a.772.772,0,0,1-.549.228H45.436a5.305,5.305,0,0,0-1.421-2.635l-.061-.061a2.242,2.242,0,0,1,3.993.89.316.316,0,0,0,.31.253h.305A.776.776,0,0,1,49.111,4Z" transform="translate(-31.012 0)" fill="#fff"/>
  <path id="패스_45" data-name="패스 45" d="M175.948,270.373H169.52a.449.449,0,0,0-.449.449v.782a.863.863,0,0,0,.287.642l.988.885a.127.127,0,0,1,.042.095v6.513a.816.816,0,0,0,.815.815h3.059a.816.816,0,0,0,.815-.815v-3.271a.316.316,0,0,0-.632,0v1.792h-3.425v-.9h.713a.316.316,0,0,0,0-.632h-.713v-.9h.713a.316.316,0,1,0,0-.632h-.713v-.9h.713a.316.316,0,0,0,0-.632h-.713v-.429a.76.76,0,0,0-.253-.565l-.988-.885a.231.231,0,0,1-.077-.172v-.6h6.061v.6a.231.231,0,0,1-.077.172l-.988.885a.76.76,0,0,0-.253.565v1.767a.316.316,0,1,0,.632,0v-1.767a.127.127,0,0,1,.042-.095l.988-.885a.863.863,0,0,0,.287-.643v-.782A.449.449,0,0,0,175.948,270.373Zm-1.5,8.519v.846a.183.183,0,0,1-.183.183H171.2a.183.183,0,0,1-.183-.183v-.846h3.425Z" transform="translate(-163.254 -258.982)" fill="#fff"/>
</svg>
