<svg xmlns="http://www.w3.org/2000/svg" width="20.215" height="20.215" viewBox="0 0 20.215 20.215">
  <g id="dashboard" transform="translate(-1 -1)">
    <path id="패스_27" data-name="패스 27" d="M19.259,11.932V5.539A2.281,2.281,0,1,0,16.65,3.282H1V16.324h9.8a5.213,5.213,0,1,0,8.461-4.392Zm-.326-10.28a1.63,1.63,0,1,1-1.63,1.63A1.632,1.632,0,0,1,18.933,1.652ZM1.652,3.934H16.746a2.281,2.281,0,0,0,.361.712L15.113,6.641a.944.944,0,0,0-.838,0l-.657-.657a.969.969,0,0,0,.1-.419.978.978,0,0,0-1.956,0,.962.962,0,0,0,.1.419L10.223,7.619a.969.969,0,0,0-.419-.1.978.978,0,1,0,.978.978.962.962,0,0,0-.1-.419l1.635-1.635a.945.945,0,0,0,.838,0l.657.657a.969.969,0,0,0-.1.419.978.978,0,1,0,1.956,0,.962.962,0,0,0-.1-.419l1.994-1.994a2.268,2.268,0,0,0,1.038.431v5.949a5.185,5.185,0,0,0-6.521,1.072V11.107H10.129V15.02h.747a5.23,5.23,0,0,0-.079.652H1.652Zm13.042,3.26a.326.326,0,1,1-.326.326A.326.326,0,0,1,14.694,7.195Zm-2.282-1.63a.326.326,0,1,1,.326.326A.326.326,0,0,1,12.412,5.565ZM10.129,8.5A.326.326,0,1,1,9.8,8.173.326.326,0,0,1,10.129,8.5ZM16,18.607A2.608,2.608,0,1,1,18.607,16,2.611,2.611,0,0,1,16,18.607Zm-4.565-5.128a5.177,5.177,0,0,0-.388.89h-.264V11.76h.652Zm4.239-2.028v1.3a3.254,3.254,0,0,0-2.644,4.582l-1.131.653a4.549,4.549,0,0,1,3.775-6.539ZM16,20.563a4.562,4.562,0,0,1-3.778-2.007l1.136-.656a3.25,3.25,0,0,0,5.285,0l1.136.656A4.562,4.562,0,0,1,16,20.563Zm4.1-2.573-1.131-.653a3.254,3.254,0,0,0-2.644-4.582v-1.3A4.549,4.549,0,0,1,20.1,17.989Z" transform="translate(0 0)" fill="#fff"/>
    <path id="패스_28" data-name="패스 28" d="M42.956,41a1.956,1.956,0,1,0,1.956,1.956A1.958,1.958,0,0,0,42.956,41Zm0,3.26a1.3,1.3,0,1,1,1.3-1.3A1.306,1.306,0,0,1,42.956,44.26Z" transform="translate(-26.958 -26.958)" fill="#fff"/>
    <path id="패스_29" data-name="패스 29" d="M5,12h.652v.652H5Z" transform="translate(-2.696 -7.413)" fill="#fff"/>
    <path id="패스_30" data-name="패스 30" d="M9,12h4.565v.652H9Z" transform="translate(-5.392 -7.413)" fill="#fff"/>
    <path id="패스_31" data-name="패스 31" d="M5,16h.652v.652H5Z" transform="translate(-2.696 -10.109)" fill="#fff"/>
    <path id="패스_32" data-name="패스 32" d="M9,16h4.565v.652H9Z" transform="translate(-5.392 -10.109)" fill="#fff"/>
    <path id="패스_33" data-name="패스 33" d="M5,20h.652v.652H5Z" transform="translate(-2.696 -12.805)" fill="#fff"/>
    <path id="패스_34" data-name="패스 34" d="M9,20h4.565v.652H9Z" transform="translate(-5.392 -12.805)" fill="#fff"/>
    <path id="패스_35" data-name="패스 35" d="M5,24h.652v.652H5Z" transform="translate(-2.696 -15.501)" fill="#fff"/>
    <path id="패스_36" data-name="패스 36" d="M9,24h4.565v.652H9Z" transform="translate(-5.392 -15.501)" fill="#fff"/>
    <path id="패스_37" data-name="패스 37" d="M5,37.26H6.956V34H5Zm.652-2.608H6.3v1.956H5.652Z" transform="translate(-2.696 -22.24)" fill="#fff"/>
    <path id="패스_38" data-name="패스 38" d="M13,38.608h1.956V36H13Zm.652-1.956H14.3v1.3h-.652Z" transform="translate(-8.087 -23.588)" fill="#fff"/>
    <path id="패스_39" data-name="패스 39" d="M21,33.217h1.956V28H21Zm.652-4.565H22.3v3.913h-.652Z" transform="translate(-13.479 -18.197)" fill="#fff"/>
  </g>
</svg>
