<svg data-v-55cd00a8=""  xmlns="http://www.w3.org/2000/svg" fill="rgba(255,255,255,1)" preserveAspectRatio="xMinYMin meet" viewBox="0 0 10.766 10.851" class="v-icon__component theme--light"><g data-v-55cd00a8="" id="그룹_2767" transform="translate(-2.126)"><path data-v-55cd00a8="" id="패스_22728" d="M67.792 126.38l-1.037-4.751a1.472 1.472 0 0 0-1.438-1.158h-1.956a1.476 1.476 0 0 0-1.444 1.183l-.945 4.727a1.094 1.094 0 0 0-.737 1.033v1.355h8.3v-1.355a1.094 1.094 0 0 0-.741-1.034zm-3.727-.058h-2.43l.908-4.542a.836.836 0 0 1 .818-.67h1.956a.839.839 0 0 1 .815.656l.994 4.557H64.7m3.191 1.808h-7.018v-.716a.454.454 0 0 1 .454-.454h6.113a.454.454 0 0 1 .454.454z" transform="translate(-56.877 -117.918)" class="cls-1"></path><path data-v-55cd00a8="" id="패스_22729" d="M240.941 0h.638v1.915h-.638z" transform="translate(-233.754)" class="cls-1"></path><path data-v-55cd00a8="" id="패스_22730" d="M415.583 172.649l1.878-.375.125.626-1.878.375z" transform="translate(-404.695 -168.623)" class="cls-1"></path><path data-v-55cd00a8="" id="패스_22731" d="M365.777 37.29l1.354-1.354.451.451-1.354 1.354z" transform="translate(-355.944 -35.174)" class="cls-1"></path><path data-v-55cd00a8="" id="패스_22732" d="M2.126 172.72l.125-.626 1.878.375L4 173.1z" transform="translate(0 -168.447)" class="cls-1"></path><path data-v-55cd00a8="" id="패스_22733" d="M60.979 36.354l.451-.451 1.354 1.354-.451.451z" transform="translate(-57.606 -35.142)" class="cls-1"></path></g></svg>