<svg data-v-71c5929b=""  xmlns="http://www.w3.org/2000/svg" fill="rgba(255,255,255,1)" preserveAspectRatio="xMinYMin meet" viewBox="0 0 11.953 7.969" class="v-icon__component theme--light"><g data-v-71c5929b="" id="그룹_2770" transform="translate(0 -85.333)"><g data-v-71c5929b="" id="그룹_2769" transform="translate(0 85.333)"><g data-v-71c5929b="" id="그룹_2768"><path data-v-71c5929b="" id="패스_22734" d="M237.74 213.4l-2.915 2.563-.011.01a.5.5 0 0 0 .352.851.505.505 0 0 0 .363-.158l2.563-2.915a.249.249 0 0 0-.352-.351z" transform="translate(-229.188 -210.351)" class="cls-1"></path><path data-v-71c5929b="" id="패스_22735" d="M5.977 85.333a5.975 5.975 0 0 0-5.693 7.8.249.249 0 0 0 .237.173h10.91a.249.249 0 0 0 .237-.173 5.975 5.975 0 0 0-5.693-7.8zm4.731 6.226h.73a5.455 5.455 0 0 1-.191 1.245H.706a5.455 5.455 0 0 1-.191-1.245h.73a.249.249 0 1 0 0-.5H.511a5.436 5.436 0 0 1 .606-2.269l.638.368a.249.249 0 0 0 .245-.43l-.636-.368a5.515 5.515 0 0 1 1.664-1.66l.368.637a.249.249 0 1 0 .431-.249l-.368-.638a5.436 5.436 0 0 1 2.27-.606v.734a.249.249 0 0 0 .5 0v-.734a5.436 5.436 0 0 1 2.27.606l-.368.638a.249.249 0 1 0 .431.249l.368-.637a5.515 5.515 0 0 1 1.661 1.661l-.636.368a.249.249 0 0 0 .249.431l.638-.368a5.436 5.436 0 0 1 .606 2.269h-.734a.249.249 0 1 0 0 .5z" transform="translate(0 -85.333)" class="cls-1"></path></g></g></g></svg>