<svg xmlns="http://www.w3.org/2000/svg" width="321.022" height="182.729" viewBox="0 0 321.022 182.729">
  <g id="하단_선택영역_수정" transform="translate(-2448.999 1627.387)">
    <g id="그룹_2200" data-name="그룹 2200" transform="translate(2427.102 -1485.301)" opacity="0.508">
      <g id="그룹_275" data-name="그룹 275" transform="translate(21.896 -142.086)">
        <g id="그룹_274" data-name="그룹 274">
          <path id="패스_15276" data-name="패스 15276" d="M-1120.386-2657.625a82.092,82.092,0,0,0-11.57-13.891l-20.809,6.48a55.691,55.691,0,0,1,7.309,11.8Z" transform="translate(1431.835 2718.637)" fill="#21336e"/>
          <path id="패스_15277" data-name="패스 15277" d="M-1155.462-2668.248l20.182-6.286a124.93,124.93,0,0,0-16.6-12.18l-15.778,7.663A86.185,86.185,0,0,1-1155.462-2668.248Z" transform="translate(1431.28 2718.071)" fill="#21336e"/>
          <path id="패스_15278" data-name="패스 15278" d="M-1212.351-2710.182c-8.382-1.865-17.1-3.381-26.095-4.508l-3.319,8.424a225.236,225.236,0,0,1,22.594,4.347Z" transform="translate(1434.537 2717.028)" fill="#21336e"/>
          <path id="패스_15279" data-name="패스 15279" d="M-1182.393-2701.354a235.154,235.154,0,0,0-23.975-7.379l-6.958,8.43a181.216,181.216,0,0,1,20.115,6.982Z" transform="translate(1433.837 2717.25)" fill="#21336e"/>
          <path id="패스_15280" data-name="패스 15280" d="M-1311.6-2714.711q-13.25,1.651-25.642,4.394l6.807,8.248a225.178,225.178,0,0,1,22.153-4.219Z" transform="translate(1436.671 2717.027)" fill="#21336e"/>
          <path id="패스_15281" data-name="패스 15281" d="M-1278.365-2716.944c-9.163.11-18.146.614-26.9,1.479l3.282,8.33c7.663-.83,15.552-1.322,23.614-1.44Z" transform="translate(1436.015 2716.944)" fill="#21336e"/>
          <path id="패스_15282" data-name="패스 15282" d="M-1244.854-2715.448c-8.8-.875-17.839-1.385-27.061-1.5v8.37c8.12.119,16.065.615,23.779,1.457Z" transform="translate(1435.283 2716.944)" fill="#21336e"/>
          <path id="패스_15283" data-name="패스 15283" d="M-1400.055-2571.3a164.074,164.074,0,0,0,19.587,10.55l25.046-18.6a147.934,147.934,0,0,1-14.175-6.746Z" transform="translate(1440.376 2721.823)" fill="#21336e"/>
          <path id="패스_15284" data-name="패스 15284" d="M-1343.208-2708.881a236.543,236.543,0,0,0-23.364,7.085l10.771,8a182.825,182.825,0,0,1,19.538-6.667Z" transform="translate(1437.303 2717.244)" fill="#21336e"/>
          <path id="패스_15285" data-name="패스 15285" d="M-1112.444-2639.328a57.008,57.008,0,0,0-5.876-14.993l-25.838,4.528a42.2,42.2,0,0,1,2.278,12.133Z" transform="translate(1432.156 2719.278)" fill="#21336e"/>
          <path id="패스_15286" data-name="패스 15286" d="M-1111.8-2620.484a50.351,50.351,0,0,0,.674-8.131,50.216,50.216,0,0,0-.533-7.271l-30.274,1.717a42.513,42.513,0,0,1-2.514,11.835Z" transform="translate(1432.145 2719.966)" fill="#21336e"/>
          <path id="패스_15287" data-name="패스 15287" d="M-1179.741-2556.3a185.261,185.261,0,0,0,21.884-10.066l-31.263-15.185a169.16,169.16,0,0,1-16.139,6.3Z" transform="translate(1429.878 2721.992)" fill="#21336e"/>
          <path id="패스_15288" data-name="패스 15288" d="M-1408.19-2637.779l-29.517-1.673a50.547,50.547,0,0,0-1.22,10.969c0,1.191.056,2.374.14,3.553l31.8-1.8a41.44,41.44,0,0,1-1.227-9.961C-1408.215-2637.056-1408.2-2637.417-1408.19-2637.779Z" transform="translate(1438.927 2719.833)" fill="#21336e"/>
          <path id="패스_15289" data-name="패스 15289" d="M-1156.3-2689.314a179.514,179.514,0,0,0-20.781-9.972l-11.1,8.241a131.047,131.047,0,0,1,16.562,9.173Z" transform="translate(1430.515 2717.602)" fill="#21336e"/>
          <path id="패스_15290" data-name="패스 15290" d="M-1371.906-2699.742a182.758,182.758,0,0,0-20.18,9.461l15.177,7.373a134.232,134.232,0,0,1,16.049-8.633Z" transform="translate(1440.673 2717.585)" fill="#21336e"/>
          <path id="패스_15291" data-name="패스 15291" d="M-1419.23-2586.524a112.35,112.35,0,0,0,15.031,12.4l30.063-14.6a106.268,106.268,0,0,1-11.7-8.2Z" transform="translate(1439.661 2721.419)" fill="#21336e"/>
          <path id="패스_15292" data-name="패스 15292" d="M-1210.536-2546.958a241.653,241.653,0,0,0,25.313-7.3l-25.837-19.184c-5.68,1.672-11.6,3.133-17.731,4.369Z" transform="translate(1433.648 2722.294)" fill="#21336e"/>
          <path id="패스_15293" data-name="패스 15293" d="M-1313.719-2542.334c9.065,1.168,18.411,1.943,27.977,2.291v-24.833q-9.444-.42-18.5-1.506Z" transform="translate(1436.173 2722.557)" fill="#21336e"/>
          <path id="패스_15294" data-name="패스 15294" d="M-1244.278-2541.423c9.483-.983,18.683-2.392,27.534-4.19l-18.419-22.316c-6.04,1.014-12.262,1.807-18.625,2.371Z" transform="translate(1434.525 2722.5)" fill="#21336e"/>
          <path id="패스_15295" data-name="패스 15295" d="M-1380.968-2680.119l-15.616-7.586a129.533,129.533,0,0,0-16.24,11.451l19.894,6.2A90.254,90.254,0,0,1-1380.968-2680.119Z" transform="translate(1439.9 2718.034)" fill="#21336e"/>
          <path id="패스_15296" data-name="패스 15296" d="M-1279.332-2564.7v24.793c1.279.015,2.561.027,3.846.027q12.518,0,24.567-.96l-9.562-24.266q-7.394.43-15.005.437Q-1277.415-2564.665-1279.332-2564.7Z" transform="translate(1435.404 2722.604)" fill="#21336e"/>
          <path id="패스_15297" data-name="패스 15297" d="M-1166.31-2594.92l33.694,10.494a84.152,84.152,0,0,0,12.114-14.065l-35.048-6.143A84.7,84.7,0,0,1-1166.31-2594.92Z" transform="translate(1431.33 2721.131)" fill="#21336e"/>
          <path id="패스_15298" data-name="패스 15298" d="M-1118.538-2601.892a57.8,57.8,0,0,0,6.205-15.1l-33.5-1.9a56.321,56.321,0,0,1-6.955,11Z" transform="translate(1431.834 2720.6)" fill="#21336e"/>
          <path id="패스_15299" data-name="패스 15299" d="M-1153.354-2568.988a128.921,128.921,0,0,0,17.423-12.355l-34.357-10.7a124.762,124.762,0,0,1-13.831,8.112Z" transform="translate(1430.666 2721.601)" fill="#21336e"/>
          <path id="패스_15300" data-name="패스 15300" d="M-1438.344-2621.387a54.169,54.169,0,0,0,4.406,14.422l33.317-5.84a50.238,50.238,0,0,1-5.156-10.429Z" transform="translate(1438.949 2720.438)" fill="#21336e"/>
          <path id="패스_15301" data-name="패스 15301" d="M-1430.217-2656.957a59.912,59.912,0,0,0-6.483,14.047l28.745,1.63a43.617,43.617,0,0,1,3.041-11.242Z" transform="translate(1439.01 2719.181)" fill="#21336e"/>
          <path id="패스_15302" data-name="패스 15302" d="M-1416.29-2673.255a86.632,86.632,0,0,0-11.631,13l24.576,4.308a59.234,59.234,0,0,1,7.541-10.93Z" transform="translate(1439.337 2718.572)" fill="#21336e"/>
          <path id="패스_15303" data-name="패스 15303" d="M-1398.127-2609.433l-34.012,5.961a74.281,74.281,0,0,0,9.876,13.717l32.828-10.225A72.316,72.316,0,0,1-1398.127-2609.433Z" transform="translate(1439.18 2720.952)" fill="#21336e"/>
          <path id="패스_15304" data-name="패스 15304" d="M-1375.4-2558.466a220.274,220.274,0,0,0,23.4,8.2l18.027-21.842q-8.411-2.275-16.14-5.128Z" transform="translate(1437.359 2722.153)" fill="#21336e"/>
          <path id="패스_15305" data-name="패스 15305" d="M-1346.226-2548.631c8.4,2.175,17.176,3.985,26.27,5.4l9.456-24q-9.062-1.37-17.591-3.371Z" transform="translate(1436.748 2722.4)" fill="#21336e"/>
        </g>
      </g>
    </g>
  </g>
</svg>
