<svg width="131.272" height="162.941" xmlns="http://www.w3.org/2000/svg">
  <defs/>
  <path fill="none" d="M-1-1h802v602H-1z"/>
  <g>
    <path fill="#dbdbdb" d="M64.778 101.969l66.493-37.683v9.462l-66.493 37.776v-9.555z"/>
    <path fill="#d1d1d1" d="M0 65.138l64.778 36.831 66.493-37.683-65.335-37.355L0 65.138z"/>
    <path fill="#b7cced" d="M8.034 65.138l56.744 32.446 58.46-33.3-57.3-32.973L8.034 65.138z"/>
    <path fill="#63799e" d="M65.936 31.313v6.038l-52.359 30.91-5.543-3.123 57.902-33.825z"/>
    <path fill="#46547a" d="M65.936 31.313v6.051l52.146 29.982 5.156-2.938-57.302-33.095z"/>
    <path fill="#b6b6b7" d="M64.778 101.969L0 65.139v9.459l64.778 36.923v-9.552z"/>
    <path fill="#46547a" d="M64.778 111.493L4.311 77.065v51.361l60.467 34.517v-51.45z"/>
    <path fill="#63799e" d="M64.778 111.491l62.184-35.3v51.361L64.78 162.946l-.002-51.455z"/>
    <path fill="#2f3b56" d="M21.765 109.475l-10.346-5.9v23.07l10.346 5.83v-23z"/>
    <circle fill="#b6b6b7" r=".436" cy="117.402" cx="12.877"/>
    <circle fill="#d1d1d1" r=".276" cy="117.296" cx="12.761"/>
    <path fill="#33446d" d="M11.419 103.569l-.91-.526v23.1l.91.505v-23.079z"/>
    <path fill="#3e4d68" d="M10.509 126.136l.91-.4 10.346 5.736v1l-11.256-6.336z"/>
    <g>
      <path fill="#33446d" d="M32.538 36.048l5.382-.1h.05l-13.437-5.386-2.226 5.689 4.85-.094 5.381-.109zM21.775 36.256l.009 1.328.524-1.338-.533.01z"/>
      <path fill="#374a70" d="M22.305 36.246l-.523 1.338.152 23.647a9.5 9.5 0 00.013 2 11.814 11.814 0 005.208 8.252c.074.052.153.1.228.147l-.063-9.822-.054-8.3-.112-17.346-4.849.084z"/>
      <path fill="#33446d" d="M27.157 36.151l.112 17.346.054 8.3.063 9.822a15.879 15.879 0 005.4 2.325l-.075-11.576-.068-10.588-.1-15.737-5.386.108z"/>
      <path fill="#374a70" d="M32.538 36.048l.1 15.737.068 10.588.075 11.576a16.3 16.3 0 005.384.317l-.073-11.321-.07-10.858-.1-16.143-5.384.104z"/>
      <path fill="#33446d" d="M43.302 35.839l-5.332.1 5.346 2.143-.014-2.243z"/>
      <path fill="#3c5275" d="M37.971 35.938h-.05l.1 16.143.07 10.858.073 11.321a14.09 14.09 0 005.371-1.69l-.058-9.06-.059-9.123-.105-16.306-5.342-2.143z"/>
      <path fill="#374a70" d="M43.32 38.084l.1 16.308.059 9.123.058 9.06a11.628 11.628 0 002.621-1.984 9.6 9.6 0 002.714-5.444l-.006-1.061-.011-1.731-.142-22.107-5.393-2.164z"/>
      <ellipse fill="#3c5275" transform="rotate(-78.81 15.02 12.341)" ry="13.632" rx="11.248" cy="37.2" cx="-6.34"/>
      <path fill="#d1d1d1" d="M43.473 24.719c-5.928-4.18-14.435-3.783-19 .887-4.565 4.67-3.465 11.843 2.463 16.023s14.435 3.783 19-.887c4.565-4.67 3.465-11.843-2.463-16.023zm-2.584 12.464c-2.419 2.474-6.926 2.684-10.066.47-3.14-2.214-3.724-6.014-1.3-8.488 2.424-2.474 6.926-2.683 10.066-.469 3.14 2.214 3.719 6.013 1.299 8.486l.001.001z"/>
      <path fill="#354260" d="M36.304 58.053a16.592 16.592 0 01-9.512-2.963c-3.635-2.564-5.671-6.392-5.444-10.241a.446.446 0 01.891.052c-.209 3.539 1.686 7.075 5.068 9.459 5.746 4.054 14.014 3.68 18.427-.834a9.168 9.168 0 002.627-5.467.454.454 0 01.49-.4.447.447 0 01.4.491 10.049 10.049 0 01-2.877 6 14.024 14.024 0 01-10.07 3.903z"/>
      <path fill="#354260" d="M36.363 67.17a16.593 16.593 0 01-9.512-2.964c-3.635-2.563-5.67-6.391-5.444-10.24a.435.435 0 01.472-.419.446.446 0 01.419.471c-.208 3.539 1.687 7.075 5.068 9.459 5.746 4.054 14.014 3.681 18.427-.833a9.166 9.166 0 002.627-5.467.456.456 0 01.49-.4.446.446 0 01.4.49 10.05 10.05 0 01-2.877 6 14.021 14.021 0 01-10.07 3.903z"/>
      <g>
        <path fill="#33446d" d="M61.29 19.982l5.382-.1h.05l-13.437-5.39-2.227 5.689 4.85-.094 5.382-.105z"/>
        <path fill="#33446d" d="M50.526 20.19l.009 1.328.524-1.338-.533.01z"/>
        <path fill="#374a70" d="M51.059 20.18l-.524 1.338.152 23.647a9.5 9.5 0 00.013 2 11.816 11.816 0 005.208 8.252c.074.052.154.1.229.147l-.064-9.822-.054-8.3-.112-17.346-4.848.084z"/>
        <path fill="#33446d" d="M55.909 20.085l.112 17.346.054 8.3.064 9.822a15.859 15.859 0 005.4 2.324l-.079-11.575-.069-10.588-.1-15.737-5.382.108z"/>
        <path fill="#374a70" d="M61.291 19.982l.1 15.737.069 10.588.074 11.575a16.3 16.3 0 005.385.317l-.073-11.321-.07-10.859-.1-16.142-5.385.105z"/>
        <path fill="#33446d" d="M72.054 19.773l-5.332.1 5.346 2.143-.014-2.243z"/>
        <path fill="#3c5275" d="M66.722 19.876h-.05l.1 16.142.07 10.859.073 11.321a14.091 14.091 0 005.371-1.69l-.059-9.06-.059-9.123-.105-16.306-5.341-2.143z"/>
        <path fill="#374a70" d="M72.068 22.02l.105 16.306.059 9.123.059 9.06a11.643 11.643 0 002.621-1.985 9.6 9.6 0 002.713-5.444l-.006-1.06-.011-1.731-.142-22.107-5.398-2.162z"/>
        <ellipse fill="#3c5275" transform="rotate(-78.81 15.02 12.341)" ry="13.632" rx="11.248" cy="62.289" cx="14.999"/>
        <path fill="#d1d1d1" d="M72.224 8.653c-5.928-4.18-14.435-3.783-19 .887-4.565 4.67-3.465 11.843 2.462 16.023s14.436 3.783 19-.887 3.466-11.843-2.462-16.023zM69.64 21.117c-2.419 2.474-6.926 2.684-10.066.47-3.14-2.214-3.724-6.014-1.3-8.488 2.424-2.474 6.926-2.683 10.066-.47 3.14 2.213 3.719 6.014 1.3 8.487v.001z"/>
        <path fill="#354260" d="M65.056 41.992a16.6 16.6 0 01-9.512-2.964c-3.635-2.563-5.671-6.392-5.445-10.241a.446.446 0 01.891.053c-.208 3.538 1.687 7.075 5.068 9.459 5.747 4.052 14.014 3.68 18.427-.834a9.158 9.158 0 002.627-5.468.452.452 0 01.491-.4.445.445 0 01.4.49 10.04 10.04 0 01-2.877 6 14.021 14.021 0 01-10.07 3.905z"/>
        <path fill="#354260" d="M65.115 51.104a16.6 16.6 0 01-9.512-2.964c-3.635-2.563-5.671-6.392-5.445-10.24a.446.446 0 01.891.052c-.208 3.539 1.687 7.075 5.068 9.459 5.747 4.055 14.014 3.68 18.427-.833a9.16 9.16 0 002.627-5.467.453.453 0 01.491-.4.446.446 0 01.4.49 10.044 10.044 0 01-2.877 6 14.02 14.02 0 01-10.07 3.903z"/>
      </g>
      <g>
        <path fill="#33446d" d="M91.234 37.139l5.382-.1h.05l-13.437-5.387-2.227 5.689 4.85-.094 5.382-.108zM80.47 37.346l.009 1.328.524-1.338-.533.01z"/>
        <path fill="#374a70" d="M81.003 37.337l-.523 1.338.152 23.647a9.493 9.493 0 00.013 1.995 11.814 11.814 0 005.208 8.252c.074.053.153.1.228.147l-.063-9.822-.054-8.3-.112-17.346-4.849.089z"/>
        <path fill="#33446d" d="M85.852 37.242l.112 17.346.054 8.3.063 9.822a15.873 15.873 0 005.4 2.325l-.075-11.576-.068-10.588-.1-15.737-5.386.108z"/>
        <path fill="#374a70" d="M91.233 37.139l.1 15.737.068 10.588.075 11.576a16.3 16.3 0 005.384.317l-.073-11.321-.07-10.858-.1-16.143-5.384.104z"/>
        <path fill="#33446d" d="M101.997 36.931l-5.332.1 5.347 2.143-.015-2.243z"/>
        <path fill="#3c5275" d="M96.669 37.034h-.049l.1 16.143.07 10.858.073 11.321a14.091 14.091 0 005.371-1.689l-.058-9.06-.059-9.123-.105-16.306-5.343-2.144z"/>
        <path fill="#374a70" d="M102.012 39.177l.105 16.306.059 9.123.058 9.06a11.645 11.645 0 002.621-1.985 9.608 9.608 0 002.714-5.444l-.007-1.06-.011-1.732-.142-22.107-5.397-2.161z"/>
        <ellipse fill="#3c5275" transform="rotate(-78.81 15.02 12.341)" ry="13.632" rx="11.248" cy="94.991" cx="3.977"/>
        <path fill="#d1d1d1" d="M102.168 25.81c-5.928-4.18-14.435-3.783-19 .886-4.565 4.669-3.465 11.843 2.463 16.023s14.435 3.783 19-.886c4.565-4.669 3.465-11.843-2.463-16.023zm-2.585 12.463c-2.42 2.474-6.926 2.684-10.066.47-3.14-2.214-3.724-6.014-1.3-8.488 2.424-2.474 6.926-2.683 10.066-.469 3.14 2.214 3.72 6.014 1.3 8.487z"/>
        <path fill="#354260" d="M94.998 59.148a16.6 16.6 0 01-9.512-2.963c-3.635-2.563-5.671-6.392-5.445-10.241a.441.441 0 01.472-.419.447.447 0 01.419.471c-.208 3.54 1.687 7.076 5.069 9.459 5.747 4.054 14.014 3.679 18.426-.834a9.163 9.163 0 002.628-5.467.458.458 0 01.49-.4.447.447 0 01.4.491 10.05 10.05 0 01-2.878 6 14.023 14.023 0 01-10.069 3.903z"/>
        <path fill="#354260" d="M95.061 68.262a16.6 16.6 0 01-9.512-2.964c-3.635-2.564-5.67-6.392-5.444-10.24a.433.433 0 01.472-.42.447.447 0 01.419.472c-.209 3.538 1.686 7.074 5.068 9.459 5.746 4.052 14.013 3.678 18.426-.834a9.161 9.161 0 002.628-5.467.453.453 0 01.49-.4.447.447 0 01.4.49 10.045 10.045 0 01-2.878 6 14.023 14.023 0 01-10.069 3.904z"/>
      </g>
      <g>
        <path fill="#33446d" d="M62.481 53.205l5.382-.1h.05l-13.437-5.386-2.227 5.689 4.85-.094 5.382-.109zM51.717 53.412l.009 1.328.524-1.338-.533.01z"/>
        <path fill="#374a70" d="M52.25 53.403l-.524 1.338.153 23.647a9.448 9.448 0 00.013 1.995 11.818 11.818 0 005.208 8.253c.074.052.154.1.229.146l-.064-9.822-.054-8.3-.112-17.346-4.849.089z"/>
        <path fill="#33446d" d="M57.099 53.309l.112 17.346.054 8.3.064 9.822a15.875 15.875 0 005.4 2.325l-.074-11.576-.068-10.588-.1-15.737-5.388.108z"/>
        <path fill="#374a70" d="M62.479 53.205l.1 15.737.068 10.588.074 11.576a16.3 16.3 0 005.385.317l-.073-11.321-.07-10.858-.1-16.143-5.384.104z"/>
        <path fill="#33446d" d="M73.245 52.997l-5.332.1 5.346 2.142-.014-2.242z"/>
        <path fill="#3c5275" d="M67.913 53.098h-.05l.1 16.143.07 10.858.073 11.321a14.089 14.089 0 005.371-1.689l-.059-9.06-.059-9.123-.105-16.306-5.341-2.144z"/>
        <path fill="#374a70" d="M73.259 55.243l.105 16.306.059 9.123.059 9.06a11.663 11.663 0 002.621-1.985 9.608 9.608 0 002.714-5.444l-.007-1.06-.011-1.732-.142-22.107-5.398-2.161z"/>
        <ellipse fill="#3c5275" transform="rotate(-78.81 15.02 12.341)" ry="13.632" rx="11.248" cy="69.903" cx="-17.362"/>
        <path fill="#d1d1d1" d="M73.419 41.876c-5.928-4.18-14.435-3.783-19 .886-4.565 4.669-3.465 11.843 2.463 16.023s14.435 3.783 19-.886c4.565-4.669 3.461-11.843-2.463-16.023zm-2.584 12.463c-2.419 2.474-6.926 2.684-10.066.47-3.14-2.214-3.723-6.014-1.3-8.487s6.926-2.684 10.066-.47c3.14 2.214 3.715 6.014 1.296 8.487h.004z"/>
        <path fill="#354260" d="M66.247 75.213a16.593 16.593 0 01-9.512-2.963c-3.634-2.563-5.669-6.391-5.444-10.24a.441.441 0 01.472-.419.447.447 0 01.419.471c-.208 3.539 1.687 7.075 5.068 9.459 5.746 4.054 14.014 3.678 18.427-.834a9.163 9.163 0 002.627-5.467.454.454 0 01.49-.4.447.447 0 01.4.491 10.046 10.046 0 01-2.877 6 14.018 14.018 0 01-10.07 3.902z"/>
        <path fill="#354260" d="M66.305 84.328a16.6 16.6 0 01-9.512-2.964c-3.634-2.563-5.669-6.391-5.444-10.24a.434.434 0 01.472-.42.447.447 0 01.419.472c-.208 3.538 1.687 7.075 5.068 9.459 5.747 4.052 14.014 3.68 18.427-.834a9.162 9.162 0 002.627-5.467.451.451 0 01.49-.4.446.446 0 01.4.49 10.046 10.046 0 01-2.877 6 14.021 14.021 0 01-10.07 3.904z"/>
      </g>
      <path fill="#d1d1d1" d="M42.942 28.054l14.128-7.939 3.94 7.013-14.127 7.939zM67.931 39.593l14.128-7.939L86 38.667l-14.127 7.939z"/>
      <path fill="#d1d1d1" d="M73.811 17.965l14.031 8.101-4.02 6.965L69.79 24.93zM45.603 33.594l14.031 8.101-4.02 6.965-14.032-8.101z"/>
    </g>
    <g fill="#e4ecf2">
      <path d="M65.085 90.21a8.262 8.262 0 01-4.087-1.075L4.488 57.006a3.159 3.159 0 01-.023-5.481l12.686-7.352a.3.3 0 11.3.515L4.766 52.039a2.565 2.565 0 00.018 4.45l56.51 32.13a7.711 7.711 0 007.576.006l58.183-32.974a2.565 2.565 0 00.008-4.458l-18.069-10.331a.3.3 0 11.295-.516l18.069 10.332a3.158 3.158 0 01-.011 5.491L69.162 89.143a8.262 8.262 0 01-4.077 1.067z"/>
      <path d="M65.084 93.506a8.266 8.266 0 01-4.086-1.075l-56.51-32.13a3.159 3.159 0 01-.023-5.481l12.686-7.35a.3.3 0 11.3.514L4.766 55.335a2.565 2.565 0 00.018 4.45l56.51 32.13a7.706 7.706 0 007.576.005l58.183-32.972a2.567 2.567 0 00.008-4.46l-18.069-10.33a.3.3 0 11.295-.515l18.069 10.33a3.16 3.16 0 01-.01 5.492L69.163 92.437a8.267 8.267 0 01-4.079 1.069z"/>
      <path d="M6.237 65.435a.3.3 0 01-.3-.3v-7.48a.3.3 0 01.595 0v7.48a.3.3 0 01-.295.3zM8.034 62.033a.3.3 0 01-.3-.3V50.062a.3.3 0 11.594 0v11.675a.3.3 0 01-.294.296zM14.695 57.953a.3.3 0 01-.3-.3V45.984a.3.3 0 11.595 0v11.674a.3.3 0 01-.295.295zM14.695 70.276a.3.3 0 01-.3-.3v-7.48a.3.3 0 11.595 0v7.48a.3.3 0 01-.295.3zM23.153 75.116a.3.3 0 01-.3-.3v-7.477a.3.3 0 01.595 0v7.48a.3.3 0 01-.295.297zM31.606 79.956a.3.3 0 01-.3-.3v-7.48a.3.3 0 01.595 0v7.48a.3.3 0 01-.295.3zM40.067 84.796a.3.3 0 01-.3-.3v-7.48a.3.3 0 01.595 0v7.48a.3.3 0 01-.295.3zM48.525 89.635a.3.3 0 01-.3-.3v-7.48a.3.3 0 11.594 0v7.48a.3.3 0 01-.294.3zM56.982 94.476a.3.3 0 01-.3-.3v-7.48a.3.3 0 11.595 0v7.48a.3.3 0 01-.295.3zM73.146 94.476a.3.3 0 01-.3-.3v-7.48a.3.3 0 11.594 0v7.48a.3.3 0 01-.294.3zM81.154 89.94a.3.3 0 01-.3-.3v-7.48a.3.3 0 11.595 0v7.48a.3.3 0 01-.295.3zM89.161 85.405a.3.3 0 01-.3-.3v-7.48a.3.3 0 11.595 0v7.48a.3.3 0 01-.295.3zM97.163 80.869a.3.3 0 01-.3-.3v-7.48a.3.3 0 01.594 0v7.48a.3.3 0 01-.294.3zM105.176 76.333a.3.3 0 01-.3-.3v-7.48a.3.3 0 01.594 0v7.48a.3.3 0 01-.294.3zM113.183 71.798a.3.3 0 01-.3-.3v-7.48a.3.3 0 01.595 0v7.48a.3.3 0 01-.295.3zM121.185 67.262a.3.3 0 01-.3-.3v-7.48a.3.3 0 01.595 0v7.48a.3.3 0 01-.295.3z"/>
      <path d="M120.719 60.571a.3.3 0 01-.3-.3V47.595a.3.3 0 01.595 0v12.678a.3.3 0 01-.295.298zM112.61 55.681a.3.3 0 01-.3-.3V42.705a.3.3 0 11.594 0v12.678a.3.3 0 01-.294.298zM128.647 63.522a.3.3 0 01-.3-.3v-9.5a.3.3 0 01.595 0v9.5a.3.3 0 01-.295.3zM64.955 99.198a.3.3 0 01-.3-.3v-8.983a.3.3 0 11.595 0v8.983a.3.3 0 01-.295.3z"/>
    </g>
    <g fill="#e4ecf2">
      <path d="M66.131 56.5a16.451 16.451 0 01-9.428-2.939c-4.166-2.937-6.143-7.418-5.16-11.7a.873.873 0 00-.438-.931l-6.362-3.673a.866.866 0 00-.889.029c-4.989 3.057-12.017 2.694-17.092-.885a12.158 12.158 0 01-5.366-8.64 9.8 9.8 0 012.861-7.833c4.658-4.762 13.353-5.175 19.386-.922a14.37 14.37 0 011.539 1.253.878.878 0 001.029.145l5.19-2.917a.854.854 0 00.41-.531.817.817 0 00-.091-.637A9.97 9.97 0 0153.009 3.86c4.659-4.762 13.355-5.175 19.387-.921 3.859 2.721 5.845 6.759 5.313 10.8a.879.879 0 00.411.9l7.119 4.11a.865.865 0 00.826.005 16.116 16.116 0 0116.273 1.342 12.157 12.157 0 015.366 8.64 9.805 9.805 0 01-2.861 7.834c-4.657 4.76-13.354 5.175-19.387.921a14.157 14.157 0 01-2.075-1.786.835.835 0 00-1.016-.129l-5.047 2.838a.85.85 0 00-.285 1.22 9.953 9.953 0 01-.942 13 13.87 13.87 0 01-9.96 3.866zm-21.8-19.943a1.411 1.411 0 01.709.188l6.363 3.673a1.473 1.473 0 01.721 1.579c-.927 4.037.959 8.283 4.923 11.077 5.8 4.092 14.155 3.711 18.619-.851a9.378 9.378 0 00.875-12.252 1.444 1.444 0 01.485-2.073l5.049-2.831a1.426 1.426 0 011.737.236 13.585 13.585 0 001.987 1.712c5.8 4.092 14.157 3.711 18.619-.851a9.216 9.216 0 002.695-7.364 11.566 11.566 0 00-5.116-8.209 15.515 15.515 0 00-15.658-1.3 1.446 1.446 0 01-1.4-.019l-7.119-4.11a1.482 1.482 0 01-.7-1.491c.5-3.818-1.391-7.645-5.065-10.237-5.8-4.093-14.157-3.71-18.619.852A9.39 9.39 0 0052.23 16.02a1.41 1.41 0 01.158 1.1 1.462 1.462 0 01-.694.9l-5.19 2.918a1.466 1.466 0 01-1.727-.229 13.661 13.661 0 00-1.474-1.2c-5.806-4.093-14.157-3.711-18.619.852a9.212 9.212 0 00-2.694 7.364 11.565 11.565 0 005.115 8.208c4.886 3.444 11.646 3.8 16.439.863a1.512 1.512 0 01.786-.238l.001-.001zm13.268-1.378a1.4 1.4 0 01-.706-.191l-7.751-4.474a1.427 1.427 0 01-.724-1.321 1.491 1.491 0 01.739-1.214l10.3-5.789a1.424 1.424 0 011.1-.123 15.062 15.062 0 0011.162-1.021 1.443 1.443 0 011.421.006l6.924 4a1.426 1.426 0 01.71 1.46l-.015.089a1.471 1.471 0 01-.721 1.065l-11.383 6.4a1.423 1.423 0 01-1.015.145 15.208 15.208 0 00-9.424.836 1.493 1.493 0 01-.618.132h.001zm2.547-12.575a.823.823 0 00-.4.1l-10.3 5.789a.893.893 0 00-.436.726.832.832 0 00.428.776l7.751 4.476a.849.849 0 00.779.029 15.794 15.794 0 019.8-.875.838.838 0 00.595-.083l11.383-6.4a.885.885 0 00.427-.642l.013-.08a.833.833 0 00-.419-.859l-6.924-4a.855.855 0 00-.841 0 15.657 15.657 0 01-11.608 1.07.879.879 0 00-.249-.027h.001z"/>
      <path d="M66.131 58.804a16.445 16.445 0 01-9.428-2.939c-4.166-2.937-6.143-7.419-5.16-11.7a.874.874 0 00-.438-.931l-6.362-3.673a.859.859 0 00-.889.029c-4.989 3.056-12.018 2.693-17.092-.886a12.155 12.155 0 01-5.366-8.639 9.8 9.8 0 012.861-7.834c4.657-4.762 13.355-5.175 19.386-.921a14.332 14.332 0 011.539 1.253.875.875 0 001.029.147l5.19-2.918a.854.854 0 00.41-.529.824.824 0 00-.091-.64 9.968 9.968 0 011.289-12.457c4.659-4.761 13.355-5.175 19.387-.921 3.86 2.721 5.845 6.759 5.313 10.8a.889.889 0 00.411.9l7.119 4.11a.868.868 0 00.826.006 16.113 16.113 0 0116.273 1.341 12.156 12.156 0 015.366 8.64 9.805 9.805 0 01-2.861 7.834c-4.659 4.761-13.355 5.175-19.387.921a14.161 14.161 0 01-2.075-1.786.835.835 0 00-1.016-.13l-5.047 2.838a.849.849 0 00-.285 1.22 9.953 9.953 0 01-.942 13 13.87 13.87 0 01-9.96 3.865zm-21.8-19.943a1.408 1.408 0 01.708.189l6.363 3.673a1.471 1.471 0 01.721 1.579c-.927 4.037.959 8.282 4.923 11.077 5.8 4.093 14.156 3.71 18.619-.852a9.378 9.378 0 00.875-12.252 1.444 1.444 0 01.485-2.073l5.048-2.838a1.427 1.427 0 011.737.237 13.624 13.624 0 001.987 1.712c5.8 4.092 14.157 3.711 18.619-.851a9.214 9.214 0 002.695-7.363 11.566 11.566 0 00-5.116-8.209 15.51 15.51 0 00-15.658-1.3 1.455 1.455 0 01-1.4-.02l-7.119-4.11a1.48 1.48 0 01-.7-1.491c.5-3.818-1.39-7.645-5.065-10.237-5.8-4.091-14.157-3.711-18.619.852a9.39 9.39 0 00-1.206 11.734 1.408 1.408 0 01.157 1.1 1.459 1.459 0 01-.693.9l-5.19 2.918a1.464 1.464 0 01-1.727-.23 13.788 13.788 0 00-1.474-1.2c-5.8-4.092-14.157-3.711-18.619.851a9.21 9.21 0 00-2.694 7.363 11.566 11.566 0 005.115 8.209c4.885 3.445 11.644 3.8 16.439.863a1.513 1.513 0 01.789-.231zm13.267-1.379a1.4 1.4 0 01-.706-.189l-7.751-4.476a1.426 1.426 0 01-.724-1.32 1.491 1.491 0 01.739-1.214l10.3-5.789a1.448 1.448 0 011.1-.124 15.059 15.059 0 0011.163-1.02 1.45 1.45 0 011.421.006l6.924 4a1.426 1.426 0 01.71 1.46l-.014.086a1.479 1.479 0 01-.722 1.067l-11.383 6.4a1.444 1.444 0 01-1.014.145 15.188 15.188 0 00-9.424.837 1.5 1.5 0 01-.619.131zm2.548-12.575a.827.827 0 00-.4.1l-10.3 5.789a.893.893 0 00-.436.726.834.834 0 00.428.776l7.751 4.476a.848.848 0 00.779.029 15.775 15.775 0 019.794-.875.856.856 0 00.6-.082l11.383-6.4a.885.885 0 00.427-.642l.016-.094a.83.83 0 00-.422-.844l-6.924-4a.858.858 0 00-.841 0 15.657 15.657 0 01-11.607 1.069.9.9 0 00-.248-.028z"/>
      <path d="M50.403 44.616a.3.3 0 01-.3-.3v-4.132a.3.3 0 01.595 0v4.132a.3.3 0 01-.295.3zM45.395 42.014a.3.3 0 01-.3-.3v-4.131a.3.3 0 01.595 0v4.133a.3.3 0 01-.295.298zM40.729 43.138a.3.3 0 01-.3-.3v-4.133a.3.3 0 01.594 0v4.133a.3.3 0 01-.294.3zM34.823 43.49a.3.3 0 01-.3-.3v-4.133a.3.3 0 01.594 0v4.133a.3.3 0 01-.294.3zM28.934 42.014a.3.3 0 01-.3-.3v-4.131a.3.3 0 11.595 0v4.133a.3.3 0 01-.295.298zM24.043 38.204a.3.3 0 01-.3-.3v-4.133a.3.3 0 11.595 0v4.133a.3.3 0 01-.295.3zM21.782 32.92a.3.3 0 01-.3-.3v-4.133a.3.3 0 11.595 0v4.133a.3.3 0 01-.295.3zM23.255 28.103a.3.3 0 01-.3-.3v-5.979a.3.3 0 11.595 0v5.979a.3.3 0 01-.295.3zM27.156 24.475a.3.3 0 01-.3-.3v-5.91a.3.3 0 01.595 0v5.913a.3.3 0 01-.295.297zM32.535 22.528a.3.3 0 01-.3-.3v-5.414a.3.3 0 11.595 0v5.414a.3.3 0 01-.295.3zM38.505 22.985a.3.3 0 01-.3-.3V17.27a.3.3 0 01.595 0v5.415a.3.3 0 01-.295.3zM43.817 26.053a.3.3 0 01-.3-.3v-6.231a.3.3 0 11.595 0v6.231a.3.3 0 01-.295.3zM47.183 26.874a.3.3 0 01-.3-.3v-6.231a.3.3 0 11.594 0v6.231a.3.3 0 01-.294.3zM51.285 13.625a.3.3 0 01-.3-.3V7.094a.3.3 0 01.595 0v6.231a.3.3 0 01-.295.3zM53.598 10.51a.3.3 0 01-.3-.3V3.979a.3.3 0 01.595 0v6.231a.3.3 0 01-.295.3zM58.436 7.173a.3.3 0 01-.3-.3V1.192a.3.3 0 01.595 0v5.681a.3.3 0 01-.295.3zM64.549 6.7a.3.3 0 01-.3-.3V.719a.3.3 0 11.594 0V6.4a.3.3 0 01-.294.3zM70.059 8.172a.3.3 0 01-.3-.3V2.193a.3.3 0 11.595 0v5.681a.3.3 0 01-.295.298zM74.538 11.331a.3.3 0 01-.3-.3V5.354a.3.3 0 11.595 0v5.681a.3.3 0 01-.295.296zM78.694 21.815a.3.3 0 01-.3-.3v-6.093a.3.3 0 01.595 0v6.093a.3.3 0 01-.295.3zM83.522 24.505a.3.3 0 01-.3-.3v-6.093a.3.3 0 11.594 0v6.093a.3.3 0 01-.294.3zM88.413 24.159a.3.3 0 01-.3-.3v-5.391a.3.3 0 11.594 0v5.391a.3.3 0 01-.294.3zM94.302 23.762a.3.3 0 01-.3-.3v-5.813a.3.3 0 11.595 0v5.811a.3.3 0 01-.295.302zM100.034 25.261a.3.3 0 01-.3-.3v-5.81a.3.3 0 11.595 0v5.811a.3.3 0 01-.295.299zM104.788 28.957a.3.3 0 01-.3-.3v-5.811a.3.3 0 11.595 0v5.811a.3.3 0 01-.295.3zM105.714 40.357a.3.3 0 01-.3-.3v-4.911a.3.3 0 11.594 0v4.911a.3.3 0 01-.294.3zM101.717 43.88a.3.3 0 01-.3-.3v-4.911a.3.3 0 11.595 0v4.912a.3.3 0 01-.295.299zM95.617 45.594a.3.3 0 01-.3-.3v-4.909a.3.3 0 11.594 0v4.911a.3.3 0 01-.294.298zM89.306 44.469a.3.3 0 01-.3-.3v-4.911a.3.3 0 11.594 0v4.911a.3.3 0 01-.294.3zM84.994 42.017a.3.3 0 01-.3-.3v-4.906a.3.3 0 01.595 0v4.911a.3.3 0 01-.295.295zM81.839 40.877a.3.3 0 01-.3-.3v-4.911a.3.3 0 11.594 0v4.912a.3.3 0 01-.294.299zM78.694 42.55a.3.3 0 01-.3-.3v-4.649a.3.3 0 01.595 0v4.649a.3.3 0 01-.295.3zM77.624 47.737a.3.3 0 01-.3-.3v-6.18a.3.3 0 11.594 0v6.185a.3.3 0 01-.294.295zM77.624 55.037a.3.3 0 01-.3-.3v-4.521a.3.3 0 11.594 0v4.523a.3.3 0 01-.294.298zM74.634 58.647a.3.3 0 01-.3-.3v-4.521a.3.3 0 11.594 0v4.524a.3.3 0 01-.294.297zM69.795 60.854a.3.3 0 01-.3-.3V56.03a.3.3 0 01.595 0v4.524a.3.3 0 01-.295.3zM63.749 61.272a.3.3 0 01-.3-.3v-4.523a.3.3 0 11.594 0v4.523a.3.3 0 01-.294.3zM57.966 59.068a.3.3 0 01-.3-.3v-4.523a.3.3 0 11.595 0v4.523a.3.3 0 01-.295.3zM53.335 54.899a.3.3 0 01-.3-.3v-4.97a.3.3 0 11.595 0v4.97a.3.3 0 01-.295.3zM60.646 39.797a.3.3 0 01-.3-.3v-5.381a.3.3 0 11.595 0v5.381a.3.3 0 01-.295.3zM55.071 39.452a.3.3 0 01-.3-.3v-5.381a.3.3 0 11.594 0v5.381a.3.3 0 01-.294.3zM50.792 37.037a.3.3 0 01-.3-.3v-5.381a.3.3 0 11.594 0v5.381a.3.3 0 01-.294.3zM51.982 31.944a.3.3 0 01-.3-.3v-4.843a.3.3 0 11.595 0v4.844a.3.3 0 01-.295.299zM56.136 29.522a.3.3 0 01-.3-.3v-4.844a.3.3 0 11.594 0v4.844a.3.3 0 01-.294.3zM62.724 28.217a.3.3 0 01-.3-.3v-4.844a.3.3 0 01.595 0v4.844a.3.3 0 01-.295.3zM67.912 28.058a.3.3 0 01-.3-.3v-4.844a.3.3 0 11.595 0v4.844a.3.3 0 01-.295.3zM74.424 27.536a.3.3 0 01-.3-.3v-4.844a.3.3 0 11.594 0v4.844a.3.3 0 01-.294.3zM77.624 29.299a.3.3 0 01-.3-.3v-4.844a.3.3 0 11.594 0v4.844a.3.3 0 01-.294.3zM65.294 39.233a.3.3 0 01-.3-.3v-5.381a.3.3 0 01.595 0v5.381a.3.3 0 01-.295.3zM70.953 38.173a.3.3 0 01-.3-.3v-5.381a.3.3 0 11.595 0v5.381a.3.3 0 01-.295.3zM75.318 36.003a.3.3 0 01-.3-.3v-5.381a.3.3 0 01.595 0v5.381a.3.3 0 01-.295.3zM79.579 33.544a.3.3 0 01-.3-.3v-5.381a.3.3 0 01.595 0v5.381a.3.3 0 01-.295.3zM50.792 24.93a.3.3 0 01-.3-.3v-6.229a.3.3 0 11.594 0v6.231a.3.3 0 01-.294.298z"/>
    </g>
  </g>
</svg>
