<svg xmlns="http://www.w3.org/2000/svg" width="226.943" height="128.238">
  <defs/>
  <path data-name="패스 589" d="M0 71.535l113.1-56.486 113.843 56.577-113.178 56.612z" fill="#dff2f7"/>
  <g data-name="그룹 240">
    <path data-name="패스 590" d="M113.101 0l113.595 56.464.246 15.162-113.841-56.58z" fill="#91d2f2"/>
    <path data-name="패스 591" d="M226.696 56.464L113.105 0l-.58.28 113.6 56.492z" fill="#1f5289"/>
  </g>
  <g data-name="그룹 241">
    <path data-name="패스 592" d="M113.102 15.046V0L.002 56.653v14.882z" fill="#71b7d3"/>
    <path data-name="패스 593" d="M.531 56.914L0 56.653 113.1 0l.557.273z" fill="#1f5289"/>
  </g>
  <g data-name="그룹 266">
    <g data-name="그룹 244">
      <g data-name="그룹 243">
        <g data-name="그룹 242">
          <path data-name="사각형 64" fill="#656158" d="M25.153 51.628h.547v11.795h-.547z"/>
        </g>
        <path data-name="패스 594" d="M21.116 52.203l3.254 1.8 5.367-2.564-3.244-1.778z" fill="#383331"/>
      </g>
    </g>
    <g data-name="그룹 247">
      <g data-name="그룹 246">
        <g data-name="그룹 245">
          <path data-name="사각형 65" fill="#656158" d="M36.532 46.059h.547v11.795h-.547z"/>
        </g>
        <path data-name="패스 595" d="M32.495 46.633l3.254 1.8 5.367-2.564-3.244-1.778z" fill="#383331"/>
      </g>
    </g>
    <g data-name="그룹 250">
      <g data-name="그룹 249">
        <g data-name="그룹 248">
          <path data-name="사각형 66" fill="#656158" d="M46.602 41.146h.547v11.795h-.547z"/>
        </g>
        <path data-name="패스 596" d="M42.565 41.722l3.254 1.8 5.367-2.564-3.244-1.778z" fill="#383331"/>
      </g>
    </g>
    <g data-name="그룹 253">
      <g data-name="그룹 252">
        <g data-name="그룹 251">
          <path data-name="사각형 67" fill="#656158" d="M56.936 36.233h.547v11.795h-.547z"/>
        </g>
        <path data-name="패스 597" d="M52.899 36.808l3.254 1.8 5.367-2.564-3.244-1.778z" fill="#383331"/>
      </g>
    </g>
    <g data-name="그룹 256">
      <g data-name="그룹 255">
        <g data-name="그룹 254">
          <path data-name="사각형 68" fill="#656158" d="M67.511 31.132h.547v11.795h-.547z"/>
        </g>
        <path data-name="패스 598" d="M63.474 31.71l3.254 1.8 5.367-2.564-3.244-1.778z" fill="#383331"/>
      </g>
    </g>
    <g data-name="그룹 259">
      <g data-name="그룹 258">
        <g data-name="그룹 257">
          <path data-name="사각형 69" fill="#656158" d="M78.393 25.681h.547v11.795h-.547z"/>
        </g>
        <path data-name="패스 599" d="M74.356 26.256l3.254 1.8 5.367-2.564-3.244-1.778z" fill="#383331"/>
      </g>
    </g>
    <g data-name="그룹 262">
      <g data-name="그룹 261">
        <g data-name="그룹 260">
          <path data-name="사각형 70" fill="#656158" d="M88.942 20.448h.547v11.795h-.547z"/>
        </g>
        <path data-name="패스 600" d="M84.905 21.023l3.254 1.8 5.367-2.564-3.244-1.778z" fill="#383331"/>
      </g>
    </g>
    <g data-name="그룹 265">
      <g data-name="그룹 264">
        <g data-name="그룹 263">
          <path data-name="사각형 71" fill="#656158" d="M99.864 14.943h.547v11.795h-.547z"/>
        </g>
        <path data-name="패스 601" d="M95.827 15.517l3.254 1.8 5.367-2.564-3.244-1.778z" fill="#383331"/>
      </g>
    </g>
  </g>
  <g data-name="그룹 268">
    <g data-name="그룹 267">
      <path data-name="패스 602" d="M106.578 15.394L29.539 53.809V67.08l77.039-38.486z" fill="#71b7d3"/>
      <path data-name="패스 603" d="M29.543 53.806l77.039-38.415-.719-.343-76.871 38.286z" fill="#1f5289"/>
    </g>
    <path data-name="패스 604" d="M29.543 53.805v13.272l-.554-.3V53.333z" fill="#91d2f2"/>
  </g>
  <g data-name="그룹 293">
    <g data-name="그룹 271">
      <g data-name="그룹 270">
        <g data-name="그룹 269">
          <path data-name="사각형 72" fill="#656158" d="M34.678 55.561h.547v11.795h-.547z"/>
        </g>
        <path data-name="패스 605" d="M30.641 56.135l3.254 1.8 5.367-2.564-3.244-1.778z" fill="#383331"/>
      </g>
    </g>
    <g data-name="그룹 274">
      <g data-name="그룹 273">
        <g data-name="그룹 272">
          <path data-name="사각형 73" fill="#656158" d="M46.057 49.992h.547v11.795h-.547z"/>
        </g>
        <path data-name="패스 606" d="M42.02 50.567l3.254 1.8 5.367-2.564-3.244-1.778z" fill="#383331"/>
      </g>
    </g>
    <g data-name="그룹 277">
      <g data-name="그룹 276">
        <g data-name="그룹 275">
          <path data-name="사각형 74" fill="#656158" d="M56.127 45.079h.547v11.795h-.547z"/>
        </g>
        <path data-name="패스 607" d="M52.09 45.653l3.254 1.8 5.367-2.564-3.244-1.778z" fill="#383331"/>
      </g>
    </g>
    <g data-name="그룹 280">
      <g data-name="그룹 279">
        <g data-name="그룹 278">
          <path data-name="사각형 75" fill="#656158" d="M66.461 40.166h.547v11.795h-.547z"/>
        </g>
        <path data-name="패스 608" d="M62.424 40.743l3.254 1.8 5.367-2.564-3.244-1.778z" fill="#383331"/>
      </g>
    </g>
    <g data-name="그룹 283">
      <g data-name="그룹 282">
        <g data-name="그룹 281">
          <path data-name="사각형 76" fill="#656158" d="M77.036 35.065h.547V46.86h-.547z"/>
        </g>
        <path data-name="패스 609" d="M73.001 35.639l3.254 1.8 5.367-2.564-3.244-1.778z" fill="#383331"/>
      </g>
    </g>
    <g data-name="그룹 286">
      <g data-name="그룹 285">
        <g data-name="그룹 284">
          <path data-name="사각형 77" fill="#656158" d="M87.918 29.614h.547v11.795h-.547z"/>
        </g>
        <path data-name="패스 610" d="M83.883 30.187l3.254 1.8 5.367-2.564-3.244-1.778z" fill="#383331"/>
      </g>
    </g>
    <g data-name="그룹 289">
      <g data-name="그룹 288">
        <g data-name="그룹 287">
          <path data-name="사각형 78" fill="#656158" d="M98.467 24.381h.547v11.795h-.547z"/>
        </g>
        <path data-name="패스 611" d="M94.43 24.956l3.254 1.8 5.367-2.564-3.244-1.778z" fill="#383331"/>
      </g>
    </g>
    <g data-name="그룹 292">
      <g data-name="그룹 291">
        <g data-name="그룹 290">
          <path data-name="사각형 79" fill="#656158" d="M109.389 18.876h.547v11.795h-.547z"/>
        </g>
        <path data-name="패스 612" d="M105.352 19.451l3.254 1.8 5.367-2.564-3.244-1.778z" fill="#383331"/>
      </g>
    </g>
  </g>
  <g data-name="그룹 295">
    <g data-name="그룹 294">
      <path data-name="패스 613" d="M100.137 29.28L23.098 67.695v13.271l77.039-38.488z" fill="#71b7d3"/>
      <path data-name="패스 614" d="M23.099 67.692l77.039-38.414-.719-.343-76.871 38.286z" fill="#1f5289"/>
    </g>
    <path data-name="패스 615" d="M23.099 67.696v13.27l-.554-.3V67.222z" fill="#91d2f2"/>
  </g>
  <g data-name="그룹 320">
    <g data-name="그룹 298">
      <g data-name="그룹 297">
        <g data-name="그룹 296">
          <path data-name="사각형 80" fill="#656158" d="M46.208 60.949h.547v11.795h-.547z"/>
        </g>
        <path data-name="패스 616" d="M42.171 61.527l3.254 1.8 5.367-2.564-3.244-1.778z" fill="#383331"/>
      </g>
    </g>
    <g data-name="그룹 301">
      <g data-name="그룹 300">
        <g data-name="그룹 299">
          <path data-name="사각형 81" fill="#656158" d="M57.587 55.38h.547v11.795h-.547z"/>
        </g>
        <path data-name="패스 617" d="M53.55 55.955l3.254 1.8 5.367-2.564-3.244-1.778z" fill="#383331"/>
      </g>
    </g>
    <g data-name="그룹 304">
      <g data-name="그룹 303">
        <g data-name="그룹 302">
          <path data-name="사각형 82" fill="#656158" d="M67.657 50.467h.547v11.795h-.547z"/>
        </g>
        <path data-name="패스 618" d="M63.62 51.041l3.254 1.8 5.366-2.564-3.244-1.778z" fill="#383331"/>
      </g>
    </g>
    <g data-name="그룹 307">
      <g data-name="그룹 306">
        <g data-name="그룹 305">
          <path data-name="사각형 83" fill="#656158" d="M77.991 45.554h.547v11.795h-.547z"/>
        </g>
        <path data-name="패스 619" d="M73.954 46.129l3.254 1.8 5.367-2.564-3.244-1.778z" fill="#383331"/>
      </g>
    </g>
    <g data-name="그룹 310">
      <g data-name="그룹 309">
        <g data-name="그룹 308">
          <path data-name="사각형 84" fill="#656158" d="M88.566 40.453h.547v11.795h-.547z"/>
        </g>
        <path data-name="패스 620" d="M84.529 41.028l3.254 1.8 5.367-2.564-3.244-1.778z" fill="#383331"/>
      </g>
    </g>
    <g data-name="그룹 313">
      <g data-name="그룹 312">
        <g data-name="그룹 311">
          <path data-name="사각형 85" fill="#656158" d="M99.448 35.002h.547v11.795h-.547z"/>
        </g>
        <path data-name="패스 621" d="M95.411 35.577l3.254 1.8 5.367-2.564-3.244-1.778z" fill="#383331"/>
      </g>
    </g>
    <g data-name="그룹 316">
      <g data-name="그룹 315">
        <g data-name="그룹 314">
          <path data-name="사각형 86" fill="#656158" d="M109.997 29.769h.547v11.795h-.547z"/>
        </g>
        <path data-name="패스 622" d="M105.96 30.343l3.254 1.8 5.367-2.564-3.244-1.778z" fill="#383331"/>
      </g>
    </g>
    <g data-name="그룹 319">
      <g data-name="그룹 318">
        <g data-name="그룹 317">
          <path data-name="사각형 87" fill="#656158" d="M120.919 24.264h.547v11.795h-.547z"/>
        </g>
        <path data-name="패스 623" d="M116.882 24.839l3.254 1.8 5.367-2.564-3.244-1.778z" fill="#383331"/>
      </g>
    </g>
  </g>
  <g data-name="그룹 322">
    <g data-name="그룹 321">
      <path data-name="패스 624" d="M141.607 17.009L64.568 55.425v13.27l77.039-38.488z" fill="#71b7d3"/>
      <path data-name="패스 625" d="M64.573 55.423l77.039-38.415-.719-.343-76.871 38.286z" fill="#1f5289"/>
    </g>
    <path data-name="패스 626" d="M64.573 55.423v13.272l-.554-.3V54.951z" fill="#91d2f2"/>
  </g>
  <g data-name="그룹 347">
    <g data-name="그룹 325">
      <g data-name="그룹 324">
        <g data-name="그룹 323">
          <path data-name="사각형 88" fill="#656158" d="M57.783 66.371h.547v11.795h-.547z"/>
        </g>
        <path data-name="패스 627" d="M53.746 66.946l3.254 1.8 5.367-2.564-3.244-1.778z" fill="#383331"/>
      </g>
    </g>
    <g data-name="그룹 328">
      <g data-name="그룹 327">
        <g data-name="그룹 326">
          <path data-name="사각형 89" fill="#656158" d="M69.162 60.802h.547v11.795h-.547z"/>
        </g>
        <path data-name="패스 628" d="M65.125 61.377l3.254 1.8 5.367-2.564-3.244-1.778z" fill="#383331"/>
      </g>
    </g>
    <g data-name="그룹 331">
      <g data-name="그룹 330">
        <g data-name="그룹 329">
          <path data-name="사각형 90" fill="#656158" d="M79.232 55.889h.547v11.795h-.547z"/>
        </g>
        <path data-name="패스 629" d="M75.195 56.463l3.254 1.8 5.367-2.564-3.244-1.778z" fill="#383331"/>
      </g>
    </g>
    <g data-name="그룹 334">
      <g data-name="그룹 333">
        <g data-name="그룹 332">
          <path data-name="사각형 91" fill="#656158" d="M89.566 50.976h.547v11.795h-.547z"/>
        </g>
        <path data-name="패스 630" d="M85.529 51.551l3.254 1.8 5.367-2.564-3.244-1.778z" fill="#383331"/>
      </g>
    </g>
    <g data-name="그룹 337">
      <g data-name="그룹 336">
        <g data-name="그룹 335">
          <path data-name="사각형 92" fill="#656158" d="M100.141 45.875h.547V57.67h-.547z"/>
        </g>
        <path data-name="패스 631" d="M96.104 46.449l3.254 1.8 5.367-2.564-3.244-1.778z" fill="#383331"/>
      </g>
    </g>
    <g data-name="그룹 340">
      <g data-name="그룹 339">
        <g data-name="그룹 338">
          <path data-name="사각형 93" fill="#656158" d="M111.023 40.424h.547v11.795h-.547z"/>
        </g>
        <path data-name="패스 632" d="M106.986 40.998l3.254 1.8 5.367-2.564-3.244-1.778z" fill="#383331"/>
      </g>
    </g>
    <g data-name="그룹 343">
      <g data-name="그룹 342">
        <g data-name="그룹 341">
          <path data-name="사각형 94" fill="#656158" d="M121.572 35.191h.547v11.795h-.547z"/>
        </g>
        <path data-name="패스 633" d="M117.535 35.766l3.254 1.8 5.367-2.564-3.244-1.781z" fill="#383331"/>
      </g>
    </g>
    <g data-name="그룹 346">
      <g data-name="그룹 345">
        <g data-name="그룹 344">
          <path data-name="사각형 95" fill="#656158" d="M132.494 29.686h.547v11.795h-.547z"/>
        </g>
        <path data-name="패스 634" d="M128.457 30.261l3.254 1.8 5.367-2.564-3.244-1.778z" fill="#383331"/>
      </g>
    </g>
  </g>
  <g data-name="그룹 349">
    <g data-name="그룹 348">
      <path data-name="패스 635" d="M153.515 22.81L42.449 78.09v13.271l111.066-55.354z" fill="#71b7d3"/>
      <path data-name="패스 636" d="M42.448 78.09l111.066-55.28-.719-.343-110.9 55.151z" fill="#1f5289"/>
    </g>
    <path data-name="패스 637" d="M42.449 78.089v13.272l-.554-.3V77.617z" fill="#91d2f2"/>
  </g>
  <g data-name="그룹 362">
    <g data-name="그룹 352">
      <g data-name="그룹 351">
        <g data-name="그룹 350">
          <path data-name="사각형 96" fill="#656158" d="M114.582 49.583h.547v11.795h-.547z"/>
        </g>
        <path data-name="패스 638" d="M110.545 50.158l3.254 1.8 5.367-2.564-3.244-1.778z" fill="#383331"/>
      </g>
    </g>
    <g data-name="그룹 355">
      <g data-name="그룹 354">
        <g data-name="그룹 353">
          <path data-name="사각형 97" fill="#656158" d="M125.961 44.014h.547v11.795h-.547z"/>
        </g>
        <path data-name="패스 639" d="M121.924 44.588l3.254 1.8 5.367-2.564-3.244-1.778z" fill="#383331"/>
      </g>
    </g>
    <g data-name="그룹 358">
      <g data-name="그룹 357">
        <g data-name="그룹 356">
          <path data-name="사각형 98" fill="#656158" d="M136.031 39.101h.547v11.795h-.547z"/>
        </g>
        <path data-name="패스 640" d="M131.994 39.676l3.254 1.8 5.367-2.564-3.244-1.778z" fill="#383331"/>
      </g>
    </g>
    <g data-name="그룹 361">
      <g data-name="그룹 360">
        <g data-name="그룹 359">
          <path data-name="사각형 99" fill="#656158" d="M146.365 34.188h.547v11.795h-.547z"/>
        </g>
        <path data-name="패스 641" d="M142.328 34.758l3.254 1.8 5.367-2.564-3.244-1.778z" fill="#383331"/>
      </g>
    </g>
  </g>
  <g data-name="그룹 364">
    <g data-name="그룹 363">
      <path data-name="패스 642" d="M154.606 33.191l-41.331 20.881v13.271l41.332-20.7z" fill="#71b7d3"/>
      <path data-name="패스 643" d="M113.276 54.072l41.389-20.881-.719-.343L112.722 53.6z" fill="#1f5289"/>
    </g>
    <path data-name="패스 644" d="M113.276 54.071v13.272l-.554-.3V53.599z" fill="#91d2f2"/>
  </g>
  <g data-name="그룹 377">
    <g data-name="그룹 367">
      <g data-name="그룹 366">
        <g data-name="그룹 365">
          <path data-name="사각형 100" fill="#656158" d="M124.45 55.148h.547v11.795h-.547z"/>
        </g>
        <path data-name="패스 645" d="M120.413 55.723l3.254 1.8 5.367-2.564-3.244-1.778z" fill="#383331"/>
      </g>
    </g>
    <g data-name="그룹 370">
      <g data-name="그룹 369">
        <g data-name="그룹 368">
          <path data-name="사각형 101" fill="#656158" d="M135.829 49.579h.547v11.795h-.547z"/>
        </g>
        <path data-name="패스 646" d="M131.792 50.154l3.254 1.8 5.367-2.564-3.246-1.784z" fill="#383331"/>
      </g>
    </g>
    <g data-name="그룹 373">
      <g data-name="그룹 372">
        <g data-name="그룹 371">
          <path data-name="사각형 102" fill="#656158" d="M145.899 44.666h.547v11.795h-.547z"/>
        </g>
        <path data-name="패스 647" d="M141.862 45.24l3.254 1.8 5.367-2.564-3.244-1.778z" fill="#383331"/>
      </g>
    </g>
    <g data-name="그룹 376">
      <g data-name="그룹 375">
        <g data-name="그룹 374">
          <path data-name="사각형 103" fill="#656158" d="M156.233 39.753h.547v11.795h-.547z"/>
        </g>
        <path data-name="패스 648" d="M152.196 40.328l3.254 1.8 5.367-2.564-3.244-1.778z" fill="#383331"/>
      </g>
    </g>
  </g>
  <g data-name="그룹 379">
    <g data-name="그룹 378">
      <path data-name="패스 649" d="M176.566 33.926l-44.521 22.053V69.25l44.521-22.126z" fill="#71b7d3"/>
      <path data-name="패스 650" d="M132.043 55.979l44.521-22.053-.719-.343-44.353 21.924z" fill="#1f5289"/>
    </g>
    <path data-name="패스 651" d="M132.043 55.978v13.269l-.554-.3V55.503z" fill="#91d2f2"/>
  </g>
  <g data-name="그룹 392">
    <g data-name="그룹 382">
      <g data-name="그룹 381">
        <g data-name="그룹 380">
          <path data-name="사각형 104" fill="#656158" d="M135.569 60.815h.547V72.61h-.547z"/>
        </g>
        <path data-name="패스 652" d="M131.532 61.39l3.254 1.8 5.367-2.564-3.244-1.778z" fill="#383331"/>
      </g>
    </g>
    <g data-name="그룹 385">
      <g data-name="그룹 384">
        <g data-name="그룹 383">
          <path data-name="사각형 105" fill="#656158" d="M146.948 55.246h.547v11.795h-.547z"/>
        </g>
        <path data-name="패스 653" d="M142.911 55.821l3.254 1.8 5.367-2.564-3.244-1.778z" fill="#383331"/>
      </g>
    </g>
    <g data-name="그룹 388">
      <g data-name="그룹 387">
        <g data-name="그룹 386">
          <path data-name="사각형 106" fill="#656158" d="M157.018 50.333h.547v11.795h-.547z"/>
        </g>
        <path data-name="패스 654" d="M152.986 50.907l3.254 1.8 5.367-2.564-3.244-1.778z" fill="#383331"/>
      </g>
    </g>
    <g data-name="그룹 391">
      <g data-name="그룹 390">
        <g data-name="그룹 389">
          <path data-name="사각형 107" fill="#656158" d="M167.352 45.42h.547v11.795h-.547z"/>
        </g>
        <path data-name="패스 655" d="M163.315 45.995l3.254 1.8 5.367-2.564-3.244-1.778z" fill="#383331"/>
      </g>
    </g>
  </g>
  <g data-name="그룹 394">
    <g data-name="그룹 393">
      <path data-name="패스 656" d="M175.827 44.5l-41.331 20.881v13.272l41.332-20.7z" fill="#71b7d3"/>
      <path data-name="패스 657" d="M134.495 65.381L175.827 44.5l-.719-.343-41.166 20.752z" fill="#1f5289"/>
    </g>
    <path data-name="패스 658" d="M134.495 65.38v13.272l-.554-.3V64.908z" fill="#91d2f2"/>
  </g>
  <g data-name="그룹 407">
    <g data-name="그룹 397">
      <g data-name="그룹 396">
        <g data-name="그룹 395">
          <path data-name="사각형 108" fill="#656158" d="M145.645 65.163h.547v11.795h-.547z"/>
        </g>
        <path data-name="패스 659" d="M141.608 65.738l3.254 1.8 5.367-2.564-3.244-1.778z" fill="#383331"/>
      </g>
    </g>
    <g data-name="그룹 400">
      <g data-name="그룹 399">
        <g data-name="그룹 398">
          <path data-name="사각형 109" fill="#656158" d="M157.024 59.594h.547v11.795h-.547z"/>
        </g>
        <path data-name="패스 660" d="M152.986 60.168l3.254 1.8 5.367-2.564-3.244-1.778z" fill="#383331"/>
      </g>
    </g>
    <g data-name="그룹 403">
      <g data-name="그룹 402">
        <g data-name="그룹 401">
          <path data-name="사각형 110" fill="#656158" d="M167.094 54.681h.547v11.795h-.547z"/>
        </g>
        <path data-name="패스 661" d="M163.057 55.256l3.254 1.8 5.367-2.564-3.244-1.778z" fill="#383331"/>
      </g>
    </g>
    <g data-name="그룹 406">
      <g data-name="그룹 405">
        <g data-name="그룹 404">
          <path data-name="사각형 111" fill="#656158" d="M177.428 49.768h.547v11.795h-.547z"/>
        </g>
        <path data-name="패스 662" d="M173.391 50.342l3.254 1.8 5.367-2.564-3.244-1.778z" fill="#383331"/>
      </g>
    </g>
  </g>
  <g data-name="그룹 409">
    <g data-name="그룹 408">
      <path data-name="패스 663" d="M196.808 43.86l-44.521 22.053v13.271l44.521-22.126z" fill="#71b7d3"/>
      <path data-name="패스 664" d="M152.285 65.913l44.521-22.053-.719-.343-44.353 21.924z" fill="#1f5289"/>
    </g>
    <path data-name="패스 665" d="M152.285 65.912v13.272l-.554-.3V65.44z" fill="#91d2f2"/>
  </g>
  <g data-name="그룹 410">
    <path data-name="패스 666" d="M102.811 47.903l53.066 28.161.005 13.662L102.81 61.29z" fill="#91d2f2"/>
    <path data-name="패스 667" d="M155.703 76.065l.683-.332-52.913-28.213-.663.383z" fill="#1f5289"/>
  </g>
  <g data-name="그룹 423">
    <g data-name="그룹 413">
      <g data-name="그룹 412">
        <g data-name="그룹 411">
          <path data-name="사각형 112" fill="#656158" d="M69.357 71.872h.547v11.795h-.547z"/>
        </g>
        <path data-name="패스 668" d="M65.32 72.447l3.254 1.8 5.367-2.564-3.244-1.778z" fill="#383331"/>
      </g>
    </g>
    <g data-name="그룹 416">
      <g data-name="그룹 415">
        <g data-name="그룹 414">
          <path data-name="사각형 113" fill="#656158" d="M80.736 66.303h.547v11.795h-.547z"/>
        </g>
        <path data-name="패스 669" d="M76.701 66.878l3.254 1.8 5.367-2.564-3.244-1.778z" fill="#383331"/>
      </g>
    </g>
    <g data-name="그룹 419">
      <g data-name="그룹 418">
        <g data-name="그룹 417">
          <path data-name="사각형 114" fill="#656158" d="M90.806 61.39h.547v11.795h-.547z"/>
        </g>
        <path data-name="패스 670" d="M86.769 61.963l3.254 1.8 5.367-2.564-3.244-1.778z" fill="#383331"/>
      </g>
    </g>
    <g data-name="그룹 422">
      <g data-name="그룹 421">
        <g data-name="그룹 420">
          <path data-name="사각형 115" fill="#656158" d="M101.14 56.477h.547v11.795h-.547z"/>
        </g>
        <path data-name="패스 671" d="M97.103 57.052l3.254 1.8 5.367-2.564-3.244-1.778z" fill="#383331"/>
      </g>
    </g>
  </g>
  <g data-name="그룹 425">
    <g data-name="그룹 424">
      <path data-name="패스 672" d="M113.638 53.7L72.307 74.581v13.271l41.332-20.7z" fill="#71b7d3"/>
      <path data-name="패스 673" d="M72.308 74.584l41.691-21-.719-.343-41.522 20.87z" fill="#1f5289"/>
    </g>
    <path data-name="패스 674" d="M72.308 74.583v13.272l-.554-.3V74.111z" fill="#91d2f2"/>
  </g>
  <g data-name="그룹 438">
    <g data-name="그룹 428">
      <g data-name="그룹 427">
        <g data-name="그룹 426">
          <path data-name="사각형 116" fill="#656158" d="M82.303 77.029h.547v11.795h-.547z"/>
        </g>
        <path data-name="패스 675" d="M78.266 77.603l3.254 1.8 5.367-2.564-3.244-1.778z" fill="#383331"/>
      </g>
    </g>
    <g data-name="그룹 431">
      <g data-name="그룹 430">
        <g data-name="그룹 429">
          <path data-name="사각형 117" fill="#656158" d="M93.682 71.46h.547v11.795h-.547z"/>
        </g>
        <path data-name="패스 676" d="M89.645 72.034l3.254 1.8 5.367-2.564-3.244-1.778z" fill="#383331"/>
      </g>
    </g>
    <g data-name="그룹 434">
      <g data-name="그룹 433">
        <g data-name="그룹 432">
          <path data-name="사각형 118" fill="#656158" d="M103.752 66.547h.547v11.795h-.547z"/>
        </g>
        <path data-name="패스 677" d="M99.715 67.122l3.254 1.8 5.367-2.564-3.244-1.778z" fill="#383331"/>
      </g>
    </g>
    <g data-name="그룹 437">
      <g data-name="그룹 436">
        <g data-name="그룹 435">
          <path data-name="사각형 119" fill="#656158" d="M114.086 61.634h.547v11.795h-.547z"/>
        </g>
        <path data-name="패스 678" d="M110.049 62.208l3.254 1.8 5.367-2.564-3.244-1.778z" fill="#383331"/>
      </g>
    </g>
  </g>
  <g data-name="그룹 440">
    <g data-name="그룹 439">
      <path data-name="패스 679" d="M109.882 66.922l-44.519 22.05v13.271l44.519-22.123z" fill="#71b7d3"/>
      <path data-name="패스 680" d="M65.363 88.975l44.521-22.053-.719-.343-44.353 21.924z" fill="#1f5289"/>
    </g>
    <path data-name="패스 681" d="M65.363 88.975v13.272l-.554-.3V88.503z" fill="#91d2f2"/>
  </g>
  <g data-name="그룹 453">
    <g data-name="그룹 443">
      <g data-name="그룹 442">
        <g data-name="그룹 441">
          <path data-name="사각형 120" fill="#656158" d="M92.171 82.376h.547v11.795h-.547z"/>
        </g>
        <path data-name="패스 682" d="M88.134 82.95l3.254 1.8 5.367-2.564-3.244-1.778z" fill="#383331"/>
      </g>
    </g>
    <g data-name="그룹 446">
      <g data-name="그룹 445">
        <g data-name="그룹 444">
          <path data-name="사각형 121" fill="#656158" d="M103.55 76.807h.547v11.795h-.547z"/>
        </g>
        <path data-name="패스 683" d="M99.513 77.381l3.254 1.8 5.367-2.564-3.244-1.778z" fill="#383331"/>
      </g>
    </g>
    <g data-name="그룹 449">
      <g data-name="그룹 448">
        <g data-name="그룹 447">
          <path data-name="사각형 122" fill="#656158" d="M113.62 71.894h.547v11.795h-.547z"/>
        </g>
        <path data-name="패스 684" d="M109.583 72.469l3.254 1.8 5.367-2.564-3.244-1.778z" fill="#383331"/>
      </g>
    </g>
    <g data-name="그룹 452">
      <g data-name="그룹 451">
        <g data-name="그룹 450">
          <path data-name="사각형 123" fill="#656158" d="M123.954 66.981h.547v11.795h-.547z"/>
        </g>
        <path data-name="패스 685" d="M119.917 67.555l3.254 1.8 5.367-2.564-3.244-1.778z" fill="#383331"/>
      </g>
    </g>
  </g>
  <g data-name="그룹 455">
    <g data-name="그룹 454">
      <path data-name="패스 686" d="M134.858 65.011L93.527 85.892v13.271l41.332-20.7z" fill="#71b7d3"/>
      <path data-name="패스 687" d="M93.526 85.892l41.69-21-.719-.343-41.522 20.87z" fill="#1f5289"/>
    </g>
    <path data-name="패스 688" d="M93.527 85.891v13.272l-.554-.3V85.419z" fill="#91d2f2"/>
  </g>
  <g data-name="그룹 468">
    <g data-name="그룹 458">
      <g data-name="그룹 457">
        <g data-name="그룹 456">
          <path data-name="사각형 124" fill="#656158" d="M100.717 88.677h.547v11.795h-.547z"/>
        </g>
        <path data-name="패스 689" d="M96.68 89.252l3.254 1.8 5.367-2.564-3.244-1.778z" fill="#383331"/>
      </g>
    </g>
    <g data-name="그룹 461">
      <g data-name="그룹 460">
        <g data-name="그룹 459">
          <path data-name="사각형 125" fill="#656158" d="M112.096 83.108h.547v11.795h-.547z"/>
        </g>
        <path data-name="패스 690" d="M108.059 83.682l3.254 1.8 5.367-2.564-3.244-1.778z" fill="#383331"/>
      </g>
    </g>
    <g data-name="그룹 464">
      <g data-name="그룹 463">
        <g data-name="그룹 462">
          <path data-name="사각형 126" fill="#656158" d="M122.166 78.195h.547V89.99h-.547z"/>
        </g>
        <path data-name="패스 691" d="M118.129 78.77l3.254 1.8 5.367-2.564-3.244-1.78z" fill="#383331"/>
      </g>
    </g>
    <g data-name="그룹 467">
      <g data-name="그룹 466">
        <g data-name="그룹 465">
          <path data-name="사각형 127" fill="#656158" d="M132.5 73.282h.547v11.795h-.547z"/>
        </g>
        <path data-name="패스 692" d="M128.463 73.857l3.254 1.8 5.367-2.564-3.244-1.778z" fill="#383331"/>
      </g>
    </g>
  </g>
  <g data-name="그룹 470">
    <g data-name="그룹 469">
      <path data-name="패스 693" d="M132.422 77.884L87.901 99.936v13.271l44.521-22.126z" fill="#71b7d3"/>
      <path data-name="패스 694" d="M87.9 99.933l44.521-22.052-.719-.343-44.353 21.924z" fill="#1f5289"/>
    </g>
    <path data-name="패스 695" d="M87.901 99.936v13.274l-.554-.3V99.466z" fill="#91d2f2"/>
  </g>
  <g data-name="그룹 471">
    <path data-name="패스 696" d="M0 56.653l113.759 56.168.006 15.417L0 71.539z" fill="#91d2f2"/>
    <path data-name="패스 697" d="M113.759 112.819l.661-.321L.42 56.41l-.416.241z" fill="#1f5289"/>
  </g>
  <g data-name="그룹 484">
    <g data-name="그룹 474">
      <g data-name="그룹 473">
        <g data-name="그룹 472">
          <path data-name="사각형 128" fill="#656158" d="M156.397 71.247h.547v11.795h-.547z"/>
        </g>
        <path data-name="패스 698" d="M152.36 71.821l3.254 1.8 5.367-2.564-3.246-1.78z" fill="#383331"/>
      </g>
    </g>
    <g data-name="그룹 477">
      <g data-name="그룹 476">
        <g data-name="그룹 475">
          <path data-name="사각형 129" fill="#656158" d="M167.776 65.678h.547v11.795h-.547z"/>
        </g>
        <path data-name="패스 699" d="M163.739 66.252l3.254 1.8 5.367-2.564-3.244-1.778z" fill="#383331"/>
      </g>
    </g>
    <g data-name="그룹 480">
      <g data-name="그룹 479">
        <g data-name="그룹 478">
          <path data-name="사각형 130" fill="#656158" d="M177.846 60.765h.547V72.56h-.547z"/>
        </g>
        <path data-name="패스 700" d="M173.809 61.34l3.254 1.8 5.367-2.564-3.244-1.778z" fill="#383331"/>
      </g>
    </g>
    <g data-name="그룹 483">
      <g data-name="그룹 482">
        <g data-name="그룹 481">
          <path data-name="사각형 131" fill="#656158" d="M188.18 55.852h.547v11.795h-.547z"/>
        </g>
        <path data-name="패스 701" d="M184.143 56.426l3.254 1.8 5.367-2.564-3.244-1.778z" fill="#383331"/>
      </g>
    </g>
  </g>
  <g data-name="그룹 497">
    <g data-name="그룹 487">
      <g data-name="그룹 486">
        <g data-name="그룹 485">
          <path data-name="사각형 132" fill="#656158" d="M111.47 94.761h.547v11.795h-.547z"/>
        </g>
        <path data-name="패스 702" d="M107.433 95.336l3.254 1.8 5.367-2.567-3.244-1.778z" fill="#383331"/>
      </g>
    </g>
    <g data-name="그룹 490">
      <g data-name="그룹 489">
        <g data-name="그룹 488">
          <path data-name="사각형 133" fill="#656158" d="M122.849 89.192h.547v11.795h-.547z"/>
        </g>
        <path data-name="패스 703" d="M118.816 89.767l3.254 1.8 5.367-2.564-3.244-1.778z" fill="#383331"/>
      </g>
    </g>
    <g data-name="그룹 493">
      <g data-name="그룹 492">
        <g data-name="그룹 491">
          <path data-name="사각형 134" fill="#656158" d="M132.919 84.279h.547v11.795h-.547z"/>
        </g>
        <path data-name="패스 704" d="M128.882 84.854l3.254 1.8 5.367-2.564-3.244-1.778z" fill="#383331"/>
      </g>
    </g>
    <g data-name="그룹 496">
      <g data-name="그룹 495">
        <g data-name="그룹 494">
          <path data-name="사각형 135" fill="#656158" d="M143.253 79.366h.547v11.795h-.547z"/>
        </g>
        <path data-name="패스 705" d="M139.216 79.941l3.254 1.8 5.367-2.564-3.244-1.778z" fill="#383331"/>
      </g>
    </g>
  </g>
  <g data-name="그룹 499">
    <g data-name="그룹 498">
      <path data-name="패스 706" d="M198.85 55.163l-77.039 38.415v13.271l77.039-38.488z" fill="#71b7d3"/>
      <path data-name="패스 707" d="M121.814 93.577l77.039-38.415-.719-.343-76.871 38.286z" fill="#1f5289"/>
    </g>
    <path data-name="패스 708" d="M121.814 93.577v13.272l-.554-.3V93.105z" fill="#91d2f2"/>
  </g>
  <g data-name="그룹 503">
    <g data-name="그룹 500">
      <path data-name="패스 709" d="M177.308 76.268l5.177-2.77 5.505 3.094-5.857 2.751z" fill="#528da6"/>
    </g>
    <g data-name="그룹 501">
      <path data-name="패스 710" d="M173.784 76.523l5.478-2.881 6.552 3.943-5.342 2.632z" fill="#68aac3"/>
    </g>
    <g data-name="그룹 502">
      <path data-name="패스 711" d="M162.801 79.863l12.308-6.365 8.119 5.324-11.78 5.809z" fill="#7dc4e7"/>
    </g>
  </g>
  <g data-name="그룹 504">
    <path data-name="패스 712" d="M156.234 76.374l16.042 8.764.006 13.662-16.047-9.038z" fill="#91d2f2"/>
    <path data-name="패스 713" d="M172.874 85.445l.683-.332-16.661-9.122-.663.383z" fill="#1f5289"/>
  </g>
  <g data-name="그룹 505">
    <path data-name="패스 714" d="M162.721 79.918l-12.462 6.257v3.25l-3.807 1.825-.024 2.549-3.481 1.676-.029 3.142 29.062-13.673z" fill="#7dc4e7"/>
    <path data-name="패스 715" d="M150.259 86.175l8.065 5.073-3.044 1.475-5.021-3.3z" fill="#528da6"/>
    <path data-name="패스 716" d="M146.455 91.243l5.037 3.353-2.314 1.1-2.746-1.9z" fill="#528da6"/>
    <path data-name="패스 717" d="M142.948 95.473l2.535 1.869-2.564 1.273z" fill="#528da6"/>
  </g>
  <g data-name="그룹 506">
    <path data-name="패스 718" d="M226.942 71.664l-.246-15.192-113.023 56.313.005 15.417z" fill="#71b7d3"/>
    <path data-name="패스 719" d="M113.762 112.821l-.531-.452 112.667-56.085.555.306z" fill="#1f5289"/>
  </g>
</svg>
