<svg width="155.225" height="154.501" xmlns="http://www.w3.org/2000/svg">
 <g>
  <g id="송수펌프동">
   <g id="그룹_1936">
    <path fill="#a0d6f2" d="m77.608,77.11801l-38.8,-19.362l38.8,-19.265l38.8,19.352l-38.8,19.275z" id="패스_19066"/>
    <path fill="#7fc6ea" d="m77.608,77.118l0,38.756l-38.8,-19.307l0,-38.807l38.8,19.358z" id="패스_19067"/>
    <path fill="#6091b2" d="m77.609,77.11701l0,38.756l38.813,-19.3l-0.009,-38.728l-38.804,19.272z" id="패스_19068"/>
    <path fill="#39709e" d="m81.333,83.788l0,20.385l5.513,-2.744l-0.042,-20.378l-5.471,2.737z" id="패스_19069"/>
    <path fill="#39709e" d="m89.944,79.58098l0,20.385l5.513,-2.744l-0.042,-20.378l-5.471,2.737z" id="패스_19070"/>
    <path fill="#39709e" d="m98.555,75.26899l0,20.385l5.513,-2.744l-0.04,-20.378l-5.473,2.737z" id="패스_19071"/>
    <path fill="#39709e" d="m107.166,70.986l0,20.385l5.513,-2.744l-0.042,-20.378l-5.471,2.737z" id="패스_19072"/>
    <path fill="#557d93" d="m86.842,101.429l-0.8,-0.4l0,-19.6l0.756,-0.378l0.044,20.378z" id="패스_19073"/>
    <path fill="#72b4ce" d="m86.049,101.03299l0.8,0.4l-5.513,2.744l0,-0.84l4.713,-2.304z" id="패스_19074"/>
    <path fill="#557d93" d="m95.457,97.22198l-0.8,-0.4l0,-19.6l0.756,-0.378l0.044,20.378z" id="패스_19075"/>
    <path fill="#72b4ce" d="m94.66,96.825l0.8,0.4l-5.513,2.744l0,-0.84l4.713,-2.304z" id="패스_19076"/>
    <path fill="#557d93" d="m104.068,92.90999l-0.8,-0.4l0,-19.6l0.756,-0.378l0.044,20.378z" id="패스_19077"/>
    <path fill="#72b4ce" d="m103.271,92.513l0.8,0.4l-5.513,2.744l0,-0.84l4.713,-2.304z" id="패스_19078"/>
    <path fill="#557d93" d="m112.68,88.627l-0.8,-0.4l0,-19.6l0.756,-0.378l0.044,20.378z" id="패스_19079"/>
    <path fill="#72b4ce" d="m111.882,88.22998l0.8,0.4l-5.513,2.744l0,-0.84l4.713,-2.304z" id="패스_19080"/>
    <path fill="#3b494f" d="m86.049,101.03199l-0.548,0.267l0,-19.6l0.548,-0.274l0,19.607z" id="패스_19081"/>
    <path fill="#3b494f" d="m86.049,101.032l0,-0.553l-4.716,2.276l0,0.578l4.716,-2.301z" id="패스_19082"/>
    <path fill="#3b494f" d="m86.049,91.639l0,-0.553l-4.716,2.276l0,0.578l4.716,-2.301z" id="패스_19083"/>
    <path fill="#a0d6f2" d="m47.984,70.87601l0,20.387l-5.513,-2.744l0.042,-20.378l5.471,2.735z" id="패스_19084"/>
    <path fill="#6091b2" d="m42.473,88.51701l0.8,-0.4l0,-19.6l-0.756,-0.378l-0.044,20.378z" id="패스_19085"/>
    <path fill="#95cfe8" d="m43.27,88.11999l-0.8,0.4l5.513,2.744l0,-0.84l-4.713,-2.304z" id="패스_19086"/>
    <path fill="#49565b" d="m43.27,88.11999l0.548,0.267l0,-19.6l-0.548,-0.274l0,19.607z" id="패스_19087"/>
    <path fill="#49565b" d="m43.27,88.12001l0,-0.554l4.716,2.276l0,0.578l-4.716,-2.3z" id="패스_19088"/>
    <path fill="#49565b" d="m43.27,78.727l0,-0.553l4.716,2.276l0,0.578l-4.716,-2.301z" id="패스_19089"/>
    <path fill="#a0d6f2" d="m56.421,75.169l0,20.38l-5.513,-2.744l0.042,-20.378l5.471,2.742z" id="패스_19090"/>
    <path fill="#6091b2" d="m50.908,92.81l0.8,-0.4l0,-19.6l-0.756,-0.378l-0.044,20.378z" id="패스_19091"/>
    <path fill="#95cfe8" d="m51.705,92.41301l-0.8,0.4l5.513,2.744l0,-0.84l-4.713,-2.304z" id="패스_19092"/>
    <path fill="#49565b" d="m51.705,92.41299l0.548,0.267l0,-19.6l-0.548,-0.274l0,19.607z" id="패스_19093"/>
    <path fill="#49565b" d="m51.705,92.413l0,-0.553l4.716,2.276l0,0.578l-4.716,-2.301z" id="패스_19094"/>
    <path fill="#49565b" d="m51.705,83.01899l0,-0.553l4.716,2.276l0,0.578l-4.716,-2.301z" id="패스_19095"/>
    <path fill="#3b494f" d="m94.659,96.823l-0.548,0.267l0,-19.6l0.548,-0.274l0,19.607z" id="패스_19096"/>
    <path fill="#3b494f" d="m94.66,96.82301l0,-0.553l-4.716,2.276l0,0.578l4.716,-2.301z" id="패스_19097"/>
    <path fill="#3b494f" d="m94.66,87.43101l0,-0.553l-4.716,2.276l0,0.578l4.716,-2.301z" id="패스_19098"/>
    <path fill="#3b494f" d="m103.271,92.51301l-0.548,0.267l0,-19.6l0.548,-0.274l0,19.607z" id="패스_19099"/>
    <path fill="#3b494f" d="m103.271,92.51299l0,-0.553l-4.716,2.276l0,0.578l4.716,-2.301z" id="패스_19100"/>
    <path fill="#3b494f" d="m103.271,83.11899l0,-0.553l-4.716,2.276l0,0.578l4.716,-2.301z" id="패스_19101"/>
    <path fill="#3b494f" d="m111.882,88.23099l-0.548,0.267l0,-19.6l0.548,-0.274l0,19.607z" id="패스_19102"/>
    <path fill="#3b494f" d="m111.882,88.23201l0,-0.553l-4.716,2.276l0,0.578l4.716,-2.301z" id="패스_19103"/>
    <path fill="#3b494f" d="m111.882,78.838l0,-0.553l-4.716,2.276l0,0.578l4.716,-2.301z" id="패스_19104"/>
    <path fill="#3b494f" d="m73.965,87.05099l0,27.02l-13.081,-6.541l0.143,-26.994l12.938,6.515z" id="패스_19105"/>
    <path fill="#6091b2" d="m62.588,83.617l0,23.116l-1.7,0.864l0,-24.187l1.7,0.207z" id="패스_19106"/>
    <g id="그룹_1935">
     <path fill="#d3d3d3" d="m71.922,88.00001l0,2.472l-12.96,-6.45l0.056,-2.465l12.904,6.443z" id="패스_19107"/>
     <path fill="#f4f4f4" d="m71.922,88.02101l-12.913,-6.444l2.038,-1.041l12.913,6.468l-2.038,1.017z" id="패스_19108"/>
     <path fill="#a0a0a0" d="m71.922,88.02099l0,2.458l2.043,-1.016l-0.011,-2.456l-2.032,1.014z" id="패스_19109"/>
    </g>
   </g>
   <g id="그룹_1938">
    <path fill="#a0d6f2" d="m116.413,96.47004l-38.8,-19.362l38.8,-19.265l38.812,19.313l-38.812,19.314z" id="패스_19110"/>
    <path fill="#7fc6ea" d="m116.413,96.47002l0,38.756l-38.8,-19.307l0,-38.807l38.8,19.358z" id="패스_19111"/>
    <path fill="#6091b2" d="m116.413,96.47103l0,38.756l38.813,-19.3l0,-38.769l-38.813,19.313z" id="패스_19112"/>
    <path fill="#39709e" d="m120.136,103.14103l0,20.385l5.513,-2.744l-0.042,-20.378l-5.471,2.737z" id="패스_19113"/>
    <path fill="#39709e" d="m128.748,98.93402l0,20.385l5.513,-2.744l-0.042,-20.378l-5.471,2.737z" id="패스_19114"/>
    <path fill="#39709e" d="m137.358,94.62202l0,20.385l5.513,-2.744l-0.042,-20.378l-5.471,2.737z" id="패스_19115"/>
    <path fill="#39709e" d="m145.97,90.33803l0,20.385l5.513,-2.744l-0.042,-20.378l-5.471,2.737z" id="패스_19116"/>
    <path fill="#557d93" d="m125.65,120.78203l-0.8,-0.4l0,-19.6l0.756,-0.378l0.044,20.378z" id="패스_19117"/>
    <path fill="#72b4ce" d="m124.852,120.38501l0.8,0.4l-5.513,2.744l0,-0.84l4.713,-2.304z" id="패스_19118"/>
    <path fill="#557d93" d="m134.261,116.57502l-0.8,-0.4l0,-19.6l0.756,-0.378l0.044,20.378z" id="패스_19119"/>
    <path fill="#72b4ce" d="m133.464,116.17803l0.8,0.4l-5.513,2.744l0,-0.84l4.713,-2.304z" id="패스_19120"/>
    <path fill="#557d93" d="m142.872,112.26302l-0.8,-0.4l0,-19.6l0.756,-0.378l0.044,20.378z" id="패스_19121"/>
    <path fill="#72b4ce" d="m142.078,111.86603l0.8,0.4l-5.513,2.744l0,-0.84l4.713,-2.304z" id="패스_19122"/>
    <path fill="#557d93" d="m151.483,107.97903l-0.8,-0.4l0,-19.6l0.756,-0.378l0.044,20.378z" id="패스_19123"/>
    <path fill="#72b4ce" d="m150.686,107.58204l0.8,0.4l-5.513,2.744l0,-0.84l4.713,-2.304z" id="패스_19124"/>
    <path fill="#3b494f" d="m124.853,120.38602l-0.548,0.267l0,-19.6l0.548,-0.274l0,19.607z" id="패스_19125"/>
    <path fill="#3b494f" d="m124.852,120.38503l0,-0.553l-4.716,2.276l0,0.578l4.716,-2.301z" id="패스_19126"/>
    <path fill="#3b494f" d="m124.852,110.99203l0,-0.553l-4.716,2.276l0,0.578l4.716,-2.301z" id="패스_19127"/>
    <path fill="#a0d6f2" d="m86.79,90.22901l0,20.387l-5.513,-2.744l0.042,-20.378l5.471,2.735z" id="패스_19128"/>
    <path fill="#6091b2" d="m81.277,107.87001l0.8,-0.4l0,-19.6l-0.756,-0.378l-0.044,20.378z" id="패스_19129"/>
    <path fill="#95cfe8" d="m82.075,107.47302l-0.8,0.4l5.513,2.744l0,-0.84l-4.713,-2.304z" id="패스_19130"/>
    <path fill="#49565b" d="m82.075,107.47303l0.548,0.267l0,-19.6l-0.548,-0.274l0,19.607z" id="패스_19131"/>
    <path fill="#49565b" d="m82.075,107.47304l0,-0.553l4.716,2.276l0,0.578l-4.716,-2.301z" id="패스_19132"/>
    <path fill="#49565b" d="m82.075,98.07903l0,-0.554l4.716,2.276l0,0.578l-4.716,-2.3z" id="패스_19133"/>
    <path fill="#a0d6f2" d="m95.225,94.52203l0,20.38l-5.513,-2.744l0.042,-20.378l5.471,2.742z" id="패스_19134"/>
    <path fill="#6091b2" d="m89.712,112.16303l0.8,-0.4l0,-19.6l-0.756,-0.378l-0.044,20.378z" id="패스_19135"/>
    <path fill="#95cfe8" d="m90.51,111.76601l-0.8,0.4l5.513,2.744l0,-0.84l-4.713,-2.304z" id="패스_19136"/>
    <path fill="#49565b" d="m90.506,111.76501l0.548,0.267l0,-19.6l-0.548,-0.274l0,19.607z" id="패스_19137"/>
    <path fill="#49565b" d="m90.506,111.76603l0,-0.553l4.716,2.276l0,0.578l-4.716,-2.301z" id="패스_19138"/>
    <path fill="#49565b" d="m90.506,102.37202l0,-0.553l4.716,2.276l0,0.578l-4.716,-2.301z" id="패스_19139"/>
    <path fill="#3b494f" d="m133.464,116.17603l-0.548,0.267l0,-19.6l0.548,-0.274l0,19.607z" id="패스_19140"/>
    <path fill="#3b494f" d="m133.464,116.17601l0,-0.553l-4.716,2.276l0,0.578l4.716,-2.301z" id="패스_19141"/>
    <path fill="#3b494f" d="m133.464,106.78303l0,-0.553l-4.716,2.276l0,0.578l4.716,-2.301z" id="패스_19142"/>
    <path fill="#3b494f" d="m142.075,111.86601l-0.548,0.267l0,-19.6l0.548,-0.274l0,19.607z" id="패스_19143"/>
    <path fill="#3b494f" d="m142.078,111.86602l0,-0.553l-4.716,2.276l0,0.578l4.716,-2.301z" id="패스_19144"/>
    <path fill="#3b494f" d="m142.078,102.47201l0,-0.553l-4.716,2.276l0,0.578l4.716,-2.301z" id="패스_19145"/>
    <path fill="#3b494f" d="m150.69,107.58402l-0.548,0.267l0,-19.6l0.548,-0.274l0,19.607z" id="패스_19146"/>
    <path fill="#3b494f" d="m150.686,107.58403l0,-0.553l-4.716,2.276l0,0.578l4.716,-2.301z" id="패스_19147"/>
    <path fill="#3b494f" d="m150.686,98.19103l0,-0.553l-4.716,2.276l0,0.578l4.716,-2.301z" id="패스_19148"/>
    <path fill="#3b494f" d="m112.77,106.40402l0,27.02l-13.081,-6.541l0.143,-26.994l12.938,6.515z" id="패스_19149"/>
    <path fill="#6091b2" d="m101.392,102.97104l0,23.116l-1.7,0.864l0,-24.188l1.7,0.208z" id="패스_19150"/>
    <g id="그룹_1937">
     <path fill="#d3d3d3" d="m110.726,107.35401l0,2.471l-12.96,-6.45l0.056,-2.465l12.904,6.444z" id="패스_19151"/>
     <path fill="#f4f4f4" d="m110.726,107.37501l-12.913,-6.444l2.038,-1.041l12.913,6.468l-2.038,1.017z" id="패스_19152"/>
     <path fill="#a0a0a0" d="m110.726,107.37402l0,2.458l2.043,-1.016l-0.011,-2.456l-2.032,1.014z" id="패스_19153"/>
    </g>
   </g>
   <g id="그룹_1939">
    <path fill="#a0d6f2" d="m38.795,96.40501l-38.8,-19.362l38.8,-19.265l38.812,19.313l-38.812,19.314z" id="패스_19154"/>
    <path fill="#7fc6ea" d="m38.795,96.40503l0,38.756l-38.8,-19.307l0,-38.81l38.8,19.361z" id="패스_19155"/>
    <path fill="#6091b2" d="m38.796,96.40504l0,38.756l38.813,-19.3l0,-38.768l-38.813,19.312z" id="패스_19156"/>
    <path fill="#39709e" d="m42.519,103.07603l0,20.383l5.513,-2.744l-0.042,-20.378l-5.471,2.739z" id="패스_19157"/>
    <path fill="#39709e" d="m51.131,98.86902l0,20.385l5.513,-2.744l-0.042,-20.378l-5.471,2.737z" id="패스_19158"/>
    <path fill="#39709e" d="m59.742,94.55702l0,20.385l5.513,-2.744l-0.042,-20.378l-5.471,2.737z" id="패스_19159"/>
    <path fill="#39709e" d="m68.356,90.27303l0,20.385l5.513,-2.744l-0.042,-20.378l-5.471,2.737z" id="패스_19160"/>
    <path fill="#557d93" d="m48.033,120.71803l-0.8,-0.4l0,-19.6l0.756,-0.378l0.044,20.378z" id="패스_19161"/>
    <path fill="#72b4ce" d="m47.235,120.32101l0.8,0.4l-5.513,2.744l0,-0.84l4.713,-2.304z" id="패스_19162"/>
    <path fill="#557d93" d="m56.645,116.51302l-0.8,-0.4l0,-19.6l0.756,-0.378l0.044,20.378z" id="패스_19163"/>
    <path fill="#72b4ce" d="m55.847,116.11303l0.8,0.4l-5.516,2.743l0,-0.84l4.716,-2.303z" id="패스_19164"/>
    <path fill="#557d93" d="m65.254,112.19802l-0.8,-0.4l0,-19.6l0.756,-0.378l0.044,20.378z" id="패스_19165"/>
    <path fill="#72b4ce" d="m64.458,111.80104l0.8,0.4l-5.513,2.744l0,-0.84l4.713,-2.304z" id="패스_19166"/>
    <path fill="#557d93" d="m73.867,107.91403l-0.8,-0.4l0,-19.6l0.756,-0.378l0.044,20.378z" id="패스_19167"/>
    <path fill="#72b4ce" d="m73.069,107.51701l0.8,0.4l-5.513,2.741l0,-0.84l4.713,-2.301z" id="패스_19168"/>
    <path fill="#3b494f" d="m47.234,120.32102l-0.548,0.267l0,-19.6l0.548,-0.274l0,19.607z" id="패스_19169"/>
    <path fill="#3b494f" d="m47.235,120.32103l0,-0.554l-4.716,2.279l0,0.578l4.716,-2.303z" id="패스_19170"/>
    <path fill="#3b494f" d="m47.235,110.92803l0,-0.553l-4.716,2.276l0,0.578l4.716,-2.301z" id="패스_19171"/>
    <path fill="#a0d6f2" d="m9.173,90.16401l0,20.385l-5.513,-2.744l0.042,-20.378l5.471,2.737z" id="패스_19172"/>
    <path fill="#6091b2" d="m3.66,107.80501l0.8,-0.4l0,-19.6l-0.756,-0.378l-0.044,20.378z" id="패스_19173"/>
    <path fill="#95cfe8" d="m4.457,107.40802l-0.8,0.4l5.513,2.744l0,-0.84l-4.713,-2.304z" id="패스_19174"/>
    <path fill="#49565b" d="m4.457,107.40903l0.548,0.267l0,-19.6l-0.548,-0.274l0,19.607z" id="패스_19175"/>
    <path fill="#49565b" d="m4.457,107.40801l0,-0.554l4.716,2.276l0,0.578l-4.716,-2.3z" id="패스_19176"/>
    <path fill="#49565b" d="m4.457,98.01403l0,-0.553l4.716,2.276l0,0.578l-4.716,-2.301z" id="패스_19177"/>
    <path fill="#a0d6f2" d="m17.608,94.45603l0,20.385l-5.513,-2.744l0.042,-20.378l5.471,2.737z" id="패스_19178"/>
    <path fill="#6091b2" d="m12.095,112.09703l0.8,-0.4l0,-19.6l-0.756,-0.378l-0.044,20.378z" id="패스_19179"/>
    <path fill="#95cfe8" d="m12.892,111.70101l-0.8,0.4l5.513,2.744l0,-0.84l-4.713,-2.304z" id="패스_19180"/>
    <path fill="#49565b" d="m12.892,111.70101l0.548,0.267l0,-19.6l-0.548,-0.274l0,19.607z" id="패스_19181"/>
    <path fill="#49565b" d="m12.892,111.70103l0,-0.554l4.716,2.276l0,0.578l-4.716,-2.3z" id="패스_19182"/>
    <path fill="#49565b" d="m12.892,102.30702l0,-0.554l4.716,2.276l0,0.578l-4.716,-2.3z" id="패스_19183"/>
    <path fill="#3b494f" d="m55.846,116.11002l-0.548,0.267l0,-19.591l0.548,-0.274l0,19.598z" id="패스_19184"/>
    <path fill="#3b494f" d="m55.847,116.11101l0,-0.553l-4.716,2.276l0,0.578l4.716,-2.301z" id="패스_19185"/>
    <path fill="#3b494f" d="m55.847,106.71703l0,-0.553l-4.716,2.276l0,0.578l4.716,-2.301z" id="패스_19186"/>
    <path fill="#a0d6f2" d="m34.956,103.07603l0,20.383l-5.513,-2.744l0.042,-20.378l5.471,2.739z" id="패스_19187"/>
    <path fill="#a0d6f2" d="m26.345,98.86902l0,20.385l-5.513,-2.741l0.041,-20.38l5.472,2.736z" id="패스_19188"/>
    <path fill="#6091b2" d="m29.442,120.71803l0.8,-0.4l0,-19.6l-0.756,-0.378l-0.044,20.378z" id="패스_19189"/>
    <path fill="#95cfe8" d="m30.24,120.32101l-0.8,0.4l5.513,2.744l0,-0.84l-4.713,-2.304z" id="패스_19190"/>
    <path fill="#6091b2" d="m20.832,116.51302l0.8,-0.4l0,-19.6l-0.756,-0.378l-0.044,20.378z" id="패스_19191"/>
    <path fill="#95cfe8" d="m21.629,116.11303l-0.8,0.4l5.513,2.744l0,-0.84l-4.713,-2.304z" id="패스_19192"/>
    <path fill="#3b494f" d="m30.24,120.32102l0.548,0.267l0,-19.6l-0.548,-0.274l0,19.607z" id="패스_19193"/>
    <path fill="#3b494f" d="m30.24,120.32103l0,-0.554l4.716,2.276l0,0.578l-4.716,-2.3z" id="패스_19194"/>
    <path fill="#3b494f" d="m30.24,110.92803l0,-0.553l4.716,2.276l0,0.578l-4.716,-2.301z" id="패스_19195"/>
    <path fill="#3b494f" d="m21.628,116.11002l0.548,0.267l0,-19.591l-0.548,-0.274l0,19.598z" id="패스_19196"/>
    <path fill="#3b494f" d="m21.628,116.11101l0,-0.553l4.716,2.276l0,0.578l-4.716,-2.301z" id="패스_19197"/>
    <path fill="#3b494f" d="m21.628,106.71703l0,-0.553l4.716,2.276l0,0.578l-4.716,-2.301z" id="패스_19198"/>
    <path fill="#3b494f" d="m64.458,111.80101l-0.548,0.267l0,-19.6l0.548,-0.274l0,19.607z" id="패스_19199"/>
    <path fill="#3b494f" d="m64.458,111.80502l0,-0.554l-4.716,2.276l0,0.578l4.716,-2.3z" id="패스_19200"/>
    <path fill="#3b494f" d="m64.458,102.40701l0,-0.553l-4.716,2.276l0,0.578l4.716,-2.301z" id="패스_19201"/>
    <path fill="#3b494f" d="m73.069,107.51902l-0.548,0.267l0,-19.6l0.548,-0.274l0,19.607z" id="패스_19202"/>
    <path fill="#3b494f" d="m73.069,107.52404l0,-0.554l-4.713,2.272l0,0.578l4.713,-2.296z" id="패스_19203"/>
    <path fill="#3b494f" d="m73.069,98.12603l0,-0.554l-4.713,2.277l0,0.578l4.713,-2.301z" id="패스_19204"/>
   </g>
   <g id="그룹_1940">
    <path fill="#a0d6f2" d="m77.6,38.62701l-38.8,-19.362l38.8,-19.265l38.812,19.313l-38.812,19.314z" id="패스_19205"/>
    <path fill="#7fc6ea" d="m77.6,38.627l0,38.756l-38.8,-19.307l0,-38.81l38.8,19.361z" id="패스_19206"/>
    <path fill="#6091b2" d="m77.6,38.626l0,38.756l38.813,-19.3l0,-38.769l-38.813,19.313z" id="패스_19207"/>
    <path fill="#39709e" d="m81.325,45.297l0,20.385l5.513,-2.744l-0.042,-20.378l-5.471,2.737z" id="패스_19208"/>
    <path fill="#39709e" d="m89.94,41.09001l0,20.385l5.513,-2.744l-0.042,-20.378l-5.471,2.737z" id="패스_19209"/>
    <path fill="#39709e" d="m98.54701,36.77799l0,20.385l5.513,-2.744l-0.042,-20.378l-5.471,2.737z" id="패스_19210"/>
    <path fill="#39709e" d="m107.158,32.49399l0,20.385l5.513,-2.744l-0.042,-20.378l-5.471,2.737z" id="패스_19211"/>
    <path fill="#557d93" d="m86.838,62.938l-0.8,-0.4l0,-19.6l0.756,-0.378l0.044,20.378z" id="패스_19212"/>
    <path fill="#72b4ce" d="m86.041,62.54101l0.8,0.4l-5.513,2.744l0,-0.84l4.713,-2.304z" id="패스_19213"/>
    <path fill="#557d93" d="m95.449,58.73101l-0.8,-0.4l0,-19.6l0.756,-0.378l0.044,20.378z" id="패스_19214"/>
    <path fill="#72b4ce" d="m94.651,58.334l0.8,0.4l-5.513,2.744l0,-0.84l4.713,-2.304z" id="패스_19215"/>
    <path fill="#557d93" d="m104.06001,54.41899l-0.8,-0.4l0,-19.6l0.756,-0.378l0.044,20.378z" id="패스_19216"/>
    <path fill="#72b4ce" d="m103.26301,54.022l0.8,0.4l-5.513,2.744l0,-0.84l4.713,-2.304z" id="패스_19217"/>
    <path fill="#557d93" d="m112.671,50.13499l-0.8,-0.4l0,-19.6l0.756,-0.378l0.044,20.378z" id="패스_19218"/>
    <path fill="#72b4ce" d="m111.874,49.73901l0.8,0.4l-5.513,2.744l0,-0.84l4.713,-2.304z" id="패스_19219"/>
    <path fill="#3b494f" d="m86.041,62.54099l-0.548,0.267l0,-19.6l0.548,-0.274l0,19.607z" id="패스_19220"/>
    <path fill="#3b494f" d="m86.041,62.541l0,-0.553l-4.716,2.276l0,0.578l4.716,-2.301z" id="패스_19221"/>
    <path fill="#3b494f" d="m86.041,53.148l0,-0.553l-4.716,2.276l0,0.578l4.716,-2.301z" id="패스_19222"/>
    <path fill="#a0d6f2" d="m47.98001,32.38501l0,20.385l-5.513,-2.744l0.042,-20.378l5.471,2.737z" id="패스_19223"/>
    <path fill="#6091b2" d="m42.46501,50.02601l0.8,-0.4l0,-19.6l-0.756,-0.378l-0.044,20.378z" id="패스_19224"/>
    <path fill="#95cfe8" d="m43.26201,49.62899l-0.8,0.4l5.518,2.741l0,-0.84l-4.718,-2.301z" id="패스_19225"/>
    <path fill="#49565b" d="m43.262,49.63199l0.548,0.267l0,-19.6l-0.548,-0.274l0,19.607z" id="패스_19226"/>
    <path fill="#49565b" d="m43.262,49.62901l0,-0.554l4.716,2.276l0,0.578l-4.716,-2.3z" id="패스_19227"/>
    <path fill="#49565b" d="m43.262,40.23601l0,-0.554l4.716,2.276l0,0.578l-4.716,-2.3z" id="패스_19228"/>
    <path fill="#a0d6f2" d="m56.41301,36.678l0,20.385l-5.513,-2.744l0.042,-20.378l5.471,2.737z" id="패스_19229"/>
    <path fill="#6091b2" d="m50.90001,54.319l0.8,-0.4l0,-19.6l-0.756,-0.378l-0.044,20.378z" id="패스_19230"/>
    <path fill="#95cfe8" d="m51.69701,53.92201l-0.8,0.4l5.513,2.744l0,-0.84l-4.713,-2.304z" id="패스_19231"/>
    <path fill="#49565b" d="m51.697,53.91799l0.548,0.267l0,-19.6l-0.548,-0.274l0,19.607z" id="패스_19232"/>
    <path fill="#49565b" d="m51.697,53.922l0,-0.553l4.716,2.276l0,0.578l-4.716,-2.301z" id="패스_19233"/>
    <path fill="#49565b" d="m51.697,44.52799l0,-0.553l4.716,2.276l0,0.578l-4.716,-2.301z" id="패스_19234"/>
    <path fill="#3b494f" d="m94.651,58.332l-0.548,0.267l0,-19.6l0.548,-0.274l0,19.607z" id="패스_19235"/>
    <path fill="#3b494f" d="m94.651,58.33201l0,-0.553l-4.716,2.276l0,0.578l4.716,-2.301z" id="패스_19236"/>
    <path fill="#3b494f" d="m94.651,48.93901l0,-0.553l-4.716,2.276l0,0.578l4.716,-2.301z" id="패스_19237"/>
    <path fill="#a0d6f2" d="m73.76101,45.297l0,20.385l-5.513,-2.744l0.042,-20.378l5.471,2.737z" id="패스_19238"/>
    <path fill="#a0d6f2" d="m65.15001,41.09001l0,20.385l-5.513,-2.744l0.042,-20.378l5.471,2.737z" id="패스_19239"/>
    <path fill="#6091b2" d="m68.24701,62.938l0.8,-0.4l0,-19.6l-0.756,-0.378l-0.044,20.378z" id="패스_19240"/>
    <path fill="#95cfe8" d="m69.04501,62.54101l-0.8,0.4l5.513,2.744l0,-0.84l-4.713,-2.304z" id="패스_19241"/>
    <path fill="#6091b2" d="m59.63701,58.73101l0.8,-0.4l0,-19.6l-0.756,-0.378l-0.044,20.378z" id="패스_19242"/>
    <path fill="#95cfe8" d="m60.43401,58.334l-0.8,0.4l5.513,2.744l0,-0.84l-4.713,-2.304z" id="패스_19243"/>
    <path fill="#3b494f" d="m69.045,62.54099l0.548,0.267l0,-19.6l-0.548,-0.274l0,19.607z" id="패스_19244"/>
    <path fill="#3b494f" d="m69.045,62.541l0,-0.553l4.716,2.276l0,0.578l-4.716,-2.301z" id="패스_19245"/>
    <path fill="#3b494f" d="m69.045,53.148l0,-0.553l4.716,2.276l0,0.578l-4.716,-2.301z" id="패스_19246"/>
    <path fill="#3b494f" d="m60.434,58.332l0.548,0.267l0,-19.6l-0.548,-0.274l0,19.607z" id="패스_19247"/>
    <path fill="#3b494f" d="m60.434,58.33201l0,-0.553l4.716,2.276l0,0.578l-4.716,-2.301z" id="패스_19248"/>
    <path fill="#3b494f" d="m60.434,48.93901l0,-0.553l4.716,2.276l0,0.578l-4.716,-2.301z" id="패스_19249"/>
    <path fill="#3b494f" d="m103.263,54.02201l-0.548,0.267l0,-19.6l0.548,-0.274l0,19.607z" id="패스_19250"/>
    <path fill="#3b494f" d="m103.26301,54.02199l0,-0.553l-4.716,2.276l0,0.578l4.716,-2.301z" id="패스_19251"/>
    <path fill="#3b494f" d="m103.26301,44.63099l0,-0.553l-4.716,2.276l0,0.578l4.716,-2.301z" id="패스_19252"/>
    <path fill="#3b494f" d="m111.87301,49.73999l-0.548,0.267l0,-19.6l0.548,-0.274l0,19.607z" id="패스_19253"/>
    <path fill="#3b494f" d="m111.874,49.74l0,-0.553l-4.716,2.276l0,0.578l4.716,-2.301z" id="패스_19254"/>
    <path fill="#3b494f" d="m111.874,40.35l0,-0.554l-4.716,2.276l0,0.578l4.716,-2.3z" id="패스_19255"/>
   </g>
   <g id="그룹_1941">
    <path fill="#a0d6f2" d="m38.795,57.77903l-38.8,-19.362l38.8,-19.265l38.812,19.313l-38.812,19.314z" id="패스_19256"/>
    <path fill="#7fc6ea" d="m38.795,57.77901l0,38.756l-38.8,-19.307l0,-38.814l38.8,19.365z" id="패스_19257"/>
    <path fill="#6091b2" d="m38.796,57.77902l0,38.757l38.813,-19.3l0,-38.77l-38.813,19.313z" id="패스_19258"/>
    <path fill="#39709e" d="m42.519,64.45102l0,20.385l5.513,-2.744l-0.042,-20.378l-5.471,2.737z" id="패스_19259"/>
    <path fill="#39709e" d="m51.131,60.244l0,20.385l5.513,-2.744l-0.042,-20.378l-5.471,2.737z" id="패스_19260"/>
    <path fill="#39709e" d="m59.742,55.93101l0,20.385l5.513,-2.744l-0.042,-20.378l-5.471,2.737z" id="패스_19261"/>
    <path fill="#39709e" d="m68.356,51.64702l0,20.385l5.513,-2.744l-0.042,-20.378l-5.471,2.737z" id="패스_19262"/>
    <path fill="#557d93" d="m48.033,82.09102l-0.8,-0.4l0,-19.6l0.756,-0.378l0.044,20.378z" id="패스_19263"/>
    <path fill="#72b4ce" d="m47.235,81.695l0.8,0.4l-5.516,2.739l0,-0.84l4.716,-2.299z" id="패스_19264"/>
    <path fill="#557d93" d="m56.645,77.884l-0.8,-0.4l0,-19.6l0.756,-0.378l0.044,20.378z" id="패스_19265"/>
    <path fill="#72b4ce" d="m55.847,77.48701l0.8,0.4l-5.513,2.744l0,-0.84l4.713,-2.304z" id="패스_19266"/>
    <path fill="#557d93" d="m65.254,73.57201l-0.8,-0.4l0,-19.6l0.756,-0.378l0.044,20.378z" id="패스_19267"/>
    <path fill="#72b4ce" d="m64.458,73.17502l0.8,0.4l-5.513,2.744l0,-0.84l4.713,-2.304z" id="패스_19268"/>
    <path fill="#557d93" d="m73.867,69.28802l-0.8,-0.4l0,-19.6l0.756,-0.378l0.044,20.378z" id="패스_19269"/>
    <path fill="#72b4ce" d="m73.069,68.89103l0.8,0.4l-5.513,2.741l0,-0.84l4.713,-2.301z" id="패스_19270"/>
    <path fill="#3b494f" d="m47.234,81.69501l-0.548,0.267l0,-19.596l0.548,-0.274l0,19.603z" id="패스_19271"/>
    <path fill="#3b494f" d="m47.235,81.69502l0,-0.553l-4.716,2.276l0,0.578l4.716,-2.301z" id="패스_19272"/>
    <path fill="#3b494f" d="m47.235,72.30101l0,-0.553l-4.716,2.276l0,0.578l4.716,-2.301z" id="패스_19273"/>
    <path fill="#a0d6f2" d="m9.173,51.53702l0,20.385l-5.513,-2.744l0.042,-20.378l5.471,2.737z" id="패스_19274"/>
    <path fill="#6091b2" d="m3.66,69.17902l0.8,-0.4l0,-19.6l-0.756,-0.378l-0.044,20.378z" id="패스_19275"/>
    <path fill="#95cfe8" d="m4.457,68.78301l-0.8,0.4l5.513,2.744l0,-0.84l-4.713,-2.304z" id="패스_19276"/>
    <path fill="#49565b" d="m4.457,68.78201l0.548,0.267l0,-19.6l-0.548,-0.274l0,19.607z" id="패스_19277"/>
    <path fill="#49565b" d="m4.457,68.78303l0,-0.554l4.716,2.276l0,0.578l-4.716,-2.3z" id="패스_19278"/>
    <path fill="#49565b" d="m4.457,59.38902l0,-0.553l4.716,2.276l0,0.578l-4.716,-2.301z" id="패스_19279"/>
    <path fill="#a0d6f2" d="m17.608,55.83002l0,20.385l-5.513,-2.744l0.042,-20.378l5.471,2.737z" id="패스_19280"/>
    <path fill="#6091b2" d="m12.095,73.47102l0.8,-0.4l0,-19.6l-0.756,-0.378l-0.044,20.378z" id="패스_19281"/>
    <path fill="#95cfe8" d="m12.892,73.07403l-0.8,0.4l5.513,2.744l0,-0.84l-4.713,-2.304z" id="패스_19282"/>
    <path fill="#49565b" d="m12.892,73.078l0.548,0.267l0,-19.6l-0.548,-0.274l0,19.607z" id="패스_19283"/>
    <path fill="#49565b" d="m12.892,73.07501l0,-0.553l4.716,2.276l0,0.578l-4.716,-2.301z" id="패스_19284"/>
    <path fill="#49565b" d="m12.892,63.68201l0,-0.553l4.716,2.276l0,0.578l-4.716,-2.301z" id="패스_19285"/>
    <path fill="#3b494f" d="m55.846,77.48501l-0.548,0.267l0,-19.6l0.548,-0.274l0,19.607z" id="패스_19286"/>
    <path fill="#3b494f" d="m55.847,77.48402l0,-0.554l-4.716,2.276l0,0.578l4.716,-2.3z" id="패스_19287"/>
    <path fill="#3b494f" d="m55.847,68.09102l0,-0.553l-4.716,2.276l0,0.578l4.716,-2.301z" id="패스_19288"/>
    <path fill="#a0d6f2" d="m34.956,64.45102l0,20.385l-5.514,-2.745l0.042,-20.378l5.472,2.738z" id="패스_19289"/>
    <path fill="#a0d6f2" d="m26.345,60.244l0,20.385l-5.513,-2.744l0.042,-20.378l5.471,2.737z" id="패스_19290"/>
    <path fill="#6091b2" d="m29.442,82.09102l0.8,-0.4l0,-19.6l-0.756,-0.378l-0.044,20.378z" id="패스_19291"/>
    <path fill="#95cfe8" d="m30.24,81.695l-0.8,0.4l5.516,2.739l0,-0.84l-4.716,-2.299z" id="패스_19292"/>
    <path fill="#6091b2" d="m20.832,77.884l0.8,-0.4l0,-19.6l-0.756,-0.378l-0.044,20.378z" id="패스_19293"/>
    <path fill="#95cfe8" d="m21.629,77.48701l-0.8,0.4l5.513,2.744l0,-0.84l-4.713,-2.304z" id="패스_19294"/>
    <path fill="#3b494f" d="m30.24,81.69501l0.548,0.267l0,-19.596l-0.548,-0.274l0,19.603z" id="패스_19295"/>
    <path fill="#3b494f" d="m30.24,81.69502l0,-0.553l4.716,2.276l0,0.578l-4.716,-2.301z" id="패스_19296"/>
    <path fill="#3b494f" d="m30.24,72.30101l0,-0.553l4.716,2.276l0,0.578l-4.716,-2.301z" id="패스_19297"/>
    <path fill="#3b494f" d="m21.628,77.48501l0.548,0.267l0,-19.6l-0.548,-0.274l0,19.607z" id="패스_19298"/>
    <path fill="#3b494f" d="m21.628,77.48402l0,-0.554l4.716,2.276l0,0.578l-4.716,-2.3z" id="패스_19299"/>
    <path fill="#3b494f" d="m21.628,68.09102l0,-0.553l4.716,2.276l0,0.578l-4.716,-2.301z" id="패스_19300"/>
    <path fill="#3b494f" d="m64.458,73.17402l-0.548,0.267l0,-19.6l0.548,-0.274l0,19.607z" id="패스_19301"/>
    <path fill="#3b494f" d="m64.458,73.174l0,-0.553l-4.716,2.276l0,0.578l4.716,-2.301z" id="패스_19302"/>
    <path fill="#3b494f" d="m64.458,63.781l0,-0.553l-4.716,2.276l0,0.578l4.716,-2.301z" id="패스_19303"/>
    <path fill="#3b494f" d="m73.069,68.89401l-0.548,0.267l0,-19.6l0.548,-0.274l0,19.607z" id="패스_19304"/>
    <path fill="#3b494f" d="m73.069,68.89302l0,-0.554l-4.713,2.277l0,0.578l4.713,-2.301z" id="패스_19305"/>
    <path fill="#3b494f" d="m73.069,59.50002l0,-0.553l-4.713,2.276l0,0.578l4.713,-2.301z" id="패스_19306"/>
   </g>
   <g id="그룹_1943">
    <path fill="#a0d6f2" d="m77.608,115.74503l-38.8,-19.362l38.8,-19.265l38.8,19.352l-38.8,19.275z" id="패스_19307"/>
    <path fill="#7fc6ea" d="m77.608,115.74502l0,38.756l-38.8,-19.307l0,-38.81l38.8,19.361z" id="패스_19308"/>
    <path fill="#6091b2" d="m77.609,115.74603l0,38.756l38.813,-19.3l0,-38.769l-38.813,19.313z" id="패스_19309"/>
    <path fill="#39709e" d="m81.333,122.41602l0,20.39l5.513,-2.744l-0.042,-20.378l-5.471,2.732z" id="패스_19310"/>
    <path fill="#39709e" d="m89.944,118.20901l0,20.385l5.513,-2.744l-0.042,-20.378l-5.471,2.737z" id="패스_19311"/>
    <path fill="#39709e" d="m98.555,113.89701l0,20.385l5.513,-2.744l-0.04,-20.373l-5.473,2.732z" id="패스_19312"/>
    <path fill="#39709e" d="m107.166,109.61302l0,20.385l5.513,-2.744l-0.042,-20.378l-5.471,2.737z" id="패스_19313"/>
    <path fill="#557d93" d="m86.842,140.05702l-0.8,-0.4l0,-19.6l0.756,-0.378l0.044,20.378z" id="패스_19314"/>
    <path fill="#72b4ce" d="m86.049,139.66001l0.8,0.4l-5.513,2.744l0,-0.84l4.713,-2.304z" id="패스_19315"/>
    <path fill="#557d93" d="m95.457,135.85001l-0.8,-0.4l0,-19.6l0.756,-0.378l0.044,20.378z" id="패스_19316"/>
    <path fill="#72b4ce" d="m94.66,135.45302l0.8,0.4l-5.513,2.744l0,-0.84l4.713,-2.304z" id="패스_19317"/>
    <path fill="#557d93" d="m104.068,131.53801l-0.8,-0.4l0,-19.6l0.756,-0.378l0.044,20.378z" id="패스_19318"/>
    <path fill="#72b4ce" d="m103.271,131.14103l0.8,0.4l-5.513,2.744l0,-0.84l4.713,-2.304z" id="패스_19319"/>
    <path fill="#557d93" d="m112.68,127.25402l-0.8,-0.4l0,-19.6l0.756,-0.378l0.044,20.378z" id="패스_19320"/>
    <path fill="#72b4ce" d="m111.882,126.85703l0.8,0.4l-5.513,2.744l0,-0.84l4.713,-2.304z" id="패스_19321"/>
    <path fill="#3b494f" d="m86.049,139.66101l-0.548,0.267l0,-19.6l0.548,-0.274l0,19.607z" id="패스_19322"/>
    <path fill="#3b494f" d="m86.049,139.66002l0,-0.553l-4.716,2.276l0,0.579l4.716,-2.302z" id="패스_19323"/>
    <path fill="#3b494f" d="m86.049,130.26802l0,-0.554l-4.716,2.276l0,0.578l4.716,-2.3z" id="패스_19324"/>
    <path fill="#a0d6f2" d="m47.984,109.50403l0,20.385l-5.513,-2.744l0.042,-20.378l5.471,2.737z" id="패스_19325"/>
    <path fill="#6091b2" d="m42.473,127.14503l0.8,-0.4l0,-19.6l-0.756,-0.378l-0.044,20.378z" id="패스_19326"/>
    <path fill="#95cfe8" d="m43.27,126.74801l-0.8,0.4l5.513,2.744l0,-0.84l-4.713,-2.304z" id="패스_19327"/>
    <path fill="#49565b" d="m43.27,126.74802l0.548,0.267l0,-19.6l-0.548,-0.274l0,19.607z" id="패스_19328"/>
    <path fill="#49565b" d="m43.27,126.74803l0,-0.553l4.716,2.276l0,0.578l-4.716,-2.301z" id="패스_19329"/>
    <path fill="#49565b" d="m43.27,117.35402l0,-0.553l4.716,2.276l0,0.578l-4.716,-2.301z" id="패스_19330"/>
    <path fill="#a0d6f2" d="m56.421,113.79702l0,20.385l-5.513,-2.744l0.042,-20.378l5.471,2.737z" id="패스_19331"/>
    <path fill="#6091b2" d="m50.908,131.43802l0.8,-0.4l0,-19.6l-0.756,-0.378l-0.044,20.378z" id="패스_19332"/>
    <path fill="#95cfe8" d="m51.705,131.04101l-0.8,0.4l5.513,2.744l0,-0.84l-4.713,-2.304z" id="패스_19333"/>
    <path fill="#49565b" d="m51.705,131.04001l0.548,0.267l0,-19.6l-0.548,-0.274l0,19.607z" id="패스_19334"/>
    <path fill="#49565b" d="m51.705,131.04102l0,-0.553l4.716,2.276l0,0.579l-4.716,-2.302z" id="패스_19335"/>
    <path fill="#49565b" d="m51.705,121.64702l0,-0.553l4.716,2.276l0,0.578l-4.716,-2.301z" id="패스_19336"/>
    <path fill="#3b494f" d="m94.659,135.45202l-0.548,0.267l0,-19.6l0.548,-0.274l0,19.607z" id="패스_19337"/>
    <path fill="#3b494f" d="m94.66,135.45103l0,-0.553l-4.716,2.276l0,0.578l4.716,-2.301z" id="패스_19338"/>
    <path fill="#3b494f" d="m94.66,126.05702l0,-0.557l-4.716,2.28l0,0.578l4.716,-2.301z" id="패스_19339"/>
    <path fill="#3b494f" d="m103.271,131.14003l-0.548,0.267l0,-19.6l0.548,-0.274l0,19.607z" id="패스_19340"/>
    <path fill="#3b494f" d="m103.271,131.14101l0,-0.553l-4.716,2.276l0,0.578l4.716,-2.301z" id="패스_19341"/>
    <path fill="#3b494f" d="m103.271,121.74701l0,-0.554l-4.716,2.276l0,0.578l4.716,-2.3z" id="패스_19342"/>
    <path fill="#3b494f" d="m111.882,126.85901l-0.548,0.267l0,-19.6l0.548,-0.274l0,19.607z" id="패스_19343"/>
    <path fill="#3b494f" d="m111.882,126.85903l0,-0.553l-4.716,2.276l0,0.578l4.716,-2.301z" id="패스_19344"/>
    <path fill="#3b494f" d="m111.882,117.46603l0,-0.553l-4.716,2.276l0,0.578l4.716,-2.301z" id="패스_19345"/>
    <path fill="#3b494f" d="m73.965,125.67901l0,27.02l-13.081,-6.541l0.143,-26.994l12.938,6.515z" id="패스_19346"/>
    <path fill="#6091b2" d="m62.588,122.24603l0,24.772l-1.7,-0.839l0,-24.14l1.7,0.207z" id="패스_19347"/>
    <g id="그룹_1942">
     <path fill="#d3d3d3" d="m71.922,126.62903l0,2.475l-12.96,-6.45l0.056,-2.465l12.904,6.44z" id="패스_19348"/>
     <path fill="#f4f4f4" d="m71.922,126.65l-12.913,-6.444l2.038,-1.041l12.913,6.468l-2.038,1.017z" id="패스_19349"/>
     <path fill="#a0a0a0" d="m71.922,126.64901l0,2.458l2.043,-1.016l-0.011,-2.456l-2.032,1.014z" id="패스_19350"/>
    </g>
   </g>
   <g id="그룹_1944">
    <path fill="#a0d6f2" d="m116.376,57.82101l-38.8,-19.362l38.8,-19.265l38.812,19.313l-38.812,19.314z" id="패스_19351"/>
    <path fill="#7fc6ea" d="m116.376,57.82l0,38.756l-38.8,-19.307l0,-38.81l38.8,19.361z" id="패스_19352"/>
    <path fill="#6091b2" d="m116.371,57.82101l0,38.756l38.813,-19.3l0,-38.769l-38.813,19.313z" id="패스_19353"/>
    <path fill="#39709e" d="m120.099,64.492l0,20.385l5.513,-2.744l-0.042,-20.378l-5.471,2.737z" id="패스_19354"/>
    <path fill="#39709e" d="m128.711,60.28399l0,20.385l5.513,-2.744l-0.042,-20.378l-5.471,2.737z" id="패스_19355"/>
    <path fill="#39709e" d="m137.32199,55.96899l0,20.385l5.513,-2.744l-0.042,-20.378l-5.471,2.737z" id="패스_19356"/>
    <path fill="#39709e" d="m145.933,51.687l0,20.385l5.513,-2.744l-0.042,-20.378l-5.471,2.737z" id="패스_19357"/>
    <path fill="#557d93" d="m125.613,82.133l-0.8,-0.4l0,-19.6l0.756,-0.378l0.044,20.378z" id="패스_19358"/>
    <path fill="#72b4ce" d="m124.815,81.73602l0.8,0.4l-5.513,2.744l0,-0.84l4.713,-2.304z" id="패스_19359"/>
    <path fill="#557d93" d="m134.224,77.92499l-0.8,-0.4l0,-19.6l0.756,-0.378l0.044,20.378z" id="패스_19360"/>
    <path fill="#72b4ce" d="m133.427,77.528l0.8,0.4l-5.513,2.744l0,-0.84l4.713,-2.304z" id="패스_19361"/>
    <path fill="#557d93" d="m142.835,73.61299l-0.8,-0.4l0,-19.6l0.756,-0.378l0.044,20.378z" id="패스_19362"/>
    <path fill="#72b4ce" d="m142.03799,73.21201l0.8,0.4l-5.513,2.744l0,-0.84l4.713,-2.304z" id="패스_19363"/>
    <path fill="#557d93" d="m151.446,69.329l-0.8,-0.4l0,-19.6l0.756,-0.378l0.044,20.378z" id="패스_19364"/>
    <path fill="#72b4ce" d="m150.645,68.93001l0.8,0.4l-5.513,2.744l0,-0.84l4.713,-2.304z" id="패스_19365"/>
    <path fill="#3b494f" d="m124.815,81.73599l-0.548,0.267l0,-19.6l0.548,-0.274l0,19.607z" id="패스_19366"/>
    <path fill="#3b494f" d="m124.815,81.736l0,-0.553l-4.716,2.276l0,0.578l4.716,-2.301z" id="패스_19367"/>
    <path fill="#3b494f" d="m124.815,72.343l0,-0.553l-4.716,2.276l0,0.578l4.716,-2.301z" id="패스_19368"/>
    <path fill="#a0d6f2" d="m86.754,51.57901l0,20.385l-5.513,-2.744l0.042,-20.378l5.471,2.737z" id="패스_19369"/>
    <path fill="#6091b2" d="m81.24,69.22001l0.8,-0.4l0,-19.6l-0.756,-0.378l-0.044,20.378z" id="패스_19370"/>
    <path fill="#95cfe8" d="m82.038,68.82299l-0.8,0.4l5.513,2.744l0,-0.84l-4.713,-2.304z" id="패스_19371"/>
    <path fill="#49565b" d="m82.038,68.824l0.548,0.267l0,-19.6l-0.548,-0.274l0,19.607z" id="패스_19372"/>
    <path fill="#49565b" d="m82.038,68.82401l0,-0.554l4.716,2.276l0,0.578l-4.716,-2.3z" id="패스_19373"/>
    <path fill="#49565b" d="m82.038,59.429l0,-0.551l4.716,2.276l0,0.578l-4.716,-2.303z" id="패스_19374"/>
    <path fill="#a0d6f2" d="m95.18899,55.871l0,20.385l-5.513,-2.744l0.042,-20.378l5.471,2.737z" id="패스_19375"/>
    <path fill="#6091b2" d="m89.67499,73.512l0.8,-0.4l0,-19.6l-0.756,-0.378l-0.044,20.378z" id="패스_19376"/>
    <path fill="#95cfe8" d="m90.47299,73.11599l-0.8,0.4l5.513,2.744l0,-0.84l-4.713,-2.304z" id="패스_19377"/>
    <path fill="#49565b" d="m90.473,73.11602l0.548,0.267l0,-19.6l-0.548,-0.274l0,19.607z" id="패스_19378"/>
    <path fill="#49565b" d="m90.473,73.116l0,-0.553l4.716,2.276l0,0.578l-4.716,-2.301z" id="패스_19379"/>
    <path fill="#49565b" d="m90.473,63.722l0,-0.558l4.716,2.276l0,0.578l-4.716,-2.296z" id="패스_19380"/>
    <path fill="#3b494f" d="m133.42699,77.52499l-0.548,0.267l0,-19.6l0.548,-0.274l0,19.607z" id="패스_19381"/>
    <path fill="#3b494f" d="m133.427,77.52601l0,-0.553l-4.716,2.276l0,0.578l4.716,-2.301z" id="패스_19382"/>
    <path fill="#3b494f" d="m133.427,68.132l0,-0.553l-4.716,2.276l0,0.578l4.716,-2.301z" id="패스_19383"/>
    <path fill="#a0d6f2" d="m112.536,64.492l0,20.385l-5.513,-2.744l0.042,-20.378l5.471,2.737z" id="패스_19384"/>
    <path fill="#a0d6f2" d="m103.92499,60.28399l0,20.385l-5.513,-2.744l0.042,-20.378l5.471,2.737z" id="패스_19385"/>
    <path fill="#6091b2" d="m107.023,82.133l0.8,-0.4l0,-19.6l-0.756,-0.378l-0.044,20.378z" id="패스_19386"/>
    <path fill="#95cfe8" d="m107.82,81.73602l-0.8,0.4l5.513,2.744l0,-0.84l-4.713,-2.304z" id="패스_19387"/>
    <path fill="#6091b2" d="m98.41099,77.92499l0.8,-0.4l0,-19.6l-0.756,-0.378l-0.044,20.378z" id="패스_19388"/>
    <path fill="#95cfe8" d="m99.20899,77.528l-0.8,0.4l5.513,2.744l0,-0.84l-4.713,-2.304z" id="패스_19389"/>
    <path fill="#3b494f" d="m107.82,81.73599l0.548,0.267l0,-19.6l-0.548,-0.274l0,19.607z" id="패스_19390"/>
    <path fill="#3b494f" d="m107.82,81.736l0,-0.553l4.716,2.276l0,0.578l-4.716,-2.301z" id="패스_19391"/>
    <path fill="#3b494f" d="m107.82,72.343l0,-0.553l4.716,2.276l0,0.578l-4.716,-2.301z" id="패스_19392"/>
    <path fill="#3b494f" d="m99.209,77.52499l0.548,0.267l0,-19.6l-0.548,-0.274l0,19.607z" id="패스_19393"/>
    <path fill="#3b494f" d="m99.209,77.52601l0,-0.553l4.716,2.276l0,0.578l-4.716,-2.301z" id="패스_19394"/>
    <path fill="#3b494f" d="m99.209,68.132l0,-0.553l4.716,2.276l0,0.578l-4.716,-2.301z" id="패스_19395"/>
    <path fill="#3b494f" d="m142.037,73.21501l-0.548,0.267l0,-19.6l0.548,-0.274l0,19.607z" id="패스_19396"/>
    <path fill="#3b494f" d="m142.03799,73.21599l0,-0.553l-4.716,2.276l0,0.578l4.716,-2.301z" id="패스_19397"/>
    <path fill="#3b494f" d="m142.03799,63.82199l0,-0.553l-4.716,2.276l0,0.578l4.716,-2.301z" id="패스_19398"/>
    <path fill="#3b494f" d="m150.649,68.93399l-0.548,0.267l0,-19.6l0.548,-0.274l0,19.607z" id="패스_19399"/>
    <path fill="#3b494f" d="m150.645,68.93401l0,-0.554l-4.716,2.276l0,0.578l4.716,-2.3z" id="패스_19400"/>
    <path fill="#3b494f" d="m150.645,59.541l0,-0.553l-4.716,2.276l0,0.578l4.716,-2.301z" id="패스_19401"/>
   </g>
   <g id="그룹_1945">
    <path fill="#a0d6f2" d="m77.608,77.11801l-38.8,-19.362l38.8,-19.265l38.812,19.313l-38.812,19.314z" id="패스_19402"/>
    <path fill="#7fc6ea" d="m77.608,77.118l0,38.756l-38.8,-19.307l0,-38.807l38.8,19.358z" id="패스_19403"/>
    <path fill="#6091b2" d="m77.609,77.117l0,38.756l38.813,-19.3l0,-38.769l-38.813,19.313z" id="패스_19404"/>
    <path fill="#39709e" d="m81.333,83.788l0,20.385l5.513,-2.744l-0.042,-20.378l-5.471,2.737z" id="패스_19405"/>
    <path fill="#39709e" d="m89.944,79.58098l0,20.385l5.513,-2.744l-0.042,-20.378l-5.471,2.737z" id="패스_19406"/>
    <path fill="#39709e" d="m98.555,75.26899l0,20.385l5.513,-2.744l-0.04,-20.378l-5.473,2.737z" id="패스_19407"/>
    <path fill="#39709e" d="m107.166,70.986l0,20.385l5.513,-2.744l-0.042,-20.378l-5.471,2.737z" id="패스_19408"/>
    <path fill="#557d93" d="m86.842,101.429l-0.8,-0.4l0,-19.6l0.756,-0.378l0.044,20.378z" id="패스_19409"/>
    <path fill="#72b4ce" d="m86.049,101.03299l0.8,0.4l-5.513,2.744l0,-0.84l4.713,-2.304z" id="패스_19410"/>
    <path fill="#557d93" d="m95.457,97.22198l-0.8,-0.4l0,-19.6l0.756,-0.378l0.044,20.378z" id="패스_19411"/>
    <path fill="#72b4ce" d="m94.66,96.825l0.8,0.4l-5.513,2.744l0,-0.84l4.713,-2.304z" id="패스_19412"/>
    <path fill="#557d93" d="m104.068,92.90999l-0.8,-0.4l0,-19.6l0.756,-0.378l0.044,20.378z" id="패스_19413"/>
    <path fill="#72b4ce" d="m103.271,92.513l0.8,0.4l-5.513,2.744l0,-0.84l4.713,-2.304z" id="패스_19414"/>
    <path fill="#557d93" d="m112.68,88.627l-0.8,-0.4l0,-19.6l0.756,-0.378l0.044,20.378z" id="패스_19415"/>
    <path fill="#72b4ce" d="m111.882,88.22998l0.8,0.4l-5.513,2.744l0,-0.84l4.713,-2.304z" id="패스_19416"/>
    <path fill="#3b494f" d="m86.049,101.03199l-0.548,0.267l0,-19.6l0.548,-0.274l0,19.607z" id="패스_19417"/>
    <path fill="#3b494f" d="m86.049,101.032l0,-0.553l-4.716,2.276l0,0.578l4.716,-2.301z" id="패스_19418"/>
    <path fill="#3b494f" d="m86.049,91.639l0,-0.553l-4.716,2.276l0,0.578l4.716,-2.301z" id="패스_19419"/>
    <path fill="#a0d6f2" d="m47.984,70.87601l0,20.387l-5.513,-2.744l0.042,-20.378l5.471,2.735z" id="패스_19420"/>
    <path fill="#6091b2" d="m42.473,88.51701l0.8,-0.4l0,-19.6l-0.756,-0.378l-0.044,20.378z" id="패스_19421"/>
    <path fill="#95cfe8" d="m43.27,88.11999l-0.8,0.4l5.513,2.744l0,-0.84l-4.713,-2.304z" id="패스_19422"/>
    <path fill="#49565b" d="m43.27,88.11999l0.548,0.267l0,-19.6l-0.548,-0.274l0,19.607z" id="패스_19423"/>
    <path fill="#49565b" d="m43.27,88.12001l0,-0.554l4.716,2.276l0,0.578l-4.716,-2.3z" id="패스_19424"/>
    <path fill="#49565b" d="m43.27,78.727l0,-0.553l4.716,2.276l0,0.578l-4.716,-2.301z" id="패스_19425"/>
    <path fill="#a0d6f2" d="m56.421,75.169l0,20.38l-5.513,-2.744l0.042,-20.378l5.471,2.742z" id="패스_19426"/>
    <path fill="#6091b2" d="m50.908,92.81l0.8,-0.4l0,-19.6l-0.756,-0.378l-0.044,20.378z" id="패스_19427"/>
    <path fill="#95cfe8" d="m51.705,92.41301l-0.8,0.4l5.513,2.744l0,-0.84l-4.713,-2.304z" id="패스_19428"/>
    <path fill="#49565b" d="m51.705,92.41299l0.548,0.267l0,-19.6l-0.548,-0.274l0,19.607z" id="패스_19429"/>
    <path fill="#49565b" d="m51.705,92.413l0,-0.553l4.716,2.276l0,0.578l-4.716,-2.301z" id="패스_19430"/>
    <path fill="#49565b" d="m51.705,83.01899l0,-0.553l4.716,2.276l0,0.578l-4.716,-2.301z" id="패스_19431"/>
    <path fill="#3b494f" d="m94.659,96.823l-0.548,0.267l0,-19.6l0.548,-0.274l0,19.607z" id="패스_19432"/>
    <path fill="#3b494f" d="m94.66,96.82301l0,-0.553l-4.716,2.276l0,0.578l4.716,-2.301z" id="패스_19433"/>
    <path fill="#3b494f" d="m94.66,87.43101l0,-0.553l-4.716,2.276l0,0.578l4.716,-2.301z" id="패스_19434"/>
    <path fill="#a0d6f2" d="m73.769,83.788l0,20.385l-5.513,-2.744l0.042,-20.378l5.471,2.737z" id="패스_19435"/>
    <path fill="#a0d6f2" d="m65.158,79.58098l0,20.385l-5.513,-2.744l0.042,-20.378l5.471,2.737z" id="패스_19436"/>
    <path fill="#6091b2" d="m68.255,101.429l0.8,-0.4l0,-19.6l-0.756,-0.378l-0.044,20.378z" id="패스_19437"/>
    <path fill="#95cfe8" d="m69.053,101.03299l-0.8,0.4l5.513,2.744l0,-0.84l-4.713,-2.304z" id="패스_19438"/>
    <path fill="#6091b2" d="m59.645,97.22198l0.8,-0.4l0,-19.6l-0.756,-0.378l-0.044,20.378z" id="패스_19439"/>
    <path fill="#95cfe8" d="m60.442,96.825l-0.8,0.4l5.513,2.744l0,-0.84l-4.713,-2.304z" id="패스_19440"/>
    <path fill="#3b494f" d="m69.053,101.03199l0.548,0.267l0,-19.6l-0.548,-0.274l0,19.607z" id="패스_19441"/>
    <path fill="#3b494f" d="m69.053,101.032l0,-0.553l4.716,2.276l0,0.578l-4.716,-2.301z" id="패스_19442"/>
    <path fill="#3b494f" d="m69.053,91.639l0,-0.553l4.716,2.276l0,0.578l-4.716,-2.301z" id="패스_19443"/>
    <path fill="#3b494f" d="m60.442,96.823l0.548,0.267l0,-19.6l-0.548,-0.274l0,19.607z" id="패스_19444"/>
    <path fill="#3b494f" d="m60.442,96.82301l0,-0.553l4.716,2.276l0,0.578l-4.716,-2.301z" id="패스_19445"/>
    <path fill="#3b494f" d="m60.442,87.43101l0,-0.553l4.716,2.276l0,0.578l-4.716,-2.301z" id="패스_19446"/>
    <path fill="#3b494f" d="m103.271,92.51301l-0.548,0.267l0,-19.6l0.548,-0.274l0,19.607z" id="패스_19447"/>
    <path fill="#3b494f" d="m103.271,92.51299l0,-0.553l-4.716,2.276l0,0.578l4.716,-2.301z" id="패스_19448"/>
    <path fill="#3b494f" d="m103.271,83.11899l0,-0.553l-4.716,2.276l0,0.578l4.716,-2.301z" id="패스_19449"/>
    <path fill="#3b494f" d="m111.882,88.23099l-0.548,0.267l0,-19.6l0.548,-0.274l0,19.607z" id="패스_19450"/>
    <path fill="#3b494f" d="m111.882,88.23201l0,-0.553l-4.716,2.276l0,0.578l4.716,-2.301z" id="패스_19451"/>
    <path fill="#3b494f" d="m111.882,78.838l0,-0.553l-4.716,2.276l0,0.578l4.716,-2.301z" id="패스_19452"/>
   </g>
  </g>
 </g>
</svg>