<svg xmlns="http://www.w3.org/2000/svg" width="113.739" height="113.464">
  <defs/>
  <g data-name="염소접촉지(소독)">
    <path data-name="패스 20728" d="M56.857 56.666L.248 28.413 56.857.056l56.609 28.357z" fill="#a0d6f2"/>
    <path data-name="패스 20729" d="M56.858 2.34l52.29 25.959-52.29 26.084L4.59 28.294 56.858 2.34m0-2.34L0 28.291l56.858 28.376 56.879-28.3L56.858 0z" fill="#f4f4f4"/>
    <path data-name="패스 20730" d="M56.858 56.665v56.8L.001 85.168V28.29z" fill="#7fc6ea"/>
    <path data-name="패스 20731" d="M56.857 56.665v56.8l56.882-28.289V28.361z" fill="#6091b2"/>
    <path data-name="패스 20732" d="M62.315 66.442v29.88l8.08-4.021-.063-29.869z" fill="#39709e"/>
    <path data-name="패스 20733" d="M74.936 60.275V90.15l8.08-4.021-.061-29.864z" fill="#39709e"/>
    <path data-name="패스 20734" d="M87.556 53.956v29.875l8.08-4.017-.061-29.864z" fill="#39709e"/>
    <path data-name="패스 20735" d="M100.175 47.678v29.875l8.08-4.021-.061-29.864z" fill="#39709e"/>
    <path data-name="패스 20736" d="M70.395 92.296l-1.169-.582V62.986l1.108-.554z" fill="#557d93"/>
    <path data-name="패스 20737" d="M69.227 91.715l1.169.582-8.08 4.021v-1.231z" fill="#72b4ce"/>
    <path data-name="패스 20738" d="M83.016 86.129l-1.169-.582V56.816l1.108-.554z" fill="#557d93"/>
    <path data-name="패스 20739" d="M81.847 85.547l1.169.582-8.08 4.021v-1.231z" fill="#72b4ce"/>
    <path data-name="패스 20740" d="M95.636 79.814l-1.169-.582V50.499l1.108-.554z" fill="#557d93"/>
    <path data-name="패스 20741" d="M94.467 79.228l1.169.582-8.08 4.021V82.6z" fill="#72b4ce"/>
    <path data-name="패스 20742" d="M108.255 73.532l-1.169-.582V44.221l1.108-.554z" fill="#557d93"/>
    <path data-name="패스 20743" d="M107.087 72.95l1.169.582-8.08 4.021v-1.231z" fill="#72b4ce"/>
    <path data-name="패스 20744" d="M69.227 91.715l-.8.392V63.388l.8-.4z" fill="#3b494f"/>
    <path data-name="패스 20745" d="M69.227 91.714v-.811l-6.911 3.335v.848z" fill="#3b494f"/>
    <path data-name="패스 20746" d="M69.227 77.948v-.813l-6.911 3.336v.848z" fill="#3b494f"/>
    <path data-name="패스 20747" d="M13.445 47.518v29.875l-8.08-4.021.061-29.864z" fill="#a0d6f2"/>
    <path data-name="패스 20748" d="M5.365 73.372l1.169-.582V44.062l-1.108-.554z" fill="#6091b2"/>
    <path data-name="패스 20749" d="M6.534 72.79l-1.169.582 8.08 4.021v-1.231z" fill="#95cfe8"/>
    <path data-name="패스 20750" d="M6.534 72.788l.8.392V44.464l-.8-.4z" fill="#49565b"/>
    <path data-name="패스 20751" d="M6.534 72.79v-.811l6.911 3.336v.848z" fill="#49565b"/>
    <path data-name="패스 20752" d="M6.534 59.024v-.811l6.911 3.337v.848z" fill="#49565b"/>
    <path data-name="패스 20753" d="M25.807 53.809v29.875l-8.08-4.021.061-29.864z" fill="#a0d6f2"/>
    <path data-name="패스 20754" d="M17.727 79.663l1.167-.582V50.353l-1.108-.554z" fill="#6091b2"/>
    <path data-name="패스 20755" d="M18.894 79.081l-1.169.582 8.08 4.021v-1.231z" fill="#95cfe8"/>
    <path data-name="패스 20756" d="M18.896 79.082l.8.392V50.755l-.8-.4z" fill="#49565b"/>
    <path data-name="패스 20757" d="M18.896 79.082v-.811l6.911 3.335v.848z" fill="#49565b"/>
    <path data-name="패스 20758" d="M18.896 65.315v-.811l6.911 3.336v.848z" fill="#49565b"/>
    <path data-name="패스 20759" d="M81.847 85.545l-.8.392V57.218l.8-.4z" fill="#3b494f"/>
    <path data-name="패스 20760" d="M81.847 85.546v-.811l-6.911 3.336v.848z" fill="#3b494f"/>
    <path data-name="패스 20761" d="M81.847 71.778v-.811l-6.911 3.336v.848z" fill="#3b494f"/>
    <path data-name="패스 20762" d="M94.467 79.228l-.8.392V50.901l.8-.4z" fill="#3b494f"/>
    <path data-name="패스 20763" d="M94.467 79.228v-.811l-6.911 3.336v.848z" fill="#3b494f"/>
    <path data-name="패스 20764" d="M94.467 65.462v-.811l-6.911 3.336v.848z" fill="#3b494f"/>
    <path data-name="패스 20765" d="M107.087 72.954l-.8.392V44.627l.8-.4z" fill="#3b494f"/>
    <path data-name="패스 20766" d="M107.087 72.954v-.811l-6.911 3.336v.848z" fill="#3b494f"/>
    <path data-name="패스 20767" d="M107.087 59.187v-.811l-6.911 3.336v.848z" fill="#3b494f"/>
    <path data-name="패스 20768" d="M51.519 71.224v39.6l-19.171-9.586.21-39.562z" fill="#3b494f"/>
    <path data-name="패스 20769" d="M34.846 66.192v36.294l-2.5-1.219V65.889z" fill="#6091b2"/>
    <g data-name="그룹 2144">
      <path data-name="패스 20770" d="M48.524 72.614v3.628l-18.993-9.449.083-3.613z" fill="#d3d3d3"/>
      <path data-name="패스 20771" d="M48.524 72.642L29.6 63.198l2.987-1.526 18.926 9.482z" fill="#f4f4f4"/>
      <path data-name="패스 20772" d="M48.524 72.648v3.6l2.995-1.489-.016-3.6z" fill="#a0a0a0"/>
    </g>
    <path data-name="패스 20773" d="M4.585 28.29L56.858 2.344v4L8.483 30.235z" fill="#6091b2"/>
    <path data-name="패스 20774" d="M109.148 28.3L56.857 2.344v4l48.4 23.905z" fill="#7fc6ea"/>
  </g>
</svg>
