<svg xmlns="http://www.w3.org/2000/svg" width="177.554" height="132.865">
  <defs/>
  <g data-name="그룹 536">
    <path data-name="패스 1219" d="M88.601 44.247v44.429L44.127 66.543V22.051z" fill="#86cde2"/>
    <path data-name="패스 1220" d="M88.591 44.28L44.127 22.051 88.591 0l44.484 22.14z" fill="#a0daef"/>
    <path data-name="패스 1221" d="M88.583 44.278l.019 44.4 44.475-22.1V22.14z" fill="#6199aa"/>
    <path data-name="패스 1222" d="M88.601 71.139v17.537l44.475-22.1V49.008z" fill="#3a7f91"/>
    <path data-name="패스 1223" d="M92.823 72.625v1.551l3.892-1.936v-1.552z" fill="#257182"/>
    <path data-name="패스 1224" d="M96.717 74.368v1.551l3.892-1.935v-1.552z" fill="#257182"/>
    <path data-name="패스 1225" d="M108.884 72.337v1.551l3.892-1.936V70.4z" fill="#257182"/>
    <path data-name="패스 1226" d="M115.178 63.97v1.551l3.892-1.935v-1.552z" fill="#257182"/>
    <path data-name="패스 1227" d="M119.065 64.862v1.551l3.892-1.935v-1.552z" fill="#257182"/>
    <path data-name="패스 1228" d="M129.193 63.215v1.554l3.892-1.935v-1.552z" fill="#257182"/>
    <path data-name="패스 1229" d="M124.028 57.097v1.551l3.892-1.935v-1.552z" fill="#257182"/>
    <path data-name="패스 1230" d="M92.823 51.075v9.1l15.916-7.931v-9.1z" fill="#3a809b"/>
    <path data-name="패스 1231" d="M112.918 41.074v9.1l15.916-7.931v-9.1z" fill="#3a809b"/>
    <path data-name="패스 1232" d="M108.74 52.247l-.914-.455.042-8.216.866-.433z" fill="#3a6c77"/>
    <path data-name="패스 1233" d="M107.823 51.792l.914.455-15.916 7.93v-.963z" fill="#7fbccc"/>
    <path data-name="패스 1234" d="M107.823 51.815v-.634l-15 7.353v.663z" fill="#3b494f"/>
    <path data-name="패스 1235" d="M107.823 47.807v-.631l-15 7.353v.663z" fill="#3b494f"/>
    <path data-name="패스 1236" d="M107.827 51.792l-.628.306.039-8.215.628-.308z" fill="#3b494f"/>
    <path data-name="패스 1237" d="M97.744 56.794l-.628.306.039-8.18.628-.308z" fill="#3b494f"/>
    <path data-name="패스 1238" d="M103.495 53.922l-.628.306.039-8.18.628-.308z" fill="#3b494f"/>
    <path data-name="패스 1239" d="M128.834 42.245l-.914-.455.042-8.216.866-.433z" fill="#3a6c77"/>
    <path data-name="패스 1240" d="M127.919 41.791l.914.455-15.916 7.93v-.959z" fill="#7fbccc"/>
    <path data-name="패스 1241" d="M127.919 41.814v-.634l-15 7.353v.663z" fill="#3b494f"/>
    <path data-name="패스 1242" d="M127.919 37.806v-.634l-15 7.353v.663z" fill="#3b494f"/>
    <path data-name="패스 1243" d="M117.838 46.793l-.628.306.039-8.18.628-.308z" fill="#3b494f"/>
    <path data-name="패스 1244" d="M123.589 43.92l-.628.306.039-8.18.628-.308z" fill="#3b494f"/>
    <path data-name="패스 1245" d="M63.102 40.522v30.169l-14.771-7.376V33.141z" fill="#a2dfed"/>
    <path data-name="패스 1246" d="M48.331 63.329l.914-.455-.042-29.3-.866-.433z" fill="#6199aa"/>
    <path data-name="패스 1247" d="M49.245 62.868l-.914.455 14.771 7.365v-.963z" fill="#9edae8"/>
    <path data-name="패스 1248" d="M49.245 62.841v-.634l13.857 6.855v.663z" fill="#46585e"/>
    <path data-name="패스 1249" d="M49.228 43.521v-.634l13.857 6.764v.663z" fill="#46585e"/>
    <path data-name="패스 1250" d="M49.228 53.286v-.635l13.857 6.764v.663z" fill="#46585e"/>
    <path data-name="패스 1251" d="M49.248 62.715l.628.306-.046-29.127-.628-.308z" fill="#46585e"/>
    <path data-name="패스 1252" d="M56.088 66.216l.628.306-.039-29.144-.628-.308z" fill="#46585e"/>
    <path data-name="패스 1253" d="M83.228 50.637v30.169L68.457 73.43V43.258z" fill="#a2dfed"/>
    <path data-name="패스 1254" d="M68.456 73.447l.914-.455-.042-29.3-.867-.433z" fill="#6199aa"/>
    <path data-name="패스 1255" d="M69.37 72.989l-.914.455 14.771 7.365v-.963z" fill="#9edae8"/>
    <path data-name="패스 1256" d="M69.371 72.959v-.634l13.857 6.855v.663z" fill="#46585e"/>
    <path data-name="패스 1257" d="M69.355 53.639v-.635l13.857 6.764v.663z" fill="#46585e"/>
    <path data-name="패스 1258" d="M69.355 63.404v-.634l13.857 6.764v.663z" fill="#46585e"/>
    <path data-name="패스 1259" d="M69.37 72.834l.628.306-.046-29.127-.628-.308z" fill="#46585e"/>
    <path data-name="패스 1260" d="M76.215 76.334l.628.306-.039-29.144-.625-.312z" fill="#46585e"/>
    <g data-name="그룹 532">
      <path data-name="패스 1261" d="M94.039 60.807v1.5l15.955-7.957-.034-1.5z" fill="#a0a0a0"/>
      <path data-name="패스 1262" d="M94.038 60.82l15.938-7.942-1.236-.631-15.938 7.957z" fill="#d3d3d3"/>
      <path data-name="패스 1263" d="M94.038 60.82v1.491l-1.24-.616.006-1.49z" fill="#b5b5b5"/>
    </g>
    <g data-name="그룹 533">
      <path data-name="패스 1264" d="M94.039 50.128v1.5l15.955-7.957-.034-1.5z" fill="#a0a0a0"/>
      <path data-name="패스 1265" d="M94.038 50.141l15.938-7.942-1.236-.632-15.938 7.957z" fill="#d3d3d3"/>
      <path data-name="패스 1266" d="M94.038 50.141v1.491l-1.24-.617.006-1.49z" fill="#b5b5b5"/>
    </g>
    <g data-name="그룹 534">
      <path data-name="패스 1267" d="M114.153 50.806v1.5l15.955-7.957-.034-1.5z" fill="#a0a0a0"/>
      <path data-name="패스 1268" d="M114.152 50.818l15.938-7.942-1.236-.631-15.938 7.957z" fill="#d3d3d3"/>
      <path data-name="패스 1269" d="M114.151 50.819v1.491l-1.24-.616.007-1.49z" fill="#b5b5b5"/>
    </g>
    <g data-name="그룹 535">
      <path data-name="패스 1270" d="M114.155 40.155v1.5l15.955-7.957-.034-1.5z" fill="#a0a0a0"/>
      <path data-name="패스 1271" d="M114.158 40.167l15.938-7.942-1.236-.631-15.938 7.957z" fill="#d3d3d3"/>
      <path data-name="패스 1272" d="M114.158 40.166v1.491l-1.24-.616.007-1.49z" fill="#b5b5b5"/>
    </g>
  </g>
  <g data-name="그룹 541">
    <path data-name="패스 1273" d="M133.07 66.395v44.429L88.596 88.691V44.195z" fill="#86cde2"/>
    <path data-name="패스 1274" d="M133.06 66.425L88.596 44.196l44.464-22.051 44.484 22.14z" fill="#a0daef"/>
    <path data-name="패스 1275" d="M133.051 66.425l.019 44.4 44.475-22.1v-44.44z" fill="#6199aa"/>
    <path data-name="패스 1276" d="M133.07 93.284v17.537l44.475-22.1V71.154z" fill="#3a7f91"/>
    <path data-name="패스 1277" d="M137.294 94.77v1.551l3.892-1.936v-1.553z" fill="#257182"/>
    <path data-name="패스 1278" d="M141.185 96.513v1.551l3.892-1.936v-1.552z" fill="#257182"/>
    <path data-name="패스 1279" d="M153.353 94.479v1.551l3.892-1.936v-1.552z" fill="#257182"/>
    <path data-name="패스 1280" d="M159.647 86.113v1.551l3.891-1.931v-1.552z" fill="#257182"/>
    <path data-name="패스 1281" d="M163.539 87.008v1.551l3.892-1.936v-1.552z" fill="#257182"/>
    <path data-name="패스 1282" d="M173.666 85.36v1.551l3.892-1.936v-1.552z" fill="#257182"/>
    <path data-name="패스 1283" d="M168.497 79.242v1.551l3.892-1.935v-1.552z" fill="#257182"/>
    <path data-name="패스 1284" d="M137.294 73.219v9.1l15.916-7.931v-9.1z" fill="#3a809b"/>
    <path data-name="패스 1285" d="M157.387 63.219v9.1l15.916-7.933v-9.1z" fill="#3a809b"/>
    <path data-name="패스 1286" d="M153.209 74.391l-.914-.455.042-8.216.866-.433z" fill="#3a6c77"/>
    <path data-name="패스 1287" d="M152.295 73.938l.914.455-15.916 7.93v-.963z" fill="#7fbccc"/>
    <path data-name="패스 1288" d="M152.295 73.96v-.635l-15 7.353v.663z" fill="#3b494f"/>
    <path data-name="패스 1289" d="M152.295 69.952v-.635l-15 7.353v.663z" fill="#3b494f"/>
    <path data-name="패스 1290" d="M152.295 73.937l-.628.306.039-8.215.628-.308z" fill="#3b494f"/>
    <path data-name="패스 1291" d="M142.214 78.938l-.628.306.039-8.18.628-.308z" fill="#3b494f"/>
    <path data-name="패스 1292" d="M147.965 76.066l-.628.306.039-8.18.628-.308z" fill="#3b494f"/>
    <path data-name="패스 1293" d="M173.303 64.386l-.914-.455.042-8.217.866-.433z" fill="#3a6c77"/>
    <path data-name="패스 1294" d="M172.389 63.936l.914.455-15.916 7.93v-.963z" fill="#7fbccc"/>
    <path data-name="패스 1295" d="M172.389 63.956v-.635l-15 7.353v.663z" fill="#3b494f"/>
    <path data-name="패스 1296" d="M172.389 59.951v-.634l-15 7.353v.663z" fill="#3b494f"/>
    <path data-name="패스 1297" d="M162.307 68.938l-.628.306.039-8.18.628-.308z" fill="#3b494f"/>
    <path data-name="패스 1298" d="M168.055 66.066l-.628.306.039-8.18.628-.308z" fill="#3b494f"/>
    <path data-name="패스 1299" d="M107.571 62.665v30.168L92.8 85.457V55.286z" fill="#a2dfed"/>
    <path data-name="패스 1300" d="M92.8 85.475l.914-.455-.042-29.3-.866-.433z" fill="#6199aa"/>
    <path data-name="패스 1301" d="M93.71 85.014l-.914.455 14.771 7.364v-.963z" fill="#9edae8"/>
    <path data-name="패스 1302" d="M93.713 84.986v-.635l13.857 6.855v.663z" fill="#46585e"/>
    <path data-name="패스 1303" d="M93.698 65.662v-.634l13.857 6.764v.663z" fill="#46585e"/>
    <path data-name="패스 1304" d="M93.698 75.431v-.634l13.857 6.764v.663z" fill="#46585e"/>
    <path data-name="패스 1305" d="M93.714 84.86l.628.306-.046-29.127-.628-.308z" fill="#46585e"/>
    <path data-name="패스 1306" d="M100.558 88.361l.628.306-.039-29.144-.628-.308z" fill="#46585e"/>
    <path data-name="패스 1307" d="M127.701 72.782v30.169l-14.771-7.376V65.403z" fill="#a2dfed"/>
    <path data-name="패스 1308" d="M112.926 95.592l.914-.455-.042-29.3-.866-.433z" fill="#6199aa"/>
    <path data-name="패스 1309" d="M113.84 95.131l-.914.455 14.775 7.366v-.963z" fill="#9edae8"/>
    <path data-name="패스 1310" d="M113.84 95.101v-.634l13.857 6.855v.663z" fill="#46585e"/>
    <path data-name="패스 1311" d="M113.823 75.783v-.634l13.857 6.764v.663z" fill="#46585e"/>
    <path data-name="패스 1312" d="M113.823 85.549v-.634l13.857 6.764v.663z" fill="#46585e"/>
    <path data-name="패스 1313" d="M113.84 94.979l.628.306-.046-29.127-.628-.308z" fill="#46585e"/>
    <path data-name="패스 1314" d="M120.684 98.479l.628.306-.039-29.144-.628-.308z" fill="#46585e"/>
    <g data-name="그룹 537">
      <path data-name="패스 1315" d="M138.508 82.952v1.5l15.955-7.957-.034-1.5z" fill="#a0a0a0"/>
      <path data-name="패스 1316" d="M138.508 82.965l15.938-7.942-1.236-.632-15.938 7.957z" fill="#d3d3d3"/>
      <path data-name="패스 1317" d="M138.507 82.962v1.491l-1.24-.616.006-1.49z" fill="#b5b5b5"/>
    </g>
    <g data-name="그룹 538">
      <path data-name="패스 1318" d="M138.508 72.273v1.5l15.955-7.957-.034-1.5z" fill="#a0a0a0"/>
      <path data-name="패스 1319" d="M138.508 72.286l15.938-7.942-1.236-.631-15.938 7.957z" fill="#d3d3d3"/>
      <path data-name="패스 1320" d="M138.507 72.289v1.491l-1.24-.617.006-1.49z" fill="#b5b5b5"/>
    </g>
    <g data-name="그룹 539">
      <path data-name="패스 1321" d="M158.62 72.946v1.5l15.955-7.957-.034-1.5z" fill="#a0a0a0"/>
      <path data-name="패스 1322" d="M158.619 72.964l15.94-7.942-1.236-.631-15.938 7.957z" fill="#d3d3d3"/>
      <path data-name="패스 1323" d="M158.617 72.964v1.486l-1.24-.616.006-1.49z" fill="#b5b5b5"/>
    </g>
    <g data-name="그룹 540">
      <path data-name="패스 1324" d="M158.626 62.299v1.5l15.955-7.957-.034-1.5z" fill="#a0a0a0"/>
      <path data-name="패스 1325" d="M158.626 62.312l15.938-7.942-1.236-.631-15.938 7.957z" fill="#d3d3d3"/>
      <path data-name="패스 1326" d="M158.627 62.313v1.491l-1.24-.617.006-1.49z" fill="#b5b5b5"/>
    </g>
  </g>
  <g data-name="그룹 546">
    <path data-name="패스 1327" d="M44.474 66.309v44.429L0 88.604V44.113z" fill="#86cde2"/>
    <path data-name="패스 1328" d="M44.464 66.342L0 44.113l44.464-22.051 44.484 22.14z" fill="#a0daef"/>
    <path data-name="패스 1329" d="M44.455 66.343l.019 44.4 44.475-22.1V44.198z" fill="#6199aa"/>
    <path data-name="패스 1330" d="M44.474 93.202v17.537l44.475-22.1V71.071z" fill="#3a7f91"/>
    <path data-name="패스 1331" d="M48.698 94.687v1.551l3.892-1.936V92.75z" fill="#257182"/>
    <path data-name="패스 1332" d="M52.589 96.43v1.551l3.892-1.935v-1.553z" fill="#257182"/>
    <path data-name="패스 1333" d="M64.757 94.398v1.551l3.892-1.935v-1.552z" fill="#257182"/>
    <path data-name="패스 1334" d="M71.05 86.03v1.551l3.892-1.935v-1.557z" fill="#257182"/>
    <path data-name="패스 1335" d="M74.943 86.924v1.551l3.892-1.935v-1.552z" fill="#257182"/>
    <path data-name="패스 1336" d="M85.067 85.276v1.551l3.892-1.936v-1.552z" fill="#257182"/>
    <path data-name="패스 1337" d="M79.901 79.159v1.551l3.892-1.935v-1.552z" fill="#257182"/>
    <path data-name="패스 1338" d="M48.698 73.136v9.1l15.916-7.931v-9.1z" fill="#3a809b"/>
    <path data-name="패스 1339" d="M68.791 63.135v9.1l15.916-7.931v-9.1z" fill="#3a809b"/>
    <path data-name="패스 1340" d="M64.613 74.308l-.914-.455.042-8.216.866-.433z" fill="#3a6c77"/>
    <path data-name="패스 1341" d="M63.699 73.85l.914.455-15.916 7.93v-.963z" fill="#7fbccc"/>
    <path data-name="패스 1342" d="M63.699 73.878v-.634l-15 7.353v.663z" fill="#3b494f"/>
    <path data-name="패스 1343" d="M63.699 69.869v-.634l-15 7.353v.663z" fill="#3b494f"/>
    <path data-name="패스 1344" d="M63.699 73.853l-.628.307.039-8.215.628-.308z" fill="#3b494f"/>
    <path data-name="패스 1345" d="M53.618 78.86l-.628.306.039-8.18.628-.308z" fill="#3b494f"/>
    <path data-name="패스 1346" d="M59.369 75.983l-.628.306.039-8.18.628-.308z" fill="#3b494f"/>
    <path data-name="패스 1347" d="M84.707 64.307l-.914-.455.042-8.217.866-.433z" fill="#3a6c77"/>
    <path data-name="패스 1348" d="M83.793 63.854l.914.455-15.916 7.928v-.963z" fill="#7fbccc"/>
    <path data-name="패스 1349" d="M83.793 63.876v-.634l-15 7.353v.663z" fill="#3b494f"/>
    <path data-name="패스 1350" d="M83.793 59.867v-.634l-15 7.353v.663z" fill="#3b494f"/>
    <path data-name="패스 1351" d="M73.711 68.854l-.628.306.039-8.18.628-.308z" fill="#3b494f"/>
    <path data-name="패스 1352" d="M79.462 65.982l-.628.306.039-8.18.628-.308z" fill="#3b494f"/>
    <path data-name="패스 1353" d="M18.975 62.581V92.75L4.204 85.374V55.202z" fill="#a2dfed"/>
    <path data-name="패스 1354" d="M4.204 85.391l.914-.455-.042-29.3-.866-.433z" fill="#6199aa"/>
    <path data-name="패스 1355" d="M5.118 84.933l-.914.455 14.771 7.365v-.963z" fill="#9edae8"/>
    <path data-name="패스 1356" d="M5.118 84.903v-.634l13.857 6.855v.663z" fill="#46585e"/>
    <path data-name="패스 1357" d="M5.102 65.582v-.634l13.857 6.764v.663z" fill="#46585e"/>
    <path data-name="패스 1358" d="M5.102 75.348v-.635l13.857 6.764v.663z" fill="#46585e"/>
    <path data-name="패스 1359" d="M5.118 84.778l.628.306L5.7 55.957l-.628-.308z" fill="#46585e"/>
    <path data-name="패스 1360" d="M11.963 88.277l.628.306-.044-29.144-.628-.308z" fill="#46585e"/>
    <path data-name="패스 1361" d="M39.101 72.699v30.169L24.33 95.492V65.316z" fill="#a2dfed"/>
    <path data-name="패스 1362" d="M24.329 95.509l.914-.455-.042-29.3-.864-.438z" fill="#6199aa"/>
    <path data-name="패스 1363" d="M25.244 95.048l-.914.455 14.771 7.365v-.96z" fill="#9edae8"/>
    <path data-name="패스 1364" d="M25.244 95.022v-.635l13.857 6.855v.663z" fill="#46585e"/>
    <path data-name="패스 1365" d="M25.227 75.7v-.635l13.857 6.764v.663z" fill="#46585e"/>
    <path data-name="패스 1366" d="M25.227 85.466v-.634l13.857 6.764v.663z" fill="#46585e"/>
    <path data-name="패스 1367" d="M25.244 94.895l.628.306-.046-29.127-.628-.308z" fill="#46585e"/>
    <path data-name="패스 1368" d="M32.088 98.395l.628.306-.039-29.144-.628-.308z" fill="#46585e"/>
    <g data-name="그룹 542">
      <path data-name="패스 1369" d="M49.912 82.869v1.5l15.955-7.955-.034-1.5z" fill="#a0a0a0"/>
      <path data-name="패스 1370" d="M49.912 82.881l15.938-7.942-1.236-.631-15.938 7.957z" fill="#d3d3d3"/>
      <path data-name="패스 1371" d="M49.911 82.882v1.491l-1.24-.617.006-1.49z" fill="#b5b5b5"/>
    </g>
    <g data-name="그룹 543">
      <path data-name="패스 1372" d="M49.912 72.189v1.5l15.955-7.957-.034-1.5z" fill="#a0a0a0"/>
      <path data-name="패스 1373" d="M49.912 72.203l15.938-7.942-1.236-.631-15.938 7.957z" fill="#d3d3d3"/>
      <path data-name="패스 1374" d="M49.911 72.203v1.491l-1.24-.617.006-1.49z" fill="#b5b5b5"/>
    </g>
    <g data-name="그룹 544">
      <path data-name="패스 1375" d="M70.024 72.868v1.5l15.955-7.957-.034-1.5z" fill="#a0a0a0"/>
      <path data-name="패스 1376" d="M70.025 72.878l15.938-7.942-1.236-.631-15.938 7.957z" fill="#d3d3d3"/>
      <path data-name="패스 1377" d="M70.025 72.881v1.491l-1.24-.617.007-1.49z" fill="#b5b5b5"/>
    </g>
    <g data-name="그룹 545">
      <path data-name="패스 1378" d="M70.03 62.216v1.5l15.955-7.957-.034-1.5z" fill="#a0a0a0"/>
      <path data-name="패스 1379" d="M70.03 62.229l15.938-7.942-1.236-.631-15.938 7.957z" fill="#d3d3d3"/>
      <path data-name="패스 1380" d="M70.031 62.229v1.491l-1.24-.617.006-1.49z" fill="#b5b5b5"/>
    </g>
  </g>
  <g data-name="그룹 552">
    <path data-name="패스 1381" d="M88.928 88.436v44.429l-44.473-22.133V66.24z" fill="#86cde2"/>
    <path data-name="패스 1382" d="M88.919 88.469L44.455 66.24l44.464-22.049 44.5 22.107z" fill="#a0daef"/>
    <path data-name="패스 1383" d="M88.929 88.435v44.43l44.494-22.13V66.296z" fill="#6199aa"/>
    <path data-name="패스 1384" d="M88.995 115.167l-.066 17.7 44.56-22.265V93.027z" fill="#3a7f91"/>
    <path data-name="패스 1385" d="M93.152 116.813v1.551l3.892-1.935v-1.552z" fill="#257182"/>
    <path data-name="패스 1386" d="M97.045 118.557v1.551l3.892-1.936v-1.552z" fill="#257182"/>
    <path data-name="패스 1387" d="M109.211 116.526v1.551l3.892-1.935v-1.553z" fill="#257182"/>
    <path data-name="패스 1388" d="M91.801 126.487v1.551l3.892-1.936v-1.551z" fill="#257182"/>
    <path data-name="패스 1389" d="M115.506 108.158v1.551l3.892-1.936v-1.552z" fill="#257182"/>
    <path data-name="패스 1390" d="M119.397 109.051v1.551l3.892-1.935v-1.549z" fill="#257182"/>
    <path data-name="패스 1391" d="M129.517 107.403v1.551l3.892-1.936v-1.552z" fill="#257182"/>
    <path data-name="패스 1392" d="M124.356 101.286v1.551l3.892-1.936v-1.552z" fill="#257182"/>
    <path data-name="패스 1393" d="M93.152 95.264v9.1l15.916-7.931v-9.1z" fill="#3a809b"/>
    <path data-name="패스 1394" d="M113.247 85.262v9.1l15.916-7.931v-9.1z" fill="#3a809b"/>
    <path data-name="패스 1395" d="M109.067 96.436l-.914-.455.042-8.217.866-.433z" fill="#3a6c77"/>
    <path data-name="패스 1396" d="M108.154 95.981l.914.455-15.916 7.93v-.962z" fill="#7fbccc"/>
    <path data-name="패스 1397" d="M108.154 96.004v-.634l-15 7.353v.663z" fill="#3b494f"/>
    <path data-name="패스 1398" d="M108.154 91.996v-.635l-15 7.353v.663z" fill="#3b494f"/>
    <path data-name="패스 1399" d="M108.154 95.98l-.628.306.039-8.215.628-.308z" fill="#3b494f"/>
    <path data-name="패스 1400" d="M98.077 100.983l-.628.306.039-8.18.628-.308z" fill="#3b494f"/>
    <path data-name="패스 1401" d="M103.823 98.11l-.628.307.039-8.18.628-.308z" fill="#3b494f"/>
    <path data-name="패스 1402" d="M129.162 86.434l-.914-.455.042-8.217.866-.433z" fill="#3a6c77"/>
    <path data-name="패스 1403" d="M128.248 85.981l.914.455-15.916 7.93v-.963z" fill="#7fbccc"/>
    <path data-name="패스 1404" d="M128.248 86.002v-.636l-15 7.353v.663z" fill="#3b494f"/>
    <path data-name="패스 1405" d="M128.248 81.995v-.635l-15 7.353v.663z" fill="#3b494f"/>
    <path data-name="패스 1406" d="M118.166 90.981l-.628.306.039-8.18.628-.308z" fill="#3b494f"/>
    <path data-name="패스 1407" d="M123.918 88.109l-.628.307.039-8.18.628-.308z" fill="#3b494f"/>
    <path data-name="패스 1408" d="M63.43 84.708v30.169l-14.769-7.376V77.329z" fill="#a2dfed"/>
    <path data-name="패스 1409" d="M48.661 107.518l.914-.455-.042-29.3-.866-.433z" fill="#6199aa"/>
    <path data-name="패스 1410" d="M49.573 107.057l-.914.455 14.771 7.365v-.963z" fill="#9edae8"/>
    <path data-name="패스 1411" d="M49.573 107.03v-.634l13.857 6.855v.663z" fill="#46585e"/>
    <path data-name="패스 1412" d="M49.556 87.709v-.636l13.857 6.764v.663z" fill="#46585e"/>
    <path data-name="패스 1413" d="M49.556 97.474v-.634l13.857 6.764v.663z" fill="#46585e"/>
    <path data-name="패스 1414" d="M49.573 106.904l.628.307-.046-29.127-.628-.308z" fill="#46585e"/>
    <path data-name="패스 1415" d="M56.417 110.404l.628.306-.039-29.144-.628-.308z" fill="#46585e"/>
    <path data-name="패스 1416" d="M82.586 98.877v30.9l-15-7.5.164-30.862z" fill="#3b494f"/>
    <g data-name="그룹 547">
      <path data-name="패스 1417" d="M94.366 104.996v1.5l15.955-7.957-.034-1.5z" fill="#a0a0a0"/>
      <path data-name="패스 1418" d="M94.366 105.009l15.938-7.942-1.236-.631-15.938 7.956z" fill="#d3d3d3"/>
      <path data-name="패스 1419" d="M94.367 105.009v1.491l-1.24-.616.006-1.49z" fill="#b5b5b5"/>
    </g>
    <g data-name="그룹 548">
      <path data-name="패스 1420" d="M94.366 94.317v1.5l15.955-7.957-.034-1.5z" fill="#a0a0a0"/>
      <path data-name="패스 1421" d="M94.366 94.329l15.938-7.942-1.236-.631-15.938 7.957z" fill="#d3d3d3"/>
      <path data-name="패스 1422" d="M94.367 94.33v1.491l-1.24-.616.006-1.49z" fill="#b5b5b5"/>
    </g>
    <g data-name="그룹 549">
      <path data-name="패스 1423" d="M114.48 94.995v1.5l15.955-7.957-.034-1.5z" fill="#a0a0a0"/>
      <path data-name="패스 1424" d="M114.479 95.008l15.938-7.942-1.236-.632-15.938 7.957z" fill="#d3d3d3"/>
      <path data-name="패스 1425" d="M114.479 95.008v1.491l-1.24-.616.007-1.49z" fill="#b5b5b5"/>
    </g>
    <g data-name="그룹 550">
      <path data-name="패스 1426" d="M114.486 84.343v1.5l15.955-7.957-.034-1.5z" fill="#a0a0a0"/>
      <path data-name="패스 1427" d="M114.486 84.356l15.938-7.942-1.236-.632-15.938 7.957z" fill="#d3d3d3"/>
      <path data-name="패스 1428" d="M114.485 84.355v1.491l-1.24-.616.006-1.49z" fill="#b5b5b5"/>
    </g>
    <g data-name="그룹 551">
      <path data-name="패스 1429" d="M81.47 97.199l-14.8-7.388 3.267-1.808 14.8 7.415z" fill="#f4f4f4"/>
      <path data-name="패스 1430" d="M81.47 97.2v35.426l3.273-1.78-.012-35.424z" fill="#a0a0a0"/>
      <path data-name="패스 1431" d="M68.866 95.985v30.345l3.274-1.785-.012-26.939z" fill="#a0a0a0"/>
      <path data-name="패스 1432" d="M81.47 132.626l-2.254-1.121v-30.411l2.254 1.121z" fill="#d3d3d3"/>
      <path data-name="패스 1433" d="M68.867 126.33l-2.254-1.121V94.797l2.254 1.121z" fill="#d3d3d3"/>
      <path data-name="패스 1434" d="M81.47 97.176v6.012l-14.857-7.394.065-6z" fill="#d3d3d3"/>
    </g>
  </g>
</svg>
