<svg xmlns="http://www.w3.org/2000/svg" width="145.824" height="121.067">
  <defs/>
  <g data-name="활성탄흡착지동(GAC여과)">
    <g data-name="그룹 2040">
      <path data-name="패스 20149" d="M97.204 48.396l-48.6-24.3 48.6-24.1 48.619 24.2z" fill="#dcedef"/>
      <path data-name="패스 20150" d="M97.194 48.396l.02 48.522 48.609-24.149V24.198z" fill="#96afb5"/>
      <path data-name="패스 20151" d="M97.215 48.359L48.607 24.1v48.627l7.667 3.771 32.555 16.248 8.382 4.172z" fill="#cedde0"/>
      <path data-name="패스 20152" d="M88.832 92.748z" fill="#86a6ad"/>
      <g data-name="그룹 2036">
        <path data-name="패스 20153" d="M103.447 52.282v23.131l15.509-7.649V44.632z" fill="#58a7bf"/>
        <path data-name="패스 20154" d="M117.573 67.067l-.924.46.043-21.77.924-.462z" fill="#d0d6d8"/>
        <path data-name="패스 20155" d="M110.664 70.449l-.924.46.043-21.77.924-.462z" fill="#d0d6d8"/>
        <path data-name="패스 20156" d="M118.955 67.751l-1.383-.7.044-21.76 1.334-.663z" fill="#84a7ad"/>
        <path data-name="패스 20157" d="M117.572 67.055l1.383.708-15.508 7.651v-1.4z" fill="#cae8ea"/>
        <path data-name="패스 20158" d="M117.572 67.055v-1l-14.125 6.926v1.034z" fill="#d0d6d8"/>
      </g>
      <g data-name="그룹 2037">
        <path data-name="패스 20159" d="M91.21 52.902v23.131l-15.508-7.648V45.252z" fill="#96d7e2"/>
        <path data-name="패스 20160" d="M77.085 67.687l.924.46-.043-21.77-.924-.462z" fill="#f4f4f4"/>
        <path data-name="패스 20161" d="M83.994 71.07l.924.46-.043-21.77-.924-.462z" fill="#f4f4f4"/>
        <path data-name="패스 20162" d="M75.702 68.371l1.383-.7-.043-21.76-1.334-.663z" fill="#96afb5"/>
        <path data-name="패스 20163" d="M77.085 67.675l-1.383.708 15.509 7.651v-1.4z" fill="#cfe4e5"/>
        <path data-name="패스 20164" d="M77.085 67.676v-1l14.126 6.928v1.034z" fill="#f4f4f4"/>
      </g>
      <g data-name="그룹 2038">
        <path data-name="패스 20165" d="M70.606 42.679V65.81l-15.509-7.649V35.029z" fill="#96d7e2"/>
        <path data-name="패스 20166" d="M56.48 57.464l.924.46-.043-21.77-.924-.462z" fill="#f4f4f4"/>
        <path data-name="패스 20167" d="M63.389 60.847l.924.46-.043-21.77-.924-.462z" fill="#f4f4f4"/>
        <path data-name="패스 20168" d="M55.097 58.148l1.383-.7-.043-21.76-1.334-.663z" fill="#96afb5"/>
        <path data-name="패스 20169" d="M56.48 57.452l-1.383.708 15.509 7.65v-1.4z" fill="#cfe4e5"/>
        <path data-name="패스 20170" d="M56.48 57.453v-1l14.126 6.928v1.034z" fill="#f4f4f4"/>
      </g>
      <g data-name="그룹 2039">
        <path data-name="패스 20171" d="M124.051 42.017v23.131l15.509-7.649V34.366z" fill="#58a7bf"/>
        <path data-name="패스 20172" d="M138.177 56.8l-.924.46.043-21.77.924-.462z" fill="#d0d6d8"/>
        <path data-name="패스 20173" d="M131.268 60.186l-.924.46.043-21.77.924-.462z" fill="#d0d6d8"/>
        <path data-name="패스 20174" d="M139.56 57.486l-1.383-.7.043-21.76 1.334-.663z" fill="#84a7ad"/>
        <path data-name="패스 20175" d="M138.177 56.789l1.383.708-15.509 7.651v-1.4z" fill="#cae8ea"/>
        <path data-name="패스 20176" d="M138.177 56.789v-1l-14.126 6.928v1.034z" fill="#d0d6d8"/>
      </g>
    </g>
    <g data-name="그룹 2044">
      <path data-name="패스 20177" d="M48.596 72.541l-48.6-24.3 48.6-24.1 48.619 24.2z" fill="#dcedef"/>
      <path data-name="패스 20178" d="M48.587 72.545l.02 48.522 48.611-24.149V48.347z" fill="#96afb5"/>
      <path data-name="패스 20179" d="M48.607 72.504L0 48.249v48.627l7.667 3.771 32.559 16.248 8.382 4.172z" fill="#cedde0"/>
      <path data-name="패스 20180" d="M21.337 73.311l-.07 34.129-14.148-7.06-2.135-1.3.07-33.9z" fill="#96d7e2"/>
      <path data-name="패스 20181" d="M7.119 66.213l.043 34.19-2.178-1.073.07-34.15z" fill="#96afb5"/>
      <path data-name="패스 20182" d="M18.373 71.849l-11.25-5.615v20.315z" fill="#fff" opacity=".3"/>
      <path data-name="패스 20183" d="M21.338 73.336l-1.333-.688L7.123 89.711v2.2z" fill="#fff" opacity=".3"/>
      <g data-name="그룹 2041">
        <path data-name="패스 20184" d="M54.84 76.429V99.56l15.509-7.649v-23.13z" fill="#58a7bf"/>
        <path data-name="패스 20185" d="M68.965 91.216l-.924.46.043-21.77.924-.462z" fill="#d0d6d8"/>
        <path data-name="패스 20186" d="M62.057 94.599l-.924.46.043-21.77.924-.462z" fill="#d0d6d8"/>
        <path data-name="패스 20187" d="M70.349 91.9l-1.383-.7.043-21.76 1.334-.663z" fill="#84a7ad"/>
        <path data-name="패스 20188" d="M68.966 91.204l1.383.708-15.509 7.651v-1.4z" fill="#cae8ea"/>
        <path data-name="패스 20189" d="M68.966 91.205v-1L54.84 97.133v1.03z" fill="#d0d6d8"/>
      </g>
      <g data-name="그룹 2042">
        <path data-name="패스 20190" d="M42.604 77.052v23.132l-15.509-7.649V69.401z" fill="#96d7e2"/>
        <path data-name="패스 20191" d="M28.478 91.836l.924.46-.043-21.77-.924-.462z" fill="#f4f4f4"/>
        <path data-name="패스 20192" d="M35.387 95.218l.924.46-.043-21.77-.924-.462z" fill="#f4f4f4"/>
        <path data-name="패스 20193" d="M27.095 92.521l1.383-.7-.043-21.76-1.334-.663z" fill="#96afb5"/>
        <path data-name="패스 20194" d="M28.478 91.824l-1.383.708 15.509 7.651v-1.4z" fill="#cfe4e5"/>
        <path data-name="패스 20195" d="M28.478 91.825v-1l14.126 6.928v1.034z" fill="#f4f4f4"/>
      </g>
      <g data-name="그룹 2043">
        <path data-name="패스 20196" d="M75.444 66.166v23.13l15.509-7.649V58.514z" fill="#58a7bf"/>
        <path data-name="패스 20197" d="M89.57 80.945l-.924.46.043-21.77.924-.462z" fill="#d0d6d8"/>
        <path data-name="패스 20198" d="M82.661 84.332l-.924.46.043-21.77.924-.462z" fill="#d0d6d8"/>
        <path data-name="패스 20199" d="M90.953 81.634l-1.383-.7.044-21.76 1.334-.663z" fill="#84a7ad"/>
        <path data-name="패스 20200" d="M89.569 80.938l1.383.708-15.509 7.65v-1.4z" fill="#cae8ea"/>
        <path data-name="패스 20201" d="M89.569 80.937v-1l-14.126 6.928v1.034z" fill="#d0d6d8"/>
      </g>
      <path data-name="패스 20202" d="M7.166 100.402l.924.46-.043-34.188-.924-.462z" fill="#f4f4f4"/>
      <path data-name="패스 20203" d="M13.468 103.555l.924.46-.043-34.188-.924-.462z" fill="#f4f4f4"/>
      <path data-name="패스 20204" d="M8.047 67.683v-1l13.29 6.63v1.034z" fill="#f4f4f4"/>
    </g>
  </g>
</svg>
