<svg xmlns="http://www.w3.org/2000/svg" xmlns:xlink="http://www.w3.org/1999/xlink" width="210mm" height="297mm" viewBox="0 0 210 297" version="1.1" id="svg8"><defs/><defs id="defs2"><linearGradient id="linear-gradient" x1="-.366" y1="-11.58" x2="-1.33" y2="-11.58" gradientUnits="objectBoundingBox"><stop offset="0" stop-color="#bcc5bb" id="stop96"/><stop offset=".359" stop-color="#bac2b9" id="stop98"/><stop offset=".51" stop-color="#b3bbb2" id="stop100"/><stop offset=".623" stop-color="#a7afa6" id="stop102"/><stop offset=".716" stop-color="#979d95" id="stop104"/><stop offset=".797" stop-color="#81867f" id="stop106"/><stop offset=".87" stop-color="#676a64" id="stop108"/><stop offset=".935" stop-color="#484944" id="stop110"/><stop offset=".995" stop-color="#252320" id="stop112"/><stop offset="1" stop-color="#22201d" id="stop114"/></linearGradient><linearGradient id="linear-gradient-2" x1="-1.462" y1="-7.915" x2="-.462" y2="-7.915" gradientUnits="objectBoundingBox"><stop offset="0" stop-color="#bcc5bb" id="stop117"/><stop offset="1" stop-color="#22201d" id="stop119"/></linearGradient><linearGradient id="linear-gradient-3" x1="-1084.552" y1="-5792.597" x2="-1107.014" y2="-5792.597" xlink:href="#linear-gradient" gradientTransform="scale(1.86768 .53542)" gradientUnits="userSpaceOnUse"/><linearGradient id="linear-gradient-4" x1="-38.728" y1="73.533" x2="-12.037" y2="73.533" xlink:href="#linear-gradient-2" gradientTransform="scale(1.4961 .6684)" gradientUnits="userSpaceOnUse"/><linearGradient id="linear-gradient-5" x1="-1102.371" y1="-5609.581" x2="-1126.233" y2="-5609.581" xlink:href="#linear-gradient" gradientTransform="scale(1.83745 .54423)" gradientUnits="userSpaceOnUse"/><linearGradient id="linear-gradient-6" x1="-40.005" y1="73.342" x2="-11.633" y2="73.342" xlink:href="#linear-gradient-2" gradientTransform="scale(1.47082 .6799)" gradientUnits="userSpaceOnUse"/><linearGradient id="linear-gradient-7" x1="-1116.279" y1="-5820.562" x2="-1140.419" y2="-5820.562" xlink:href="#linear-gradient" gradientTransform="scale(1.77584 .56311)" gradientUnits="userSpaceOnUse"/><linearGradient id="linear-gradient-8" x1="-41.108" y1="-212.287" x2="-12.401" y2="-212.287" xlink:href="#linear-gradient-2" gradientTransform="scale(1.41987 .7043)" gradientUnits="userSpaceOnUse"/><linearGradient xlink:href="#linear-gradient" id="linearGradient234" gradientUnits="userSpaceOnUse" x1="-1146.379" y1="-5920.56" x2="-1169.643" y2="-5920.56" gradientTransform="scale(1.80539 .5539)"/><linearGradient xlink:href="#linear-gradient-2" id="linearGradient236" gradientUnits="userSpaceOnUse" x1="-40.423" y1="-218.841" x2="-12.774" y2="-218.841" gradientTransform="scale(1.44426 .6924)"/><filter id="패스_20" x="0" y="23.742" width="239.609" height="117.078" filterUnits="userSpaceOnUse"><feOffset dy="3" id="feOffset128"/><feGaussianBlur stdDeviation="10" result="blur" id="feGaussianBlur130"/><feFlood flood-color="#d6fff6" flood-opacity=".788" id="feFlood132"/><feComposite operator="in" in2="blur" id="feComposite134" result="result1"/><feComposite in="SourceGraphic" in2="result1" id="feComposite136"/></filter></defs><g id="layer1" display="inline"><g id="icon_04" transform="matrix(.26458 0 0 .26458 -164.534 -444.944)"><g transform="translate(621.86 1681.68)" filter="url(#%ED%8C%A8%EC%8A%A4_20)" id="g142"><path id="패스_20-2" data-name="패스 20" d="M651.858 1732.42v5.71l90.151 51.368 89.458-51.368v-5.71z" transform="translate(-621.86 -1681.68)" fill="#d4ffff"/></g><g id="그룹_2" data-name="그룹 2" transform="translate(2730.411 4854.514)"><path id="패스_21" data-name="패스 21" d="M-1988.68-3071.46v5.7l-89.876-50.713v-5.84z" fill="#0dd5e8"/><path id="패스_22" data-name="패스 22" d="M-1988.7-3071.38l-89.856-50.932 89.856-50.524 89.9 50.524z" fill="#a4ddf2"/><path id="패스_23" data-name="패스 23" d="M-1988.71-3071.38l.038 5.8 89.879-51.01v-5.724z" fill="#0739b8"/><path id="패스_24" data-name="패스 24" d="M-2010.14-3122.67c.1 6.067-9.569 11.186-21.59 11.434-12.021.248-21.846-4.47-21.943-10.537l-.036-2.233 43.539-.588z" fill="url(#linearGradient234)"/><ellipse id="타원_9" data-name="타원 9" cx="21.771" cy="10.987" rx="21.771" ry="10.987" transform="rotate(-1.269 -142565.52 91165.404)" fill="#dff2f7"/><ellipse id="타원_10" data-name="타원 10" cx="19.966" cy="9.572" rx="19.966" ry="9.572" transform="translate(-2052.235 -3133.969)" fill="url(#linearGradient236)"/><path id="패스_25" data-name="패스 25" d="M-2011.98-3124.57c.021 1.3-1.96 3.59-3.591 4.845-3.391 2.609-9.575 4.318-16.229 4.455-7.2.149-13.06-1.429-16.411-3.664-1.528-1.018-3.663-2.888-3.7-5.109-.062-3.851 8.816-7.78 19.84-8.007 11.024-.227 20.031 3.88 20.091 7.48z" fill="#264d87"/><path id="패스_26" data-name="패스 26" d="M-2051.9-3124.26l15.68.508s1.486 2.09 6.831.333l16.828.442a6.783 6.783 0 00.354-.664 2.65 2.65 0 00.22-.763 1.01 1.01 0 01.333-.667l-39.1-1.3-1.117.666a2.532 2.532 0 00-.029 1.445z" fill="#2c485d"/><path id="패스_27" data-name="패스 27" d="M-2010.89-3127.02l-18.02-.519a7.582 7.582 0 00-3.491-.65 8.843 8.843 0 00-2.7.451l-15.968-.513-2.051 2.5 17.253.591a7.52 7.52 0 003.53.671 8.793 8.793 0 002.72-.457l17.814.549z" fill="#dff2f7"/><path id="패스_28" data-name="패스 28" d="M-1966.48-3146.27c.091 5.654-9.581 10.438-21.6 10.686-12.019.248-21.84-4.135-21.931-9.789l-.033-2.081 43.538-.609z" fill="url(#linear-gradient-3)"/><ellipse id="타원_11" data-name="타원 11" cx="21.771" cy="10.239" rx="21.771" ry="10.239" transform="translate(-2010.274 -3157.662)" fill="#dff2f7"/><ellipse id="타원_12" data-name="타원 12" cx="19.966" cy="8.92" rx="19.966" ry="8.92" transform="rotate(-1.245 -146274.15 90853.249)" fill="url(#linear-gradient-4)"/><path id="패스_29" data-name="패스 29" d="M-1968.32-3148.04c.019 1.211-1.964 3.348-3.6 4.52-3.394 2.436-9.579 4.038-16.233 4.175-7.2.148-13.059-1.314-16.408-3.392-1.526-.947-3.659-2.687-3.692-4.756-.057-3.589 8.824-7.263 19.849-7.49 11.025-.227 20.034 3.593 20.084 6.943z" fill="#4673a5"/><path id="패스_30" data-name="패스 30" d="M-1984.05-3157.04l.294-.713-2.751.057-3.176 7.687s-2.436 1.1-1.535 4.54l-2.565 6.289 2.553-.2.7.028 1.887-4.935s3.321-2.076 2.121-5.066l2.286-5.524z" fill="#2c485d"/><path id="패스_31" data-name="패스 31" d="M-1983.75-3157.76l-3.468.071-3.182 7.689s-2.436 1.1-1.535 4.54l-2.565 6.289 3.045.373 2.465-6.414s3.246-1.958 1.976-4.666z" fill="#dff2f7"/><path id="패스_32" data-name="패스 32" d="M-1965.5-3098.03c.1 6.114-10.006 11.28-22.569 11.539-12.563.259-22.825-4.488-22.923-10.6l-.036-2.25 45.5-.625z" fill="url(#linear-gradient-5)"/><ellipse id="타원_13" data-name="타원 13" cx="22.751" cy="11.071" rx="22.751" ry="11.071" transform="rotate(-1.261 -142325.36 89826.938)" fill="#dff2f7"/><ellipse id="타원_14" data-name="타원 14" cx="20.865" cy="9.645" rx="20.865" ry="9.645" transform="rotate(-1.251 -143408.68 90475.759)" fill="url(#linear-gradient-6)"/><path id="패스_33" data-name="패스 33" d="M-1967.42-3099.94c.021 1.31-2.05 3.619-3.755 4.885-3.545 2.632-10.008 4.359-16.962 4.5-7.52.155-13.647-1.43-17.147-3.68-1.6-1.025-3.825-2.907-3.861-5.145-.062-3.881 9.217-7.847 20.737-8.084 11.52-.237 20.928 3.904 20.988 7.524z" fill="#264d87"/><path id="패스_34" data-name="패스 34" d="M-1985.79-3101.66l3.4-8.367-3.69-.3-3.32 7.967c-1.342.3-2.309 1.141-2.293 2.113a1.793 1.793 0 00.83 1.4l-3.551 8.52 3.922.272 3.361-8.283c1.2-.346 2.034-1.138 2.019-2.042a1.721 1.721 0 00-.678-1.28z" fill="#dff2f7"/><path id="패스_35" data-name="패스 35" d="M-1922.79-3122.62c.1 6.408-9.761 11.807-22.031 12.06-12.27.253-22.3-4.737-22.4-11.145l-.038-2.358 44.44-.589z" fill="url(#linear-gradient-7)"/><ellipse id="타원_15" data-name="타원 15" cx="22.222" cy="11.604" rx="22.222" ry="11.604" transform="translate(-1967.515 -3135.622)" fill="#dff2f7"/><ellipse id="타원_16" data-name="타원 16" cx="20.38" cy="10.109" rx="20.38" ry="10.109" transform="rotate(-1.265 -142951.93 87464.47)" fill="url(#linear-gradient-8)"/><path id="패스_36" data-name="패스 36" d="M-1924.83-3124.62a4.245 4.245 0 01-.233 1.026 7.813 7.813 0 01-1.972 2.991 12.366 12.366 0 01-1.291 1.095c-.442.329-.935.647-1.437.951a19.485 19.485 0 01-2.853 1.394 35.234 35.234 0 01-12.273 2.349c-7.345.151-13.331-1.52-16.753-3.882a13.059 13.059 0 01-2.043-1.693 7.342 7.342 0 01-1.442-2.159 5.414 5.414 0 01-.3-.95 3.082 3.082 0 01-.092-.595c-.065-4.067 9.092-8.213 20.346-8.444 11.254-.231 20.283 4.117 20.343 7.917z" fill="#264d87"/><path id="패스_37" data-name="패스 37" d="M-1941.24-3125.67a7.581 7.581 0 00-3.347-.6 9.032 9.032 0 00-2.374.348l-18.269-.746-.286 1.661s-.015.158-.018.448c0 .19.026.49.026.49l17.633.731a5.726 5.726 0 002.921.6 19.384 19.384 0 003.46-.561l15.834.991a6.012 6.012 0 00.6-1.286 4.077 4.077 0 00.227-1.39z" fill="#2c485d"/><path id="패스_38" data-name="패스 38" d="M-1941.26-3126.61a7.6 7.6 0 00-3.348-.6 9.075 9.075 0 00-2.373.347l-18.269-.746-.6 2.586 17.956.744a5.729 5.729 0 002.921.6 19.359 19.359 0 003.46-.561l16.853.931 1.228-2.586z" fill="#dff2f7"/></g></g></g></svg>