<svg xmlns="http://www.w3.org/2000/svg" xmlns:xlink="http://www.w3.org/1999/xlink" width="239.755" height="167.819" viewBox="0 0 239.755 167.819"><defs><filter id="a" x="0" y="50.741" width="239.609" height="117.078" filterUnits="userSpaceOnUse"><feOffset dy="3" input="SourceAlpha"/><feGaussianBlur stdDeviation="10" result="b"/><feFlood flood-color="#d6fff6" flood-opacity="0.788"/><feComposite operator="in" in2="b"/><feComposite in="SourceGraphic"/></filter><linearGradient id="c" x1="-0.366" y1="-11.58" x2="-1.33" y2="-11.58" gradientUnits="objectBoundingBox"><stop offset="0" stop-color="#bcc5bb"/><stop offset="0.359" stop-color="#bac2b9"/><stop offset="0.51" stop-color="#b3bbb2"/><stop offset="0.623" stop-color="#a7afa6"/><stop offset="0.716" stop-color="#979d95"/><stop offset="0.797" stop-color="#81867f"/><stop offset="0.87" stop-color="#676a64"/><stop offset="0.935" stop-color="#484944"/><stop offset="0.995" stop-color="#252320"/><stop offset="1" stop-color="#22201d"/></linearGradient><linearGradient id="d" x1="-1.462" y1="-7.915" x2="-0.462" y2="-7.915" gradientUnits="objectBoundingBox"><stop offset="0" stop-color="#bcc5bb"/><stop offset="1" stop-color="#22201d"/></linearGradient><linearGradient id="e" x1="-0.357" y1="3.729" x2="-1.32" y2="3.729" xlink:href="#c"/><linearGradient id="f" x1="-1.451" y1="2.755" x2="-0.451" y2="2.755" xlink:href="#d"/><linearGradient id="g" x1="-0.319" y1="3.489" x2="-1.282" y2="3.489" xlink:href="#c"/><linearGradient id="h" x1="-1.41" y1="2.585" x2="-0.41" y2="2.585" xlink:href="#d"/><linearGradient id="i" x1="-0.339" y1="-10.849" x2="-1.303" y2="-10.849" xlink:href="#c"/><linearGradient id="j" x1="-1.432" y1="-7.395" x2="-0.432" y2="-7.395" xlink:href="#d"/><filter id="k" x="0" y="0" width="239.755" height="167.819" filterUnits="userSpaceOnUse"><feOffset dy="3" input="SourceAlpha"/><feGaussianBlur stdDeviation="10" result="l"/><feFlood flood-color="#d6fff6" flood-opacity="0.788"/><feComposite operator="in" in2="l"/><feComposite in="SourceGraphic"/></filter></defs><g transform="translate(-621.858 -1654.677)"><g transform="matrix(1, 0, 0, 1, 621.86, 1654.68)" filter="url(#a)"><path d="M651.858,1732.418v5.71l90.151,51.368,89.458-51.368v-5.71Z" transform="translate(-621.86 -1654.68)" fill="#d4ffff"/></g><g transform="translate(2730.411 4854.514)"><path d="M-1988.677-3071.458v5.7l-89.876-50.713v-5.84Z" fill="#0dd5e8"/><path d="M-1988.7-3071.382l-89.856-50.932,89.856-50.524,89.9,50.524Z" fill="#a4ddf2"/><path d="M-1988.714-3071.382l.038,5.8,89.879-51.01,0-5.724Z" fill="#0739b8"/><path d="M-2010.142-3122.67c.1,6.067-9.569,11.186-21.59,11.434s-21.846-4.47-21.943-10.537l-.036-2.233,43.539-.588Z" fill="url(#c)"/><ellipse cx="21.771" cy="10.987" rx="21.771" ry="10.987" transform="translate(-2053.953 -3134.956) rotate(-1.269)" fill="#dff2f7"/><ellipse cx="19.966" cy="9.572" rx="19.966" ry="9.572" transform="matrix(1, -0.022, 0.022, 1, -2052.235, -3133.969)" fill="url(#d)"/><path d="M-2011.977-3124.57c.021,1.3-1.96,3.59-3.591,4.845-3.391,2.609-9.575,4.318-16.229,4.455-7.2.149-13.06-1.429-16.411-3.664-1.528-1.018-3.663-2.888-3.7-5.109-.062-3.851,8.816-7.78,19.84-8.007S-2012.035-3128.167-2011.977-3124.57Z" fill="#264d87"/><path d="M-2051.9-3124.258l15.68.508s1.486,2.09,6.831.333l16.828.442a6.84,6.84,0,0,0,.354-.664,2.646,2.646,0,0,0,.22-.763,1.009,1.009,0,0,1,.333-.667l-39.1-1.3-1.117.666A2.531,2.531,0,0,0-2051.9-3124.258Z" fill="#2c485d"/><path d="M-2010.888-3127.024l-18.02-.519a7.586,7.586,0,0,0-3.491-.65,8.845,8.845,0,0,0-2.7.451l-15.968-.513-2.051,2.5,17.253.591a7.521,7.521,0,0,0,3.53.671,8.792,8.792,0,0,0,2.72-.457l17.814.549Z" fill="#dff2f7"/><path d="M-1966.484-3146.27c.091,5.654-9.581,10.438-21.6,10.686s-21.84-4.135-21.931-9.789l-.033-2.081,43.538-.609Z" fill="url(#e)"/><ellipse cx="21.771" cy="10.239" rx="21.771" ry="10.239" transform="matrix(1, -0.022, 0.022, 1, -2010.274, -3157.662)" fill="#dff2f7"/><ellipse cx="19.966" cy="8.92" rx="19.966" ry="8.92" transform="translate(-2008.558 -3156.744) rotate(-1.245)" fill="url(#f)"/><path d="M-1968.317-3148.038c.019,1.211-1.964,3.348-3.6,4.52-3.394,2.436-9.579,4.038-16.233,4.175-7.2.148-13.059-1.314-16.408-3.392-1.526-.947-3.659-2.687-3.692-4.756-.057-3.589,8.824-7.263,19.849-7.49S-1968.371-3151.39-1968.317-3148.038Z" fill="#4673a5"/><path d="M-1984.045-3157.044l.294-.713-2.751.057-3.176,7.687s-2.436,1.1-1.535,4.54l-2.565,6.289,2.553-.195.7.028,1.887-4.935s3.321-2.076,2.121-5.066l2.286-5.524Z" fill="#2c485d"/><path d="M-1983.751-3157.757l-3.468.071L-1990.4-3150s-2.436,1.1-1.535,4.54l-2.565,6.289,3.045.373,2.465-6.414s3.246-1.958,1.976-4.666Z" fill="#dff2f7"/><path d="M-1965.5-3098.026c.1,6.114-10.006,11.28-22.569,11.539s-22.825-4.488-22.923-10.6l-.036-2.25,45.5-.625Z" fill="url(#g)"/><ellipse cx="22.751" cy="11.071" rx="22.751" ry="11.071" transform="translate(-2011.274 -3110.375) rotate(-1.261)" fill="#dff2f7"/><ellipse cx="20.865" cy="9.645" rx="20.865" ry="9.645" transform="translate(-2009.479 -3109.381) rotate(-1.251)" fill="url(#h)"/><path d="M-1967.42-3099.939c.021,1.31-2.05,3.619-3.755,4.885-3.545,2.632-10.008,4.359-16.962,4.5-7.52.155-13.647-1.43-17.147-3.68-1.6-1.025-3.825-2.907-3.861-5.145-.062-3.881,9.217-7.847,20.737-8.084S-1967.478-3103.564-1967.42-3099.939Z" fill="#264d87"/><path d="M-1985.792-3101.66l3.4-8.367-3.69-.3-3.32,7.967c-1.342.3-2.309,1.141-2.293,2.113a1.793,1.793,0,0,0,.83,1.4l-3.551,8.52,3.922.272,3.361-8.283c1.2-.346,2.034-1.138,2.019-2.042A1.721,1.721,0,0,0-1985.792-3101.66Z" fill="#dff2f7"/><path d="M-1922.785-3122.616c.1,6.408-9.761,11.807-22.031,12.06s-22.3-4.737-22.4-11.145l-.038-2.358,44.44-.589Z" fill="url(#i)"/><ellipse cx="22.222" cy="11.604" rx="22.222" ry="11.604" transform="translate(-1967.515 -3135.622) rotate(-1.278)" fill="#dff2f7"/><ellipse cx="20.38" cy="10.109" rx="20.38" ry="10.109" transform="translate(-1965.76 -3134.579) rotate(-1.265)" fill="url(#j)"/><path d="M-1924.826-3124.622a4.246,4.246,0,0,1-.233,1.026,7.815,7.815,0,0,1-1.972,2.991,12.344,12.344,0,0,1-1.291,1.095c-.442.329-.935.647-1.437.951a19.454,19.454,0,0,1-2.853,1.394,35.239,35.239,0,0,1-12.273,2.349c-7.345.151-13.331-1.52-16.753-3.882a13.066,13.066,0,0,1-2.043-1.693,7.349,7.349,0,0,1-1.442-2.159,5.424,5.424,0,0,1-.3-.95,3.064,3.064,0,0,1-.092-.595c-.065-4.067,9.092-8.213,20.346-8.444S-1924.887-3128.421-1924.826-3124.622Z" fill="#264d87"/><path d="M-1941.244-3125.674a7.58,7.58,0,0,0-3.347-.6,9.046,9.046,0,0,0-2.374.348l-18.269-.746-.286,1.661s-.015.158-.018.448c0,.19.026.49.026.49l17.633.731a5.732,5.732,0,0,0,2.921.6,19.372,19.372,0,0,0,3.46-.561l15.834.991a6.008,6.008,0,0,0,.6-1.286,4.074,4.074,0,0,0,.227-1.39Z" fill="#2c485d"/><path d="M-1941.259-3126.613a7.6,7.6,0,0,0-3.348-.595,9.087,9.087,0,0,0-2.373.347l-18.269-.746-.6,2.586,17.956.744a5.73,5.73,0,0,0,2.921.6,19.375,19.375,0,0,0,3.46-.561l16.853.931,1.228-2.586Z" fill="#dff2f7"/></g></g></svg>