<svg xmlns="http://www.w3.org/2000/svg" width="113.739" height="113.568">
  <defs/>
  <g data-name="그룹 523">
    <path data-name="패스 1107" d="M56.844 56.709L0 28.291 56.844.1l56.87 28.3z" fill="#91d2f2"/>
    <path data-name="패스 1108" d="M56.858 2.34l52.293 25.962-52.293 26.08L4.591 28.294 56.858 2.34m0-2.34L.001 28.291l56.857 28.376 56.883-28.3L56.858 0z" fill="#f4f4f4"/>
    <path data-name="패스 1109" d="M56.834 56.709l.024 56.858 56.859-28.348V28.404z" fill="#62869b"/>
    <g data-name="그룹 520">
      <path data-name="패스 1110" d="M65.044 61.279v8.806l40.6-20.116-.007-8.792z" fill="#1675a5"/>
      <path data-name="패스 1111" d="M104.025 49.169l-1.081.539.051-7.213 1.081-.541z" fill="#3b494f"/>
      <path data-name="패스 1112" d="M97.514 52.362l-1.081.538.051-7.213 1.081-.54z" fill="#3b494f"/>
      <path data-name="패스 1113" d="M90.981 55.608l-1.081.539.051-7.213 1.081-.54z" fill="#3b494f"/>
      <path data-name="패스 1114" d="M84.527 58.817l-1.081.539.051-7.213 1.081-.54z" fill="#3b494f"/>
      <path data-name="패스 1115" d="M78.016 62.045l-1.081.539.051-7.213 1.081-.54z" fill="#3b494f"/>
      <path data-name="패스 1116" d="M71.504 65.249l-1.081.538.051-7.213 1.081-.54z" fill="#3b494f"/>
      <path data-name="패스 1117" d="M105.638 49.969l-1.618-.814.051-7.2 1.56-.776z" fill="#39687f"/>
      <path data-name="패스 1118" d="M104.026 49.14l1.618.828-40.6 20.116v-1.637z" fill="#7cc4e0"/>
      <path data-name="패스 1119" d="M103.46 49.441v-1.173L65.044 67.239v1.209z" fill="#3b494f"/>
    </g>
    <g data-name="그룹 521">
      <path data-name="패스 1120" d="M65.044 76.634v8.806l40.6-20.116-.007-8.792z" fill="#1675a5"/>
      <path data-name="패스 1121" d="M104.025 64.524l-1.081.538.051-7.213 1.081-.54z" fill="#3b494f"/>
      <path data-name="패스 1122" d="M97.514 67.717l-1.081.538.051-7.213 1.081-.54z" fill="#3b494f"/>
      <path data-name="패스 1123" d="M90.981 70.962l-1.081.539.051-7.213 1.081-.54z" fill="#3b494f"/>
      <path data-name="패스 1124" d="M84.527 74.172l-1.081.538.051-7.213 1.081-.54z" fill="#3b494f"/>
      <path data-name="패스 1125" d="M78.016 77.4l-1.081.538.051-7.213 1.081-.54z" fill="#3b494f"/>
      <path data-name="패스 1126" d="M71.504 80.604l-1.081.538.051-7.213 1.081-.54z" fill="#3b494f"/>
      <path data-name="패스 1127" d="M105.638 65.324l-1.618-.814.051-7.2 1.56-.776z" fill="#39687f"/>
      <path data-name="패스 1128" d="M104.026 64.496l1.618.828-40.6 20.116v-1.634z" fill="#7cc4e0"/>
      <path data-name="패스 1129" d="M103.46 64.795v-1.172l-38.416 18.97v1.209z" fill="#3b494f"/>
    </g>
    <g data-name="그룹 522">
      <path data-name="패스 1130" d="M65.044 91.987v8.806l40.6-20.116-.007-8.792z" fill="#1675a5"/>
      <path data-name="패스 1131" d="M104.025 79.879l-1.081.538.051-7.213 1.081-.54z" fill="#3b494f"/>
      <path data-name="패스 1132" d="M97.514 83.072l-1.081.538.051-7.213 1.081-.54z" fill="#3b494f"/>
      <path data-name="패스 1133" d="M90.981 86.318l-1.081.539.051-7.213 1.081-.54z" fill="#3b494f"/>
      <path data-name="패스 1134" d="M84.527 89.528l-1.081.538.051-7.213 1.081-.54z" fill="#3b494f"/>
      <path data-name="패스 1135" d="M78.016 92.755l-1.081.538.051-7.213 1.081-.54z" fill="#3b494f"/>
      <path data-name="패스 1136" d="M71.504 95.963l-1.081.539.051-7.213 1.081-.54z" fill="#3b494f"/>
      <path data-name="패스 1137" d="M105.638 80.679l-1.618-.814.051-7.2 1.56-.776z" fill="#39687f"/>
      <path data-name="패스 1138" d="M104.026 79.851l1.618.828-40.6 20.116v-1.637z" fill="#7cc4e0"/>
      <path data-name="패스 1139" d="M103.46 80.151v-1.173L65.044 97.949v1.209z" fill="#3b494f"/>
    </g>
    <path data-name="패스 1140" d="M56.857 56.666L0 28.291V85.17l8.968 4.411 2.5-1.267 35.589 17.763v2.511l9.8 4.879z" fill="#71b7d3"/>
    <path data-name="패스 1141" d="M4.587 28.334L56.862 2.387v4L8.484 30.279z" fill="#62869b"/>
    <path data-name="패스 1142" d="M109.152 28.344L56.861 2.387v4l48.4 23.906z" fill="#71b7d3"/>
    <path data-name="패스 1143" d="M28.092 59.441l-.081 37.131-16.546-8.257-2.5 1.266.081-39.652z" fill="#67c6db"/>
    <path data-name="패스 1144" d="M47.053 68.988v37.086l-19.042-9.5.081-37.131z" fill="#6ad0ef"/>
    <path data-name="패스 1145" d="M11.465 51.163v37.151l-2.5 1.266.081-39.652z" fill="#62869b"/>
    <path data-name="패스 1146" d="M47.056 108.588z" fill="#86a6ad"/>
    <path data-name="패스 1147" d="M25.625 83.78l-.446-.225V72.272l.439.232" fill="none" stroke="#425559" stroke-linecap="round" stroke-linejoin="round" stroke-width=".15"/>
    <path data-name="패스 1148" d="M30.999 86.475l-.446-.226V74.967l.439.232" fill="none" stroke="#425559" stroke-linecap="round" stroke-linejoin="round" stroke-width=".15"/>
    <path data-name="패스 1149" d="M33.893 99.508l13.159 6.567V82.313z" fill="#fff" opacity=".1"/>
    <path data-name="패스 1150" d="M24.624 57.73l-13.159-6.568v23.763z" fill="#fff" opacity=".3"/>
    <path data-name="패스 1151" d="M28.091 59.466l-1.56-.8-15.066 19.959v2.568z" fill="#fff" opacity=".3"/>
  </g>
</svg>
