<svg xmlns="http://www.w3.org/2000/svg" width="146.692" height="159.435">
  <defs/>
  <path data-name="패스 20495" d="M97.459 83.714l47.958-27.194v75.411l-47.958 27.273z" fill="#bccfe8"/>
  <path data-name="패스 20496" d="M97.459 145.581l49.234-27.827v13.545L97.459 159.21z" fill="#97bcf2"/>
  <path data-name="패스 20497" d="M97.459 83.075l49.234-27.827v32.679l-49.234 27.911z" fill="#97bcf2"/>
  <path data-name="패스 20498" d="M97.459 83.713L1.543 29.576v75.638l95.916 54.22z" fill="#95b4d1"/>
  <path data-name="패스 20499" d="M7.263 64.805L1.542 61.27v30.929l5.721 3.6z" fill="#728ab2"/>
  <path data-name="패스 20500" d="M25.339 75.874l-5.721-3.535v30.93l5.721 3.6z" fill="#728ab2"/>
  <path data-name="패스 20501" d="M43.344 85.842l-5.721-3.535v30.929l5.721 3.6z" fill="#728ab2"/>
  <path data-name="패스 20502" d="M61.35 95.479l-5.721-3.535v30.93l5.721 3.6z" fill="#728ab2"/>
  <path data-name="패스 20503" d="M72.395 112.15l-10.349-5.85v17.67l10.349 5.794z" fill="#657a99"/>
  <path data-name="패스 20504" d="M62.047 106.641l-.7-.5v17.668l.7.448z" fill="#506682"/>
  <path data-name="패스 20505" d="M79.419 105.79l-5.721-3.535v30.929l5.721 3.6z" fill="#728ab2"/>
  <path data-name="패스 20506" d="M97.456 116.396l-5.721-3.535v30.929l5.721 3.6z" fill="#728ab2"/>
  <path data-name="패스 20507" d="M97.459 116.396l5.721-3.535v30.929l-5.721 3.6z" fill="#97bcf2"/>
  <path data-name="패스 20508" d="M119.215 102.107l5.721-3.535v30.929l-5.721 3.6z" fill="#97bcf2"/>
  <path data-name="패스 20509" d="M139.693 92.185l5.721-3.535v30.929l-5.721 3.6z" fill="#97bcf2"/>
  <path data-name="패스 20510" d="M97.459 83.076L.001 28.301V60.98l97.458 54.858z" fill="#728ab2"/>
  <path data-name="패스 20511" d="M97.459 145.579L.001 90.804v13.772l97.458 54.858z" fill="#728ab2"/>
  <path data-name="패스 20512" d="M0 28.301l97.458 54.775 49.233-27.827L48.728 0z" fill="#e4ecf2"/>
  <path data-name="패스 20513" d="M7.264 28.3l90.2 50.813 41.97-23.865-90.7-51.287z" fill="#c4dcf2"/>
  <path data-name="패스 20514" d="M48.73 3.961V9.42l-36.454 21.7-5.011-2.823z" fill="#97bcf2"/>
  <path data-name="패스 20515" d="M48.726 3.961v5.471l86.037 48.582 4.662-2.657z" fill="#728ab2"/>
  <path data-name="패스 20517" d="M1.543 61.848l95.916 53.99v1.466L1.543 63.326z" fill="#5a6f8e"/>
  <path data-name="패스 20518" d="M97.459 115.838l47.958-27.189v1.22l-47.958 27.432z" fill="#5d82af"/>
  <path data-name="패스 20519" d="M97.459 143.819l47.958-26.809 1.276.742-49.234 27.827z" fill="#5d82af"/>
  <g data-name="그룹 2096">
    <path data-name="패스 20520" d="M90.219 92.486l-51.02-28.972v10.125l51.02 29z" fill="#456ba3"/>
    <path data-name="패스 20521" d="M39.199 63.514v10.125l.633-.36v-9.426z" fill="#8a9eb5"/>
    <path data-name="패스 20522" d="M39.199 73.639l.633-.36 50.387 28.5v.848z" fill="#7e94a3"/>
    <path data-name="패스 20523" d="M43.451 65.92v10.129l.633-.36v-9.426z" fill="#8a9eb5"/>
    <path data-name="패스 20524" d="M42.816 65.574v10.125l.633.346V65.913z" fill="#9db2c4"/>
    <path data-name="패스 20525" d="M47.702 68.336v10.125l.633-.36v-9.426z" fill="#8a9eb5"/>
    <path data-name="패스 20526" d="M47.069 67.991v10.125l.633.346V68.33z" fill="#9db2c4"/>
    <path data-name="패스 20527" d="M51.954 70.752v10.125l.633-.36v-9.425z" fill="#8a9eb5"/>
    <path data-name="패스 20528" d="M51.321 70.407v10.125l.633.346V70.747z" fill="#9db2c4"/>
    <path data-name="패스 20529" d="M56.206 73.169v10.125l.633-.36v-9.426z" fill="#8a9eb5"/>
    <path data-name="패스 20530" d="M55.572 72.823v10.125l.633.346V73.162z" fill="#9db2c4"/>
    <path data-name="패스 20531" d="M60.457 75.585V85.71l.633-.36v-9.426z" fill="#8a9eb5"/>
    <path data-name="패스 20532" d="M59.824 75.241v10.125l.633.346V75.579z" fill="#9db2c4"/>
    <path data-name="패스 20533" d="M64.711 78.002v10.125l.633-.36v-9.426z" fill="#8a9eb5"/>
    <path data-name="패스 20534" d="M64.076 77.656v10.125l.633.346V77.995z" fill="#9db2c4"/>
    <path data-name="패스 20535" d="M68.961 80.417v10.125l.633-.36v-9.424z" fill="#8a9eb5"/>
    <path data-name="패스 20536" d="M68.327 80.072v10.125l.633.345V80.411z" fill="#9db2c4"/>
    <path data-name="패스 20537" d="M73.212 82.834V92.96l.633-.36v-9.426z" fill="#8a9eb5"/>
    <path data-name="패스 20538" d="M72.579 82.488v10.125l.633.346V82.828z" fill="#9db2c4"/>
    <path data-name="패스 20539" d="M77.462 85.25v10.125l.633-.36v-9.426z" fill="#8a9eb5"/>
    <path data-name="패스 20540" d="M76.831 84.904v10.125l.633.346V85.247z" fill="#9db2c4"/>
    <path data-name="패스 20541" d="M81.716 87.663v10.125l.633-.36v-9.426z" fill="#8a9eb5"/>
    <path data-name="패스 20542" d="M81.082 87.321v10.128l.633.346V87.66z" fill="#9db2c4"/>
    <path data-name="패스 20543" d="M85.967 90.083v10.125l.633-.36v-9.426z" fill="#8a9eb5"/>
    <path data-name="패스 20544" d="M85.334 89.737v10.125l.633.346V90.077z" fill="#9db2c4"/>
    <path data-name="패스 20545" d="M89.586 92.152v10.125l.633.346V92.492z" fill="#9db2c4"/>
  </g>
  <g data-name="그룹 2097">
    <path data-name="패스 20546" d="M16.89 50.81l-4.252-2.393v10.125l4.252 2.419z" fill="#456ba3"/>
    <path data-name="패스 20547" d="M12.639 48.416v10.125l.633-.36v-9.426z" fill="#8a9eb5"/>
    <path data-name="패스 20548" d="M12.639 58.541l.633-.36 3.618 2.047v.719z" fill="#7e94a3"/>
  </g>
  <g data-name="그룹 2098">
    <path data-name="패스 20549" d="M10.668 47.215l-4.252-2.393v10.125l4.252 2.419z" fill="#456ba3"/>
    <path data-name="패스 20550" d="M6.421 44.822v10.125l.633-.36v-9.426z" fill="#8a9eb5"/>
    <path data-name="패스 20551" d="M6.421 54.947l.633-.36 3.618 2.047v.719z" fill="#7e94a3"/>
  </g>
  <g data-name="그룹 2099">
    <path data-name="패스 20552" d="M103.097 93.319l4.252-2.393v10.125l-4.252 2.419z" fill="#7db8ea"/>
    <path data-name="패스 20553" d="M107.349 90.926v10.125l-.633-.36v-9.424z" fill="#8aacce"/>
    <path data-name="패스 20554" d="M107.348 101.051l-.633-.36-3.618 2.047v.719z" fill="#7ea3bc"/>
  </g>
  <g data-name="그룹 2100">
    <path data-name="패스 20555" d="M109.316 89.725l4.252-2.393v10.125l-4.252 2.419z" fill="#7db8ea"/>
    <path data-name="패스 20556" d="M113.571 87.332v10.125l-.633-.36v-9.426z" fill="#8aacce"/>
    <path data-name="패스 20557" d="M113.571 97.457l-.633-.36-3.622 2.047v.719z" fill="#7ea3bc"/>
  </g>
  <g data-name="그룹 2101">
    <path data-name="패스 20558" d="M115.547 86.143l4.252-2.393v10.125l-4.252 2.419z" fill="#7db8ea"/>
    <path data-name="패스 20559" d="M119.799 83.75v10.125l-.633-.36v-9.426z" fill="#8aacce"/>
    <path data-name="패스 20560" d="M119.798 93.875l-.633-.36-3.618 2.047v.719z" fill="#7ea3bc"/>
  </g>
  <g data-name="그룹 2102">
    <path data-name="패스 20561" d="M125.854 80.357l4.252-2.393v10.124l-4.252 2.419z" fill="#7db8ea"/>
    <path data-name="패스 20562" d="M130.106 77.964v10.124l-.633-.36v-9.426z" fill="#8aacce"/>
    <path data-name="패스 20563" d="M130.106 88.089l-.633-.36-3.618 2.047v.719z" fill="#7ea3bc"/>
  </g>
  <g data-name="그룹 2103">
    <path data-name="패스 20564" d="M132.077 76.76l4.252-2.393v10.125l-4.252 2.419z" fill="#7db8ea"/>
    <path data-name="패스 20565" d="M136.329 74.369v10.125l-.633-.36v-9.426z" fill="#8aacce"/>
    <path data-name="패스 20566" d="M136.329 84.494l-.633-.36-3.618 2.047v.719z" fill="#7ea3bc"/>
  </g>
  <g data-name="그룹 2104">
    <path data-name="패스 20567" d="M138.305 73.18l4.252-2.393v10.125l-4.252 2.419z" fill="#7db8ea"/>
    <path data-name="패스 20568" d="M142.557 70.787v10.125l-.633-.36v-9.43z" fill="#8aacce"/>
    <path data-name="패스 20569" d="M142.557 80.912l-.633-.36-3.618 2.047v.719z" fill="#7ea3bc"/>
  </g>
  <g data-name="그룹 2105">
    <path data-name="패스 20570" d="M33.282 60.106l-4.252-2.393v10.123l4.252 2.419z" fill="#456ba3"/>
    <path data-name="패스 20571" d="M29.03 57.713v10.123l.633-.36V58.05z" fill="#8a9eb5"/>
    <path data-name="패스 20572" d="M29.03 67.838l.633-.36 3.618 2.047v.719z" fill="#7e94a3"/>
  </g>
  <g data-name="그룹 2106">
    <path data-name="패스 20573" d="M27.059 56.589l-4.252-2.393v10.125l4.252 2.419z" fill="#456ba3"/>
    <path data-name="패스 20574" d="M22.808 54.196v10.125l.633-.36v-9.426z" fill="#8a9eb5"/>
    <path data-name="패스 20575" d="M22.808 64.321l.633-.36 3.618 2.047v.719z" fill="#7e94a3"/>
  </g>
  <g data-name="그룹 2108">
    <path data-name="패스 20576" d="M12.615 78.332l-3.6-2.052v10.125l3.6 2.078z" fill="#456ba3"/>
    <path data-name="패스 20577" d="M9.016 76.281v10.125l.633-.36V76.62z" fill="#8a9eb5"/>
    <path data-name="패스 20578" d="M9.016 86.404l.633-.36 2.966 1.576v.861z" fill="#7e94a3"/>
    <g data-name="그룹 2107">
      <path data-name="패스 20579" d="M12.197 83.228l-2.97-1.589v-.476l3.384 1.776z" fill="#d1d1d1"/>
      <path data-name="패스 20580" d="M12.611 88.202l-3.384-1.925v-.475l3.384 1.89z" fill="#d1d1d1"/>
      <path data-name="패스 20582" d="M9.645 81.843l.418.236v4.193l-.418-.22z" fill="#dbdbdb"/>
      <path data-name="패스 20583" d="M12.194 87.466l-2.549-1.414.418-.247 2.549 1.358z" fill="#b6b6b7"/>
      <path data-name="패스 20584" d="M12.611 82.942l-3.384-1.773.418-.247 2.966 1.505z" fill="#b6b6b7"/>
      <path data-name="패스 20585" d="M12.194 82.723l.418.219v4.753l-.418-.229z" fill="#d1d1d1"/>
      <path data-name="패스 20586" d="M9.227 81.646l.418.2v4.208l-.418-.241z" fill="#d1d1d1"/>
    </g>
  </g>
  <g data-name="그룹 2110">
    <path data-name="패스 20587" d="M17.745 81.16l-3.6-2.052v10.125l3.6 2.078z" fill="#456ba3"/>
    <path data-name="패스 20588" d="M14.147 79.108v10.125l.633-.36v-9.426z" fill="#8a9eb5"/>
    <path data-name="패스 20589" d="M14.147 89.233l.633-.36 2.965 1.576v.861z" fill="#7e94a3"/>
    <g data-name="그룹 2109">
      <path data-name="패스 20590" d="M17.324 86.056l-2.971-1.586v-.476l3.384 1.776z" fill="#d1d1d1"/>
      <path data-name="패스 20591" d="M17.742 91.034l-3.384-1.925v-.476l3.384 1.89z" fill="#d1d1d1"/>
      <path data-name="패스 20593" d="M14.776 84.671l.418.236V89.1l-.418-.22z" fill="#dbdbdb"/>
      <path data-name="패스 20594" d="M17.324 90.294l-2.549-1.414.418-.247 2.549 1.358z" fill="#b6b6b7"/>
      <path data-name="패스 20595" d="M17.742 85.768l-3.384-1.773.418-.247 2.966 1.505z" fill="#b6b6b7"/>
      <path data-name="패스 20596" d="M17.324 85.551l.418.219v4.753l-.418-.229z" fill="#d1d1d1"/>
      <path data-name="패스 20597" d="M14.353 84.47l.418.2v4.208l-.418-.241z" fill="#d1d1d1"/>
    </g>
  </g>
  <g data-name="그룹 2112">
    <path data-name="패스 20598" d="M106.932 120.884l3.6-2.052v10.125l-3.6 2.078z" fill="#7db8ea"/>
    <path data-name="패스 20599" d="M110.531 118.836v10.125l-.633-.36v-9.426z" fill="#8aacce"/>
    <path data-name="패스 20600" d="M110.53 128.961l-.633-.36-2.965 1.576v.861z" fill="#7ea3bc"/>
    <g data-name="그룹 2111">
      <path data-name="패스 20601" d="M107.354 125.784l2.966-1.586v-.476l-3.384 1.776z" fill="#d1d1d1"/>
      <path data-name="패스 20602" d="M106.936 130.763l3.384-1.925v-.476l-3.384 1.89z" fill="#d1d1d1"/>
      <path data-name="패스 20604" d="M109.902 124.399l-.418.236v4.193l.418-.22z" fill="#dbdbdb"/>
      <path data-name="패스 20605" d="M107.354 130.022l2.549-1.414-.418-.247-2.549 1.358z" fill="#b6b6b7"/>
      <path data-name="패스 20606" d="M106.936 125.496l3.384-1.773-.418-.247-2.966 1.505z" fill="#b6b6b7"/>
      <path data-name="패스 20607" d="M107.354 125.279l-.418.219v4.757l.418-.229z" fill="#d1d1d1"/>
      <path data-name="패스 20608" d="M110.32 124.198l-.418.2v4.208l.418-.241z" fill="#d1d1d1"/>
    </g>
  </g>
  <g data-name="그룹 2114">
    <path data-name="패스 20609" d="M111.864 118.094l3.6-2.052v10.125l-3.6 2.078z" fill="#7db8ea"/>
    <path data-name="패스 20610" d="M115.458 116.043v10.125l-.633-.36v-9.426z" fill="#8aacce"/>
    <path data-name="패스 20611" d="M115.462 126.168l-.633-.36-2.965 1.576v.861z" fill="#7ea3bc"/>
    <g data-name="그룹 2113">
      <path data-name="패스 20612" d="M112.286 122.991l2.966-1.586v-.476l-3.384 1.776z" fill="#d1d1d1"/>
      <path data-name="패스 20613" d="M111.868 127.969l3.384-1.925v-.476l-3.384 1.89z" fill="#d1d1d1"/>
      <path data-name="패스 20615" d="M114.834 121.606l-.418.236v4.193l.418-.22z" fill="#dbdbdb"/>
      <path data-name="패스 20616" d="M112.286 127.229l2.549-1.414-.418-.247-2.549 1.358z" fill="#b6b6b7"/>
      <path data-name="패스 20617" d="M111.868 122.704l3.384-1.773-.418-.247-2.966 1.505z" fill="#b6b6b7"/>
      <path data-name="패스 20618" d="M112.286 122.486l-.418.219v4.753l.418-.229z" fill="#d1d1d1"/>
      <path data-name="패스 20619" d="M115.255 121.405l-.418.2v4.208l.418-.241z" fill="#d1d1d1"/>
    </g>
  </g>
  <g data-name="그룹 2116">
    <path data-name="패스 20620" d="M128.192 108.748l3.6-2.052v10.129l-3.6 2.078z" fill="#7db8ea"/>
    <path data-name="패스 20621" d="M131.791 106.696v10.129l-.633-.36v-9.43z" fill="#8aacce"/>
    <path data-name="패스 20622" d="M131.79 116.822l-.633-.36-2.965 1.576v.861z" fill="#7ea3bc"/>
    <g data-name="그룹 2115">
      <path data-name="패스 20623" d="M128.614 113.644l2.966-1.586v-.475l-3.384 1.776z" fill="#d1d1d1"/>
      <path data-name="패스 20624" d="M128.196 118.622l3.384-1.925v-.476l-3.384 1.89z" fill="#d1d1d1"/>
      <path data-name="패스 20626" d="M131.162 112.26l-.418.236v4.193l.418-.22z" fill="#dbdbdb"/>
      <path data-name="패스 20627" d="M128.614 117.881l2.549-1.414-.418-.247-2.549 1.358z" fill="#b6b6b7"/>
      <path data-name="패스 20628" d="M128.196 113.356l3.384-1.773-.418-.247-2.966 1.505z" fill="#b6b6b7"/>
      <path data-name="패스 20629" d="M128.614 113.139l-.418.219v4.753l.418-.229z" fill="#d1d1d1"/>
      <path data-name="패스 20630" d="M131.58 112.058l-.418.2v4.208l.418-.241z" fill="#d1d1d1"/>
    </g>
  </g>
  <g data-name="그룹 2118">
    <path data-name="패스 20631" d="M133.098 105.924l3.6-2.052v10.125l-3.6 2.078z" fill="#7db8ea"/>
    <path data-name="패스 20632" d="M136.697 103.872v10.125l-.633-.36v-9.426z" fill="#8aacce"/>
    <path data-name="패스 20633" d="M136.696 113.997l-.633-.36-2.965 1.576v.861z" fill="#7ea3bc"/>
    <g data-name="그룹 2117">
      <path data-name="패스 20634" d="M133.52 110.82l2.966-1.586v-.476l-3.384 1.776z" fill="#d1d1d1"/>
      <path data-name="패스 20635" d="M133.102 115.798l3.384-1.925v-.476l-3.384 1.89z" fill="#d1d1d1"/>
      <path data-name="패스 20637" d="M136.068 109.435l-.418.236v4.189l.418-.22z" fill="#dbdbdb"/>
      <path data-name="패스 20638" d="M133.52 115.058l2.549-1.414-.418-.247-2.549 1.358z" fill="#b6b6b7"/>
      <path data-name="패스 20639" d="M133.102 110.532l3.384-1.773-.418-.247-2.966 1.505z" fill="#b6b6b7"/>
      <path data-name="패스 20640" d="M133.52 110.315l-.418.219v4.753l.418-.229z" fill="#d1d1d1"/>
      <path data-name="패스 20641" d="M136.486 109.234l-.418.2v4.208l.418-.241z" fill="#d1d1d1"/>
    </g>
  </g>
  <g data-name="그룹 2120">
    <path data-name="패스 20642" d="M84.884 119.352l-3.6-2.052v10.125l3.6 2.078z" fill="#456ba3"/>
    <path data-name="패스 20643" d="M81.286 117.304v10.125l.633-.36v-9.426z" fill="#8a9eb5"/>
    <path data-name="패스 20644" d="M81.286 127.429l.633-.36 2.965 1.576v.861z" fill="#7e94a3"/>
    <g data-name="그룹 2119">
      <path data-name="패스 20645" d="M84.464 124.252l-2.966-1.586v-.476l3.384 1.776z" fill="#d1d1d1"/>
      <path data-name="패스 20646" d="M84.881 129.23l-3.384-1.925v-.476l3.384 1.89z" fill="#d1d1d1"/>
      <path data-name="패스 20648" d="M81.914 122.867l.418.236v4.193l-.418-.22z" fill="#dbdbdb"/>
      <path data-name="패스 20649" d="M84.463 128.49l-2.549-1.414.418-.247 2.549 1.358z" fill="#b6b6b7"/>
      <path data-name="패스 20650" d="M84.881 123.965l-3.384-1.773.418-.247 2.966 1.505z" fill="#b6b6b7"/>
      <path data-name="패스 20651" d="M84.463 123.747l.418.219v4.757l-.418-.229z" fill="#d1d1d1"/>
      <path data-name="패스 20652" d="M81.497 122.666l.418.2v4.208l-.418-.241z" fill="#d1d1d1"/>
    </g>
  </g>
  <g data-name="그룹 2122">
    <path data-name="패스 20653" d="M90.016 122.182l-3.6-2.052v10.125l3.6 2.078z" fill="#456ba3"/>
    <path data-name="패스 20654" d="M86.417 120.131v10.125l.633-.36v-9.426z" fill="#8a9eb5"/>
    <path data-name="패스 20655" d="M86.417 130.256l.633-.36 2.965 1.576v.861z" fill="#7e94a3"/>
    <g data-name="그룹 2121">
      <path data-name="패스 20656" d="M89.594 127.079l-2.966-1.586v-.476l3.384 1.776z" fill="#d1d1d1"/>
      <path data-name="패스 20657" d="M90.012 132.057l-3.384-1.923v-.476l3.384 1.89z" fill="#d1d1d1"/>
      <path data-name="패스 20659" d="M87.046 125.694l.418.236v4.193l-.418-.22z" fill="#dbdbdb"/>
      <path data-name="패스 20660" d="M89.595 131.317l-2.549-1.414.418-.247 2.549 1.358z" fill="#b6b6b7"/>
      <path data-name="패스 20661" d="M90.012 126.792l-3.384-1.773.418-.247 2.966 1.505z" fill="#b6b6b7"/>
      <path data-name="패스 20662" d="M89.595 126.574l.418.219v4.753l-.418-.229z" fill="#d1d1d1"/>
      <path data-name="패스 20663" d="M86.628 125.493l.418.2v4.208l-.418-.241z" fill="#d1d1d1"/>
    </g>
  </g>
  <g data-name="그룹 2127">
    <g data-name="그룹 2124">
      <path data-name="패스 20664" d="M37.624 92.526l-6.25-3.558v10.076l6.246 3.555z" fill="#456ba3"/>
      <path data-name="패스 20665" d="M31.374 99.044l.644-.366 5.606 3.079v.847z" fill="#7e94a3"/>
      <g data-name="그룹 2123">
        <path data-name="패스 20666" d="M37.199 93.308l-5.61-3.264v-.484l6.035 3.457z" fill="#d1d1d1"/>
        <path data-name="패스 20667" d="M37.62 102.347l-6.031-3.429v-.484l6.031 3.393z" fill="#d1d1d1"/>
        <path data-name="패스 20669" d="M32.014 90.24l.425.242v8.426l-.425-.224z" fill="#dbdbdb"/>
        <path data-name="패스 20670" d="M37.196 101.594l-5.181-2.909.425-.251 5.181 2.852z" fill="#b6b6b7"/>
        <path data-name="패스 20671" d="M37.62 93.017l-6.031-3.456.417-.234 5.618 3.2z" fill="#b6b6b7"/>
        <path data-name="패스 20672" d="M37.195 92.794l.425.223v8.81l-.425-.233z" fill="#d1d1d1"/>
        <path data-name="패스 20673" d="M31.589 90.038l.425.2v8.442l-.425-.245z" fill="#d1d1d1"/>
      </g>
    </g>
    <g data-name="그룹 2126">
      <path data-name="패스 20674" d="M31.59 89.113l-6.25-3.558v10.076l6.25 3.54z" fill="#456ba3"/>
      <path data-name="패스 20675" d="M25.34 85.551v10.076l.644-.366v-9.365z" fill="#8a9eb5"/>
      <path data-name="패스 20676" d="M25.34 95.627l.644-.366 5.605 3.074v.833z" fill="#7e94a3"/>
      <g data-name="그룹 2125">
        <path data-name="패스 20677" d="M31.162 89.85l-5.606-3.223v-.484l6.031 3.39z" fill="#d1d1d1"/>
        <path data-name="패스 20678" d="M31.589 98.917L25.555 95.5v-.484l6.043 3.4z" fill="#d1d1d1"/>
        <path data-name="패스 20680" d="M25.98 86.823l.425.242v8.426l-.425-.224z" fill="#dbdbdb"/>
        <path data-name="패스 20681" d="M31.161 98.176l-5.181-2.909.425-.251 5.181 2.852z" fill="#b6b6b7"/>
        <path data-name="패스 20682" d="M31.589 89.559l-6.034-3.415.425-.251 6.026 3.436z" fill="#b6b6b7"/>
        <path data-name="패스 20683" d="M31.157 89.327l.427.232.009 8.857-.437-.24z" fill="#d1d1d1"/>
        <path data-name="패스 20684" d="M25.555 86.621l.425.2v8.442l-.425-.245z" fill="#d1d1d1"/>
      </g>
    </g>
  </g>
  <g data-name="그룹 2132">
    <g data-name="그룹 2129">
      <path data-name="패스 20685" d="M55.63 102.667l-6.25-3.558v10.076l6.246 3.555z" fill="#456ba3"/>
      <path data-name="패스 20686" d="M49.38 109.185l.644-.366 5.605 3.074v.847z" fill="#7e94a3"/>
      <g data-name="그룹 2128">
        <path data-name="패스 20687" d="M55.204 103.449l-5.61-3.264v-.484l6.035 3.457z" fill="#d1d1d1"/>
        <path data-name="패스 20688" d="M55.626 112.488l-6.031-3.429v-.488l6.031 3.393z" fill="#d1d1d1"/>
        <path data-name="패스 20690" d="M50.02 100.381l.425.242v8.424l-.425-.224z" fill="#dbdbdb"/>
        <path data-name="패스 20691" d="M55.201 111.735l-5.181-2.909.425-.251 5.181 2.852z" fill="#b6b6b7"/>
        <path data-name="패스 20692" d="M55.626 103.158l-6.031-3.456.417-.234 5.618 3.2z" fill="#b6b6b7"/>
        <path data-name="패스 20693" d="M55.201 102.935l.425.223v8.81l-.425-.234z" fill="#d1d1d1"/>
        <path data-name="패스 20694" d="M49.595 100.179l.425.2v8.442l-.425-.245z" fill="#d1d1d1"/>
      </g>
    </g>
    <g data-name="그룹 2131">
      <path data-name="패스 20695" d="M49.596 99.25l-6.25-3.558v10.076l6.25 3.54z" fill="#456ba3"/>
      <path data-name="패스 20696" d="M43.346 95.692v10.076l.644-.366v-9.365z" fill="#8a9eb5"/>
      <path data-name="패스 20697" d="M43.346 105.768l.644-.366 5.605 3.074v.833z" fill="#7e94a3"/>
      <g data-name="그룹 2130">
        <path data-name="패스 20698" d="M49.167 99.991l-5.606-3.223v-.484l6.031 3.39z" fill="#d1d1d1"/>
        <path data-name="패스 20699" d="M49.594 109.058l-6.034-3.417v-.484l6.043 3.4z" fill="#d1d1d1"/>
        <path data-name="패스 20701" d="M43.986 96.964l.425.242v8.426l-.425-.224z" fill="#dbdbdb"/>
        <path data-name="패스 20702" d="M49.168 108.317l-5.181-2.909.425-.251 5.181 2.852z" fill="#b6b6b7"/>
        <path data-name="패스 20703" d="M49.594 99.7l-6.034-3.415.425-.251 6.026 3.434z" fill="#b6b6b7"/>
        <path data-name="패스 20704" d="M49.164 99.468l.427.232.009 8.857-.437-.24z" fill="#d1d1d1"/>
        <path data-name="패스 20705" d="M43.561 96.762l.425.2v8.442l-.425-.245z" fill="#d1d1d1"/>
      </g>
    </g>
  </g>
  <g data-name="그룹 2134">
    <g data-name="그룹 2133">
      <path data-name="패스 20706" d="M69.515 129.905l-10.021-5.656-7.834 4.553 9.91 5.577z" fill="#d1d1d1"/>
      <path data-name="패스 20707" d="M69.514 129.908l-7.946 4.474v3.445l7.946-4.5z" fill="#b6b6b7"/>
      <path data-name="패스 20708" d="M72.377 134.977l-2.871-1.635-7.937 4.483 2.863 1.625z" fill="#d1d1d1"/>
      <path data-name="패스 20709" d="M72.377 134.977l-7.946 4.474v3.443l7.946-4.5z" fill="#b6b6b7"/>
      <path data-name="패스 20710" d="M75.24 140.039l-2.871-1.635-7.937 4.483 2.863 1.625z" fill="#d1d1d1"/>
      <path data-name="패스 20711" d="M75.24 140.039l-7.946 4.474v3.443l7.946-4.5z" fill="#b6b6b7"/>
      <path data-name="패스 20712" d="M78.088 145.101l-2.871-1.635-7.937 4.483 2.863 1.625z" fill="#d1d1d1"/>
      <path data-name="패스 20713" d="M78.083 145.101l-7.946 4.474v3.443l7.946-4.5z" fill="#b6b6b7"/>
    </g>
    <path data-name="패스 20714" d="M51.659 128.805l9.91 5.577v3.443l2.863 1.625v3.438l2.863 1.625-.019 3.436 2.863 1.625v3.443L51.66 142.585z" fill="#dbdbdb"/>
  </g>
  <path data-name="사각형 467" fill="#506682" d="M66.478 109.226h.455v17.614h-.455z"/>
  <g data-name="그룹 2135">
    <path data-name="패스 20715" d="M72.398 112.146l-11.05-6.237-3.059 1.7 10.927 6.15z" fill="#d1d1d1"/>
    <path data-name="패스 20716" d="M58.29 107.603v1.881l10.856 6.147.072-1.878z" fill="#dbdbdb"/>
    <path data-name="패스 20717" d="M69.217 113.753l-.076 1.878 3.253-1.832v-1.654z" fill="#b6b6b7"/>
  </g>
  <path data-name="패스 20718" d="M0 90.805l1.543-.866 95.916 53.881v1.76z" fill="#5a6f8e"/>
  <g data-name="그룹 2136" transform="translate(67.364 120.444)">
    <circle data-name="타원 4131" cx=".334" cy=".334" r=".334" fill="#b6b6b7"/>
    <circle data-name="타원 4132" cx=".211" cy=".211" r=".211" transform="translate(.034 .042)" fill="#d1d1d1"/>
  </g>
  <g data-name="그룹 2137" transform="translate(65.39 119.326)">
    <circle data-name="타원 4133" cx=".334" cy=".334" r=".334" fill="#b6b6b7"/>
    <circle data-name="타원 4134" cx=".211" cy=".211" r=".211" transform="translate(.034 .042)" fill="#d1d1d1"/>
  </g>
  <g data-name="그룹 2138" fill="#f4f4f4">
    <path data-name="패스 20719" d="M60.587 132.979a.227.227 0 01-.227-.227v-2.826a1.149 1.149 0 00-.6-1.008l-6.6-3.658a.945.945 0 01-.01-1.651l7.486-4.331a.228.228 0 01.228.395l-7.488 4.332a.491.491 0 000 .858l6.6 3.658a1.6 1.6 0 01.832 1.406v2.826a.227.227 0 01-.221.226z"/>
    <path data-name="패스 20720" d="M58.491 131.789a.228.228 0 01-.228-.228v-3.551a.228.228 0 11.455 0v3.551a.228.228 0 01-.227.228z"/>
    <path data-name="패스 20721" d="M56.348 130.619a.228.228 0 01-.228-.228v-3.552a.228.228 0 01.455 0v3.552a.228.228 0 01-.227.228z"/>
    <path data-name="패스 20722" d="M54.205 129.453a.227.227 0 01-.228-.227v-3.552a.228.228 0 11.455 0v3.552a.227.227 0 01-.227.227z"/>
    <path data-name="패스 20723" d="M54.918 127.678a.227.227 0 01-.228-.227v-4.479a.227.227 0 11.455 0v4.481a.227.227 0 01-.227.225z"/>
    <path data-name="패스 20724" d="M57.088 126.455a.228.228 0 01-.228-.228v-4.478a.228.228 0 11.455 0v4.478a.228.228 0 01-.227.228z"/>
    <path data-name="패스 20725" d="M59.257 125.192a.228.228 0 01-.227-.228v-4.479a.227.227 0 01.455 0v4.479a.228.228 0 01-.228.228z"/>
  </g>
</svg>
