<svg xmlns="http://www.w3.org/2000/svg" xmlns:xlink="http://www.w3.org/1999/xlink" width="242.529" height="122.875">
  <defs>
    <path data-name="사각형 34" d="M0 0h.193v1.774a.083.083 0 01-.083.083H.083A.083.083 0 010 1.774V0z" fill="url(#b)" id="reuse-1"/>
    <path data-name="사각형 35" d="M0 0h.193v1.774a.083.083 0 01-.083.083H.083A.083.083 0 010 1.774V0z" fill="url(#k)" id="reuse-0"/>
  </defs>
  <defs>
    <linearGradient id="a" x1=".217" y1=".138" x2=".567" y2=".651" gradientUnits="objectBoundingBox">
      <stop offset="0" stop-color="#313f82"/>
      <stop offset="1" stop-color="#475582"/>
    </linearGradient>
    <linearGradient id="d" x1=".209" y1=".709" x2=".502" y2=".366" xlink:href="#a"/>
    <linearGradient id="e" x1=".61" y1=".945" x2=".461" y2=".356" xlink:href="#a"/>
    <linearGradient id="f" x1=".724" y1=".209" x2=".381" y2=".703" xlink:href="#a"/>
    <linearGradient id="b" x1="-.083" y1=".5" x2="1" y2=".5" gradientUnits="objectBoundingBox">
      <stop offset="0" stop-color="#cfcfcf"/>
      <stop offset=".489" stop-color="#919191"/>
      <stop offset=".809" stop-color="#787878"/>
      <stop offset=".939" stop-color="#c2c2c2"/>
      <stop offset="1" stop-color="#ebebeb"/>
    </linearGradient>
    <linearGradient id="c" x1=".477" y1=".583" x2=".518" y2=".399" gradientUnits="objectBoundingBox">
      <stop offset="0" stop-color="#cfcfcf"/>
      <stop offset=".321" stop-color="#919191"/>
      <stop offset=".597" stop-color="#666"/>
      <stop offset=".78" stop-color="#787878"/>
      <stop offset=".959" stop-color="#c2c2c2"/>
      <stop offset="1" stop-color="#fff"/>
    </linearGradient>
    <linearGradient id="g" x1=".217" y1=".138" x2=".567" y2=".652" xlink:href="#a"/>
    <linearGradient id="h" x1=".209" y1=".709" x2=".502" y2=".366" xlink:href="#a"/>
    <linearGradient id="i" x1=".61" y1=".945" x2=".461" y2=".356" xlink:href="#a"/>
    <linearGradient id="j" x1=".724" y1=".209" x2=".381" y2=".703" xlink:href="#a"/>
    <linearGradient id="k" x1="-.083" y1=".5" x2="1" y2=".5" xlink:href="#b"/>
    <linearGradient id="l" x1=".478" y1=".583" x2=".518" y2=".399" xlink:href="#c"/>
    <linearGradient id="m" x1=".217" y1=".138" x2=".567" y2=".652" xlink:href="#a"/>
    <linearGradient id="n" x1=".61" y1=".945" x2=".462" y2=".356" xlink:href="#a"/>
    <linearGradient id="o" x1=".724" y1=".209" x2=".381" y2=".703" xlink:href="#a"/>
    <linearGradient id="p" x1=".478" y1=".583" x2=".518" y2=".399" xlink:href="#c"/>
    <linearGradient id="q" x1=".217" y1=".138" x2=".567" y2=".652" xlink:href="#a"/>
    <linearGradient id="r" x1=".61" y1=".945" x2=".461" y2=".356" xlink:href="#a"/>
    <linearGradient id="s" x1=".724" y1=".209" x2=".381" y2=".703" xlink:href="#a"/>
    <linearGradient id="t" x1=".478" y1=".583" x2=".518" y2=".399" xlink:href="#c"/>
    <linearGradient id="u" x1=".217" y1=".138" x2=".567" y2=".652" xlink:href="#a"/>
    <linearGradient id="v" x1=".209" y1=".709" x2=".502" y2=".366" xlink:href="#a"/>
    <linearGradient id="w" x1=".61" y1=".945" x2=".461" y2=".356" xlink:href="#a"/>
    <linearGradient id="x" x1=".724" y1=".209" x2=".381" y2=".703" xlink:href="#a"/>
    <linearGradient id="y" x1=".477" y1=".583" x2=".518" y2=".399" xlink:href="#c"/>
    <linearGradient id="z" x1=".217" y1=".138" x2=".567" y2=".652" xlink:href="#a"/>
    <linearGradient id="A" x1=".61" y1=".945" x2=".461" y2=".356" xlink:href="#a"/>
    <linearGradient id="B" x1=".724" y1=".209" x2=".381" y2=".703" xlink:href="#a"/>
    <linearGradient id="C" x1="-.083" y1=".5" x2="1" y2=".5" xlink:href="#b"/>
    <linearGradient id="D" x1=".217" y1=".139" x2=".567" y2=".652" xlink:href="#a"/>
    <linearGradient id="E" x1=".61" y1=".944" x2=".461" y2=".356" xlink:href="#a"/>
    <linearGradient id="F" x1=".724" y1=".209" x2=".381" y2=".704" xlink:href="#a"/>
    <linearGradient id="G" x1=".478" y1=".583" x2=".518" y2=".399" xlink:href="#c"/>
    <linearGradient id="H" x1=".217" y1=".139" x2=".567" y2=".652" xlink:href="#a"/>
    <linearGradient id="I" x1=".61" y1=".944" x2=".462" y2=".356" xlink:href="#a"/>
    <linearGradient id="J" x1=".724" y1=".209" x2=".381" y2=".703" xlink:href="#a"/>
    <linearGradient id="K" x1="-.083" y1=".5" x2="1" y2=".5" xlink:href="#b"/>
    <linearGradient id="L" x1=".217" y1=".138" x2=".567" y2=".651" xlink:href="#a"/>
    <linearGradient id="M" x1=".61" y1=".945" x2=".461" y2=".356" xlink:href="#a"/>
    <linearGradient id="N" x1=".723" y1=".209" x2=".381" y2=".703" xlink:href="#a"/>
    <linearGradient id="O" x1=".217" y1=".139" x2=".567" y2=".652" xlink:href="#a"/>
    <linearGradient id="P" x1=".61" y1=".944" x2=".461" y2=".356" xlink:href="#a"/>
    <linearGradient id="Q" x1=".724" y1=".209" x2=".381" y2=".704" xlink:href="#a"/>
    <linearGradient id="R" x1=".217" y1=".139" x2=".567" y2=".652" xlink:href="#a"/>
    <linearGradient id="S" x1=".61" y1=".944" x2=".461" y2=".356" xlink:href="#a"/>
    <linearGradient id="T" x1=".724" y1=".209" x2=".381" y2=".703" xlink:href="#a"/>
    <linearGradient id="U" x1=".217" y1=".138" x2=".567" y2=".652" xlink:href="#a"/>
    <linearGradient id="V" x1=".724" y1=".209" x2=".381" y2=".703" xlink:href="#a"/>
    <linearGradient id="W" x1=".217" y1=".139" x2=".567" y2=".652" xlink:href="#a"/>
    <linearGradient id="X" x1=".61" y1=".944" x2=".462" y2=".356" xlink:href="#a"/>
    <linearGradient id="Y" x1=".724" y1=".209" x2=".381" y2=".703" xlink:href="#a"/>
    <linearGradient id="Z" x1=".724" y1=".209" x2=".381" y2=".703" xlink:href="#a"/>
    <linearGradient id="aa" x1=".217" y1=".138" x2=".567" y2=".652" xlink:href="#a"/>
    <linearGradient id="ab" x1=".61" y1=".945" x2=".461" y2=".356" xlink:href="#a"/>
    <linearGradient id="ac" x1=".724" y1=".209" x2=".381" y2=".703" xlink:href="#a"/>
    <linearGradient id="ad" x1=".478" y1=".583" x2=".518" y2=".399" xlink:href="#c"/>
    <linearGradient id="ae" x1=".217" y1=".139" x2=".567" y2=".652" xlink:href="#a"/>
    <linearGradient id="af" x1=".61" y1=".944" x2=".462" y2=".356" xlink:href="#a"/>
    <linearGradient id="ag" x1=".724" y1=".209" x2=".381" y2=".704" xlink:href="#a"/>
    <linearGradient id="ah" x1=".217" y1=".139" x2=".567" y2=".652" xlink:href="#a"/>
    <linearGradient id="ai" x1=".61" y1=".944" x2=".461" y2=".356" xlink:href="#a"/>
    <linearGradient id="aj" x1=".724" y1=".209" x2=".381" y2=".703" xlink:href="#a"/>
    <linearGradient id="ak" x1=".217" y1=".138" x2=".567" y2=".651" xlink:href="#a"/>
    <linearGradient id="al" x1=".61" y1=".944" x2=".461" y2=".356" xlink:href="#a"/>
    <linearGradient id="am" x1=".724" y1=".209" x2=".381" y2=".703" xlink:href="#a"/>
    <linearGradient id="an" x1=".478" y1=".583" x2=".518" y2=".399" xlink:href="#c"/>
    <linearGradient id="ao" x1=".217" y1=".138" x2=".567" y2=".652" xlink:href="#a"/>
    <linearGradient id="ap" x1=".61" y1=".945" x2=".462" y2=".356" xlink:href="#a"/>
    <linearGradient id="aq" x1=".724" y1=".209" x2=".381" y2=".703" xlink:href="#a"/>
    <linearGradient id="ar" x1=".217" y1=".138" x2=".567" y2=".652" xlink:href="#a"/>
    <linearGradient id="as" x1=".61" y1=".945" x2=".461" y2=".356" xlink:href="#a"/>
    <linearGradient id="at" x1=".724" y1=".209" x2=".381" y2=".703" xlink:href="#a"/>
    <linearGradient id="au" x1=".478" y1=".583" x2=".518" y2=".399" xlink:href="#c"/>
    <linearGradient id="av" x1=".217" y1=".139" x2=".567" y2=".652" xlink:href="#a"/>
    <linearGradient id="aw" x1=".61" y1=".944" x2=".461" y2=".356" xlink:href="#a"/>
    <linearGradient id="ax" x1=".724" y1=".209" x2=".381" y2=".704" xlink:href="#a"/>
    <linearGradient id="ay" x1=".478" y1=".583" x2=".518" y2=".399" xlink:href="#c"/>
    <linearGradient id="az" x1=".217" y1=".138" x2=".567" y2=".652" xlink:href="#a"/>
    <linearGradient id="aA" x1=".61" y1=".945" x2=".461" y2=".356" xlink:href="#a"/>
    <linearGradient id="aB" x1=".217" y1=".139" x2=".567" y2=".652" xlink:href="#a"/>
    <linearGradient id="aC" x1=".61" y1=".944" x2=".461" y2=".356" xlink:href="#a"/>
    <linearGradient id="aD" x1=".724" y1=".209" x2=".381" y2=".704" xlink:href="#a"/>
    <linearGradient id="aE" x1=".217" y1=".138" x2=".567" y2=".652" xlink:href="#a"/>
    <linearGradient id="aF" x1=".209" y1=".709" x2=".502" y2=".366" xlink:href="#a"/>
    <linearGradient id="aG" x1=".61" y1=".945" x2=".461" y2=".356" xlink:href="#a"/>
    <linearGradient id="aH" x1=".724" y1=".209" x2=".381" y2=".703" xlink:href="#a"/>
    <linearGradient id="aI" x1=".477" y1=".583" x2=".518" y2=".399" xlink:href="#c"/>
    <linearGradient id="aJ" x1=".217" y1=".139" x2=".567" y2=".652" xlink:href="#a"/>
    <linearGradient id="aK" x1=".61" y1=".944" x2=".461" y2=".356" xlink:href="#a"/>
    <linearGradient id="aL" x1=".724" y1=".209" x2=".381" y2=".704" xlink:href="#a"/>
    <linearGradient id="aM" x1=".217" y1=".139" x2=".567" y2=".652" xlink:href="#a"/>
    <linearGradient id="aN" x1=".61" y1=".944" x2=".461" y2=".356" xlink:href="#a"/>
    <linearGradient id="aO" x1=".724" y1=".209" x2=".381" y2=".704" xlink:href="#a"/>
    <linearGradient id="aP" x1=".61" y1=".945" x2=".461" y2=".356" xlink:href="#a"/>
    <linearGradient id="aQ" x1=".724" y1=".209" x2=".381" y2=".703" xlink:href="#a"/>
    <linearGradient id="aR" x1=".217" y1=".138" x2=".567" y2=".652" xlink:href="#a"/>
    <linearGradient id="aS" x1=".61" y1=".945" x2=".461" y2=".356" xlink:href="#a"/>
    <linearGradient id="aT" x1=".724" y1=".209" x2=".381" y2=".703" xlink:href="#a"/>
  </defs>
  <g data-name="그룹 168">
    <path data-name="패스 336" d="M121.029 120.099v2.691L0 62.74v-2.759z" fill="#71b7d3"/>
    <path data-name="패스 337" d="M121.018 120.135L0 59.981 120.99.001l121.537 60.048z" fill="#91d2f2"/>
    <path data-name="패스 338" d="M121.009 120.135l.02 2.741 121.5-60.124v-2.7z" fill="#62869b"/>
  </g>
  <path data-name="패스 339" d="M115.972 108.774L24.02 63.067a3.533 3.533 0 010-6.33l91.93-45.574a10.881 10.881 0 019.649-.007l92.362 45.634a3.534 3.534 0 010 6.336l-92.332 45.658a10.874 10.874 0 01-9.657-.01z" fill="#dff2f7"/>
  <path data-name="패스 340" d="M36.697 63.34l-6.278-3 73.85-36.763 6.3 2.911z" fill="#0af"/>
  <path data-name="패스 341" d="M46.029 67.948l-6.278-3 73.85-36.763 6.3 2.911z" fill="#0af"/>
  <path data-name="패스 342" d="M131.241 25.354l-15.257-7.653 4.97-2.4 15.278 7.562z" fill="#0af"/>
  <path data-name="패스 343" d="M123.502 29.286l-15.257-7.653 4.97-2.4 15.278 7.562z" fill="#0af"/>
  <path data-name="패스 344" d="M55.621 72.719l-6.278-3 73.85-36.763 6.3 2.911z" fill="#0af"/>
  <path data-name="패스 345" d="M64.953 77.322l-6.278-3 73.85-36.763 6.3 2.911z" fill="#0af"/>
  <path data-name="패스 346" d="M150.165 34.733l-15.257-7.653 4.97-2.4 15.278 7.562z" fill="#0af"/>
  <path data-name="패스 347" d="M142.427 38.665l-15.258-7.657 4.97-2.4 15.278 7.562z" fill="#0af"/>
  <path data-name="패스 348" d="M74.178 81.974l-6.278-3 73.85-36.763 6.3 2.911z" fill="#0af"/>
  <path data-name="패스 349" d="M83.509 86.577l-6.278-3 73.85-36.763 6.3 2.911z" fill="#0af"/>
  <path data-name="패스 350" d="M168.721 43.988l-15.257-7.653 4.97-2.4 15.278 7.562z" fill="#0af"/>
  <path data-name="패스 351" d="M160.982 47.92l-15.257-7.653 4.97-2.4 15.278 7.562z" fill="#0af"/>
  <path data-name="패스 352" d="M93.102 91.353l-6.278-3 73.85-36.763 6.3 2.911z" fill="#0af"/>
  <path data-name="패스 353" d="M102.434 95.956l-6.278-3 73.85-36.763 6.3 2.911z" fill="#0af"/>
  <path data-name="패스 354" d="M187.646 53.368l-15.257-7.653 4.97-2.4 15.278 7.562z" fill="#0af"/>
  <path data-name="패스 355" d="M179.907 57.299l-15.257-7.653 4.97-2.4 15.278 7.562z" fill="#0af"/>
  <path data-name="패스 356" d="M111.659 100.481l-6.278-3 73.85-36.763 6.3 2.911z" fill="#0af"/>
  <path data-name="패스 357" d="M120.99 105.087l-6.278-3 73.85-36.763 6.3 2.911z" fill="#0af"/>
  <path data-name="패스 358" d="M206.203 62.495l-15.257-7.653 4.97-2.4 15.278 7.562z" fill="#0af"/>
  <path data-name="패스 359" d="M198.464 66.427l-15.259-7.652 4.97-2.4 15.278 7.562z" fill="#0af"/>
  <path data-name="패스 360" d="M179.832 77.459L87.688 31.707l-2.089 1.06 92.144 45.752z" fill="#dff2f7"/>
  <path data-name="패스 361" d="M120.954 15.303v1.888l13.371 6.625 1.907-.951z" fill="#3a83bf"/>
  <path data-name="패스 362" d="M104.292 23.574v1.888l4.369 1.975 1.907-.951z" fill="#3a83bf"/>
  <path data-name="패스 363" d="M115.984 17.684l1.907.974 3.063-1.467v-1.888z" fill="#1f5289"/>
  <path data-name="패스 364" d="M113.22 19.238v1.888l13.371 6.625 1.907-.951z" fill="#3a83bf"/>
  <path data-name="패스 365" d="M108.245 21.634l1.907.959 3.063-1.467v-1.888z" fill="#1f5289"/>
  <path data-name="패스 366" d="M87.834 31.767l1.907.959 14.55-7.256v-1.888z" fill="#1f5289"/>
  <path data-name="패스 367" d="M85.701 32.816v1.888l4.2 2.094 1.907-.951z" fill="#3a83bf"/>
  <path data-name="패스 368" d="M30.419 60.341l1.958.934 53.324-26.571v-1.888z" fill="#1f5289"/>
  <path data-name="패스 369" d="M95 37.438v1.891l4.2 2.094 1.907-.951z" fill="#3a83bf"/>
  <path data-name="패스 370" d="M39.72 64.963l1.958.934 53.325-26.568v-1.888z" fill="#1f5289"/>
  <path data-name="패스 371" d="M104.631 42.186v1.888l4.2 2.094 1.907-.951z" fill="#3a83bf"/>
  <path data-name="패스 372" d="M49.345 69.71l1.958.934 53.324-26.571v-1.887z" fill="#1f5289"/>
  <path data-name="패스 373" d="M113.911 46.828v1.888l4.2 2.094 1.907-.951z" fill="#3a83bf"/>
  <path data-name="패스 374" d="M58.628 74.35l1.958.934 53.324-26.571v-1.885z" fill="#1f5289"/>
  <path data-name="패스 375" d="M123.211 51.436v1.888l4.2 2.094 1.907-.951z" fill="#3a83bf"/>
  <path data-name="패스 376" d="M67.928 78.96l1.958.934 53.324-26.571v-1.887z" fill="#1f5289"/>
  <path data-name="패스 377" d="M132.511 56.058v1.888l4.2 2.094 1.907-.951z" fill="#3a83bf"/>
  <path data-name="패스 378" d="M77.228 83.582l1.958.934 53.324-26.571v-1.888z" fill="#1f5289"/>
  <path data-name="패스 379" d="M142.108 60.828v1.888l4.2 2.094 1.907-.951z" fill="#3a83bf"/>
  <path data-name="패스 380" d="M86.825 88.352l1.958.934 53.324-26.571v-1.888z" fill="#1f5289"/>
  <path data-name="패스 381" d="M151.405 65.442v1.888l4.2 2.094 1.907-.951z" fill="#3a83bf"/>
  <path data-name="패스 382" d="M96.125 92.966l1.958.934 53.324-26.571v-1.888z" fill="#1f5289"/>
  <path data-name="패스 383" d="M160.583 70.004v1.888l4.2 2.094 1.907-.951z" fill="#3a83bf"/>
  <path data-name="패스 384" d="M105.301 97.528l1.958.934 53.324-26.571v-1.888z" fill="#1f5289"/>
  <path data-name="패스 385" d="M169.881 74.633v1.888l4.2 2.094 1.907-.951z" fill="#3a83bf"/>
  <path data-name="패스 386" d="M114.598 102.157l1.958.934L169.88 76.52v-1.888z" fill="#1f5289"/>
  <path data-name="패스 387" d="M113.623 28.177v1.888l4.369 1.975 1.907-.951z" fill="#3a83bf"/>
  <path data-name="패스 388" d="M97.166 36.37l1.907.959 14.55-7.256v-1.888z" fill="#1f5289"/>
  <path data-name="패스 389" d="M123.217 32.954v1.888l4.369 1.975 1.907-.951z" fill="#3a83bf"/>
  <path data-name="패스 390" d="M106.758 41.146l1.907.959 14.55-7.256v-1.888z" fill="#1f5289"/>
  <path data-name="패스 391" d="M132.548 37.529v1.888l4.369 1.975 1.907-.951z" fill="#3a83bf"/>
  <path data-name="패스 392" d="M116.091 45.722l1.907.959 14.55-7.256v-1.888z" fill="#1f5289"/>
  <path data-name="패스 393" d="M141.733 42.208v1.888l4.369 1.975 1.907-.951z" fill="#3a83bf"/>
  <path data-name="패스 394" d="M125.276 50.401l1.907.959 14.55-7.256v-1.888z" fill="#1f5289"/>
  <path data-name="패스 395" d="M151.056 46.811v1.888l4.369 1.975 1.907-.951z" fill="#3a83bf"/>
  <path data-name="패스 396" d="M134.595 55.003l1.907.959 14.55-7.256v-1.888z" fill="#1f5289"/>
  <path data-name="패스 397" d="M160.666 51.587v1.888l4.369 1.975 1.907-.951z" fill="#3a83bf"/>
  <path data-name="패스 398" d="M144.208 59.776l1.907.959 14.55-7.256v-1.891z" fill="#1f5289"/>
  <path data-name="패스 399" d="M169.994 56.19v1.888l4.369 1.975 1.907-.951z" fill="#3a83bf"/>
  <path data-name="패스 400" d="M153.536 64.383l1.907.959 14.55-7.256v-1.888z" fill="#1f5289"/>
  <path data-name="패스 401" d="M179.231 60.715v1.888l4.369 1.975 1.907-.951z" fill="#3a83bf"/>
  <path data-name="패스 402" d="M162.702 68.941l1.907.959 14.621-7.289v-1.888z" fill="#1f5289"/>
  <path data-name="패스 403" d="M188.543 65.318v1.888l4.369 1.975 1.907-.951z" fill="#3a83bf"/>
  <path data-name="패스 404" d="M172.004 73.559l1.907.959 14.632-7.305v-1.888z" fill="#1f5289"/>
  <path data-name="패스 405" d="M139.878 24.682v1.888l13.371 6.625 1.907-.951z" fill="#3a83bf"/>
  <path data-name="패스 406" d="M134.908 27.064l1.907.974 3.063-1.467v-1.888z" fill="#1f5289"/>
  <path data-name="패스 407" d="M132.138 28.617v1.892l13.371 6.625 1.907-.951z" fill="#3a83bf"/>
  <path data-name="패스 408" d="M127.169 31.009l1.907.959 3.063-1.467v-1.888z" fill="#1f5289"/>
  <path data-name="패스 409" d="M158.435 33.938v1.888l13.371 6.625 1.907-.951z" fill="#3a83bf"/>
  <path data-name="패스 410" d="M153.464 36.319l1.907.974 3.063-1.467v-1.888z" fill="#1f5289"/>
  <path data-name="패스 411" d="M150.695 37.872v1.887l13.372 6.63 1.907-.951z" fill="#3a83bf"/>
  <path data-name="패스 412" d="M145.725 40.267l1.907.959 3.063-1.467v-1.887z" fill="#1f5289"/>
  <path data-name="패스 413" d="M177.359 43.317v1.888l13.371 6.625 1.907-.951z" fill="#3a83bf"/>
  <path data-name="패스 414" d="M172.389 45.698l1.907.974 3.063-1.467v-1.888z" fill="#1f5289"/>
  <path data-name="패스 415" d="M169.625 47.251v1.887l13.371 6.625 1.907-.951z" fill="#3a83bf"/>
  <path data-name="패스 416" d="M164.65 49.646l1.907.96 3.063-1.467v-1.887z" fill="#1f5289"/>
  <path data-name="패스 417" d="M195.916 52.445v1.888l13.371 6.625 1.907-.951z" fill="#3a83bf"/>
  <path data-name="패스 418" d="M190.945 54.825l1.907.974 3.063-1.467v-1.888z" fill="#1f5289"/>
  <path data-name="패스 419" d="M188.177 56.379v1.888l13.371 6.625 1.907-.951z" fill="#3a83bf"/>
  <path data-name="패스 420" d="M183.205 58.774l1.907.959 3.063-1.467v-1.888z" fill="#1f5289"/>
  <g data-name="그룹 170">
    <g data-name="그룹 169">
      <path data-name="패스 421" d="M320.753 688.977l-1.8-.131a.363.363 0 00-.364.268l-.187.733s-.125.417.323.255l2.046-.9.089-.093z" transform="translate(-215.28 -660.998)" fill="url(#a)"/>
      <path data-name="패스 422" d="M321.294 689.583l-.74-.626-.118-.034-.1.133.125.944" transform="translate(-214.967 -660.985)" fill="url(#d)"/>
      <path data-name="패스 423" d="M320.48 689.282l1.6-.145a.33.33 0 00.289-.268l.078-.619s.06-.354-.316-.161l-1.691 1.011-.067.087z" transform="translate(-214.96 -661.129)" fill="url(#e)"/>
      <path data-name="패스 424" d="M320.747 689.177l-.353-1.318a.269.269 0 00-.313-.174l-.648.1s-.374.043-.126.31l1.26 1.165.1.035z" transform="translate(-215.145 -661.185)" fill="url(#f)"/>
    </g>
    <use data-name="사각형 34" transform="translate(105.395 26.317)" xlink:href="#reuse-1"/>
    <path data-name="패스 425" d="M318.088 686.769l5.24 2.407.742-.37-5.224-2.414s-.468-.253-.78 0a.214.214 0 00.022.377z" transform="translate(-215.348 -661.41)" fill="url(#c)"/>
  </g>
  <g data-name="그룹 172">
    <g data-name="그룹 171">
      <path data-name="패스 426" d="M316.41 691.148l-1.8-.131a.363.363 0 00-.364.268l-.188.734s-.124.417.324.255l2.045-.9.091-.092z" transform="translate(-215.977 -660.649)" fill="url(#g)"/>
      <path data-name="패스 427" d="M316.952 691.754l-.74-.626-.118-.034-.1.133.125.944" transform="translate(-215.664 -660.636)" fill="url(#h)"/>
      <path data-name="패스 428" d="M316.138 691.453l1.6-.145a.33.33 0 00.289-.267l.078-.619s.06-.355-.316-.161l-1.692 1.013-.068.087z" transform="translate(-215.658 -660.779)" fill="url(#i)"/>
      <path data-name="패스 429" d="M316.405 691.348l-.353-1.317a.268.268 0 00-.313-.174l-.649.1s-.373.042-.127.309l1.262 1.165.1.035z" transform="translate(-215.842 -660.835)" fill="url(#j)"/>
    </g>
    <use data-name="사각형 35" transform="translate(100.355 28.837)" xlink:href="#reuse-0"/>
    <path data-name="패스 430" d="M313.745 688.94l5.24 2.407.742-.37-5.224-2.414s-.467-.253-.779 0a.214.214 0 00.021.377z" transform="translate(-216.045 -661.061)" fill="url(#l)"/>
  </g>
  <g data-name="그룹 174">
    <g data-name="그룹 173">
      <path data-name="패스 431" d="M312.068 693.32l-1.8-.132a.365.365 0 00-.366.268l-.187.734s-.125.417.324.255l2.045-.9.09-.093z" transform="translate(-216.675 -660.3)" fill="url(#m)"/>
      <path data-name="패스 432" d="M312.609 693.925l-.74-.626-.118-.034-.1.133.125.944" transform="translate(-216.362 -660.287)" fill="url(#h)"/>
      <path data-name="패스 433" d="M311.795 693.624l1.6-.144a.334.334 0 00.29-.268l.077-.619s.06-.354-.315-.161l-1.692 1.013-.069.087z" transform="translate(-216.355 -660.43)" fill="url(#n)"/>
      <path data-name="패스 434" d="M312.062 693.519l-.353-1.317a.268.268 0 00-.313-.174l-.648.1s-.372.042-.126.309l1.26 1.165.1.035z" transform="translate(-216.54 -660.487)" fill="url(#o)"/>
    </g>
    <use data-name="사각형 36" transform="translate(95.315 31.358)" xlink:href="#reuse-0"/>
    <path data-name="패스 435" d="M309.4 691.111l5.24 2.407.742-.369-5.224-2.415s-.467-.253-.779 0a.214.214 0 00.021.377z" transform="translate(-216.743 -660.712)" fill="url(#p)"/>
  </g>
  <g data-name="그룹 176">
    <g data-name="그룹 175">
      <path data-name="패스 436" d="M328.708 692.989l-1.8-.131a.364.364 0 00-.366.268l-.187.734s-.125.417.324.255l2.045-.9.091-.092z" transform="translate(-214.002 -660.353)" fill="url(#q)"/>
      <path data-name="패스 437" d="M329.249 693.6l-.74-.626-.118-.034-.1.133.125.944" transform="translate(-213.689 -660.34)" fill="url(#d)"/>
      <path data-name="패스 438" d="M328.435 693.294l1.6-.145a.332.332 0 00.29-.267l.077-.62s.06-.354-.315-.161l-1.693 1.014-.067.087z" transform="translate(-213.682 -660.484)" fill="url(#r)"/>
      <path data-name="패스 439" d="M328.7 693.189l-.353-1.317a.269.269 0 00-.313-.175l-.648.1s-.374.043-.127.31l1.26 1.165.1.035z" transform="translate(-213.867 -660.539)" fill="url(#s)"/>
    </g>
    <use data-name="사각형 37" transform="translate(114.628 30.974)" xlink:href="#reuse-1"/>
    <path data-name="패스 440" d="M326.043 690.781l5.24 2.407.742-.37-5.225-2.418s-.467-.253-.779 0a.214.214 0 00.022.381z" transform="translate(-214.07 -660.765)" fill="url(#t)"/>
  </g>
  <g data-name="그룹 178">
    <g data-name="그룹 177">
      <path data-name="패스 441" d="M324.366 695.161l-1.8-.132a.363.363 0 00-.364.268l-.188.733s-.124.417.324.255l2.046-.9.089-.092z" transform="translate(-214.699 -660.005)" fill="url(#u)"/>
      <path data-name="패스 442" d="M324.907 695.766l-.74-.626-.118-.034-.1.133.125.944" transform="translate(-214.386 -659.992)" fill="url(#v)"/>
      <path data-name="패스 443" d="M324.093 695.465l1.6-.145a.33.33 0 00.289-.267l.078-.619s.06-.355-.316-.161l-1.692 1.013-.067.087z" transform="translate(-214.379 -660.135)" fill="url(#w)"/>
      <path data-name="패스 444" d="M324.36 695.36l-.353-1.317a.268.268 0 00-.313-.174l-.648.1s-.374.042-.127.309l1.26 1.165.1.035z" transform="translate(-214.564 -660.191)" fill="url(#x)"/>
    </g>
    <use data-name="사각형 38" transform="translate(109.588 33.493)" xlink:href="#reuse-1"/>
    <path data-name="패스 445" d="M321.7 692.952l5.24 2.407.742-.37-5.225-2.414s-.467-.253-.779 0a.214.214 0 00.022.377z" transform="translate(-214.768 -660.417)" fill="url(#y)"/>
  </g>
  <g data-name="그룹 180">
    <g data-name="그룹 179">
      <path data-name="패스 446" d="M320.023 697.332l-1.8-.132a.363.363 0 00-.364.268l-.188.733s-.124.417.324.255l2.045-.9.091-.093z" transform="translate(-215.396 -659.656)" fill="url(#z)"/>
      <path data-name="패스 447" d="M320.565 697.937l-.74-.626-.118-.034-.1.133.125.944" transform="translate(-215.083 -659.643)" fill="url(#v)"/>
      <path data-name="패스 448" d="M319.75 697.636l1.6-.144a.333.333 0 00.289-.268l.078-.618s.06-.354-.316-.161l-1.692 1.013-.068.087z" transform="translate(-215.077 -659.786)" fill="url(#A)"/>
      <path data-name="패스 449" d="M320.018 697.531l-.354-1.317a.267.267 0 00-.312-.174l-.649.1s-.373.042-.127.309l1.262 1.165.1.035z" transform="translate(-215.261 -659.843)" fill="url(#B)"/>
    </g>
    <path data-name="사각형 39" d="M0 0h.193v1.774a.083.083 0 01-.083.083H.083A.083.083 0 010 1.774V0z" transform="translate(104.549 36.014)" fill="url(#C)"/>
    <path data-name="패스 450" d="M317.358 695.123l5.24 2.407.742-.369-5.224-2.415s-.467-.253-.779 0a.215.215 0 00.021.377z" transform="translate(-215.464 -660.068)" fill="url(#p)"/>
  </g>
  <g data-name="그룹 182">
    <g data-name="그룹 181">
      <path data-name="패스 451" d="M336.976 697.109l-1.8-.132a.365.365 0 00-.366.269l-.187.732s-.125.417.324.255l2.045-.9.089-.093z" transform="translate(-212.674 -659.692)" fill="url(#D)"/>
      <path data-name="패스 452" d="M337.517 697.715l-.74-.626-.118-.034-.1.133.125.944" transform="translate(-212.361 -659.679)" fill="url(#d)"/>
      <path data-name="패스 453" d="M336.7 697.414l1.6-.145a.332.332 0 00.29-.268l.077-.619s.06-.354-.315-.161l-1.693 1.013-.067.088z" transform="translate(-212.354 -659.822)" fill="url(#E)"/>
      <path data-name="패스 454" d="M336.97 697.308l-.353-1.317a.269.269 0 00-.313-.174l-.648.1s-.374.043-.127.31l1.26 1.165.1.034z" transform="translate(-212.539 -659.879)" fill="url(#F)"/>
    </g>
    <use data-name="사각형 40" transform="translate(124.224 35.755)" xlink:href="#reuse-0"/>
    <path data-name="패스 455" d="M334.311 694.9l5.24 2.408.742-.37-5.224-2.415s-.467-.253-.779 0a.214.214 0 00.021.377z" transform="translate(-212.742 -660.104)" fill="url(#G)"/>
  </g>
  <g data-name="그룹 184">
    <g data-name="그룹 183">
      <path data-name="패스 456" d="M332.634 699.28l-1.8-.132a.364.364 0 00-.364.269l-.188.732s-.124.417.324.257l2.046-.9.089-.093z" transform="translate(-213.371 -659.344)" fill="url(#H)"/>
      <path data-name="패스 457" d="M333.175 699.886l-.74-.626-.118-.034-.1.133.125.944" transform="translate(-213.058 -659.331)" fill="url(#v)"/>
      <path data-name="패스 458" d="M332.361 699.585l1.6-.145a.33.33 0 00.289-.268l.078-.619s.06-.354-.316-.161l-1.692 1.014-.068.087z" transform="translate(-213.052 -659.475)" fill="url(#I)"/>
      <path data-name="패스 459" d="M332.628 699.48l-.353-1.319a.269.269 0 00-.313-.174l-.648.1s-.374.043-.126.31l1.26 1.165.1.035z" transform="translate(-213.236 -659.53)" fill="url(#J)"/>
    </g>
    <path data-name="사각형 41" d="M0 0h.193v1.774a.083.083 0 01-.083.083H.083A.083.083 0 010 1.774V0z" transform="translate(119.184 38.275)" fill="url(#K)"/>
    <path data-name="패스 460" d="M329.969 697.072l5.24 2.407.742-.37-5.225-2.414s-.467-.254-.779 0a.214.214 0 00.022.377z" transform="translate(-213.44 -659.756)" fill="url(#c)"/>
  </g>
  <g data-name="그룹 186">
    <g data-name="그룹 185">
      <path data-name="패스 461" d="M328.291 701.451l-1.8-.131a.364.364 0 00-.366.268l-.187.734s-.124.417.324.255l2.045-.9.091-.093z" transform="translate(-214.069 -658.994)" fill="url(#L)"/>
      <path data-name="패스 462" d="M328.833 702.057l-.74-.626-.118-.034-.1.133.125.944" transform="translate(-213.756 -658.981)" fill="url(#v)"/>
      <path data-name="패스 463" d="M328.018 701.756l1.6-.145a.331.331 0 00.289-.268l.078-.619s.06-.354-.316-.161l-1.692 1.014-.068.087z" transform="translate(-213.75 -659.125)" fill="url(#M)"/>
      <path data-name="패스 464" d="M328.286 701.651l-.354-1.318a.267.267 0 00-.312-.174l-.649.1s-.373.043-.126.31l1.262 1.165.1.035z" transform="translate(-213.934 -659.181)" fill="url(#N)"/>
    </g>
    <use data-name="사각형 42" transform="translate(114.144 40.795)" xlink:href="#reuse-1"/>
    <path data-name="패스 465" d="M325.626 699.243l5.24 2.407.742-.37-5.224-2.414s-.467-.253-.779 0a.214.214 0 00.021.377z" transform="translate(-214.137 -659.406)" fill="url(#t)"/>
  </g>
  <g data-name="그룹 188">
    <g data-name="그룹 187">
      <path data-name="패스 466" d="M345.064 701.043l-1.8-.132a.364.364 0 00-.366.269l-.187.732s-.124.417.324.255l2.045-.9.091-.093z" transform="translate(-211.375 -659.06)" fill="url(#O)"/>
      <path data-name="패스 467" d="M345.606 701.649l-.74-.626-.118-.034-.1.133.125.944" transform="translate(-211.062 -659.047)" fill="url(#d)"/>
      <path data-name="패스 468" d="M344.791 701.348l1.6-.145a.332.332 0 00.289-.268l.078-.618s.06-.354-.316-.161l-1.692 1.013-.069.088z" transform="translate(-211.056 -659.19)" fill="url(#P)"/>
      <path data-name="패스 469" d="M345.059 701.243l-.354-1.318a.267.267 0 00-.312-.174l-.649.1s-.373.043-.127.31l1.262 1.165.1.034z" transform="translate(-211.24 -659.246)" fill="url(#Q)"/>
    </g>
    <use data-name="사각형 43" transform="translate(133.611 40.321)" xlink:href="#reuse-0"/>
    <path data-name="패스 470" d="M342.4 698.835l5.24 2.407.742-.37-5.224-2.415s-.467-.253-.779 0a.216.216 0 00.021.378z" transform="translate(-211.443 -659.472)" fill="url(#G)"/>
  </g>
  <g data-name="그룹 190">
    <g data-name="그룹 189">
      <path data-name="패스 471" d="M340.722 703.214l-1.8-.132a.366.366 0 00-.366.269l-.187.732s-.125.418.324.256l2.045-.9.091-.093z" transform="translate(-212.073 -658.712)" fill="url(#R)"/>
      <path data-name="패스 472" d="M341.263 703.82l-.74-.626-.118-.034-.1.133.125.944" transform="translate(-211.76 -658.699)" fill="url(#v)"/>
      <path data-name="패스 473" d="M340.449 703.519l1.6-.145a.332.332 0 00.29-.268l.077-.619s.06-.354-.315-.161l-1.693 1.014-.067.087z" transform="translate(-211.753 -658.842)" fill="url(#S)"/>
      <path data-name="패스 474" d="M340.716 703.414l-.353-1.318a.269.269 0 00-.313-.174l-.648.1s-.374.043-.126.31l1.26 1.165.1.035z" transform="translate(-211.938 -658.899)" fill="url(#T)"/>
    </g>
    <use data-name="사각형 44" transform="translate(128.571 42.841)" xlink:href="#reuse-0"/>
    <path data-name="패스 475" d="M338.057 701.006l5.24 2.407.742-.37-5.224-2.414s-.467-.254-.779 0a.214.214 0 00.021.377z" transform="translate(-212.141 -659.124)" fill="url(#t)"/>
  </g>
  <g data-name="그룹 192">
    <g data-name="그룹 191">
      <path data-name="패스 476" d="M336.38 705.385l-1.8-.131a.363.363 0 00-.364.268l-.187.734s-.125.417.323.255l2.046-.9.089-.092z" transform="translate(-212.77 -658.363)" fill="url(#U)"/>
      <path data-name="패스 477" d="M336.921 705.991l-.74-.626-.118-.034-.1.133.125.944" transform="translate(-212.457 -658.35)" fill="url(#v)"/>
      <path data-name="패스 478" d="M336.107 705.69l1.6-.145a.33.33 0 00.289-.267l.078-.62s.06-.354-.316-.161l-1.692 1.014-.066.089z" transform="translate(-212.45 -658.494)" fill="url(#e)"/>
      <path data-name="패스 479" d="M336.374 705.585l-.353-1.317a.269.269 0 00-.313-.175l-.648.1s-.374.043-.127.31l1.26 1.165.1.035z" transform="translate(-212.635 -658.55)" fill="url(#V)"/>
    </g>
    <use data-name="사각형 45" transform="translate(123.532 45.36)" xlink:href="#reuse-1"/>
    <path data-name="패스 480" d="M333.715 703.177l5.24 2.407.742-.37-5.225-2.414s-.467-.253-.779 0a.214.214 0 00.022.377z" transform="translate(-212.838 -658.775)" fill="url(#c)"/>
  </g>
  <g data-name="그룹 194">
    <g data-name="그룹 193">
      <path data-name="패스 481" d="M353.014 705.055l-1.8-.132a.366.366 0 00-.366.269l-.187.732s-.125.417.324.255l2.045-.9.091-.093z" transform="translate(-210.099 -658.416)" fill="url(#W)"/>
      <path data-name="패스 482" d="M353.555 705.661l-.74-.626-.115-.035-.1.133.125.944" transform="translate(-209.786 -658.403)" fill="url(#d)"/>
      <path data-name="패스 483" d="M352.741 705.36l1.6-.145a.332.332 0 00.289-.268l.077-.619s.06-.354-.315-.161l-1.692 1.014-.068.087z" transform="translate(-209.779 -658.546)" fill="url(#X)"/>
      <path data-name="패스 484" d="M353.008 705.255l-.353-1.318a.267.267 0 00-.312-.174l-.649.1s-.373.043-.127.31l1.26 1.165.1.035z" transform="translate(-209.964 -658.603)" fill="url(#Y)"/>
    </g>
    <use data-name="사각형 46" transform="translate(142.837 44.977)" xlink:href="#reuse-1"/>
    <path data-name="패스 485" d="M350.349 702.847l5.24 2.407.742-.37-5.224-2.414s-.467-.254-.779 0a.214.214 0 00.021.377z" transform="translate(-210.167 -658.828)" fill="url(#t)"/>
  </g>
  <g data-name="그룹 196">
    <g data-name="그룹 195">
      <path data-name="패스 486" d="M348.672 707.226l-1.8-.131a.363.363 0 00-.364.268l-.187.734s-.125.417.324.255l2.045-.9.089-.093z" transform="translate(-210.796 -658.067)" fill="url(#a)"/>
      <path data-name="패스 487" d="M349.213 707.832l-.74-.626-.118-.034-.1.133.125.944" transform="translate(-210.483 -658.054)" fill="url(#h)"/>
      <path data-name="패스 488" d="M348.4 707.531l1.6-.145a.33.33 0 00.289-.268l.078-.619s.06-.354-.315-.161l-1.693 1.014-.067.087z" transform="translate(-210.476 -658.198)" fill="url(#M)"/>
      <path data-name="패스 489" d="M348.666 707.426l-.353-1.318a.269.269 0 00-.313-.174l-.648.1s-.374.043-.126.31l1.26 1.165.1.035z" transform="translate(-210.661 -658.254)" fill="url(#Z)"/>
    </g>
    <use data-name="사각형 47" transform="translate(137.798 47.497)" xlink:href="#reuse-0"/>
    <path data-name="패스 490" d="M346.007 705.018l5.24 2.407.742-.37-5.224-2.414s-.468-.253-.779 0a.214.214 0 00.021.377z" transform="translate(-210.864 -658.479)" fill="url(#c)"/>
  </g>
  <g data-name="그룹 198">
    <g data-name="그룹 197">
      <path data-name="패스 491" d="M344.329 709.4l-1.8-.131a.363.363 0 00-.364.268l-.188.734s-.124.417.324.255l2.046-.9.089-.092z" transform="translate(-211.493 -657.718)" fill="url(#aa)"/>
      <path data-name="패스 492" d="M344.871 710l-.74-.626-.118-.034-.1.133.125.944" transform="translate(-211.18 -657.705)" fill="url(#v)"/>
      <path data-name="패스 493" d="M344.057 709.7l1.6-.145a.33.33 0 00.289-.267l.078-.619s.06-.355-.316-.161l-1.692 1.013-.068.087z" transform="translate(-211.174 -657.848)" fill="url(#ab)"/>
      <path data-name="패스 494" d="M344.324 709.6l-.353-1.317a.269.269 0 00-.313-.175l-.649.1s-.373.043-.125.31l1.26 1.165.1.035z" transform="translate(-211.358 -657.905)" fill="url(#ac)"/>
    </g>
    <use data-name="사각형 48" transform="translate(132.758 50.017)" xlink:href="#reuse-0"/>
    <path data-name="패스 495" d="M341.664 707.189l5.24 2.407.742-.37-5.224-2.414s-.467-.253-.779 0a.214.214 0 00.021.377z" transform="translate(-211.561 -658.13)" fill="url(#ad)"/>
  </g>
  <g data-name="그룹 200">
    <g data-name="그룹 199">
      <path data-name="패스 496" d="M361.047 709.026l-1.8-.132a.364.364 0 00-.366.268l-.187.733s-.125.417.324.255l2.045-.9.091-.093z" transform="translate(-208.808 -657.778)" fill="url(#ae)"/>
      <path data-name="패스 497" d="M361.588 709.632l-.74-.626-.118-.034-.1.133.125.944" transform="translate(-208.495 -657.765)" fill="url(#v)"/>
      <path data-name="패스 498" d="M360.774 709.331l1.6-.145a.332.332 0 00.29-.268l.077-.619s.06-.354-.315-.161l-1.692 1.013-.069.088z" transform="translate(-208.488 -657.909)" fill="url(#af)"/>
      <path data-name="패스 499" d="M361.041 709.225l-.353-1.317a.268.268 0 00-.313-.174l-.648.1s-.372.043-.127.309l1.26 1.166.1.034z" transform="translate(-208.673 -657.964)" fill="url(#ag)"/>
    </g>
    <use data-name="사각형 49" transform="translate(152.161 49.586)" xlink:href="#reuse-0"/>
    <path data-name="패스 500" d="M358.382 706.817l5.24 2.408.742-.37-5.224-2.415s-.467-.253-.779 0a.214.214 0 00.021.377z" transform="translate(-208.876 -658.19)" fill="url(#G)"/>
  </g>
  <g data-name="그룹 202">
    <g data-name="그룹 201">
      <path data-name="패스 501" d="M356.705 711.2l-1.8-.132a.365.365 0 00-.364.269l-.187.732s-.125.417.324.255l2.045-.9.089-.093z" transform="translate(-209.506 -657.43)" fill="url(#ah)"/>
      <path data-name="패스 502" d="M357.246 711.8l-.74-.626-.118-.034-.1.133.125.944" transform="translate(-209.193 -657.417)" fill="url(#d)"/>
      <path data-name="패스 503" d="M356.432 711.5l1.6-.145a.33.33 0 00.289-.268l.078-.619s.06-.354-.316-.161l-1.692 1.014-.067.087z" transform="translate(-209.186 -657.561)" fill="url(#ai)"/>
      <path data-name="패스 504" d="M356.7 711.4l-.353-1.318a.269.269 0 00-.313-.174l-.648.1s-.374.043-.126.31l1.26 1.165.1.035z" transform="translate(-209.371 -657.617)" fill="url(#aj)"/>
    </g>
    <use data-name="사각형 50" transform="translate(147.121 52.105)" xlink:href="#reuse-1"/>
    <path data-name="패스 505" d="M354.04 708.989l5.24 2.407.742-.37-5.224-2.414s-.468-.254-.779 0a.214.214 0 00.021.377z" transform="translate(-209.574 -657.842)" fill="url(#c)"/>
  </g>
  <g data-name="그룹 204">
    <g data-name="그룹 203">
      <path data-name="패스 506" d="M352.362 713.368l-1.8-.131a.363.363 0 00-.364.268l-.188.734s-.124.417.324.255l2.046-.9.089-.093z" transform="translate(-210.203 -657.081)" fill="url(#ak)"/>
      <path data-name="패스 507" d="M352.9 713.974l-.74-.626-.118-.034-.1.133.125.944" transform="translate(-209.89 -657.068)" fill="url(#v)"/>
      <path data-name="패스 508" d="M352.09 713.673l1.6-.145a.33.33 0 00.289-.268l.078-.619s.06-.354-.316-.161l-1.692 1.014-.068.087z" transform="translate(-209.884 -657.212)" fill="url(#al)"/>
      <path data-name="패스 509" d="M352.357 713.568l-.357-1.319a.269.269 0 00-.313-.174l-.649.1s-.373.043-.126.31l1.262 1.165.1.035z" transform="translate(-210.068 -657.267)" fill="url(#am)"/>
    </g>
    <use data-name="사각형 51" transform="translate(142.081 54.625)" xlink:href="#reuse-1"/>
    <path data-name="패스 510" d="M349.7 711.16l5.24 2.407.742-.37-5.224-2.414s-.467-.253-.779 0a.214.214 0 00.021.377z" transform="translate(-210.271 -657.493)" fill="url(#an)"/>
  </g>
  <g data-name="그룹 206">
    <g data-name="그룹 205">
      <path data-name="패스 511" d="M369.318 713.138l-1.8-.132a.363.363 0 00-.364.268l-.188.734s-.124.417.324.255l2.046-.9.089-.093z" transform="translate(-207.48 -657.118)" fill="url(#ao)"/>
      <path data-name="패스 512" d="M369.859 713.743l-.74-.626-.118-.034-.1.133.125.944" transform="translate(-207.167 -657.105)" fill="url(#v)"/>
      <path data-name="패스 513" d="M369.045 713.442l1.6-.144a.332.332 0 00.289-.268l.078-.619s.06-.354-.316-.161l-1.692 1.013-.068.087z" transform="translate(-207.161 -657.248)" fill="url(#ap)"/>
      <path data-name="패스 514" d="M369.312 713.337l-.353-1.317a.269.269 0 00-.313-.174l-.649.1s-.373.042-.125.309l1.26 1.165.1.035z" transform="translate(-207.345 -657.305)" fill="url(#aq)"/>
    </g>
    <use data-name="사각형 52" transform="translate(161.759 54.358)" xlink:href="#reuse-1"/>
    <path data-name="패스 515" d="M366.652 710.929l5.241 2.407.742-.369-5.225-2.415s-.467-.253-.779 0a.214.214 0 00.021.377z" transform="translate(-207.548 -657.53)" fill="url(#y)"/>
  </g>
  <g data-name="그룹 208">
    <g data-name="그룹 207">
      <path data-name="패스 516" d="M364.975 715.309l-1.8-.132a.364.364 0 00-.366.268l-.187.733s-.124.417.324.255l2.045-.9.091-.093z" transform="translate(-208.177 -656.769)" fill="url(#ar)"/>
      <path data-name="패스 517" d="M365.516 715.914l-.74-.626-.118-.034-.1.133.125.944" transform="translate(-207.864 -656.756)" fill="url(#h)"/>
      <path data-name="패스 518" d="M364.7 715.613l1.6-.144a.331.331 0 00.289-.268l.078-.619s.059-.354-.316-.161l-1.692 1.013-.068.087z" transform="translate(-207.858 -656.899)" fill="url(#as)"/>
      <path data-name="패스 519" d="M364.969 715.508l-.353-1.317a.267.267 0 00-.312-.174l-.649.1s-.373.042-.126.309l1.262 1.165.1.035z" transform="translate(-208.043 -656.955)" fill="url(#at)"/>
    </g>
    <use data-name="사각형 53" transform="translate(156.719 56.878)" xlink:href="#reuse-0"/>
    <path data-name="패스 520" d="M362.31 713.1l5.24 2.407.742-.369-5.224-2.415s-.467-.253-.779 0a.214.214 0 00.021.377z" transform="translate(-208.246 -657.181)" fill="url(#au)"/>
  </g>
  <g data-name="그룹 210">
    <g data-name="그룹 209">
      <path data-name="패스 521" d="M360.633 717.48l-1.8-.132a.364.364 0 00-.366.268l-.187.734s-.125.417.324.255l2.045-.9.089-.093z" transform="translate(-208.875 -656.42)" fill="url(#av)"/>
      <path data-name="패스 522" d="M361.174 718.086l-.74-.626-.118-.034-.1.133.125.944" transform="translate(-208.562 -656.407)" fill="url(#v)"/>
      <path data-name="패스 523" d="M360.36 717.785l1.6-.145a.332.332 0 00.29-.268l.077-.619s.06-.354-.315-.161l-1.693 1.013-.067.088z" transform="translate(-208.555 -656.551)" fill="url(#aw)"/>
      <path data-name="패스 524" d="M360.627 717.679l-.353-1.317a.269.269 0 00-.313-.174l-.648.1s-.374.043-.127.309l1.26 1.166.1.034z" transform="translate(-208.74 -656.607)" fill="url(#ax)"/>
    </g>
    <use data-name="사각형 54" transform="translate(151.68 59.398)" xlink:href="#reuse-0"/>
    <path data-name="패스 525" d="M357.968 715.271l5.24 2.408.742-.37-5.224-2.415s-.467-.253-.779 0a.214.214 0 00.021.377z" transform="translate(-208.943 -656.832)" fill="url(#ay)"/>
  </g>
  <g data-name="그룹 212">
    <g data-name="그룹 211">
      <path data-name="패스 526" d="M377.338 717.117l-1.8-.132a.363.363 0 00-.364.268l-.187.734s-.125.417.323.255l2.046-.9.089-.092z" transform="translate(-206.192 -656.479)" fill="url(#az)"/>
      <path data-name="패스 527" d="M377.879 717.722l-.74-.626-.118-.034-.1.133.125.944" transform="translate(-205.879 -656.466)" fill="url(#h)"/>
      <path data-name="패스 528" d="M377.065 717.421l1.6-.145a.33.33 0 00.289-.267l.078-.619s.06-.355-.316-.161l-1.692 1.013-.067.087z" transform="translate(-205.872 -656.609)" fill="url(#aA)"/>
      <path data-name="패스 529" d="M377.332 717.316l-.353-1.316a.268.268 0 00-.313-.174l-.648.1s-.374.042-.127.309l1.26 1.165.1.035z" transform="translate(-206.057 -656.665)" fill="url(#x)"/>
    </g>
    <use data-name="사각형 55" transform="translate(171.068 58.975)" xlink:href="#reuse-0"/>
    <path data-name="패스 530" d="M374.673 714.908l5.24 2.407.742-.37-5.225-2.414s-.467-.253-.779 0a.214.214 0 00.022.377z" transform="translate(-206.26 -656.891)" fill="url(#y)"/>
  </g>
  <g data-name="그룹 214">
    <g data-name="그룹 213">
      <path data-name="패스 531" d="M373 719.288l-1.8-.132a.363.363 0 00-.364.268l-.188.733s-.124.417.324.255l2.045-.9.091-.093z" transform="translate(-206.889 -656.13)" fill="url(#z)"/>
      <path data-name="패스 532" d="M373.537 719.893l-.74-.626-.118-.034-.1.133.125.944" transform="translate(-206.576 -656.117)" fill="url(#v)"/>
      <path data-name="패스 533" d="M372.722 719.592l1.6-.144a.333.333 0 00.289-.268l.078-.619s.06-.354-.316-.161l-1.692 1.013-.068.087z" transform="translate(-206.57 -656.261)" fill="url(#A)"/>
      <path data-name="패스 534" d="M372.99 719.487l-.353-1.317a.269.269 0 00-.313-.174l-.649.1s-.373.042-.127.309l1.262 1.165.1.035z" transform="translate(-206.754 -656.317)" fill="url(#B)"/>
    </g>
    <use data-name="사각형 56" transform="translate(166.028 61.496)" xlink:href="#reuse-0"/>
    <path data-name="패스 535" d="M370.33 717.079l5.24 2.407.742-.369-5.224-2.415s-.467-.253-.779 0a.215.215 0 00.021.377z" transform="translate(-206.957 -656.542)" fill="url(#p)"/>
  </g>
  <g data-name="그룹 216">
    <g data-name="그룹 215">
      <path data-name="패스 536" d="M368.653 721.459l-1.8-.132a.364.364 0 00-.366.268l-.187.733s-.125.417.324.255l2.045-.9.091-.093z" transform="translate(-207.587 -655.781)" fill="url(#aB)"/>
      <path data-name="패스 537" d="M369.194 722.065l-.74-.626-.118-.034-.1.133.125.944" transform="translate(-207.274 -655.768)" fill="url(#d)"/>
      <path data-name="패스 538" d="M368.38 721.764l1.6-.145a.332.332 0 00.29-.268l.077-.619s.06-.354-.314-.161l-1.692 1.013-.068.088z" transform="translate(-207.267 -655.911)" fill="url(#aC)"/>
      <path data-name="패스 539" d="M368.647 721.658l-.353-1.317a.268.268 0 00-.313-.174l-.648.1s-.374.042-.126.309l1.26 1.166.1.034z" transform="translate(-207.452 -655.968)" fill="url(#aD)"/>
    </g>
    <use data-name="사각형 57" transform="translate(160.988 64.016)" xlink:href="#reuse-0"/>
    <path data-name="패스 540" d="M365.988 719.25l5.24 2.408.742-.37-5.224-2.415s-.467-.253-.779 0a.214.214 0 00.021.377z" transform="translate(-207.655 -656.193)" fill="url(#t)"/>
  </g>
  <g data-name="그룹 218">
    <g data-name="그룹 217">
      <path data-name="패스 541" d="M385.319 721l-1.8-.132a.363.363 0 00-.364.268l-.188.733s-.124.417.324.255l2.046-.9.089-.093z" transform="translate(-204.91 -655.856)" fill="url(#aE)"/>
      <path data-name="패스 542" d="M385.86 721.6l-.74-.626-.118-.034-.1.133.125.944" transform="translate(-204.597 -655.843)" fill="url(#aF)"/>
      <path data-name="패스 543" d="M385.046 721.3l1.6-.144a.332.332 0 00.289-.268l.078-.619s.06-.354-.316-.161l-1.692 1.013-.067.087z" transform="translate(-204.591 -655.987)" fill="url(#aG)"/>
      <path data-name="패스 544" d="M385.313 721.194l-.353-1.317a.269.269 0 00-.313-.174l-.648.1s-.374.042-.127.309l1.26 1.165.1.035z" transform="translate(-204.775 -656.043)" fill="url(#aH)"/>
    </g>
    <use data-name="사각형 58" transform="translate(180.33 63.477)" xlink:href="#reuse-0"/>
    <path data-name="패스 545" d="M382.654 718.786l5.24 2.407.742-.369-5.225-2.415s-.467-.253-.779 0a.214.214 0 00.022.377z" transform="translate(-204.979 -656.268)" fill="url(#aI)"/>
  </g>
  <g data-name="그룹 220">
    <g data-name="그룹 219">
      <path data-name="패스 546" d="M380.976 723.166l-1.8-.132a.364.364 0 00-.366.268l-.187.733s-.124.417.324.255l2.045-.9.091-.093z" transform="translate(-205.607 -655.507)" fill="url(#aJ)"/>
      <path data-name="패스 547" d="M381.518 723.771l-.74-.626-.118-.034-.1.133.125.944" transform="translate(-205.294 -655.494)" fill="url(#v)"/>
      <path data-name="패스 548" d="M380.7 723.471l1.6-.145a.331.331 0 00.289-.268l.078-.619s.06-.354-.316-.161l-1.692 1.013-.068.088z" transform="translate(-205.288 -655.638)" fill="url(#aK)"/>
      <path data-name="패스 549" d="M380.971 723.365l-.354-1.317a.267.267 0 00-.312-.174l-.649.1s-.373.043-.127.309l1.262 1.166.1.034z" transform="translate(-205.472 -655.694)" fill="url(#aL)"/>
    </g>
    <use data-name="사각형 59" transform="translate(175.291 65.997)" xlink:href="#reuse-0"/>
    <path data-name="패스 550" d="M378.311 720.957l5.24 2.408.742-.37-5.224-2.415s-.467-.253-.779 0a.215.215 0 00.021.377z" transform="translate(-205.675 -655.919)" fill="url(#G)"/>
  </g>
  <g data-name="그룹 222">
    <g data-name="그룹 221">
      <path data-name="패스 551" d="M376.634 725.337l-1.8-.132a.364.364 0 00-.366.269l-.187.732s-.125.417.324.255l2.045-.9.091-.093z" transform="translate(-206.305 -655.159)" fill="url(#aM)"/>
      <path data-name="패스 552" d="M377.175 725.943l-.74-.626-.118-.034-.1.133.125.944" transform="translate(-205.992 -655.146)" fill="url(#v)"/>
      <path data-name="패스 553" d="M376.361 725.642l1.6-.145a.332.332 0 00.29-.268l.077-.618s.06-.354-.315-.161l-1.693 1.013-.067.088z" transform="translate(-205.985 -655.289)" fill="url(#aN)"/>
      <path data-name="패스 554" d="M376.628 725.537l-.353-1.319a.268.268 0 00-.313-.174l-.648.1s-.374.043-.127.31l1.26 1.165.1.034z" transform="translate(-206.17 -655.345)" fill="url(#aO)"/>
    </g>
    <use data-name="사각형 60" transform="translate(170.251 68.516)" xlink:href="#reuse-0"/>
    <path data-name="패스 555" d="M373.969 723.129l5.24 2.407.742-.37-5.224-2.414s-.467-.254-.779 0a.214.214 0 00.021.377z" transform="translate(-206.373 -655.571)" fill="url(#t)"/>
  </g>
  <g data-name="그룹 224">
    <g data-name="그룹 223">
      <path data-name="패스 556" d="M393.339 724.97l-1.8-.132a.363.363 0 00-.364.268l-.187.734s-.125.417.324.255l2.045-.9.089-.093z" transform="translate(-203.622 -655.217)" fill="url(#az)"/>
      <path data-name="패스 557" d="M393.88 725.575l-.74-.626-.118-.034-.1.133.125.944" transform="translate(-203.309 -655.204)" fill="url(#v)"/>
      <path data-name="패스 558" d="M393.066 725.274l1.6-.144a.332.332 0 00.289-.268l.078-.619s.06-.354-.316-.161l-1.692 1.013-.067.087z" transform="translate(-203.302 -655.347)" fill="url(#aP)"/>
      <path data-name="패스 559" d="M393.333 725.169l-.353-1.317a.268.268 0 00-.313-.174l-.648.1s-.374.042-.126.309l1.26 1.165.1.035z" transform="translate(-203.487 -655.403)" fill="url(#aQ)"/>
    </g>
    <use data-name="사각형 61" transform="translate(189.639 68.09)" xlink:href="#reuse-0"/>
    <path data-name="패스 560" d="M390.674 722.761l5.24 2.407.742-.369-5.224-2.415s-.468-.253-.779 0a.214.214 0 00.021.377z" transform="translate(-203.69 -655.629)" fill="url(#y)"/>
  </g>
  <g data-name="그룹 226">
    <g data-name="그룹 225">
      <path data-name="패스 561" d="M389 727.141l-1.8-.132a.363.363 0 00-.364.268l-.188.734s-.124.417.324.255l2.046-.9.089-.093z" transform="translate(-204.319 -654.869)" fill="url(#aR)"/>
      <path data-name="패스 562" d="M389.538 727.746l-.74-.626-.118-.034-.1.133.125.944" transform="translate(-204.006 -654.856)" fill="url(#d)"/>
      <path data-name="패스 563" d="M388.724 727.445l1.6-.144a.332.332 0 00.289-.268l.078-.619s.06-.354-.316-.161l-1.692 1.013-.068.087z" transform="translate(-204 -655)" fill="url(#aS)"/>
      <path data-name="패스 564" d="M388.991 727.34l-.353-1.317a.269.269 0 00-.313-.174l-.649.1s-.373.042-.126.309l1.262 1.165.1.035z" transform="translate(-204.185 -655.056)" fill="url(#aT)"/>
    </g>
    <use data-name="사각형 62" transform="translate(184.599 70.61)" xlink:href="#reuse-0"/>
    <path data-name="패스 565" d="M386.331 724.932l5.24 2.407.742-.369-5.224-2.415s-.467-.253-.779 0a.215.215 0 00.021.377z" transform="translate(-204.387 -655.281)" fill="url(#au)"/>
  </g>
  <g data-name="그룹 228">
    <g data-name="그룹 227">
      <path data-name="패스 566" d="M384.654 729.312l-1.8-.132a.364.364 0 00-.366.268l-.187.733s-.125.417.324.255l2.045-.9.09-.093z" transform="translate(-205.017 -654.52)" fill="url(#aJ)"/>
      <path data-name="패스 567" d="M385.2 729.918l-.74-.626-.118-.034-.1.133.125.944" transform="translate(-204.704 -654.507)" fill="url(#v)"/>
      <path data-name="패스 568" d="M384.381 729.617l1.6-.145a.331.331 0 00.289-.268l.077-.619s.06-.354-.315-.161l-1.692 1.013-.069.088z" transform="translate(-204.697 -654.65)" fill="url(#af)"/>
      <path data-name="패스 569" d="M384.648 729.511l-.353-1.317a.267.267 0 00-.312-.174l-.649.1s-.373.043-.126.309l1.26 1.166.1.034z" transform="translate(-204.882 -654.706)" fill="url(#ag)"/>
    </g>
    <use data-name="사각형 63" transform="translate(179.559 73.13)" xlink:href="#reuse-1"/>
    <path data-name="패스 570" d="M381.989 727.1l5.24 2.408.742-.37-5.224-2.415s-.467-.253-.779 0a.214.214 0 00.021.377z" transform="translate(-205.085 -654.932)" fill="url(#G)"/>
  </g>
</svg>
