<svg xmlns="http://www.w3.org/2000/svg" width="293.461" height="127.8">
  <defs/>
  <g data-name="그룹 2989" fill="#1b4f7a">
    <path data-name="패스 22956" d="M218.331 91.5l31 18.1c11.5-4.9 21-10.6 28.2-16.7l-39.1-12.2a85.831 85.831 0 01-20.1 10.8z"/>
    <path data-name="패스 22957" d="M251.831 52a20.4 20.4 0 01-.3 12.7l41.2 5.7a28.724 28.724 0 00-1.9-18.4z"/>
    <path data-name="패스 22958" d="M240.631 79.1l39 12c6.4-6 10.7-12.3 12.7-18.8l-41.4-5.8a37.957 37.957 0 01-10.3 12.6z"/>
    <path data-name="패스 22959" d="M186.531 100.2l17.4 22.6a229.854 229.854 0 0041.9-11.7l-30.9-18.3a160.652 160.652 0 01-28.4 7.4z"/>
    <path data-name="패스 22960" d="M78.631 92.8l-30.9 18.3a210.958 210.958 0 0041.9 11.7l17.4-22.6a160.649 160.649 0 01-28.4-7.4z"/>
    <path data-name="패스 22961" d="M149.131 103.5l.2 24.3a315.932 315.932 0 0050-4.2l-17.2-22.7a228.781 228.781 0 01-33 2.6z"/>
    <path data-name="패스 22962" d="M111.331 100.9l-17.1 22.7a315.929 315.929 0 0050 4.2l.2-24.3a231.356 231.356 0 01-33.1-2.6z"/>
    <path data-name="패스 22963" d="M200.331 18.3l17.6-10.3a275.913 275.913 0 00-32.2-5.7l-8.8 11.7a198.79 198.79 0 0123.4 4.3z"/>
    <path data-name="패스 22964" d="M144.931 12.1l.1-12.1a338.323 338.323 0 00-34 1.9l8.9 11.6a225.687 225.687 0 0125-1.4z"/>
    <path data-name="패스 22965" d="M67.431 27.5l-26-8.1a116.906 116.906 0 00-22.5 13.1l33.3 4.6a70.873 70.873 0 0115.2-9.6z"/>
    <path data-name="패스 22966" d="M90.131 19.2l-17.6-10.4a190.371 190.371 0 00-28.5 9.5l25.9 8a135.9 135.9 0 0120.2-7.1z"/>
    <path data-name="패스 22967" d="M116.631 14l-8.8-11.7a298.63 298.63 0 00-32.2 5.7l17.6 10.3a195.053 195.053 0 0123.4-4.3z"/>
    <path data-name="패스 22968" d="M251.231 50.3h38.8c-2.9-5.9-7.6-11.3-13.6-16.3l-33.4 4.6a32.06 32.06 0 018.2 11.7z"/>
    <path data-name="패스 22969" d="M223.631 26.3l25.9-8a190.372 190.372 0 00-28.5-9.5l-17.6 10.4a144.451 144.451 0 0120.2 7.1z"/>
    <path data-name="패스 22970" d="M173.431 13.5l8.9-11.6a338.326 338.326 0 00-34-1.9l.1 12.1a221.608 221.608 0 0125 1.4z"/>
    <path data-name="패스 22971" d="M241.331 37.1l33.3-4.6a107.408 107.408 0 00-22.5-13.1l-26 8.1a76.232 76.232 0 0115.2 9.6z"/>
    <path data-name="패스 22972" d="M42.631 66.5l-41.4 5.8c2 6.5 6.3 12.9 12.7 18.8l39-12c-4.8-4-8.3-8.2-10.3-12.6z"/>
    <path data-name="패스 22973" d="M41.631 52h-39a28.852 28.852 0 00-1.9 18.4l41.2-5.7a20.4 20.4 0 01-.3-12.7z"/>
    <path data-name="패스 22974" d="M50.531 38.6l-33.4-4.6c-6 5-10.7 10.4-13.6 16.3h38.8a29.831 29.831 0 018.2-11.7z"/>
    <path data-name="패스 22975" d="M55.031 80.7l-39.1 12.2c7.2 6.2 16.7 11.8 28.2 16.7l31-18.1a85.83 85.83 0 01-20.1-10.8z"/>
  </g>
</svg>
