<svg xmlns="http://www.w3.org/2000/svg" width="320.051" height="157.36">
  <defs/>
  <g data-name="그룹 2991" fill="#1b4f7a">
    <path data-name="패스 22956" d="M240.085 118.728l32.995 19.265c12.24-5.215 22.351-11.282 30.015-17.775l-41.616-12.99a91.355 91.355 0 01-21.394 11.5z"/>
    <path data-name="패스 22957" d="M275.741 74.933a21.713 21.713 0 01-.319 13.517l43.851 6.067a30.572 30.572 0 00-2.022-19.584z"/>
    <path data-name="패스 22958" d="M263.821 104.34l41.51 12.772c6.812-6.386 11.389-13.092 13.517-20.01l-44.064-6.173a40.4 40.4 0 01-10.963 13.411z"/>
    <path data-name="패스 22959" d="M204.672 127.983l18.52 24.054a244.647 244.647 0 0044.6-12.453L234.9 120.107a170.99 170.99 0 01-30.228 7.876z"/>
    <path data-name="패스 22960" d="M85.262 120.107l-32.889 19.478a224.534 224.534 0 0044.6 12.453l18.52-24.054a170.986 170.986 0 01-30.231-7.877z"/>
    <path data-name="패스 22961" d="M163.451 131.495l.213 25.864a336.264 336.264 0 0053.218-4.47l-18.307-24.161a243.5 243.5 0 01-35.124 2.767z"/>
    <path data-name="패스 22962" d="M121.479 128.728l-18.2 24.161a336.26 336.26 0 0053.218 4.47l.213-25.864a246.246 246.246 0 01-35.231-2.767z"/>
    <path data-name="패스 22963" d="M218.622 37.48l18.733-10.963a293.67 293.67 0 00-34.273-6.067l-9.366 12.453a211.583 211.583 0 0124.906 4.577z"/>
    <path data-name="패스 22964" d="M157.555 30.881l.106-12.879a360.1 360.1 0 00-36.188 2.022l9.473 12.347a240.209 240.209 0 0126.609-1.49z"/>
    <path data-name="패스 22965" d="M71.77 47.859l-27.673-8.621a124.429 124.429 0 00-23.948 13.943l35.443 4.9A75.434 75.434 0 0171.77 47.859z"/>
    <path data-name="패스 22966" d="M97.303 38.437L78.57 27.368a202.623 202.623 0 00-30.334 10.111l27.567 8.515a144.64 144.64 0 0121.5-7.557z"/>
    <path data-name="패스 22967" d="M126.445 32.903l-9.367-12.453a317.848 317.848 0 00-34.272 6.067l18.733 10.963a207.606 207.606 0 0124.906-4.577z"/>
    <path data-name="패스 22968" d="M275.103 72.555h41.3c-3.087-6.28-8.089-12.027-14.475-17.349l-35.553 4.9a34.123 34.123 0 018.728 12.449z"/>
    <path data-name="패스 22969" d="M245.727 45.994l27.567-8.515a202.625 202.625 0 00-30.334-10.111l-18.733 11.069a153.746 153.746 0 0121.5 7.557z"/>
    <path data-name="패스 22970" d="M188.996 32.371l9.473-12.347a360.1 360.1 0 00-36.188-2.022l.106 12.879a235.869 235.869 0 0126.609 1.49z"/>
    <path data-name="패스 22971" d="M264.565 58.077l35.443-4.9a114.32 114.32 0 00-23.948-13.939l-27.673 8.621a81.138 81.138 0 0116.178 10.218z"/>
    <path data-name="패스 22972" d="M45.374 90.929L1.31 97.102c2.129 6.918 6.705 13.73 13.517 20.01l41.51-12.772c-5.109-4.258-8.834-8.728-10.963-13.411z"/>
    <path data-name="패스 22973" d="M44.31 74.933H2.8A30.709 30.709 0 00.778 94.517l43.851-6.067a21.713 21.713 0 01-.319-13.517z"/>
    <path data-name="패스 22974" d="M53.783 60.106l-35.549-4.9C11.848 60.528 6.845 66.275 3.759 72.555h41.3a31.751 31.751 0 018.724-12.449z"/>
    <path data-name="패스 22975" d="M58.572 107.228l-41.616 12.985c7.663 6.6 17.775 12.559 30.015 17.775l32.995-19.26a91.354 91.354 0 01-21.394-11.5z"/>
  </g>
</svg>
