<svg xmlns="http://www.w3.org/2000/svg" xmlns:xlink="http://www.w3.org/1999/xlink" width="198.904" height="104.68">
  <defs/>
  <defs>
    <linearGradient id="a" x1=".719" y1="-.621" x2="-.244" y2="-.621" gradientUnits="objectBoundingBox">
      <stop offset="0" stop-color="#bcc5bb"/>
      <stop offset=".359" stop-color="#bac2b9"/>
      <stop offset=".51" stop-color="#b3bbb2"/>
      <stop offset=".623" stop-color="#a7afa6"/>
      <stop offset=".716" stop-color="#979d95"/>
      <stop offset=".797" stop-color="#81867f"/>
      <stop offset=".87" stop-color="#676a64"/>
      <stop offset=".935" stop-color="#484944"/>
      <stop offset=".995" stop-color="#252320"/>
      <stop offset="1" stop-color="#22201d"/>
    </linearGradient>
    <linearGradient id="b" x1="-.278" y1="-.261" x2=".722" y2="-.261" gradientUnits="objectBoundingBox">
      <stop offset="0" stop-color="#bcc5bb"/>
      <stop offset="1" stop-color="#22201d"/>
    </linearGradient>
    <linearGradient id="c" x1=".727" y1="-.719" x2="-.236" y2="-.719" xlink:href="#a"/>
    <linearGradient id="d" x1="-.268" y1="-.357" x2=".732" y2="-.357" xlink:href="#b"/>
    <linearGradient id="e" x1=".721" y1="-.629" x2="-.242" y2="-.629" xlink:href="#a"/>
    <linearGradient id="f" x1="-.275" y1="-.293" x2=".725" y2="-.293" xlink:href="#b"/>
    <linearGradient id="g" x1=".724" y1="-.446" x2="-.239" y2="-.446" xlink:href="#a"/>
    <linearGradient id="h" x1="-.272" y1="-.138" x2=".728" y2="-.138" xlink:href="#b"/>
  </defs>
  <path data-name="패스 571" d="M99.45 98.942v5.563L0 55.005v-5.7z" fill="#88b4d8"/>
  <path data-name="패스 572" d="M99.429 99.018L0 49.31 99.429 0l99.473 49.31z" fill="#b4d1ed"/>
  <path data-name="패스 573" d="M99.408 99.017l.042 5.663 99.453-49.784v-5.587z" fill="#6281a3"/>
  <g data-name="그룹 231" transform="translate(27.294 36.062)">
    <path data-name="패스 574" d="M288.944 632.555c.108 5.92-10.589 10.917-23.89 11.157s-24.173-4.362-24.281-10.282l-.038-2.18 48.175-.573z" transform="translate(-240.54 -619.653)" fill="url(#a)"/>
    <ellipse data-name="타원 20" cx="24.089" cy="10.723" rx="24.089" ry="10.723" transform="rotate(-1.041 48.158 .437)" fill="#dff2f7"/>
    <ellipse data-name="타원 21" cx="22.092" cy="9.342" rx="22.092" ry="9.342" transform="rotate(-1.041 102.49 -103.099)" fill="url(#b)"/>
    <path data-name="패스 575" d="M46.373 11.045c.024 1.269-2.168 3.5-3.973 4.729-3.753 2.546-10.594 4.215-17.958 4.35-7.963.144-14.452-1.4-18.159-3.578-1.69-.993-4.052-2.817-4.093-4.985-.067-3.76 9.757-7.594 21.955-7.814s22.166 3.788 22.228 7.298z" fill="#264d87"/>
    <g data-name="그룹 230">
      <path data-name="패스 576" d="M2.198 11.35l17.351.5s1.645 2.04 7.558.324l18.622.432a6.487 6.487 0 00.391-.647 2.34 2.34 0 00.245-.746.962.962 0 01.369-.65L3.47 9.29l-1.235.65s-.32.955-.037 1.41z" fill="#2c485d"/>
      <path data-name="패스 577" d="M47.58 8.653l-19.941-.508a9.4 9.4 0 00-3.863-.635 11 11 0 00-2.993.441l-17.667-.5L.848 9.894l19.089.578a9.28 9.28 0 003.906.655 10.883 10.883 0 003.009-.446l19.713.537z" fill="#dff2f7"/>
    </g>
  </g>
  <g data-name="그룹 233">
    <g data-name="그룹 232" transform="translate(75.619 13.907)">
      <path data-name="패스 578" d="M309.091 622.874c.1 5.517-10.6 10.186-23.9 10.428s-24.166-4.036-24.266-9.553l-.038-2.031 48.178-.595z" transform="translate(-260.702 -610.852)" fill="url(#c)"/>
      <ellipse data-name="타원 22" cx="24.089" cy="9.993" rx="24.089" ry="9.993" transform="translate(0 .875)" fill="#dff2f7"/>
      <ellipse data-name="타원 23" cx="22.092" cy="8.706" rx="22.092" ry="8.706" transform="translate(1.889 1.777)" fill="url(#d)"/>
      <path data-name="패스 579" d="M46.363 10.296c.022 1.182-2.172 3.268-3.978 4.412-3.757 2.379-10.6 3.94-17.965 4.074-7.963.146-14.449-1.283-18.154-3.309-1.688-.926-4.048-2.624-4.086-4.642-.062-3.5 9.764-7.088 21.964-7.311s22.157 3.505 22.219 6.776z" fill="#4673a5"/>
    </g>
    <path data-name="패스 580" d="M104.576 15.414l.326-.7-3.045.055-3.515 7.5s-2.7 1.077-1.7 4.431l-2.837 6.136 2.822-.189.777.026 2.089-4.815s3.673-2.026 2.345-4.947l2.53-5.39z" fill="#2c485d"/>
    <path data-name="패스 581" d="M104.903 14.719l-3.837.07-3.515 7.5s-2.7 1.077-1.7 4.431l-2.837 6.136 3.369.364 2.726-6.261s3.594-1.911 2.187-4.554z" fill="#dff2f7"/>
  </g>
  <g data-name="그룹 235">
    <g data-name="그룹 234" transform="translate(74.519 60.014)">
      <path data-name="패스 582" d="M310.809 642.593c.108 5.968-11.073 11.009-24.974 11.26s-25.257-4.378-25.365-10.347l-.041-2.194 50.343-.611z" transform="translate(-260.234 -629.594)" fill="url(#e)"/>
      <ellipse data-name="타원 24" cx="25.173" cy="10.806" rx="25.173" ry="10.806" transform="translate(0 .914)" fill="#dff2f7"/>
      <ellipse data-name="타원 25" cx="23.086" cy="9.414" rx="23.086" ry="9.414" transform="translate(1.975 1.891)" fill="url(#f)"/>
      <path data-name="패스 583" d="M48.453 11.136c.024 1.278-2.268 3.532-4.155 4.767-3.923 2.571-11.073 4.256-18.768 4.4-8.323.151-15.1-1.4-18.974-3.592-1.765-1-4.232-2.837-4.273-5.021-.069-3.786 10.2-7.659 22.948-7.889s23.157 3.794 23.222 7.335z" fill="#264d87"/>
    </g>
    <path data-name="패스 584" d="M102.643 69.467l3.758-8.167-4.084-.295-3.674 7.774c-1.487.293-2.556 1.115-2.539 2.062a1.727 1.727 0 00.918 1.365L93.1 80.523l4.34.266 3.719-8.083c1.324-.338 2.249-1.11 2.232-2a1.624 1.624 0 00-.748-1.239z" fill="#dff2f7"/>
  </g>
  <g data-name="그룹 238">
    <g data-name="그룹 237">
      <g data-name="그룹 236" transform="translate(122.946 35.389)">
        <path data-name="패스 585" d="M329.839 632.637c.115 6.256-10.8 11.524-24.377 11.771s-24.676-4.623-24.791-10.877l-.041-2.3 49.173-.576z" transform="translate(-280.424 -619.013)" fill="url(#g)"/>
        <ellipse data-name="타원 26" cx="24.588" cy="11.326" rx="24.588" ry="11.326" transform="rotate(-1.041 49.149 .446)" fill="#dff2f7"/>
        <ellipse data-name="타원 27" cx="22.55" cy="9.867" rx="22.55" ry="9.867" transform="rotate(-1.041 106.582 -105.263)" fill="url(#h)"/>
        <path data-name="패스 586" d="M47.158 11.668a3.759 3.759 0 01-.259 1 7.609 7.609 0 01-2.182 2.921 13.15 13.15 0 01-1.429 1.067c-.489.321-1.033.633-1.59.93a22.943 22.943 0 01-3.156 1.36 43.548 43.548 0 01-13.581 2.292c-8.129.149-14.752-1.482-18.538-3.789a14.408 14.408 0 01-2.261-1.652 7.175 7.175 0 01-1.595-2.108 4.852 4.852 0 01-.331-.926 2.682 2.682 0 01-.1-.583c-.072-3.969 10.061-8.014 22.513-8.239s22.442 4.02 22.509 7.727z" fill="#264d87"/>
      </g>
    </g>
    <path data-name="패스 587" d="M151.932 46.027a9.409 9.409 0 00-3.7-.583 11.272 11.272 0 00-2.626.34l-20.214-.729-.316 1.621s-.017.156-.019.439c0 .185.029.477.029.477l19.509.715a7.1 7.1 0 003.232.583 24.126 24.126 0 003.829-.547l17.521.966a5.547 5.547 0 00.669-1.257 3.53 3.53 0 00.252-1.355z" fill="#2c485d"/>
    <path data-name="패스 588" d="M151.919 45.114a9.4 9.4 0 00-3.7-.583 11.278 11.278 0 00-2.628.34l-20.214-.729-.667 2.525 19.869.727a7.1 7.1 0 003.232.583 24.135 24.135 0 003.829-.547l18.648.909 1.36-2.525z" fill="#dff2f7"/>
  </g>
</svg>
