<svg xmlns="http://www.w3.org/2000/svg" xmlns:xlink="http://www.w3.org/1999/xlink" width="55" height="54" viewBox="0 0 55 54">
  <defs>
    <clipPath id="clip-path">
      <rect id="사각형_45" data-name="사각형 45" width="55" height="54" transform="translate(-1097 2257)" fill="none"/>
    </clipPath>
    <radialGradient id="radial-gradient" cx="0.5" cy="0.5" r="0.5" gradientUnits="objectBoundingBox">
      <stop offset="0" stop-color="#fff"/>
      <stop offset="1" stop-color="#27e1ff"/>
    </radialGradient>
  </defs>
  <g id="마스크_그룹_6" data-name="마스크 그룹 6" transform="translate(1097 -2257)" clip-path="url(#clip-path)">
    <g id="tools" transform="translate(-1090.059 2263.259)">
      <path id="패스_15" data-name="패스 15" d="M137.623,150.342a.5.5,0,0,0,.5-.5,8.977,8.977,0,0,1,1.809-5.438,9.1,9.1,0,0,1,4.593-3.217.5.5,0,0,0-.293-.964,10.116,10.116,0,0,0-5.105,3.576,9.976,9.976,0,0,0-2.011,6.043A.5.5,0,0,0,137.623,150.342Z" transform="translate(-126.491 -129.323)" fill="url(#radial-gradient)"/>
      <path id="패스_16" data-name="패스 16" d="M240.5,136.325l.048,0c.288-.027.581-.041.871-.041a.5.5,0,1,0,0-1.008c-.322,0-.647.015-.966.046a.5.5,0,0,0,.047,1.006Z" transform="translate(-220.73 -124.814)" fill="url(#radial-gradient)"/>
      <path id="패스_17" data-name="패스 17" d="M50.03,21.6A6.6,6.6,0,0,0,51.1,14.442a.5.5,0,0,0-.813-.143l-3.468,3.47L44.664,15.61l3.472-3.474a.5.5,0,0,0-.142-.812,6.523,6.523,0,0,0-9.159,4.727,9.264,9.264,0,0,1-.246,1.023,16.158,16.158,0,0,0-2.714-1.016L35.168,12a.5.5,0,0,0-.5-.417H27.847a.5.5,0,0,0-.5.417L26.64,16.06A15.722,15.722,0,0,0,23.73,17.22l-3.447-2.46a.5.5,0,0,0-.649.053l-4.825,4.811a.5.5,0,0,0-.055.648l2.438,3.437a15.806,15.806,0,0,0-1.272,2.906l-4.228.709a.5.5,0,0,0-.42.5v6.82a.5.5,0,0,0,.42.5l4.228.712a16,16,0,0,0,1.219,2.87A7.848,7.848,0,0,1,16,39a6.457,6.457,0,0,0-5.371,5.467,6.523,6.523,0,0,0,.538,3.7.5.5,0,0,0,.813.144l3.338-3.339,2.157,2.158-3.342,3.343a.5.5,0,0,0,.142.812,6.539,6.539,0,0,0,7.391-1.273,6.459,6.459,0,0,0,1.785-3.439,9.54,9.54,0,0,1,.316-1.254,15.82,15.82,0,0,0,2.867,1.253l.714,4.231a.5.5,0,0,0,.5.42h6.824a.5.5,0,0,0,.5-.42l.712-4.23a16.073,16.073,0,0,0,2.912-1.242l3.446,2.421a.5.5,0,0,0,.646-.056l4.826-4.831a.5.5,0,0,0,.055-.647l-2.441-3.45a15.515,15.515,0,0,0,1.11-2.912l4.058-.712a.5.5,0,0,0,.417-.5v-6.82a.5.5,0,0,0-.417-.5l-4.059-.71a15.919,15.919,0,0,0-1.081-2.758,8.143,8.143,0,0,1,.95-.216A6.427,6.427,0,0,0,50.03,21.6ZM16.8,35.269a.5.5,0,0,0-.4-.361l-4.118-.693V28.247l4.118-.691a.5.5,0,0,0,.4-.361,14.793,14.793,0,0,1,1.426-3.272.5.5,0,0,0-.028-.539l-2.375-3.348,4.222-4.209,3.357,2.4a.5.5,0,0,0,.54.029,14.713,14.713,0,0,1,3.278-1.311.5.5,0,0,0,.361-.4l.692-3.956h5.977l.69,3.955a.5.5,0,0,0,.361.4,15.808,15.808,0,0,1,2.945,1.087A8.682,8.682,0,0,1,36.7,20.444a12.08,12.08,0,0,0-16.32,5.527.5.5,0,1,0,.9.445,11.07,11.07,0,0,1,14.676-5.21l-3.4,3.4a6.751,6.751,0,0,0-7.923,7.927l-3.4,3.4a11.12,11.12,0,0,1-.955-6.152.5.5,0,0,0-.5-.563h0a.5.5,0,0,0-.5.436,12.109,12.109,0,0,0,1.2,7.03,8.868,8.868,0,0,1-2.394,1.666A14.789,14.789,0,0,1,16.8,35.269Zm8.724-3.631c-.009-.135-.015-.271-.015-.407a5.749,5.749,0,0,1,5.745-5.741c.134,0,.268.005.4.014Zm20.029-4.445a.5.5,0,0,0,.4.36l3.952.691v5.973l-3.952.693a.5.5,0,0,0-.4.36,14.675,14.675,0,0,1-1.257,3.278.5.5,0,0,0,.028.538L46.7,42.447l-4.226,4.231L39.115,44.32a.5.5,0,0,0-.537-.027A15.007,15.007,0,0,1,35.3,45.688a.5.5,0,0,0-.361.4l-.694,4.121H28.273l-.7-4.121a.5.5,0,0,0-.361-.4,14.47,14.47,0,0,1-3.08-1.321,8.534,8.534,0,0,1,1.612-2.39A12.076,12.076,0,0,0,42,25.728,8.688,8.688,0,0,1,44.4,24.2,15.16,15.16,0,0,1,45.552,27.193ZM36.977,30.74c.014.163.021.327.021.491a5.749,5.749,0,0,1-5.745,5.741c-.162,0-.324-.007-.485-.021Zm-7.1,7.1a6.751,6.751,0,0,0,7.983-7.986l3.383-3.384A11.071,11.071,0,0,1,26.5,41.223ZM40.963,25.326,25.153,41.143a9.835,9.835,0,0,0-2.691,5.246,5.456,5.456,0,0,1-1.506,2.906,5.52,5.52,0,0,1-5.564,1.342l3.154-3.156a.5.5,0,0,0,0-.712L15.677,43.9a.5.5,0,0,0-.713,0l-3.146,3.148A5.572,5.572,0,0,1,13,41.7a5.439,5.439,0,0,1,3.164-1.7,9.458,9.458,0,0,0,5.142-2.713L37.12,21.462a9.818,9.818,0,0,0,2.708-5.23,5.443,5.443,0,0,1,1.522-2.889,5.515,5.515,0,0,1,5.53-1.374L43.6,15.254a.5.5,0,0,0,0,.712l2.87,2.871a.5.5,0,0,0,.713,0l3.277-3.279a5.575,5.575,0,0,1-1.169,5.366,5.429,5.429,0,0,1-3.148,1.721A9.6,9.6,0,0,0,40.963,25.326Z" transform="translate(-10.563 -10.717)" fill="url(#radial-gradient)"/>
      <path id="패스_18" data-name="패스 18" d="M172.489,156.6a1.52,1.52,0,0,0-1.082.448l-13.661,13.667a1.53,1.53,0,1,0,2.164,2.163l13.661-13.667h0a1.53,1.53,0,0,0-1.082-2.612Zm.369,1.9L159.2,172.166a.522.522,0,1,1-.739-.738l13.661-13.667a.522.522,0,0,1,.739.738Z" transform="translate(-144.975 -144.349)" fill="url(#radial-gradient)"/>
    </g>
  </g>
</svg>
