<svg xmlns="http://www.w3.org/2000/svg" xmlns:xlink="http://www.w3.org/1999/xlink" width="55" height="54" viewBox="0 0 55 54">
  <defs>
    <clipPath id="clip-path">
      <rect id="사각형_50" data-name="사각형 50" width="55" height="54" transform="translate(-1097 2257)" fill="none"/>
    </clipPath>
    <radialGradient id="radial-gradient" cx="0.5" cy="0.5" r="0.5" gradientUnits="objectBoundingBox">
      <stop offset="0" stop-color="#fff"/>
      <stop offset="1" stop-color="#27e1ff"/>
    </radialGradient>
  </defs>
  <g id="마스크_그룹_11" data-name="마스크 그룹 11" transform="translate(1097 -2257)" clip-path="url(#clip-path)">
    <g id="icon4" transform="translate(-1089.964 2263.536)">
      <path id="패스_47" data-name="패스 47" d="M339.113,166.415a20.464,20.464,0,1,0-20.464-20.464A20.464,20.464,0,0,0,339.113,166.415Zm0-39.548a19.081,19.081,0,1,1-19.081,19.081,19.081,19.081,0,0,1,19.081-19.081Z" transform="translate(-318.649 -125.486)" fill="url(#radial-gradient)"/>
      <path id="패스_48" data-name="패스 48" d="M341.614,164.009a14.668,14.668,0,0,0,7.677-27.165.69.69,0,0,0-.724,1.176,13.292,13.292,0,1,1-15.512,1.167v2.38a.69.69,0,1,0,1.38,0V138.01a.684.684,0,0,0-.637-.947h-.023c-.01,0-.02-.006-.031-.006s-.019.005-.031.006h-4.248a.69.69,0,0,0,0,1.38H331.8a14.667,14.667,0,0,0,9.815,25.565Z" transform="translate(-321.149 -128.878)" fill="url(#radial-gradient)"/>
      <path id="패스_49" data-name="패스 49" d="M344.027,157.493c6.232,0,9.071-4.963,9.071-9.575,0-6.724-8.207-16.029-8.556-16.421a.689.689,0,0,0-1.026-.01c-.349.38-8.563,9.365-8.563,16.431C334.957,152.53,337.8,157.493,344.027,157.493Zm-.008-24.484c1.79,2.145,7.7,9.622,7.7,14.909,0,3.947-2.406,8.194-7.69,8.194s-7.69-4.248-7.69-8.194c0-5.557,5.882-12.819,7.682-14.91Z" transform="translate(-323.563 -127.227)" fill="url(#radial-gradient)"/>
      <path id="패스_50" data-name="패스 50" d="M349.346,142.054a.69.69,0,1,0,1.173-.727c-.19-.3-.371-.591-.543-.853a.69.69,0,1,0-1.156.752C348.987,141.482,349.163,141.759,349.346,142.054Z" transform="translate(-327.704 -129.904)" fill="url(#radial-gradient)"/>
      <path id="패스_51" data-name="패스 51" d="M351.215,145.254a14.962,14.962,0,0,1,2.111,6.464.69.69,0,0,0,1.38,0,15.994,15.994,0,0,0-2.273-7.113.69.69,0,0,0-1.217.65Z" transform="translate(-328.439 -131.138)" fill="url(#radial-gradient)"/>
      <path id="패스_52" data-name="패스 52" d="M345.659,162.137a.69.69,0,0,0,0-1.38,3.967,3.967,0,0,1-3.958-2.394.69.69,0,0,0-1.268.547A5.327,5.327,0,0,0,345.659,162.137Z" transform="translate(-325.197 -135.269)" fill="url(#radial-gradient)"/>
    </g>
  </g>
</svg>
