<svg xmlns="http://www.w3.org/2000/svg" xmlns:xlink="http://www.w3.org/1999/xlink" width="55" height="54" viewBox="0 0 55 54">
  <defs>
    <clipPath id="clip-path">
      <rect id="사각형_48" data-name="사각형 48" width="55" height="54" transform="translate(-1097 2257)" fill="none"/>
    </clipPath>
    <radialGradient id="radial-gradient" cx="0.5" cy="0.5" r="0.5" gradientUnits="objectBoundingBox">
      <stop offset="0" stop-color="#fff"/>
      <stop offset="1" stop-color="#27e1ff"/>
    </radialGradient>
  </defs>
  <g id="마스크_그룹_9" data-name="마스크 그룹 9" transform="translate(1097 -2257)" clip-path="url(#clip-path)">
    <g id="icon8" transform="translate(-1089.837 2263.677)">
      <g id="그룹_31" data-name="그룹 31" transform="translate(-0.003 -0.001)">
        <path id="패스_75" data-name="패스 75" d="M439.466,405.043a5.88,5.88,0,0,0-5.872,5.872v.691h-3.454v-.691a5.872,5.872,0,0,0-11.744,0v.685h-3.655a1.124,1.124,0,0,1-1.123-1.123V408.03a.576.576,0,0,0-.576-.576H410.28a.575.575,0,0,0-.576.576v2.447a5,5,0,0,0,.869,2.824,5.09,5.09,0,0,0,1.757,1.6,5.01,5.01,0,0,0,2.413.616H418.4v14.052h-3.943a5.08,5.08,0,0,0-1.029.115l-.879-1.5a3.962,3.962,0,0,0,.307-.47,1.929,1.929,0,0,0,.1-2.023c-.676-1.048-2.476-1-4.186.1s-2.488,2.726-1.811,3.774a1.845,1.845,0,0,0,1.632.759,3.526,3.526,0,0,0,.639-.062l.972,1.656a5.005,5.005,0,0,0-.782,2.687v2.447a.575.575,0,0,0,.576.576h.564c-.77.971-2.157,2.941-2.157,4.55a3.068,3.068,0,1,0,6.129,0c0-1.656-1.381-3.6-2.146-4.55h.374a.575.575,0,0,0,.576-.576V434.6a1.125,1.125,0,0,1,1.123-1.123H418.4v3.567a5.872,5.872,0,0,0,11.744,0V433.48h3.453v3.569a5.872,5.872,0,0,0,11.743,0V410.914A5.88,5.88,0,0,0,439.466,405.043Zm-31.546,23.9c-.229-.355.23-1.381,1.469-2.183a3.761,3.761,0,0,1,1.934-.67.777.777,0,0,1,.659.229c.109.17.058.485-.139.843a4.036,4.036,0,0,1-1.33,1.339C409.275,429.3,408.152,429.295,407.92,428.939Zm2.426.957a6.086,6.086,0,0,0,.792-.432,6.02,6.02,0,0,0,.574-.424l.941,1.6a2.251,2.251,0,0,1-1.383.828Zm3.028,12.277a1.919,1.919,0,1,1-3.827,0c0-1.163,1.149-2.873,1.92-3.849.769.951,1.909,2.625,1.909,3.851Zm5.021-9.844h-3.943a2.277,2.277,0,0,0-2.274,2.274v1.871h-1.612V434.6a3.852,3.852,0,0,1,.531-1.938,3.437,3.437,0,0,0,2.734-1.717.573.573,0,0,0,.063-.188,3.858,3.858,0,0,1,.556-.044H418.4Zm0-17.967h-3.655a3.86,3.86,0,0,1-1.861-.474,3.924,3.924,0,0,1-1.356-1.233,3.862,3.862,0,0,1-.67-2.178v-1.871h1.612v1.871a2.277,2.277,0,0,0,2.274,2.274H418.4Zm10.594,22.686a4.721,4.721,0,1,1-9.441,0V410.914a4.721,4.721,0,1,1,9.441,0Zm4.605-4.721h-3.453v-1.612h3.453Zm0-2.763h-3.453V415.52h3.453Zm0-15.2h-3.453v-1.612h3.453Zm10.592,22.681a4.721,4.721,0,1,1-9.441,0V410.913a4.721,4.721,0,1,1,9.441,0Z" transform="translate(-406.71 -405.043)" fill="url(#radial-gradient)"/>
        <path id="패스_76" data-name="패스 76" d="M457.637,436.327a.575.575,0,0,0-.576.576v11.13a.576.576,0,0,0,1.149,0V436.9A.575.575,0,0,0,457.637,436.327Z" transform="translate(-427.721 -418.097)" fill="url(#radial-gradient)"/>
        <path id="패스_77" data-name="패스 77" d="M460.86,409.292a3.92,3.92,0,0,0-3.8,4.019v3.944a.576.576,0,0,0,1.149,0v-3.944a2.771,2.771,0,0,1,2.651-2.865.576.576,0,1,0,0-1.149Z" transform="translate(-427.72 -406.815)" fill="url(#radial-gradient)"/>
        <path id="패스_78" data-name="패스 78" d="M431.556,436.327a.575.575,0,0,0-.576.576v11.13a.576.576,0,0,0,1.149,0V436.9a.576.576,0,0,0-.573-.576Z" transform="translate(-416.838 -418.097)" fill="url(#radial-gradient)"/>
        <path id="패스_79" data-name="패스 79" d="M434.777,409.292a3.92,3.92,0,0,0-3.8,4.019v3.944a.576.576,0,0,0,1.149,0v-3.944a2.771,2.771,0,0,1,2.651-2.865.576.576,0,1,0,0-1.149Z" transform="translate(-416.836 -406.815)" fill="url(#radial-gradient)"/>
      </g>
      <path id="패스_80" data-name="패스 80" d="M413.305,465.784a4.145,4.145,0,0,0-.369,1.554.576.576,0,1,0,1.149,0,3.086,3.086,0,0,1,.28-1.113.576.576,0,1,0-1.063-.444Z" transform="translate(-409.311 -430.242)" fill="url(#radial-gradient)"/>
    </g>
  </g>
</svg>
