<svg xmlns="http://www.w3.org/2000/svg" xmlns:xlink="http://www.w3.org/1999/xlink" width="55" height="54" viewBox="0 0 55 54">
  <defs>
    <clipPath id="clip-path">
      <rect id="사각형_51" data-name="사각형 51" width="55" height="54" transform="translate(-1097 2257)" fill="none"/>
    </clipPath>
    <radialGradient id="radial-gradient" cx="0.5" cy="0.5" r="0.5" gradientUnits="objectBoundingBox">
      <stop offset="0" stop-color="#fff"/>
      <stop offset="1" stop-color="#27e1ff"/>
    </radialGradient>
  </defs>
  <g id="마스크_그룹_12" data-name="마스크 그룹 12" transform="translate(1097 -2257)" clip-path="url(#clip-path)">
    <g id="icon2" transform="translate(-1091.878 2264.746)">
      <path id="패스_58" data-name="패스 58" d="M158.1,131.71a.662.662,0,1,0,1.125-.7c-.181-.293-.356-.566-.52-.819a.662.662,0,1,0-1.109.723C157.761,131.161,157.931,131.426,158.1,131.71Z" transform="translate(-135.132 -123.928)" fill="url(#radial-gradient)"/>
      <path id="패스_59" data-name="패스 59" d="M160,134.943a17.454,17.454,0,0,1,1.912,5.008.662.662,0,0,0,.651.548.681.681,0,0,0,.115-.009.662.662,0,0,0,.538-.766,18.731,18.731,0,0,0-2.047-5.406.663.663,0,0,0-1.168.625Z" transform="translate(-135.935 -125.276)" fill="url(#radial-gradient)"/>
      <path id="패스_60" data-name="패스 60" d="M160.765,133.133a.662.662,0,0,0-.5-.227H153.85c-2.019-5.606-7.12-11.391-7.388-11.694a.663.663,0,0,0-.983-.008c-.271.293-5.452,5.963-7.442,11.7h-6.368a.659.659,0,0,0-.529.262l-6.883,9.091a.662.662,0,0,0,.529,1.059H130.9l-5.93,7.3a.662.662,0,0,0,.514,1.079h6.644l-5.2,6.735a.663.663,0,0,0,.524,1.066h37.035a.663.663,0,0,0,.525-1.066l-5.2-6.735h6.645a.663.663,0,0,0,.514-1.079l-5.93-7.3h7.168a.662.662,0,0,0,.5-1.1Zm-14.805-10.471c1.687,2.019,7.185,8.971,7.378,14.027-1.405,1.247-5,2-8.745,1.8-2.855-.151-5.114-.82-6-1.762C138.756,131.43,144.259,124.638,145.959,122.661Zm17.181,35.513H128.8l5-6.478h24.354Zm1.926-7.8h-38.2l5.731-7.054h4.71a8.995,8.995,0,0,0,17.314,0h4.71Zm-19.1-5.232a4.073,4.073,0,0,1-3.68-1.82h10.959a7.682,7.682,0,0,1-14.559,0h2.1a5.31,5.31,0,0,0,5.174,3.144.662.662,0,0,0,0-1.324ZM126.113,142,132,134.229h5.641a11.179,11.179,0,0,0-.373,2.733.665.665,0,0,0,.132.4c1.459,1.952,5.468,2.366,7.124,2.454.4.02.817.032,1.236.032,3.4,0,7.144-.716,8.732-2.432a.659.659,0,0,0,.177-.449,10.692,10.692,0,0,0-.4-2.733h5.7L166.749,142Z" transform="translate(-124.122 -120.99)" fill="url(#radial-gradient)"/>
    </g>
  </g>
</svg>
