<svg xmlns="http://www.w3.org/2000/svg" xmlns:xlink="http://www.w3.org/1999/xlink" width="55" height="54" viewBox="0 0 55 54">
  <defs>
    <clipPath id="clip-path">
      <rect id="사각형_49" data-name="사각형 49" width="55" height="54" transform="translate(-1097 2257)" fill="none"/>
    </clipPath>
    <radialGradient id="radial-gradient" cx="0.5" cy="0.5" r="0.5" gradientUnits="objectBoundingBox">
      <stop offset="0" stop-color="#fff"/>
      <stop offset="1" stop-color="#27e1ff"/>
    </radialGradient>
  </defs>
  <g id="마스크_그룹_10" data-name="마스크 그룹 10" transform="translate(1097 -2257)" clip-path="url(#clip-path)">
    <g id="flask" transform="translate(-1085.093 2266.466)">
      <g id="그룹_12" data-name="그룹 12" transform="translate(-1.725 -1.834)">
        <g id="그룹_11" data-name="그룹 11" transform="translate(0)">
          <path id="패스_40" data-name="패스 40" d="M75.873,36.342l-4.692-8.832a.617.617,0,0,0-1.09.579l4.69,8.831A2.7,2.7,0,0,1,72.4,40.889H44.892a2.7,2.7,0,0,1-2.386-3.968L52.849,17.451a6.153,6.153,0,0,0,.716-2.872V4.531h10.16V14.579a6.152,6.152,0,0,0,.716,2.872l3.853,7.257a.617.617,0,0,0,1.09-.579L65.53,16.873a4.913,4.913,0,0,1-.572-2.294V4.531h.509a1.077,1.077,0,0,0,1.076-1.077V1.076A1.077,1.077,0,0,0,65.467,0H51.821a1.077,1.077,0,0,0-1.076,1.076V3.454A1.077,1.077,0,0,0,51.821,4.53h.509V14.577a4.912,4.912,0,0,1-.572,2.294L41.415,36.341a3.936,3.936,0,0,0,3.476,5.78H72.4a3.936,3.936,0,0,0,3.476-5.78ZM51.98,3.3V1.234H65.309V3.3Z" transform="translate(-40.957)" fill="url(#radial-gradient)"/>
        </g>
      </g>
      <g id="그룹_14" data-name="그룹 14" transform="translate(1.783 22.057)">
        <g id="그룹_13" data-name="그룹 13" transform="translate(0 0)">
          <path id="패스_41" data-name="패스 41" d="M111.8,303.454l-5.429-10.375a1.642,1.642,0,0,0-1.972-.8,2.974,2.974,0,0,0-.5.228,3,3,0,0,0-5.6-.367,3.654,3.654,0,0,0-.478-.031,3.351,3.351,0,0,0-2.3.9,2.185,2.185,0,0,1-3.069,0,3.943,3.943,0,0,0-1.21-.727,1.643,1.643,0,0,0-1.972.8l-5.429,10.375a1.72,1.72,0,0,0,1.521,2.517h4.563a.617.617,0,1,0,0-1.234H85.35a.485.485,0,0,1-.43-.71l5.429-10.375a.4.4,0,0,1,.478-.2,2.82,2.82,0,0,1,.843.526,3.4,3.4,0,0,0,4.606,0,2.158,2.158,0,0,1,1.534-.63,1.5,1.5,0,0,1,.207.009v.033a3,3,0,0,0,5.951.575,2.765,2.765,0,0,1,.827-.513.4.4,0,0,1,.478.2l5.429,10.375a.485.485,0,0,1-.43.71H93.822a.617.617,0,1,0,0,1.234h16.45a1.719,1.719,0,0,0,1.521-2.516Zm-10.773-8.3a1.769,1.769,0,1,1,1.769-1.769A1.769,1.769,0,0,1,101.024,295.158Z" transform="translate(-83.633 -290.387)" fill="url(#radial-gradient)"/>
        </g>
      </g>
      <g id="그룹_16" data-name="그룹 16" transform="translate(8.393 29.073)">
        <g id="그룹_15" data-name="그룹 15" transform="translate(0 0)">
          <path id="패스_42" data-name="패스 42" d="M166.991,375.676a3,3,0,1,0,3,3,3,3,0,0,0-3-3Zm0,4.772a1.769,1.769,0,1,1,1.769-1.769A1.769,1.769,0,0,1,166.991,380.448Z" transform="translate(-163.988 -375.676)" fill="url(#radial-gradient)"/>
        </g>
      </g>
      <g id="그룹_18" data-name="그룹 18" transform="translate(12.466 12.515)">
        <g id="그룹_17" data-name="그룹 17" transform="translate(0)">
          <path id="패스_43" data-name="패스 43" d="M216.141,174.412a2.646,2.646,0,1,0,2.646,2.646A2.646,2.646,0,0,0,216.141,174.412Zm0,4.058a1.411,1.411,0,1,1,1.412-1.411,1.411,1.411,0,0,1-1.412,1.411Z" transform="translate(-213.495 -174.412)" fill="url(#radial-gradient)"/>
        </g>
      </g>
      <g id="그룹_297" data-name="그룹 297" transform="translate(-7.222 -7.659)">
        <rect id="사각형_44" data-name="사각형 44" width="45.63" height="50.193" transform="translate(0 0)" fill="none"/>
      </g>
    </g>
  </g>
</svg>
