<svg xmlns="http://www.w3.org/2000/svg" xmlns:xlink="http://www.w3.org/1999/xlink" width="55" height="54" viewBox="0 0 55 54">
  <defs>
    <clipPath id="clip-path">
      <rect id="사각형_52" data-name="사각형 52" width="55" height="54" transform="translate(-1097 2257)" fill="none"/>
    </clipPath>
    <radialGradient id="radial-gradient" cx="0.5" cy="0.5" r="0.5" gradientUnits="objectBoundingBox">
      <stop offset="0" stop-color="#fff"/>
      <stop offset="1" stop-color="#27e1ff"/>
    </radialGradient>
  </defs>
  <g id="마스크_그룹_13" data-name="마스크 그룹 13" transform="translate(1097 -2257)" clip-path="url(#clip-path)">
    <g id="그룹_295" data-name="그룹 295" transform="translate(-1110.458 2243.482)">
      <g id="rainfall" transform="translate(22.154 18.438)">
        <path id="패스_44" data-name="패스 44" d="M66.468,4.131h-.119A5.806,5.806,0,0,0,56.2,2.256,10.65,10.65,0,0,0,49.7,0h-.081a10.792,10.792,0,0,0-7.91,3.461.638.638,0,1,0,.938.866,9.512,9.512,0,0,1,6.972-3.05h.071a9.237,9.237,0,0,1,6.678,2.841,9.452,9.452,0,0,1,1.106,11.96.638.638,0,1,0,1.056.713,10.766,10.766,0,0,0,.872-1.551h3.577a2.176,2.176,0,0,1,2.175,2.239,2.211,2.211,0,0,1-2.221,2.113H53.882a4.383,4.383,0,0,0,.691-2.364,8.531,8.531,0,0,0-1.813-4.441,12.953,12.953,0,0,0-1.342-1.579c-.693-.681-1.012-.774-1.255-.774s-.6.091-1.305.77a11.835,11.835,0,0,0-1.343,1.587,8.544,8.544,0,0,0-1.763,4.437,4.382,4.382,0,0,0,.691,2.364H36.421a4.133,4.133,0,1,1,0-8.266h2.733a.987.987,0,0,0,.988-.949,9.379,9.379,0,0,1,.934-3.742.638.638,0,1,0-1.149-.556A10.64,10.64,0,0,0,38.88,10.05H36.421a5.41,5.41,0,1,0,0,10.82H47.678a4.4,4.4,0,0,0,4.97,0H62.938a3.5,3.5,0,0,0,3.5-3.353,3.453,3.453,0,0,0-3.451-3.552H59.894l.011-.036a10.82,10.82,0,0,0,.434-4.108h6.126a2.846,2.846,0,1,0,0-5.691ZM47.029,17.23c0-2.069,2.32-4.9,3.11-5.453a10.024,10.024,0,0,1,1.731,1.964A6.728,6.728,0,0,1,53.3,17.23a3.133,3.133,0,1,1-6.267,0ZM67.574,8.085a1.559,1.559,0,0,1-1.109.46H60.152a10.718,10.718,0,0,0-2.87-5.323c-.041-.041-.083-.082-.124-.123a4.529,4.529,0,0,1,8.067,1.8.642.642,0,0,0,.626.511h.616a1.569,1.569,0,0,1,1.109,2.678Z" transform="translate(-31.012 0)" fill="url(#radial-gradient)"/>
        <path id="패스_45" data-name="패스 45" d="M182.965,270.373H169.982a.907.907,0,0,0-.906.906v1.58a1.744,1.744,0,0,0,.58,1.3l2,1.788a.257.257,0,0,1,.086.191V289.3a1.649,1.649,0,0,0,1.646,1.646h6.181a1.649,1.649,0,0,0,1.646-1.646v-6.608a.638.638,0,0,0-1.277,0v3.621h-6.92v-1.825h1.441a.638.638,0,1,0,0-1.277h-1.441v-1.83h1.441a.638.638,0,1,0,0-1.277h-1.441v-1.825h1.441a.638.638,0,1,0,0-1.277h-1.441v-.867a1.535,1.535,0,0,0-.511-1.141l-2-1.788a.466.466,0,0,1-.155-.347v-1.213H182.6v1.213a.466.466,0,0,1-.155.347l-2,1.788a1.535,1.535,0,0,0-.511,1.141V279.7a.638.638,0,0,0,1.277,0v-3.567a.258.258,0,0,1,.086-.191l2-1.788a1.744,1.744,0,0,0,.58-1.3v-1.58A.907.907,0,0,0,182.965,270.373Zm-3.033,17.211V289.3a.37.37,0,0,1-.37.37h-6.181a.37.37,0,0,1-.37-.37v-1.712h6.92Z" transform="translate(-157.321 -247.359)" fill="url(#radial-gradient)"/>
      </g>
      <rect id="사각형_43" data-name="사각형 43" width="44.228" height="46.368" transform="translate(18.844 17.15)" fill="none"/>
    </g>
  </g>
</svg>
