<svg xmlns="http://www.w3.org/2000/svg" xmlns:xlink="http://www.w3.org/1999/xlink" width="55" height="54" viewBox="0 0 55 54">
  <defs>
    <clipPath id="clip-path">
      <rect id="사각형_47" data-name="사각형 47" width="55" height="54" transform="translate(-1097 2257)" fill="none"/>
    </clipPath>
    <radialGradient id="radial-gradient" cx="0.5" cy="0.5" r="0.5" gradientUnits="objectBoundingBox">
      <stop offset="0" stop-color="#fff"/>
      <stop offset="1" stop-color="#27e1ff"/>
    </radialGradient>
  </defs>
  <g id="마스크_그룹_8" data-name="마스크 그룹 8" transform="translate(1097 -2257)" clip-path="url(#clip-path)">
    <g id="flask" transform="translate(-1087.778 2262.525)">
      <g id="그룹_297" data-name="그룹 297" transform="translate(-7.222 -3.659)">
        <rect id="사각형_44" data-name="사각형 44" width="52" height="50" transform="translate(0 0.133)" fill="none"/>
      </g>
      <path id="패스_139" data-name="패스 139" d="M164.957,145.072a5.2,5.2,0,1,1-4.184,8.27l-4.555,2.635a8.212,8.212,0,1,1-14.345-.575l-4.247-2.446-4.247,2.446a8.09,8.09,0,0,1,1.205,4.254,8.233,8.233,0,1,1-2.032-5.4l4.373-2.516v-3.995a8.208,8.208,0,0,1-2.845-.764,8.643,8.643,0,0,1-1.619-1.023l.883-1.093a6.822,6.822,0,0,0,4.282,1.514,6.808,6.808,0,1,0-2.376-13.2v.007a6.524,6.524,0,0,0-1.409.722l-.778-1.17a8.477,8.477,0,0,1,1.7-.869,8.093,8.093,0,0,1,2.859-.512,8.22,8.22,0,0,1,8.171,7.387l6.518-1.121a5.2,5.2,0,1,1,8.711,4.387l1.78,3.525A5.248,5.248,0,0,1,164.957,145.072Zm3.8,5.2a3.8,3.8,0,1,0-3.8,3.791A3.8,3.8,0,0,0,168.756,150.272Zm-7.141-3.974-1.745-3.462a5.1,5.1,0,0,1-2.4.589,5.194,5.194,0,0,1-5.123-4.38l-6.539,1.128a8.205,8.205,0,0,1-7.485,7.576v3.995l4.38,2.516a8.183,8.183,0,0,1,12.776.526l4.618-2.67a5.162,5.162,0,0,1,1.514-5.817Zm-.343-8.066a3.795,3.795,0,1,0-3.8,3.791A3.8,3.8,0,0,0,161.271,138.232Zm-5.579,21.424a6.808,6.808,0,1,0-6.812,6.812A6.819,6.819,0,0,0,155.692,159.656Zm-22.51,0a6.812,6.812,0,1,0-6.812,6.812A6.819,6.819,0,0,0,133.182,159.656Z" transform="translate(-125.379 -128.142)" fill="url(#radial-gradient)"/>
    </g>
  </g>
</svg>
