<svg xmlns="http://www.w3.org/2000/svg" xmlns:xlink="http://www.w3.org/1999/xlink" width="269.53" height="229.479" viewBox="0 0 269.53 229.479">
    <defs>
        <filter id="패스_19931" width="151.5" height="129.469" x="59.267" y="97.263" filterUnits="userSpaceOnUse">
            <feOffset/>
            <feGaussianBlur result="blur" stdDeviation="10"/>
            <feFlood flood-color="#0062ff"/>
            <feComposite in2="blur" operator="in"/>
            <feComposite in="SourceGraphic"/>
        </filter>
        <filter id="패스_19924" width="115.5" height="61.687" x="77.267" y="145.046" filterUnits="userSpaceOnUse">
            <feOffset/>
            <feGaussianBlur result="blur-2" stdDeviation="5"/>
            <feFlood flood-color="#b2cdff"/>
            <feComposite in2="blur-2" operator="in"/>
            <feComposite in="SourceGraphic"/>
        </filter>
        <filter id="패스_19925" width="115.5" height="85.793" x="77.267" y="105.472" filterUnits="userSpaceOnUse">
            <feOffset/>
            <feGaussianBlur result="blur-3" stdDeviation="5"/>
            <feFlood flood-color="#b2cdff"/>
            <feComposite in2="blur-3" operator="in"/>
            <feComposite in="SourceGraphic"/>
        </filter>
        <filter id="패스_19927" width="39.06" height="41.196" x="122.449" y="162.62" filterUnits="userSpaceOnUse">
            <feOffset/>
            <feGaussianBlur result="blur-4" stdDeviation="5"/>
            <feFlood flood-color="#0076ff"/>
            <feComposite in2="blur-4" operator="in"/>
            <feComposite in="SourceGraphic"/>
        </filter>
        <filter id="사각형_3439" width="39.06" height="40.973" x="115.442" y="163.177" filterUnits="userSpaceOnUse">
            <feOffset/>
            <feGaussianBlur result="blur-5" stdDeviation="5"/>
            <feFlood flood-color="#0076ff"/>
            <feComposite in2="blur-5" operator="in"/>
            <feComposite in="SourceGraphic"/>
        </filter>
        <filter id="패스_19928" width="39.06" height="41.196" x="108.179" y="162.62" filterUnits="userSpaceOnUse">
            <feOffset/>
            <feGaussianBlur result="blur-6" stdDeviation="5"/>
            <feFlood flood-color="#0076ff"/>
            <feComposite in2="blur-6" operator="in"/>
            <feComposite in="SourceGraphic"/>
        </filter>
        <filter id="패스_19911" width="239.53" height="186.213" x="15" y="43.266" filterUnits="userSpaceOnUse">
            <feOffset/>
            <feGaussianBlur result="blur-7" stdDeviation="10"/>
            <feFlood flood-color="#0062ff"/>
            <feComposite in2="blur-7" operator="in"/>
            <feComposite in="SourceGraphic"/>
        </filter>
        <filter id="패스_19915" width="234.563" height="181.891" x="17.484" y="22.854" filterUnits="userSpaceOnUse">
            <feOffset/>
            <feGaussianBlur result="blur-8" stdDeviation="10"/>
            <feFlood flood-color="#b2cdff"/>
            <feComposite in2="blur-8" operator="in"/>
            <feComposite in="SourceGraphic"/>
        </filter>
        <filter id="패스_19916" width="203.968" height="90.774" x="32.714" y="118.594" filterUnits="userSpaceOnUse">
            <feOffset/>
            <feGaussianBlur result="blur-9" stdDeviation="5"/>
            <feFlood flood-color="#b2cdff"/>
            <feComposite in2="blur-9" operator="in"/>
            <feComposite in="SourceGraphic"/>
        </filter>
        <filter id="패스_19917" width="73.315" height="70.269" x="53.386" y="119.614" filterUnits="userSpaceOnUse">
            <feOffset/>
            <feGaussianBlur result="blur-10" stdDeviation="5"/>
            <feFlood flood-color="#0076ff"/>
            <feComposite in2="blur-10" operator="in"/>
            <feComposite in="SourceGraphic"/>
        </filter>
        <filter id="패스_19929" width="66.057" height="63.011" x="57.015" y="123.561" filterUnits="userSpaceOnUse">
            <feOffset/>
            <feGaussianBlur result="blur-11" stdDeviation="5"/>
            <feFlood flood-color="#899cff"/>
            <feComposite in2="blur-11" operator="in"/>
            <feComposite in="SourceGraphic"/>
        </filter>
        <filter id="패스_19929-2" width="66.057" height="63.011" x="57.015" y="123.561" filterUnits="userSpaceOnUse">
            <feOffset/>
            <feGaussianBlur result="blur-12" stdDeviation="4.5"/>
            <feFlood flood-color="#006cff" result="color"/>
            <feComposite in="SourceGraphic" in2="blur-12" operator="out"/>
            <feComposite in="color" operator="in"/>
            <feComposite in2="SourceGraphic" operator="in"/>
        </filter>
        <filter id="패스_19918" width="72.057" height="69.011" x="143.313" y="120.242" filterUnits="userSpaceOnUse">
            <feOffset/>
            <feGaussianBlur result="blur-13" stdDeviation="5"/>
            <feFlood flood-color="#0076ff"/>
            <feComposite in2="blur-13" operator="in"/>
            <feComposite in="SourceGraphic"/>
        </filter>
        <filter id="패스_19930" width="66.057" height="63.011" x="146.313" y="123.561" filterUnits="userSpaceOnUse">
            <feOffset/>
            <feGaussianBlur result="blur-14" stdDeviation="5"/>
            <feFlood flood-color="#899cff"/>
            <feComposite in2="blur-14" operator="in"/>
            <feComposite in="SourceGraphic"/>
        </filter>
        <filter id="패스_19930-2" width="66.057" height="63.011" x="146.313" y="123.561" filterUnits="userSpaceOnUse">
            <feOffset/>
            <feGaussianBlur result="blur-15" stdDeviation="4.5"/>
            <feFlood flood-color="#006cff" result="color-2"/>
            <feComposite in="SourceGraphic" in2="blur-15" operator="out"/>
            <feComposite in="color-2" operator="in"/>
            <feComposite in2="SourceGraphic" operator="in"/>
        </filter>
        <filter id="패스_19911-2" width="269.53" height="216.214" x="0" y="0" filterUnits="userSpaceOnUse">
            <feOffset/>
            <feGaussianBlur result="blur-16" stdDeviation="15"/>
            <feFlood flood-color="#0062ff"/>
            <feComposite in2="blur-16" operator="in"/>
            <feComposite in="SourceGraphic"/>
        </filter>
        <filter id="패스_19915-2" width="204.563" height="151.891" x="32.484" y="9.588" filterUnits="userSpaceOnUse">
            <feOffset/>
            <feGaussianBlur result="blur-17" stdDeviation="5"/>
            <feFlood flood-color="#b2cdff"/>
            <feComposite in2="blur-17" operator="in"/>
            <feComposite in="SourceGraphic"/>
        </filter>
        <filter id="패스_19916-2" width="203.968" height="90.774" x="32.714" y="90.328" filterUnits="userSpaceOnUse">
            <feOffset/>
            <feGaussianBlur result="blur-18" stdDeviation="5"/>
            <feFlood flood-color="#b2cdff"/>
            <feComposite in2="blur-18" operator="in"/>
            <feComposite in="SourceGraphic"/>
        </filter>
        <filter id="패스_19917-2" width="73.315" height="70.269" x="53.386" y="91.348" filterUnits="userSpaceOnUse">
            <feOffset/>
            <feGaussianBlur result="blur-19" stdDeviation="5"/>
            <feFlood flood-color="#0076ff"/>
            <feComposite in2="blur-19" operator="in"/>
            <feComposite in="SourceGraphic"/>
        </filter>
        <filter id="패스_19929-3" width="66.057" height="63.012" x="57.015" y="95.295" filterUnits="userSpaceOnUse">
            <feOffset/>
            <feGaussianBlur result="blur-20" stdDeviation="5"/>
            <feFlood flood-color="#beffff"/>
            <feComposite in2="blur-20" operator="in"/>
            <feComposite in="SourceGraphic"/>
        </filter>
        <filter id="패스_19929-4" width="66.057" height="63.012" x="57.015" y="95.295" filterUnits="userSpaceOnUse">
            <feOffset/>
            <feGaussianBlur result="blur-21" stdDeviation="4.5"/>
            <feFlood flood-color="#006cff" result="color-3"/>
            <feComposite in="SourceGraphic" in2="blur-21" operator="out"/>
            <feComposite in="color-3" operator="in"/>
            <feComposite in2="SourceGraphic" operator="in"/>
        </filter>
        <filter id="패스_19918-2" width="72.057" height="69.012" x="143.313" y="91.976" filterUnits="userSpaceOnUse">
            <feOffset/>
            <feGaussianBlur result="blur-22" stdDeviation="5"/>
            <feFlood flood-color="#0076ff"/>
            <feComposite in2="blur-22" operator="in"/>
            <feComposite in="SourceGraphic"/>
        </filter>
        <filter id="패스_19930-3" width="66.057" height="63.012" x="146.313" y="95.295" filterUnits="userSpaceOnUse">
            <feOffset/>
            <feGaussianBlur result="blur-23" stdDeviation="5"/>
            <feFlood flood-color="#beffff"/>
            <feComposite in2="blur-23" operator="in"/>
            <feComposite in="SourceGraphic"/>
        </filter>
        <filter id="패스_19930-4" width="66.057" height="63.012" x="146.313" y="95.295" filterUnits="userSpaceOnUse">
            <feOffset/>
            <feGaussianBlur result="blur-24" stdDeviation="4.5"/>
            <feFlood flood-color="#006cff" result="color-4"/>
            <feComposite in="SourceGraphic" in2="blur-24" operator="out"/>
            <feComposite in="color-4" operator="in"/>
            <feComposite in2="SourceGraphic" operator="in"/>
        </filter>
        <filter id="패스_19931-2" width="151.5" height="129.469" x="59.267" y="15.789" filterUnits="userSpaceOnUse">
            <feOffset/>
            <feGaussianBlur result="blur-25" stdDeviation="10"/>
            <feFlood flood-color="#0062ff"/>
            <feComposite in2="blur-25" operator="in"/>
            <feComposite in="SourceGraphic"/>
        </filter>
        <filter id="패스_19924-2" width="115.5" height="61.687" x="77.267" y="63.572" filterUnits="userSpaceOnUse">
            <feOffset/>
            <feGaussianBlur result="blur-26" stdDeviation="5"/>
            <feFlood flood-color="#b2cdff"/>
            <feComposite in2="blur-26" operator="in"/>
            <feComposite in="SourceGraphic"/>
        </filter>
        <filter id="패스_19925-2" width="115.5" height="85.793" x="77.267" y="23.997" filterUnits="userSpaceOnUse">
            <feOffset/>
            <feGaussianBlur result="blur-27" stdDeviation="5"/>
            <feFlood flood-color="#b2cdff"/>
            <feComposite in2="blur-27" operator="in"/>
            <feComposite in="SourceGraphic"/>
        </filter>
        <filter id="패스_19927-2" width="39.06" height="41.196" x="122.449" y="81.146" filterUnits="userSpaceOnUse">
            <feOffset/>
            <feGaussianBlur result="blur-28" stdDeviation="5"/>
            <feFlood flood-color="#b5d7ff"/>
            <feComposite in2="blur-28" operator="in"/>
            <feComposite in="SourceGraphic"/>
        </filter>
        <filter id="사각형_3439-2" width="39.06" height="40.973" x="115.442" y="81.703" filterUnits="userSpaceOnUse">
            <feOffset/>
            <feGaussianBlur result="blur-29" stdDeviation="5"/>
            <feFlood flood-color="#b5d7ff"/>
            <feComposite in2="blur-29" operator="in"/>
            <feComposite in="SourceGraphic"/>
        </filter>
        <filter id="패스_19928-2" width="39.06" height="41.196" x="108.179" y="81.146" filterUnits="userSpaceOnUse">
            <feOffset/>
            <feGaussianBlur result="blur-30" stdDeviation="5"/>
            <feFlood flood-color="#b5d7ff"/>
            <feComposite in2="blur-30" operator="in"/>
            <feComposite in="SourceGraphic"/>
        </filter>
        <linearGradient id="linear-gradient" x1="-.203" x2=".64" y1="-.018" y2=".603" gradientUnits="objectBoundingBox">
            <stop offset=".136" stop-color="#3d517a"/>
            <stop offset=".78" stop-color="#1f2a53"/>
        </linearGradient>
        <linearGradient id="linear-gradient-2" x1="-.136" x2="1.042" y1=".5" y2=".5" gradientUnits="objectBoundingBox">
            <stop offset=".112" stop-color="#68abe5"/>
            <stop offset=".117" stop-color="#65a5df"/>
            <stop offset=".197" stop-color="#445a95"/>
            <stop offset=".478" stop-color="#142644"/>
            <stop offset=".569" stop-color="#152746"/>
            <stop offset=".636" stop-color="#192b50"/>
            <stop offset=".696" stop-color="#213260"/>
            <stop offset=".736" stop-color="#293a70"/>
            <stop offset=".851" stop-color="#2a3b71"/>
            <stop offset=".893" stop-color="#2d4078"/>
            <stop offset=".922" stop-color="#344984"/>
            <stop offset=".946" stop-color="#3d5695"/>
            <stop offset=".966" stop-color="#4866ab"/>
            <stop offset=".984" stop-color="#577ac5"/>
            <stop offset="1" stop-color="#6892e5"/>
        </linearGradient>
        <linearGradient id="linear-gradient-3" x2="1" y1=".5" y2=".5" gradientUnits="objectBoundingBox">
            <stop offset="0" stop-color="#aaceff"/>
            <stop offset=".183" stop-color="#6f869d"/>
            <stop offset=".381" stop-color="#29508e"/>
            <stop offset=".643" stop-color="#9ec4d9"/>
            <stop offset=".823" stop-color="#29508e"/>
            <stop offset="1" stop-color="#697e96"/>
        </linearGradient>
        <linearGradient id="linear-gradient-5" x2="1" y1=".5" y2=".5" gradientUnits="objectBoundingBox">
            <stop offset="0" stop-color="#3a5c90"/>
            <stop offset=".16" stop-color="#aaceff"/>
            <stop offset=".433" stop-color="#5b7ebf"/>
            <stop offset=".656" stop-color="#9ec4d9"/>
            <stop offset=".869" stop-color="#29508e"/>
            <stop offset="1" stop-color="#697e96"/>
        </linearGradient>
        <linearGradient id="linear-gradient-7" x1="-.295" x2="1.407" y1=".16" y2=".888" gradientUnits="objectBoundingBox">
            <stop offset="0" stop-color="#9fd8ff"/>
            <stop offset="1" stop-color="#eef3ff"/>
        </linearGradient>
        <linearGradient id="linear-gradient-8" x1="-.314" x2="1.429" y1=".136" y2=".916" xlink:href="#linear-gradient-7"/>
        <linearGradient id="linear-gradient-9" x1="-.334" x2="1.452" y1=".143" y2=".908" xlink:href="#linear-gradient-7"/>
        <linearGradient id="linear-gradient-10" x1=".122" x2=".931" y1=".105" y2=".954" xlink:href="#linear-gradient"/>
        <linearGradient id="linear-gradient-11" x1="-.075" x2="1.001" y1=".511" y2=".491" gradientUnits="objectBoundingBox">
            <stop offset=".069" stop-color="#68abe5"/>
            <stop offset=".083" stop-color="#5e93ce"/>
            <stop offset=".099" stop-color="#567dba"/>
            <stop offset=".117" stop-color="#506eac"/>
            <stop offset=".138" stop-color="#4d65a4"/>
            <stop offset=".17" stop-color="#4c63a2"/>
            <stop offset=".325" stop-color="#142644"/>
            <stop offset=".37" stop-color="#152746"/>
            <stop offset=".404" stop-color="#192e50"/>
            <stop offset=".433" stop-color="#1f3860"/>
            <stop offset=".461" stop-color="#294777"/>
            <stop offset=".487" stop-color="#355b94"/>
            <stop offset=".511" stop-color="#4372b7"/>
            <stop offset=".53" stop-color="#5188d8"/>
            <stop offset=".54" stop-color="#4a7dc8"/>
            <stop offset=".572" stop-color="#3963a0"/>
            <stop offset=".604" stop-color="#2c4d7f"/>
            <stop offset=".637" stop-color="#213c65"/>
            <stop offset=".671" stop-color="#193053"/>
            <stop offset=".707" stop-color="#152948"/>
            <stop offset=".747" stop-color="#142745"/>
            <stop offset=".798" stop-color="#16294a"/>
            <stop offset=".859" stop-color="#1d2f58"/>
            <stop offset=".923" stop-color="#293a70"/>
            <stop offset=".956" stop-color="#2a3b71"/>
            <stop offset=".969" stop-color="#2d4078"/>
            <stop offset=".977" stop-color="#344984"/>
            <stop offset=".984" stop-color="#3d5695"/>
            <stop offset=".99" stop-color="#4866ab"/>
            <stop offset=".995" stop-color="#577ac5"/>
            <stop offset="1" stop-color="#6892e5"/>
        </linearGradient>
        <linearGradient id="linear-gradient-13" x1=".5" x2=".5" y1="1" gradientUnits="objectBoundingBox">
            <stop offset="0" stop-color="#173457" stop-opacity=".502"/>
            <stop offset=".814" stop-color="#173457"/>
        </linearGradient>
        <linearGradient id="linear-gradient-14" x1=".169" x2=".831" y1=".156" y2=".847" gradientUnits="objectBoundingBox">
            <stop offset="0" stop-color="#89a2c5"/>
            <stop offset=".183" stop-color="#aed6e9"/>
            <stop offset=".381" stop-color="#29508e"/>
            <stop offset=".747" stop-color="#9ec4d9"/>
            <stop offset=".886" stop-color="#29508e"/>
            <stop offset="1" stop-color="#697e96"/>
        </linearGradient>
        <linearGradient id="linear-gradient-15" x1=".168" x2=".829" y1="-.666" y2=".71" gradientUnits="objectBoundingBox">
            <stop offset="0" stop-color="#aaceff"/>
            <stop offset=".183" stop-color="#6f869d"/>
            <stop offset=".381" stop-color="#29508e"/>
            <stop offset=".723" stop-color="#9ec4d9"/>
            <stop offset=".874" stop-color="#29508e"/>
            <stop offset="1" stop-color="#697e96"/>
        </linearGradient>
        <linearGradient id="linear-gradient-16" x1=".002" x2="1.008" y1=".58" y2=".58" xlink:href="#linear-gradient-7"/>
        <linearGradient id="linear-gradient-17" x1=".002" x2="1.008" y1=".58" y2=".58" gradientUnits="objectBoundingBox">
            <stop offset="0" stop-color="#12a4ff"/>
            <stop offset=".266" stop-color="#5d9bff"/>
            <stop offset=".665" stop-color="#f8fbff"/>
            <stop offset="1" stop-color="#fff"/>
        </linearGradient>
        <linearGradient id="linear-gradient-18" x1="6.463" x2="7.469" y1=".455" y2=".455" xlink:href="#linear-gradient-7"/>
        <linearGradient id="linear-gradient-31" x1=".002" x2="1.008" y1=".58" y2=".58" gradientUnits="objectBoundingBox">
            <stop offset="0" stop-color="#12dbff"/>
            <stop offset=".099" stop-color="#00e2ff"/>
            <stop offset=".665" stop-color="#f8fbff"/>
            <stop offset="1" stop-color="#fff"/>
        </linearGradient>
        <radialGradient id="radial-gradient" cx=".764" cy=".5" r=".861" gradientTransform="translate(0.234) scale(0.531 1)" gradientUnits="objectBoundingBox">
            <stop offset=".043" stop-color="#cfecf8"/>
            <stop offset=".275" stop-color="#9dc8f8"/>
            <stop offset="1" stop-color="#7586c5"/>
        </radialGradient>
        <radialGradient id="radial-gradient-3" cx=".764" cy=".5" r=".861" gradientTransform="translate(0.234) scale(0.531 1)" gradientUnits="objectBoundingBox">
            <stop offset="0" stop-color="#9dc8f8"/>
            <stop offset="1" stop-color="#7586c5"/>
        </radialGradient>
        <radialGradient id="radial-gradient-4" cx=".764" r=".861" xlink:href="#radial-gradient"/>
        <radialGradient id="radial-gradient-9" cx=".5" cy=".5" r=".5" gradientUnits="objectBoundingBox">
            <stop offset="0" stop-color="#bcf0ff" stop-opacity=".941"/>
            <stop offset=".094" stop-color="#cff7fc" stop-opacity=".788"/>
            <stop offset=".483" stop-color="#0058ff" stop-opacity=".227"/>
            <stop offset="1" stop-color="#a1d6fd" stop-opacity="0"/>
        </radialGradient>
        <radialGradient id="radial-gradient-10" cx=".5" cy=".5" r=".5" gradientUnits="objectBoundingBox">
            <stop offset="0" stop-color="#bcf0ff" stop-opacity=".941"/>
            <stop offset=".094" stop-color="#cff7fc" stop-opacity=".788"/>
            <stop offset=".483" stop-color="#42a7ef" stop-opacity=".227"/>
            <stop offset="1" stop-color="#a1d6fd" stop-opacity="0"/>
        </radialGradient>
        <style>
            .cls-18,.cls-19,.cls-25{opacity:.8}.cls-7{fill:url(#linear-gradient)}.cls-5{fill:url(#linear-gradient-2)}.cls-6{fill:url(#linear-gradient-3)}.cls-8{fill:url(#linear-gradient-5)}.cls-12{fill:url(#linear-gradient-10)}.cls-13{fill:url(#linear-gradient-11)}.cls-14{fill:url(#linear-gradient-13)}.cls-15{fill:url(#linear-gradient-14)}.cls-16{fill:url(#linear-gradient-15)}.cls-17{fill:url(#linear-gradient-16)}.cls-18{fill:url(#linear-gradient-17)}.cls-19{fill:#fff}.cls-20{fill:url(#linear-gradient-18)}.cls-21{opacity:.49}.cls-22{fill:url(#radial-gradient)}.cls-23{fill:url(#radial-gradient-3)}.cls-24{fill:url(#radial-gradient-4)}.cls-25{fill:url(#linear-gradient-31)}.cls-29{fill:url(#radial-gradient-9)}.cls-30{fill:url(#radial-gradient-10)}
        </style>
    </defs>
    <g id="그룹_4386" opacity="0.8" transform="translate(33.633 24.589)">
        <g id="그룹_4374" opacity="0.2" transform="translate(13.851 28.266)">
            <g id="그룹_4375" transform="translate(44.783 59.471)">
                <g filter="url(#패스_19931)" transform="matrix(1, 0, 0, 1, -92.27, -112.33)">
                    <path id="패스_19931-3" fill="url(#linear-gradient)" d="M42.75 0C66.36 0 85.5 14.208 85.5 31.735S66.36 63.469 42.75 63.469 0 49.261 0 31.735 19.14 0 42.75 0z" opacity="0.3" transform="translate(92.27 130.26)"/>
                </g>
                <g id="그룹_4372" opacity="0.3" transform="translate(0 0)">
                    <path id="패스_19923" d="M-1997.521 640.234c-7.816-6.343-19.056-10.323-31.55-10.323s-23.734 3.98-31.55 10.323h-11.2v16.121h.019c.406 17.266 19.375 31.171 42.731 31.171s42.324-13.906 42.731-31.171h.019v-16.121z" class="cls-5" transform="translate(2071.821 -609.024)"/>
                    <g filter="url(#패스_19924)" transform="matrix(1, 0, 0, 1, -92.27, -112.33)">
                        <path id="패스_19924-3" d="M-2071.822 800.748h.02a25.621 25.621 0 0 0 4.751 13.478 35.114 35.114 0 0 0 10.481 9.751 52.681 52.681 0 0 0 27.5 7.426 52.679 52.679 0 0 0 27.5-7.428 35.1 35.1 0 0 0 10.481-9.751 25.622 25.622 0 0 0 4.752-13.477 25.881 25.881 0 0 1-4.333 13.759 35.616 35.616 0 0 1-10.475 10.139c-8.273 5.314-18.165 7.676-27.923 7.788-9.758-.115-19.65-2.473-27.922-7.79a35.594 35.594 0 0 1-10.475-10.138 25.88 25.88 0 0 1-4.335-13.759h-.019z" class="cls-6" transform="translate(2164.09 -640.7)"/>
                    </g>
                    <ellipse id="타원_4467" cx="42.75" cy="31.734" class="cls-7" rx="42.75" ry="31.734" transform="translate(0 0.509)"/>
                    <g id="그룹_4371" transform="translate(0 0)">
                        <g filter="url(#패스_19925)" transform="matrix(1, 0, 0, 1, -92.27, -112.33)">
                            <path id="패스_19925-3" d="M-2001.21 548.8c8.01 5.541 13.025 13.436 13.025 22.2 0 16.762-18.305 30.351-40.886 30.351s-40.886-13.589-40.886-30.351c0-8.769 5.015-16.664 13.025-22.2-9.112 5.82-14.889 14.436-14.889 24.058 0 17.526 19.14 31.734 42.75 31.734s42.75-14.208 42.75-31.734c0-9.625-5.779-18.241-14.889-24.058z" class="cls-8" transform="translate(2164.09 -428.33)"/>
                        </g>
                        <path id="패스_19926" d="M-1921.308 505.08c-7.3-5.051-17.092-8.147-27.861-8.147s-20.559 3.1-27.861 8.146a52.009 52.009 0 0 1 27.861-7.676 52.009 52.009 0 0 1 27.861 7.677z" class="cls-8" transform="translate(1991.919 -496.933)"/>
                    </g>
                </g>
                <g filter="url(#패스_19927)" transform="matrix(1, 0, 0, 1, -92.27, -112.33)">
                    <path id="패스_19927-3" fill="url(#linear-gradient-7)" d="M-1762.011 936.7l-3.06.223v-4.973l3.06-.223z" opacity="0.3" transform="translate(1905.52 -751.11)"/>
                </g>
                <g filter="url(#사각형_3439)" transform="matrix(1, 0, 0, 1, -92.27, -112.33)">
                    <path id="사각형_3439-3" fill="url(#linear-gradient-8)" d="M0 0H3.06V4.973H0z" opacity="0.3" transform="translate(133.44 181.18)"/>
                </g>
                <g filter="url(#패스_19928)" transform="matrix(1, 0, 0, 1, -92.27, -112.33)">
                    <path id="패스_19928-3" fill="url(#linear-gradient-9)" d="M-1852.864 936.924l-3.06-.223v-4.973l3.06.223z" opacity="0.3" transform="translate(1982.1 -751.11)"/>
                </g>
            </g>
            <g filter="url(#패스_19911)" transform="matrix(1, 0, 0, 1, -47.48, -52.85)">
                <path id="패스_19911-3" d="M-2351.868 669.683l79.549 54.945a9.579 9.579 0 0 0 10.875.008l79.55-54.766a4.112 4.112 0 0 0 .015-6.764l-79.549-55.282a9.578 9.578 0 0 0-10.921-.008l-79.525 55.1a4.112 4.112 0 0 0 .006 6.767z" class="cls-12" transform="translate(2401.64 -529.85)"/>
            </g>
            <path id="패스_19912" d="M-2180.145 640.819h.019v-19.085l-24.849-.071-59.566-41.4a4.112 4.112 0 0 0-4.689 0l-59.237 41.045-25.176-.072.005 19.582h.006a4.075 4.075 0 0 0 1.765 3.471l80.343 55.494a8.178 8.178 0 0 0 9.285.007l80.346-55.313a4.067 4.067 0 0 0 1.748-3.658z" class="cls-13" transform="translate(2354.159 -560.295)"/>
            <path id="패스_19913" d="M-2351.868 525.992l79.549 54.945a9.579 9.579 0 0 0 10.875.008l79.55-54.765a4.112 4.112 0 0 0 .015-6.764l-79.549-55.282a9.578 9.578 0 0 0-10.921-.008l-79.525 55.1a4.112 4.112 0 0 0 .006 6.766z" class="cls-12" transform="translate(2354.159 -461.579)"/>
            <path id="패스_19914" d="M-2351.783 521.5l80.5-55.778a7.867 7.867 0 0 1 8.97.006l80.523 55.96a4.049 4.049 0 0 1 1.143 1.246 4.1 4.1 0 0 0-1.143-5.509l-80.523-55.96a7.867 7.867 0 0 0-8.97-.006l-80.5 55.779a4.1 4.1 0 0 0-1.148 5.512 4.048 4.048 0 0 1 1.148-1.25z" class="cls-14" transform="translate(2354.07 -459.585)"/>
            <g filter="url(#패스_19915)" transform="matrix(1, 0, 0, 1, -47.48, -52.85)">
                <path id="패스_19915-3" d="M-2269.646 578.955a8.558 8.558 0 0 1-4.867-1.508l-80.419-55.546a4.629 4.629 0 0 1-2-3.805 4.628 4.628 0 0 1 1.993-3.807l80.4-55.708a8.6 8.6 0 0 1 9.762.008l80.422 55.888a4.629 4.629 0 0 1 1.988 3.812 4.627 4.627 0 0 1-2 3.8l-80.42 55.365a8.553 8.553 0 0 1-4.859 1.501zm-84.7-57.9l80.419 55.545a7.565 7.565 0 0 0 8.549.008l80.421-55.365a3.551 3.551 0 0 0 1.557-2.953 3.553 3.553 0 0 0-1.544-2.963l-80.422-55.888a7.559 7.559 0 0 0-8.585-.005l-80.4 55.708a3.55 3.55 0 0 0-1.548 2.957 3.549 3.549 0 0 0 1.554 2.952z" class="cls-15" transform="translate(2404.41 -404.21)"/>
            </g>
            <g filter="url(#패스_19916)" transform="matrix(1, 0, 0, 1, -47.48, -52.85)">
                <path id="패스_19916-3" d="M-2355.089 971.088a4.169 4.169 0 0 0 .416 1.457 4 4 0 0 0 1.022.988l2.653 1.843 5.375 3.718 10.75 7.436 21.5 14.871 21.5 14.871 10.75 7.436 5.375 3.718 2.688 1.859a8.17 8.17 0 0 0 2.753 1.419 7.122 7.122 0 0 0 5.88-.956l5.384-3.7 10.771-7.4 21.542-14.81 43.085-29.62-.022.017c.468-.368.936-.736 1.344-1.121a1.9 1.9 0 0 0 .466-.643 6.453 6.453 0 0 0 .21-.868 3.333 3.333 0 0 1 .153.943 1.9 1.9 0 0 1-.373.946 7.138 7.138 0 0 1-1.321 1.34l-.009.007-.014.01-43.046 29.676-21.523 14.838-10.762 7.419-5.385 3.709a8.018 8.018 0 0 1-6.62 1.084 9.092 9.092 0 0 1-3.028-1.542l-2.69-1.855-5.38-3.711-10.76-7.421-21.52-14.843-21.519-14.843-10.76-7.421-5.38-3.711c-.9-.643-1.786-1.183-2.7-1.91a3.426 3.426 0 0 1-1.09-1.464 2.835 2.835 0 0 1 .138-1.764z" class="cls-16" transform="translate(2403.18 -837.49)"/>
            </g>
            <g filter="url(#패스_19917)" transform="matrix(1, 0, 0, 1, -47.48, -52.85)">
                <path id="패스_19917-3" d="M-2154.425 1046.457l-26.5-19.055a1.753 1.753 0 0 1-.729-1.444l.053-4.446a1.752 1.752 0 0 1 2.775-1.4l26.5 19.055a1.752 1.752 0 0 1 .729 1.444l-.053 4.446a1.752 1.752 0 0 1-2.775 1.4z" class="cls-17" transform="translate(2256.67 -878.54)"/>
            </g>
            <g>
                <g filter="url(#패스_19929)" transform="matrix(1, 0, 0, 1, -47.48, -52.85)">
                    <path id="패스_19929-5" d="M-2154.425 1046.457l-26.5-19.055a1.753 1.753 0 0 1-.729-1.444l.053-4.446a1.752 1.752 0 0 1 2.775-1.4l26.5 19.055a1.752 1.752 0 0 1 .729 1.444l-.053 4.446a1.752 1.752 0 0 1-2.775 1.4z" class="cls-18" transform="translate(2256.67 -878.22)"/>
                </g>
                <g filter="url(#패스_19929-2)" transform="matrix(1, 0, 0, 1, -47.48, -52.85)">
                    <path id="패스_19929-6" d="M-2154.425 1046.457l-26.5-19.055a1.753 1.753 0 0 1-.729-1.444l.053-4.446a1.752 1.752 0 0 1 2.775-1.4l26.5 19.055a1.752 1.752 0 0 1 .729 1.444l-.053 4.446a1.752 1.752 0 0 1-2.775 1.4z" class="cls-19" transform="translate(2256.67 -878.22)"/>
                </g>
            </g>
            <g filter="url(#패스_19918)" transform="matrix(1, 0, 0, 1, -47.48, -52.85)">
                <path id="패스_19918-3" d="M-1610.314 1046.457l26.5-19.055a1.752 1.752 0 0 0 .729-1.444l-.053-4.446a1.752 1.752 0 0 0-2.775-1.4l-26.5 19.055a1.753 1.753 0 0 0-.729 1.444l.053 4.446a1.752 1.752 0 0 0 2.775 1.4z" class="cls-20" transform="translate(1777.46 -878.54)"/>
            </g>
            <g>
                <g filter="url(#패스_19930)" transform="matrix(1, 0, 0, 1, -47.48, -52.85)">
                    <path id="패스_19930-5" d="M-1610.314 1046.457l26.5-19.055a1.752 1.752 0 0 0 .729-1.444l-.053-4.446a1.752 1.752 0 0 0-2.775-1.4l-26.5 19.055a1.753 1.753 0 0 0-.729 1.444l.053 4.446a1.752 1.752 0 0 0 2.775 1.4z" class="cls-18" transform="translate(1777.46 -878.22)"/>
                </g>
                <g filter="url(#패스_19930-2)" transform="matrix(1, 0, 0, 1, -47.48, -52.85)">
                    <path id="패스_19930-6" d="M-1610.314 1046.457l26.5-19.055a1.752 1.752 0 0 0 .729-1.444l-.053-4.446a1.752 1.752 0 0 0-2.775-1.4l-26.5 19.055a1.753 1.753 0 0 0-.729 1.444l.053 4.446a1.752 1.752 0 0 0 2.775 1.4z" class="cls-19" transform="translate(1777.46 -878.22)"/>
                </g>
            </g>
            <g id="그룹_4367" class="cls-21" transform="translate(10.413 60.939)">
                <path id="패스_19919" d="M-2290.543 859.892c.077 1.376 1.788 2.479 3.9 2.479s3.826-1.1 3.9-2.479a4.826 4.826 0 0 1-3.9 1.634 4.826 4.826 0 0 1-3.9-1.634z" class="cls-14" transform="translate(2290.557 -857.557)"/>
                <ellipse id="타원_4462" cx="3.917" cy="2.082" class="cls-22" rx="3.917" ry="2.082" transform="translate(0 0)"/>
            </g>
            <g id="그룹_4368" class="cls-21" transform="translate(157.229 60.939)">
                <path id="패스_19920" d="M-1355.855 859.892c.077 1.376 1.788 2.479 3.9 2.479s3.826-1.1 3.9-2.479a4.826 4.826 0 0 1-3.9 1.634 4.825 4.825 0 0 1-3.9-1.634z" class="cls-14" transform="translate(1355.869 -857.557)"/>
                <ellipse id="타원_4463" cx="3.917" cy="2.082" class="cls-22" rx="3.917" ry="2.082" transform="translate(0 0)"/>
            </g>
            <g id="그룹_4369" class="cls-21" transform="translate(83.616 8.978)">
                <path id="패스_19921" d="M-1824.5 529.087c.077 1.376 1.788 2.479 3.9 2.479s3.826-1.1 3.9-2.479a4.826 4.826 0 0 1-3.9 1.634 4.826 4.826 0 0 1-3.9-1.634z" class="cls-14" transform="translate(1824.516 -526.753)"/>
                <ellipse id="타원_4464" cx="3.917" cy="2.082" class="cls-23" rx="3.917" ry="2.082" transform="translate(0 0)"/>
            </g>
            <g id="그룹_4370" class="cls-21" transform="translate(83.616 110.905)">
                <path id="패스_19922" d="M-1824.5 1177.992c.077 1.376 1.788 2.479 3.9 2.479s3.826-1.1 3.9-2.479a4.826 4.826 0 0 1-3.9 1.634 4.826 4.826 0 0 1-3.9-1.634z" class="cls-14" transform="translate(1824.516 -1175.657)"/>
                <ellipse id="타원_4465" cx="3.917" cy="2.082" class="cls-24" rx="3.917" ry="2.082" transform="translate(0 0)"/>
            </g>
        </g>
        <g id="그룹_4373" transform="translate(13.851 0)">
            <g filter="url(#패스_19911-2)" transform="matrix(1, 0, 0, 1, -47.48, -24.59)">
                <path id="패스_19911-4" d="M-2351.868 669.683l79.549 54.945a9.579 9.579 0 0 0 10.875.008l79.55-54.766a4.112 4.112 0 0 0 .015-6.764l-79.549-55.282a9.578 9.578 0 0 0-10.921-.008l-79.525 55.1a4.112 4.112 0 0 0 .006 6.767z" class="cls-12" transform="translate(2401.64 -558.11)"/>
            </g>
            <path id="패스_19912-2" d="M-2180.145 640.819h.019v-19.085l-24.849-.071-59.566-41.4a4.112 4.112 0 0 0-4.689 0l-59.237 41.045-25.176-.072.005 19.582h.006a4.075 4.075 0 0 0 1.765 3.471l80.343 55.494a8.178 8.178 0 0 0 9.285.007l80.346-55.313a4.066 4.066 0 0 0 1.748-3.658z" class="cls-13" transform="translate(2354.159 -560.295)"/>
            <path id="패스_19913-2" d="M-2351.868 525.992l79.549 54.945a9.578 9.578 0 0 0 10.875.008l79.55-54.766a4.112 4.112 0 0 0 .015-6.764l-79.549-55.282a9.578 9.578 0 0 0-10.921-.008l-79.525 55.1a4.112 4.112 0 0 0 .006 6.767z" class="cls-12" transform="translate(2354.159 -461.579)"/>
            <path id="패스_19914-2" d="M-2351.783 521.5l80.5-55.779a7.867 7.867 0 0 1 8.97.006l80.523 55.96a4.049 4.049 0 0 1 1.143 1.246 4.1 4.1 0 0 0-1.143-5.509l-80.523-55.96a7.867 7.867 0 0 0-8.97-.006l-80.5 55.779a4.1 4.1 0 0 0-1.148 5.512 4.049 4.049 0 0 1 1.148-1.249z" class="cls-14" transform="translate(2354.07 -459.585)"/>
            <g filter="url(#패스_19915-2)" transform="matrix(1, 0, 0, 1, -47.48, -24.59)">
                <path id="패스_19915-4" d="M-2269.646 578.955a8.558 8.558 0 0 1-4.867-1.508l-80.419-55.546a4.629 4.629 0 0 1-2-3.805 4.628 4.628 0 0 1 1.993-3.807l80.4-55.708a8.6 8.6 0 0 1 9.762.008l80.422 55.888a4.629 4.629 0 0 1 1.988 3.812 4.627 4.627 0 0 1-2 3.8l-80.42 55.365a8.553 8.553 0 0 1-4.859 1.501zm-84.7-57.9l80.419 55.545a7.565 7.565 0 0 0 8.549.008l80.421-55.365a3.551 3.551 0 0 0 1.557-2.953 3.553 3.553 0 0 0-1.544-2.963l-80.422-55.888a7.559 7.559 0 0 0-8.585-.005l-80.4 55.708a3.55 3.55 0 0 0-1.548 2.957 3.549 3.549 0 0 0 1.554 2.952z" class="cls-15" transform="translate(2404.41 -432.48)"/>
            </g>
            <g filter="url(#패스_19916-2)" transform="matrix(1, 0, 0, 1, -47.48, -24.59)">
                <path id="패스_19916-4" d="M-2355.089 971.088a4.168 4.168 0 0 0 .416 1.457 4 4 0 0 0 1.022.988l2.653 1.843 5.375 3.718 10.75 7.436 21.5 14.871 21.5 14.871 10.75 7.436 5.375 3.718 2.688 1.859a8.17 8.17 0 0 0 2.753 1.419 7.122 7.122 0 0 0 5.88-.956l5.384-3.7 10.771-7.405 21.542-14.81 43.085-29.62-.022.017c.468-.368.936-.736 1.344-1.121a1.9 1.9 0 0 0 .466-.643 6.452 6.452 0 0 0 .21-.869 3.333 3.333 0 0 1 .153.943 1.9 1.9 0 0 1-.373.946 7.14 7.14 0 0 1-1.321 1.34l-.009.007-.014.01-43.046 29.676-21.523 14.838-10.762 7.419-5.385 3.709a8.019 8.019 0 0 1-6.62 1.084 9.094 9.094 0 0 1-3.028-1.542l-2.69-1.855-5.38-3.711-10.76-7.421-21.52-14.843-21.519-14.843-10.76-7.422-5.38-3.711c-.9-.642-1.786-1.183-2.7-1.91a3.426 3.426 0 0 1-1.09-1.464 2.835 2.835 0 0 1 .138-1.764z" class="cls-16" transform="translate(2403.18 -865.76)"/>
            </g>
            <g filter="url(#패스_19917-2)" transform="matrix(1, 0, 0, 1, -47.48, -24.59)">
                <path id="패스_19917-4" d="M-2154.425 1046.457l-26.5-19.055a1.752 1.752 0 0 1-.729-1.444l.053-4.446a1.752 1.752 0 0 1 2.775-1.4l26.5 19.055a1.752 1.752 0 0 1 .729 1.444l-.053 4.446a1.752 1.752 0 0 1-2.775 1.4z" class="cls-17" transform="translate(2256.67 -906.8)"/>
            </g>
            <g>
                <g filter="url(#패스_19929-3)" transform="matrix(1, 0, 0, 1, -47.48, -24.59)">
                    <path id="패스_19929-7" d="M-2154.425 1046.457l-26.5-19.055a1.752 1.752 0 0 1-.729-1.444l.053-4.446a1.752 1.752 0 0 1 2.775-1.4l26.5 19.055a1.752 1.752 0 0 1 .729 1.444l-.053 4.446a1.752 1.752 0 0 1-2.775 1.4z" class="cls-25" transform="translate(2256.67 -906.48)"/>
                </g>
                <g filter="url(#패스_19929-4)" transform="matrix(1, 0, 0, 1, -47.48, -24.59)">
                    <path id="패스_19929-8" d="M-2154.425 1046.457l-26.5-19.055a1.752 1.752 0 0 1-.729-1.444l.053-4.446a1.752 1.752 0 0 1 2.775-1.4l26.5 19.055a1.752 1.752 0 0 1 .729 1.444l-.053 4.446a1.752 1.752 0 0 1-2.775 1.4z" class="cls-19" transform="translate(2256.67 -906.48)"/>
                </g>
            </g>
            <g filter="url(#패스_19918-2)" transform="matrix(1, 0, 0, 1, -47.48, -24.59)">
                <path id="패스_19918-4" d="M-1610.314 1046.457l26.5-19.055a1.752 1.752 0 0 0 .729-1.444l-.053-4.446a1.752 1.752 0 0 0-2.775-1.4l-26.5 19.055a1.753 1.753 0 0 0-.729 1.444l.053 4.446a1.752 1.752 0 0 0 2.775 1.4z" class="cls-20" transform="translate(1777.46 -906.8)"/>
            </g>
            <g>
                <g filter="url(#패스_19930-3)" transform="matrix(1, 0, 0, 1, -47.48, -24.59)">
                    <path id="패스_19930-7" d="M-1610.314 1046.457l26.5-19.055a1.752 1.752 0 0 0 .729-1.444l-.053-4.446a1.752 1.752 0 0 0-2.775-1.4l-26.5 19.055a1.753 1.753 0 0 0-.729 1.444l.053 4.446a1.752 1.752 0 0 0 2.775 1.4z" class="cls-25" transform="translate(1777.46 -906.48)"/>
                </g>
                <g filter="url(#패스_19930-4)" transform="matrix(1, 0, 0, 1, -47.48, -24.59)">
                    <path id="패스_19930-8" d="M-1610.314 1046.457l26.5-19.055a1.752 1.752 0 0 0 .729-1.444l-.053-4.446a1.752 1.752 0 0 0-2.775-1.4l-26.5 19.055a1.753 1.753 0 0 0-.729 1.444l.053 4.446a1.752 1.752 0 0 0 2.775 1.4z" class="cls-19" transform="translate(1777.46 -906.48)"/>
                </g>
            </g>
            <g id="그룹_4367-2" class="cls-21" transform="translate(10.413 60.939)">
                <path id="패스_19919-2" d="M-2290.543 859.892c.077 1.376 1.788 2.479 3.9 2.479s3.826-1.1 3.9-2.479a4.826 4.826 0 0 1-3.9 1.634 4.826 4.826 0 0 1-3.9-1.634z" class="cls-14" transform="translate(2290.557 -857.557)"/>
                <ellipse id="타원_4462-2" cx="3.917" cy="2.082" class="cls-22" rx="3.917" ry="2.082" transform="translate(0 0)"/>
            </g>
            <g id="그룹_4368-2" class="cls-21" transform="translate(157.229 60.939)">
                <path id="패스_19920-2" d="M-1355.855 859.892c.077 1.376 1.788 2.479 3.9 2.479s3.826-1.1 3.9-2.479a4.826 4.826 0 0 1-3.9 1.634 4.825 4.825 0 0 1-3.9-1.634z" class="cls-14" transform="translate(1355.869 -857.557)"/>
                <ellipse id="타원_4463-2" cx="3.917" cy="2.082" class="cls-22" rx="3.917" ry="2.082" transform="translate(0 0)"/>
            </g>
            <g id="그룹_4369-2" class="cls-21" transform="translate(83.616 8.978)">
                <path id="패스_19921-2" d="M-1824.5 529.087c.077 1.376 1.788 2.478 3.9 2.478s3.826-1.1 3.9-2.478a4.826 4.826 0 0 1-3.9 1.634 4.826 4.826 0 0 1-3.9-1.634z" class="cls-14" transform="translate(1824.516 -526.752)"/>
                <ellipse id="타원_4464-2" cx="3.917" cy="2.082" class="cls-23" rx="3.917" ry="2.082" transform="translate(0 0)"/>
            </g>
            <g id="그룹_4370-2" class="cls-21" transform="translate(83.616 110.905)">
                <path id="패스_19922-2" d="M-1824.5 1177.992c.077 1.376 1.788 2.479 3.9 2.479s3.826-1.1 3.9-2.479a4.826 4.826 0 0 1-3.9 1.634 4.826 4.826 0 0 1-3.9-1.634z" class="cls-14" transform="translate(1824.516 -1175.657)"/>
                <ellipse id="타원_4465-2" cx="3.917" cy="2.082" class="cls-24" rx="3.917" ry="2.082" transform="translate(0 0)"/>
            </g>
            <g filter="url(#패스_19931-2)" transform="matrix(1, 0, 0, 1, -47.48, -24.59)">
                <path id="패스_19931-4" d="M42.75 0C66.36 0 85.5 14.208 85.5 31.735S66.36 63.469 42.75 63.469 0 49.261 0 31.735 19.14 0 42.75 0z" class="cls-7" transform="translate(92.27 48.79)"/>
            </g>
            <g id="그룹_4372-2" transform="translate(44.783 6.262)">
                <path id="패스_19923-2" d="M-1997.521 640.234c-7.816-6.343-19.056-10.323-31.55-10.323s-23.734 3.98-31.55 10.323h-11.2v16.121h.019c.406 17.266 19.375 31.171 42.731 31.171s42.324-13.906 42.731-31.171h.019v-16.121z" class="cls-5" transform="translate(2071.821 -609.024)"/>
                <g filter="url(#패스_19924-2)" transform="matrix(1, 0, 0, 1, -92.27, -30.85)">
                    <path id="패스_19924-4" d="M-2071.822 800.748h.02a25.621 25.621 0 0 0 4.751 13.478 35.114 35.114 0 0 0 10.481 9.751 52.681 52.681 0 0 0 27.5 7.426 52.679 52.679 0 0 0 27.5-7.428 35.1 35.1 0 0 0 10.481-9.751 25.622 25.622 0 0 0 4.752-13.477 25.881 25.881 0 0 1-4.333 13.759 35.616 35.616 0 0 1-10.475 10.139c-8.273 5.314-18.165 7.676-27.923 7.788-9.758-.115-19.65-2.473-27.922-7.79a35.6 35.6 0 0 1-10.475-10.138 25.881 25.881 0 0 1-4.335-13.759h-.019z" class="cls-6" transform="translate(2164.09 -722.17)"/>
                </g>
                <ellipse id="타원_4467-2" cx="42.75" cy="31.735" class="cls-7" rx="42.75" ry="31.735" transform="translate(0 0.509)"/>
                <g id="그룹_4371-2" transform="translate(0 0)">
                    <g filter="url(#패스_19925-2)" transform="matrix(1, 0, 0, 1, -92.27, -30.85)">
                        <path id="패스_19925-4" d="M-2001.21 548.8c8.01 5.541 13.025 13.436 13.025 22.2 0 16.762-18.305 30.351-40.886 30.351s-40.886-13.589-40.886-30.351c0-8.769 5.015-16.664 13.025-22.2-9.112 5.82-14.889 14.436-14.889 24.058 0 17.526 19.14 31.734 42.75 31.734s42.75-14.208 42.75-31.734c0-9.625-5.779-18.241-14.889-24.058z" class="cls-8" transform="translate(2164.09 -509.8)"/>
                    </g>
                    <path id="패스_19926-2" d="M-1921.308 505.08c-7.3-5.051-17.092-8.147-27.861-8.147s-20.559 3.1-27.861 8.147a52.009 52.009 0 0 1 27.861-7.676 52.009 52.009 0 0 1 27.861 7.676z" class="cls-8" transform="translate(1991.919 -496.933)"/>
                </g>
            </g>
            <g filter="url(#패스_19927-2)" transform="matrix(1, 0, 0, 1, -47.48, -24.59)">
                <path id="패스_19927-4" fill="url(#linear-gradient-7)" d="M-1762.011 936.7l-3.06.223v-4.973l3.06-.223z" transform="translate(1905.52 -832.58)"/>
            </g>
            <g filter="url(#사각형_3439-2)" transform="matrix(1, 0, 0, 1, -47.48, -24.59)">
                <path id="사각형_3439-4" fill="url(#linear-gradient-8)" d="M0 0H3.06V4.973H0z" transform="translate(133.44 99.7)"/>
            </g>
            <g filter="url(#패스_19928-2)" transform="matrix(1, 0, 0, 1, -47.48, -24.59)">
                <path id="패스_19928-4" fill="url(#linear-gradient-9)" d="M-1852.864 936.924l-3.06-.223v-4.973l3.06.223z" transform="translate(1982.1 -832.58)"/>
            </g>
        </g>
        <ellipse id="타원_4468" cx="33.92" cy="18.844" class="cls-29" rx="33.92" ry="18.844" transform="translate(25.785 60.62) rotate(30)"/>
        <ellipse id="타원_4470" cx="14.133" cy="10.364" class="cls-30" rx="14.133" ry="10.364" transform="translate(117.727 60.62) rotate(83)"/>
        <ellipse id="타원_4471" cx="10.806" cy="7.924" class="cls-30" rx="10.806" ry="7.924" transform="translate(107.68 64.358) rotate(83)"/>
        <ellipse id="타원_4469" cx="33.92" cy="18.844" class="cls-29" rx="33.92" ry="18.844" transform="matrix(0.875, -0.485, 0.485, 0.875, 98.25, 108.938)"/>
        <ellipse id="타원_4472" cx="37.016" cy="2.302" class="cls-30" rx="37.016" ry="2.302" transform="matrix(0.819, -0.574, 0.574, 0.819, 89.529, 128.321)"/>
        <ellipse id="타원_4473" cx="37.016" cy="2.302" class="cls-30" rx="37.016" ry="2.302" transform="matrix(0.819, -0.574, 0.574, 0.819, 89.529, 149.049)"/>
        <ellipse id="타원_4474" cx="37.016" cy="2.302" class="cls-30" rx="37.016" ry="2.302" transform="matrix(0.829, 0.559, -0.559, 0.829, 2.575, 53.303)"/>
        <ellipse id="타원_4476" cx="23.511" cy="6.385" class="cls-30" rx="23.511" ry="6.385" transform="translate(59.235 46.77) rotate(27)"/>
        <ellipse id="타원_4477" cx="10.537" cy="3.094" fill="url(#radial-gradient-10)" opacity="0.7" rx="10.537" ry="3.094" transform="matrix(-0.087, 0.996, -0.996, -0.087, 147.145, 27.267)"/>
        <ellipse id="타원_4475" cx="37.016" cy="2.302" class="cls-30" rx="37.016" ry="2.302" transform="matrix(0.829, 0.559, -0.559, 0.829, 2.575, 71.812)"/>
    </g>
</svg>
