<svg xmlns="http://www.w3.org/2000/svg" width="48" height="21.695" viewBox="0 0 48 21.695">
  <g id="그룹_7" data-name="그룹 7" transform="translate(-372.6 -452.548)">
    <g id="그룹_4" data-name="그룹 4" transform="translate(372.6 456.764)">
      <g id="그룹_3" data-name="그룹 3" transform="translate(0 8.299)">
        <g id="그룹_2" data-name="그룹 2">
          <g id="그룹_1" data-name="그룹 1">
            <path id="패스_1" data-name="패스 1" d="M372.6,480.94h1.886v3.927h.028l3.2-3.927H379.7l-3.559,4.072,3.935,4.962h-2.3l-3.258-4.373h-.028v4.373H372.6Z" transform="translate(-372.6 -480.94)" fill="#fff"/>
          </g>
        </g>
        <path id="패스_2" data-name="패스 2" d="M404.791,487.395c-.015.071-1.029,4.578-1.029,4.578h0s-1.534-4.517-1.553-4.578h-.847l-1.416,4.657h0s-1.151-4.588-1.167-4.657h-1.515c.033.114,1.713,6.122,1.73,6.189h1.428l1.312-3.955h0s1.433,3.9,1.456,3.955h1.441c.016-.07,1.488-6.077,1.516-6.189Z" transform="translate(-386.392 -484.55)" fill="#fff"/>
        <path id="패스_3" data-name="패스 3" d="M423.454,492.431v.968h1.665v-4.2c0-1.106-.313-2.13-2.568-2.13-1.791,0-2.746.667-2.77,1.927h1.784c0-.028,0-.055,0-.055.026-.436.077-1.343.971-1.343.644,0,.918.38.918,1.273v1.1l-.044,0c-.959.038-3.877.153-3.877,2.052a1.7,1.7,0,0,0,1.886,1.524A2.44,2.44,0,0,0,423.454,492.431Zm-1.353.294a.825.825,0,0,1-.845-.93c0-.736.722-1.173,2.148-1.3l.05,0V491C423.454,491.859,422.989,492.725,422.1,492.725Z" transform="translate(-398.844 -484.365)" fill="#fff"/>
        <path id="패스_4" data-name="패스 4" d="M438.011,490.673c.387,0,.772-.036,1.179-.075h.006v-.823a2.853,2.853,0,0,1-.738.079c-.707,0-.945-.271-.945-1.076v-3.767h1.946v-.672h-1.946V481.93l-1.664.911v1.5h-1.292v.672h1.292v3.966C435.849,490.389,436.676,490.673,438.011,490.673Z" transform="translate(-407.246 -481.494)" fill="#fff"/>
        <path id="패스_5" data-name="패스 5" d="M450.177,493.544a5.035,5.035,0,0,0,2.191-.422v-.563a4.16,4.16,0,0,1-1.3.259c-2.032,0-2.689-2.156-2.689-3.2v-.047H452.5v-.19c0-1.493-.979-2.316-2.757-2.316-2.012,0-3.032.992-3.032,2.948A3.2,3.2,0,0,0,450.177,493.544Zm-1.8-4.592c.06-.408.31-1.358,1.309-1.358,1.174,0,1.208,1.225,1.208,1.364V489h-2.523Z" transform="translate(-414.041 -484.365)" fill="#fff"/>
        <path id="패스_6" data-name="패스 6" d="M466.949,488.632v-1.55a2.853,2.853,0,0,0-2.305,1.708l-.062.1V487.22h-1.663v6.189h1.663v-2.766C464.581,489.21,465.249,488.644,466.949,488.632Z" transform="translate(-423.105 -484.375)" fill="#fff"/>
      </g>
      <path id="패스_7" data-name="패스 7" d="M397.266,466.238v4.021a35.621,35.621,0,0,1,16.636-8.142c-.065,0-.132,0-.2,0A34.662,34.662,0,0,0,397.266,466.238Z" transform="translate(-386.393 -462.113)" fill="#fff"/>
    </g>
    <g id="그룹_5" data-name="그룹 5" transform="translate(384.403 452.548)">
      <path id="패스_8" data-name="패스 8" d="M435.572,458.842v-3.834a39.3,39.3,0,0,0-36.2,4.626,35.6,35.6,0,0,1,15.51-3.569l.2,0a35.155,35.155,0,0,1,3.513.2q1.625-.151,3.29-.153A35.51,35.51,0,0,1,435.572,458.842Z" transform="translate(-399.375 -452.548)" fill="#fff"/>
    </g>
    <g id="그룹_6" data-name="그룹 6" transform="translate(386.686 456.967)">
      <path id="패스_9" data-name="패스 9" d="M404.555,468.874a31.242,31.242,0,0,1,29.768,1.8v-4.123a34.578,34.578,0,0,0-12.818-3.976c-1.14.106-2.274.268-3.394.486A34.92,34.92,0,0,0,404.555,468.874Z" transform="translate(-404.555 -462.573)" fill="#fff"/>
    </g>
  </g>
</svg>
